<svg xmlns="http://www.w3.org/2000/svg" xmlns:xlink="http://www.w3.org/1999/xlink" viewBox="0 0 700 500"><defs><clipPath id="freepik--clip-path--inject-38"><path d="M561.49,331.77H544.36v-1.52a5.21,5.21,0,0,1,5.49-5.21l6.71.37a5.21,5.21,0,0,1,4.93,5.2Z" style="fill:#2C98ED;stroke:#263238;stroke-linecap:round;stroke-linejoin:round;stroke-width:1.25903px"></path></clipPath><clipPath id="freepik--clip-path-2--inject-38"><path d="M552.28,309H455.61a1.71,1.71,0,0,1-1.73-1.94l6.84-64.26a2.2,2.2,0,0,1,2.14-1.93h96.67a1.7,1.7,0,0,1,1.73,1.93l-6.84,64.26A2.21,2.21,0,0,1,552.28,309Z" style="fill:#2C98ED;stroke:#263238;stroke-linecap:round;stroke-linejoin:round;stroke-width:1.25903px"></path></clipPath><clipPath id="freepik--clip-path-3--inject-38"><path d="M550.47,302.74H459.31a1.49,1.49,0,0,1-1.51-1.69l6-56.07a1.92,1.92,0,0,1,1.87-1.69H556.8a1.5,1.5,0,0,1,1.51,1.69l-6,56.07A1.93,1.93,0,0,1,550.47,302.74Z" style="fill:#2C98ED;stroke:#263238;stroke-linecap:round;stroke-linejoin:round;stroke-width:1.25903px"></path></clipPath><clipPath id="freepik--clip-path-4--inject-38"><rect x="510.89" y="331.77" width="64.58" height="9.74" style="fill:#2C98ED;stroke:#263238;stroke-linecap:round;stroke-linejoin:round;stroke-width:1.25903px"></rect></clipPath><clipPath id="freepik--clip-path-5--inject-38"><rect x="340.51" y="331.77" width="188.8" height="9.74" style="fill:#2C98ED;stroke:#263238;stroke-linecap:round;stroke-linejoin:round;stroke-width:1.25903px"></rect></clipPath><clipPath id="freepik--clip-path-6--inject-38"><rect x="460.29" y="327.76" width="53.9" height="4.01" style="fill:#2C98ED;stroke:#263238;stroke-linecap:round;stroke-linejoin:round;stroke-width:1.25903px"></rect></clipPath><clipPath id="freepik--clip-path-7--inject-38"><rect x="113.07" y="331.57" width="89.82" height="119.52" transform="translate(315.96 782.67) rotate(180)" style="fill:#2C98ED;stroke:#263238;stroke-linecap:round;stroke-linejoin:round;stroke-width:1.25903px"></rect></clipPath><clipPath id="freepik--clip-path-8--inject-38"><rect x="95.93" y="331.57" width="17.14" height="119.52" transform="translate(209 782.67) rotate(180)" style="fill:#2C98ED;stroke:#263238;stroke-linecap:round;stroke-linejoin:round;stroke-width:1.25903px"></rect></clipPath><clipPath id="freepik--clip-path-9--inject-38"><path d="M252.3,120.66a5.69,5.69,0,1,1-5.68-5.69A5.68,5.68,0,0,1,252.3,120.66Z" style="fill:none;stroke:#263238;stroke-linecap:round;stroke-linejoin:round;stroke-width:1.25903px"></path></clipPath><clipPath id="freepik--clip-path-10--inject-38"><circle cx="281.95" cy="120.66" r="5.69" style="fill:none;stroke:#263238;stroke-linecap:round;stroke-linejoin:round;stroke-width:1.25903px"></circle></clipPath><clipPath id="freepik--clip-path-11--inject-38"><rect x="233.38" y="132.62" width="271.6" height="153.59" rx="9.09" style="fill:#2C98ED;stroke:#263238;stroke-linecap:round;stroke-linejoin:round;stroke-width:1.25903px"></rect></clipPath><clipPath id="freepik--clip-path-12--inject-38"><rect x="327.17" y="138.91" width="83.14" height="141" rx="2.79" style="fill:#2C98ED;stroke:#263238;stroke-linecap:round;stroke-linejoin:round;stroke-width:1.25903px"></rect></clipPath><clipPath id="freepik--clip-path-13--inject-38"><path d="M238.61,271.6h26.12c.59,0,1.06-.25,1.06-.56v-27.1c0-.31-.47-.56-1.06-.56H238.61c-.58,0-1.06.25-1.06.56V271C237.55,271.35,238,271.6,238.61,271.6Z" style="fill:#2C98ED;stroke:#263238;stroke-linecap:round;stroke-linejoin:round;stroke-width:1.25903px"></path></clipPath><clipPath id="freepik--clip-path-14--inject-38"><path d="M248.68,205.84H274.8c.59,0,1.07-.25,1.07-.56v-27.1c0-.31-.48-.56-1.07-.56H248.68c-.58,0-1.06.25-1.06.56v27.1C247.62,205.59,248.1,205.84,248.68,205.84Z" style="fill:#2C98ED;stroke:#263238;stroke-linecap:round;stroke-linejoin:round;stroke-width:1.25903px"></path></clipPath><clipPath id="freepik--clip-path-15--inject-38"><path d="M281.38,173H307.5c.59,0,1.06-.25,1.06-.56V145.3c0-.31-.47-.56-1.06-.56H281.38c-.59,0-1.06.25-1.06.56v27.1C280.32,172.71,280.79,173,281.38,173Z" style="fill:#2C98ED;stroke:#263238;stroke-linecap:round;stroke-linejoin:round;stroke-width:1.25903px"></path></clipPath><clipPath id="freepik--clip-path-16--inject-38"><path d="M185.84,288.76l46.45-3.84-24.22,96.3-36.65,57.5L156.64,431s17.22-42.36,29.81-57.89c0,0,2.68-30.75,5.12-46.85C191.57,326.26,187,303.77,185.84,288.76Z" style="fill:#858585;stroke:#263238;stroke-linecap:round;stroke-linejoin:round;stroke-width:1.25903px"></path></clipPath><clipPath id="freepik--clip-path-17--inject-38"><path d="M167,422.71h0a63.66,63.66,0,0,0-7.1-2.83,43.75,43.75,0,0,0-6.33,12.45C162.12,437.63,167,422.71,167,422.71Z" style="fill:#2C98ED;stroke:#263238;stroke-linecap:round;stroke-linejoin:round;stroke-width:1.25903px"></path></clipPath><clipPath id="freepik--clip-path-18--inject-38"><path d="M269.59,428.54h0a63.52,63.52,0,0,0-6.75,3.57A43.67,43.67,0,0,0,268.23,445C277.79,441.93,269.59,428.54,269.59,428.54Z" style="fill:#2C98ED;stroke:#263238;stroke-linecap:round;stroke-linejoin:round;stroke-width:1.25903px"></path></clipPath><clipPath id="freepik--clip-path-19--inject-38"><path d="M174.7,185.51a30.33,30.33,0,0,0-6.92,15c-1.57,9.44-9,29.57-6.61,31.07s24.87,18,24.87,18l9.86-9.13-14-17.84,6.94-30.32Z" style="fill:#2C98ED;stroke:#263238;stroke-linecap:round;stroke-linejoin:round;stroke-width:1.25903px"></path></clipPath></defs><g id="freepik--background-simple--inject-38"><path d="M592.93,126.54C565.48,54.32,503.57,21,429.82,39.7,369.49,55,340.81,106,308.76,124.31c-46.49,26.63-116.46,16.47-177.14,70.44-38.48,34.22-34,112.66,2.19,169,28.6,44.47,101.44,88.41,168,47.69,90.7-55.54,58.1-136.1,98.88-163.76,45-30.53,96.54,8.68,163.73-24.45C591.13,210,608.39,167.21,592.93,126.54Z" style="fill:#2C98ED"></path><path d="M592.93,126.54C565.48,54.32,503.57,21,429.82,39.7,369.49,55,340.81,106,308.76,124.31c-46.49,26.63-116.46,16.47-177.14,70.44-38.48,34.22-34,112.66,2.19,169,28.6,44.47,101.44,88.41,168,47.69,90.7-55.54,58.1-136.1,98.88-163.76,45-30.53,96.54,8.68,163.73-24.45C591.13,210,608.39,167.21,592.93,126.54Z" style="fill:#fff;opacity:0.7000000000000001"></path></g><g id="freepik--Shadow--inject-38"><ellipse cx="228.69" cy="464.55" rx="91.8" ry="6.71" style="fill:#2C98ED"></ellipse></g><g id="freepik--Floor--inject-38"><line x1="87.13" y1="451.1" x2="607.81" y2="451.1" style="fill:none;stroke:#263238;stroke-linecap:round;stroke-linejoin:round;stroke-width:1.25903px"></line></g><g id="freepik--Desk--inject-38"><path d="M561.49,331.77H544.36v-1.52a5.21,5.21,0,0,1,5.49-5.21l6.71.37a5.21,5.21,0,0,1,4.93,5.2Z" style="fill:#2C98ED"></path><g style="clip-path:url(#freepik--clip-path--inject-38)"><path d="M561.49,331.77H544.36v-1.52a5.21,5.21,0,0,1,5.49-5.21l6.71.37a5.21,5.21,0,0,1,4.93,5.2Z" style="fill:#fff;opacity:0.8"></path></g><path d="M561.49,331.77H544.36v-1.52a5.21,5.21,0,0,1,5.49-5.21l6.71.37a5.21,5.21,0,0,1,4.93,5.2Z" style="fill:none;stroke:#263238;stroke-linecap:round;stroke-linejoin:round;stroke-width:1.25903px"></path><path d="M515.24,296.36a2.53,2.53,0,0,0-2.53-2.41H495.4a2.54,2.54,0,0,0-2.53,2.41L497,332.44h25.84Z" style="fill:#2C98ED;stroke:#263238;stroke-linecap:round;stroke-linejoin:round;stroke-width:1.25903px"></path><path d="M562.25,240.9H555.8L548.56,309H555a2.22,2.22,0,0,0,2.15-1.94L564,242.83A1.7,1.7,0,0,0,562.25,240.9Z" style="fill:#2C98ED;stroke:#263238;stroke-linecap:round;stroke-linejoin:round;stroke-width:1.25903px"></path><path d="M552.28,309H455.61a1.71,1.71,0,0,1-1.73-1.94l6.84-64.26a2.2,2.2,0,0,1,2.14-1.93h96.67a1.7,1.7,0,0,1,1.73,1.93l-6.84,64.26A2.21,2.21,0,0,1,552.28,309Z" style="fill:#2C98ED"></path><g style="clip-path:url(#freepik--clip-path-2--inject-38)"><path d="M552.28,309H455.61a1.71,1.71,0,0,1-1.73-1.94l6.84-64.26a2.2,2.2,0,0,1,2.14-1.93h96.67a1.7,1.7,0,0,1,1.73,1.93l-6.84,64.26A2.21,2.21,0,0,1,552.28,309Z" style="fill:#fff;opacity:0.4"></path></g><path d="M552.28,309H455.61a1.71,1.71,0,0,1-1.73-1.94l6.84-64.26a2.2,2.2,0,0,1,2.14-1.93h96.67a1.7,1.7,0,0,1,1.73,1.93l-6.84,64.26A2.21,2.21,0,0,1,552.28,309Z" style="fill:none;stroke:#263238;stroke-linecap:round;stroke-linejoin:round;stroke-width:1.25903px"></path><path d="M523.79,329.63H492a1.4,1.4,0,0,0-1.4,1.4h0a1.41,1.41,0,0,0,1.4,1.41h31.78a1.41,1.41,0,0,0,1.4-1.41h0A1.4,1.4,0,0,0,523.79,329.63Z" style="fill:#2C98ED;stroke:#263238;stroke-linecap:round;stroke-linejoin:round;stroke-width:1.25903px"></path><path d="M550.47,302.74H459.31a1.49,1.49,0,0,1-1.51-1.69l6-56.07a1.92,1.92,0,0,1,1.87-1.69H556.8a1.5,1.5,0,0,1,1.51,1.69l-6,56.07A1.93,1.93,0,0,1,550.47,302.74Z" style="fill:#2C98ED"></path><g style="clip-path:url(#freepik--clip-path-3--inject-38)"><path d="M550.47,302.74H459.31a1.49,1.49,0,0,1-1.51-1.69l6-56.07a1.92,1.92,0,0,1,1.87-1.69H556.8a1.5,1.5,0,0,1,1.51,1.69l-6,56.07A1.93,1.93,0,0,1,550.47,302.74Z" style="fill:#fff;opacity:0.8"></path></g><path d="M550.47,302.74H459.31a1.49,1.49,0,0,1-1.51-1.69l6-56.07a1.92,1.92,0,0,1,1.87-1.69H556.8a1.5,1.5,0,0,1,1.51,1.69l-6,56.07A1.93,1.93,0,0,1,550.47,302.74Z" style="fill:none;stroke:#263238;stroke-linecap:round;stroke-linejoin:round;stroke-width:1.25903px"></path><path d="M344.82,341.51h7.45a0,0,0,0,1,0,0V449.6a1.49,1.49,0,0,1-1.49,1.49h-4.46a1.49,1.49,0,0,1-1.49-1.49V341.51A0,0,0,0,1,344.82,341.51Z" style="fill:#2C98ED;stroke:#263238;stroke-linecap:round;stroke-linejoin:round;stroke-width:1.25903px"></path><rect x="510.89" y="331.77" width="64.58" height="9.74" style="fill:#2C98ED"></rect><g style="clip-path:url(#freepik--clip-path-4--inject-38)"><rect x="510.89" y="331.77" width="64.58" height="9.74" style="fill:#fff;opacity:0.4"></rect></g><rect x="510.89" y="331.77" width="64.58" height="9.74" style="fill:none;stroke:#263238;stroke-linecap:round;stroke-linejoin:round;stroke-width:1.25903px"></rect><path d="M391,341.51h7.45a0,0,0,0,1,0,0V449.6a1.49,1.49,0,0,1-1.49,1.49h-4.46A1.49,1.49,0,0,1,391,449.6V341.51A0,0,0,0,1,391,341.51Z" style="fill:#2C98ED;stroke:#263238;stroke-linecap:round;stroke-linejoin:round;stroke-width:1.25903px"></path><path d="M563.72,341.51h7.45a0,0,0,0,1,0,0V449.6a1.49,1.49,0,0,1-1.49,1.49h-4.46a1.49,1.49,0,0,1-1.49-1.49V341.51a0,0,0,0,1,0,0Z" style="fill:#2C98ED;stroke:#263238;stroke-linecap:round;stroke-linejoin:round;stroke-width:1.25903px"></path><rect x="340.51" y="331.77" width="188.8" height="9.74" style="fill:#2C98ED"></rect><g style="clip-path:url(#freepik--clip-path-5--inject-38)"><rect x="340.51" y="331.77" width="188.8" height="9.74" style="fill:#fff;opacity:0.7000000000000001"></rect></g><rect x="340.51" y="331.77" width="188.8" height="9.74" style="fill:none;stroke:#263238;stroke-linecap:round;stroke-linejoin:round;stroke-width:1.25903px"></rect><path d="M517.56,341.51H525a0,0,0,0,1,0,0V449.6a1.49,1.49,0,0,1-1.49,1.49H519a1.49,1.49,0,0,1-1.49-1.49V341.51A0,0,0,0,1,517.56,341.51Z" style="fill:#2C98ED;stroke:#263238;stroke-linecap:round;stroke-linejoin:round;stroke-width:1.25903px"></path><rect x="460.29" y="327.76" width="53.9" height="4.01" style="fill:#2C98ED"></rect><g style="clip-path:url(#freepik--clip-path-6--inject-38)"><rect x="460.29" y="327.76" width="53.9" height="4.01" style="fill:#fff;opacity:0.4"></rect></g><rect x="460.29" y="327.76" width="53.9" height="4.01" style="fill:none;stroke:#263238;stroke-linecap:round;stroke-linejoin:round;stroke-width:1.25903px"></rect></g><g id="freepik--Shelf--inject-38"><rect x="113.07" y="331.57" width="89.82" height="119.52" transform="translate(315.96 782.67) rotate(180)" style="fill:#2C98ED"></rect><g style="clip-path:url(#freepik--clip-path-7--inject-38)"><rect x="113.07" y="331.57" width="89.82" height="119.52" transform="translate(315.96 782.67) rotate(180)" style="fill:#fff;opacity:0.7000000000000001"></rect></g><rect x="113.07" y="331.57" width="89.82" height="119.52" transform="translate(315.96 782.67) rotate(180)" style="fill:none;stroke:#263238;stroke-linecap:round;stroke-linejoin:round;stroke-width:1.25903px"></rect><rect x="95.93" y="331.57" width="17.14" height="119.52" transform="translate(209 782.67) rotate(180)" style="fill:#2C98ED"></rect><g style="clip-path:url(#freepik--clip-path-8--inject-38)"><rect x="95.93" y="331.57" width="17.14" height="119.52" transform="translate(209 782.67) rotate(180)" style="fill:#fff;opacity:0.30000000000000004"></rect></g><rect x="95.93" y="331.57" width="17.14" height="119.52" transform="translate(209 782.67) rotate(180)" style="fill:none;stroke:#263238;stroke-linecap:round;stroke-linejoin:round;stroke-width:1.25903px"></rect><rect x="118.89" y="340.44" width="77.7" height="29.03" transform="translate(315.49 709.91) rotate(180)" style="fill:#fff;stroke:#263238;stroke-linecap:round;stroke-linejoin:round;stroke-width:1.25903px"></rect><rect x="118.89" y="372.64" width="77.7" height="29.03" transform="translate(315.49 774.3) rotate(180)" style="fill:#fff;stroke:#263238;stroke-linecap:round;stroke-linejoin:round;stroke-width:1.25903px"></rect><rect x="118.89" y="404.84" width="77.7" height="29.03" transform="translate(315.49 838.7) rotate(180)" style="fill:#fff;stroke:#263238;stroke-linecap:round;stroke-linejoin:round;stroke-width:1.25903px"></rect><path d="M154.51,355a3.24,3.24,0,1,0,3.24-3.24A3.24,3.24,0,0,0,154.51,355Z" style="fill:#2C98ED;stroke:#263238;stroke-linecap:round;stroke-linejoin:round;stroke-width:1.25903px"></path><path d="M154.51,387.15a3.24,3.24,0,1,0,3.24-3.23A3.24,3.24,0,0,0,154.51,387.15Z" style="fill:#2C98ED;stroke:#263238;stroke-linecap:round;stroke-linejoin:round;stroke-width:1.25903px"></path><path d="M154.51,419.35a3.24,3.24,0,1,0,3.24-3.24A3.24,3.24,0,0,0,154.51,419.35Z" style="fill:#2C98ED;stroke:#263238;stroke-linecap:round;stroke-linejoin:round;stroke-width:1.25903px"></path></g><g id="freepik--Interface--inject-38"><path d="M502.18,108.7H472V293.76h30.18a16.64,16.64,0,0,0,16.65-16.64V125.34A16.64,16.64,0,0,0,502.18,108.7Z" style="fill:#263238;stroke:#263238;stroke-linecap:round;stroke-linejoin:round;stroke-width:1.25903px"></path><rect x="225.82" y="108.7" width="286.71" height="185.07" rx="16.64" style="fill:#2C98ED;stroke:#263238;stroke-linecap:round;stroke-linejoin:round;stroke-width:1.25903px"></rect><rect x="483.08" y="114.97" width="11.37" height="11.37" rx="4.4" style="fill:#999;stroke:#263238;stroke-linecap:round;stroke-linejoin:round;stroke-width:1.25903px"></rect><g style="clip-path:url(#freepik--clip-path-9--inject-38)"><path d="M252.3,120.66a5.69,5.69,0,1,1-5.68-5.69A5.68,5.68,0,0,1,252.3,120.66Z" style="opacity:0.5"></path></g><path d="M252.3,120.66a5.69,5.69,0,1,1-5.68-5.69A5.68,5.68,0,0,1,252.3,120.66Z" style="fill:none;stroke:#263238;stroke-linecap:round;stroke-linejoin:round;stroke-width:1.25903px"></path><g style="clip-path:url(#freepik--clip-path-10--inject-38)"><circle cx="281.95" cy="120.66" r="5.69" style="fill:#fff;stroke:#263238;stroke-linecap:round;stroke-linejoin:round;stroke-width:1.25903px;opacity:0.5"></circle></g><circle cx="281.95" cy="120.66" r="5.69" style="fill:none;stroke:#263238;stroke-linecap:round;stroke-linejoin:round;stroke-width:1.25903px"></circle><circle cx="264.28" cy="120.66" r="5.69" style="fill:none;stroke:#263238;stroke-linecap:round;stroke-linejoin:round;stroke-width:1.25903px"></circle><rect x="233.38" y="132.62" width="271.6" height="153.59" rx="9.09" style="fill:#2C98ED"></rect><g style="clip-path:url(#freepik--clip-path-11--inject-38)"><rect x="233.38" y="132.62" width="271.6" height="153.59" rx="9.09" style="opacity:0.30000000000000004"></rect></g><rect x="233.38" y="132.62" width="271.6" height="153.59" rx="9.09" style="fill:none;stroke:#263238;stroke-linecap:round;stroke-linejoin:round;stroke-width:1.25903px"></rect><rect x="239.67" y="138.91" width="74.32" height="141" rx="2.79" style="fill:#999;stroke:#263238;stroke-linecap:round;stroke-linejoin:round;stroke-width:1.25903px"></rect><rect x="327.17" y="138.91" width="83.14" height="141" rx="2.79" style="fill:#2C98ED"></rect><g style="clip-path:url(#freepik--clip-path-12--inject-38)"><rect x="327.17" y="138.91" width="83.14" height="141" rx="2.79" style="fill:#fff;opacity:0.8"></rect></g><rect x="327.17" y="138.91" width="83.14" height="141" rx="2.79" style="fill:none;stroke:#263238;stroke-linecap:round;stroke-linejoin:round;stroke-width:1.25903px"></rect><path d="M491.91,138.91H429.22a2.55,2.55,0,0,0-2.54,2.55v7.68h67.77v-7.68A2.55,2.55,0,0,0,491.91,138.91Z" style="fill:#2C98ED;stroke:#263238;stroke-linecap:round;stroke-linejoin:round;stroke-width:1.25903px"></path><line x1="485.9" y1="142" x2="491.94" y2="142" style="fill:none;stroke:#263238;stroke-linecap:round;stroke-linejoin:round;stroke-width:1.25903px"></line><line x1="485.9" y1="144.02" x2="491.94" y2="144.02" style="fill:none;stroke:#263238;stroke-linecap:round;stroke-linejoin:round;stroke-width:1.25903px"></line><line x1="491.94" y1="146.03" x2="485.9" y2="146.03" style="fill:none;stroke:#263238;stroke-linecap:round;stroke-linejoin:round;stroke-width:1.25903px"></line><path d="M460.57,149.14,459,142.77a5.08,5.08,0,0,0-4.93-3.86H429.22a2.55,2.55,0,0,0-2.54,2.55v38.37a2.54,2.54,0,0,0,2.54,2.54h62.69a2.54,2.54,0,0,0,2.54-2.54V149.14Z" style="fill:#999;stroke:#263238;stroke-linecap:round;stroke-linejoin:round;stroke-width:1.25903px"></path><path d="M238.61,271.6h26.12c.59,0,1.06-.25,1.06-.56v-27.1c0-.31-.47-.56-1.06-.56H238.61c-.58,0-1.06.25-1.06.56V271C237.55,271.35,238,271.6,238.61,271.6Z" style="fill:#2C98ED"></path><g style="clip-path:url(#freepik--clip-path-13--inject-38)"><path d="M238.61,271.6h26.12c.59,0,1.06-.25,1.06-.56v-27.1c0-.31-.47-.56-1.06-.56H238.61c-.58,0-1.06.25-1.06.56V271C237.55,271.35,238,271.6,238.61,271.6Z" style="opacity:0.30000000000000004"></path></g><path d="M238.61,271.6h26.12c.59,0,1.06-.25,1.06-.56v-27.1c0-.31-.47-.56-1.06-.56H238.61c-.58,0-1.06.25-1.06.56V271C237.55,271.35,238,271.6,238.61,271.6Z" style="fill:none;stroke:#263238;stroke-linecap:round;stroke-linejoin:round;stroke-width:1.25903px"></path><path d="M271.31,271.6h26.12c.58,0,1.06-.25,1.06-.56v-27.1c0-.31-.48-.56-1.06-.56H271.31c-.59,0-1.06.25-1.06.56V271C270.25,271.35,270.72,271.6,271.31,271.6Z" style="fill:#2C98ED;stroke:#263238;stroke-linecap:round;stroke-linejoin:round;stroke-width:1.25903px"></path><path d="M251.2,238.72h26.12c.59,0,1.06-.25,1.06-.56v-27.1c0-.31-.47-.56-1.06-.56H251.2c-.58,0-1.06.25-1.06.56v27.1C250.14,238.47,250.62,238.72,251.2,238.72Z" style="fill:#2C98ED;stroke:#263238;stroke-linecap:round;stroke-linejoin:round;stroke-width:1.25903px"></path><path d="M283.9,238.72H310c.58,0,1.06-.25,1.06-.56v-27.1c0-.31-.48-.56-1.06-.56H283.9c-.59,0-1.06.25-1.06.56v27.1C282.84,238.47,283.31,238.72,283.9,238.72Z" style="fill:#2C98ED;stroke:#263238;stroke-linecap:round;stroke-linejoin:round;stroke-width:1.25903px"></path><path d="M248.68,205.84H274.8c.59,0,1.07-.25,1.07-.56v-27.1c0-.31-.48-.56-1.07-.56H248.68c-.58,0-1.06.25-1.06.56v27.1C247.62,205.59,248.1,205.84,248.68,205.84Z" style="fill:#2C98ED"></path><g style="clip-path:url(#freepik--clip-path-14--inject-38)"><path d="M248.68,205.84H274.8c.59,0,1.07-.25,1.07-.56v-27.1c0-.31-.48-.56-1.07-.56H248.68c-.58,0-1.06.25-1.06.56v27.1C247.62,205.59,248.1,205.84,248.68,205.84Z" style="fill:#fff;opacity:0.5"></path></g><path d="M248.68,205.84H274.8c.59,0,1.07-.25,1.07-.56v-27.1c0-.31-.48-.56-1.07-.56H248.68c-.58,0-1.06.25-1.06.56v27.1C247.62,205.59,248.1,205.84,248.68,205.84Z" style="fill:none;stroke:#263238;stroke-linecap:round;stroke-linejoin:round;stroke-width:1.25903px"></path><path d="M281.38,205.84H307.5c.59,0,1.06-.25,1.06-.56v-27.1c0-.31-.47-.56-1.06-.56H281.38c-.59,0-1.06.25-1.06.56v27.1C280.32,205.59,280.79,205.84,281.38,205.84Z" style="fill:#2C98ED;stroke:#263238;stroke-linecap:round;stroke-linejoin:round;stroke-width:1.25903px"></path><path d="M248.68,173H274.8c.59,0,1.07-.25,1.07-.56V145.3c0-.31-.48-.56-1.07-.56H248.68c-.58,0-1.06.25-1.06.56v27.1C247.62,172.71,248.1,173,248.68,173Z" style="fill:#2C98ED;stroke:#263238;stroke-linecap:round;stroke-linejoin:round;stroke-width:1.25903px"></path><path d="M281.38,173H307.5c.59,0,1.06-.25,1.06-.56V145.3c0-.31-.47-.56-1.06-.56H281.38c-.59,0-1.06.25-1.06.56v27.1C280.32,172.71,280.79,173,281.38,173Z" style="fill:#2C98ED"></path><g style="clip-path:url(#freepik--clip-path-15--inject-38)"><path d="M281.38,173H307.5c.59,0,1.06-.25,1.06-.56V145.3c0-.31-.47-.56-1.06-.56H281.38c-.59,0-1.06.25-1.06.56v27.1C280.32,172.71,280.79,173,281.38,173Z" style="fill:#fff;opacity:0.7000000000000001"></path></g><path d="M281.38,173H307.5c.59,0,1.06-.25,1.06-.56V145.3c0-.31-.47-.56-1.06-.56H281.38c-.59,0-1.06.25-1.06.56v27.1C280.32,172.71,280.79,173,281.38,173Z" style="fill:none;stroke:#263238;stroke-linecap:round;stroke-linejoin:round;stroke-width:1.25903px"></path><path d="M486.37,247H423.69a2.57,2.57,0,0,0-2.55,2.55V288a2.55,2.55,0,0,0,2.55,2.55h62.68a2.56,2.56,0,0,0,2.55-2.55V249.58A2.56,2.56,0,0,0,486.37,247Z" style="fill:#263238;stroke:#263238;stroke-linecap:round;stroke-linejoin:round;stroke-width:1.25903px"></path><path d="M482.15,245.78H419.47a2.55,2.55,0,0,0-2.55,2.54V256H484.7v-7.68A2.55,2.55,0,0,0,482.15,245.78Z" style="fill:#2C98ED;stroke:#263238;stroke-linecap:round;stroke-linejoin:round;stroke-width:1.25903px"></path><line x1="476.14" y1="248.88" x2="482.18" y2="248.88" style="fill:none;stroke:#263238;stroke-linecap:round;stroke-linejoin:round;stroke-width:1.25903px"></line><line x1="476.14" y1="250.89" x2="482.18" y2="250.89" style="fill:none;stroke:#263238;stroke-linecap:round;stroke-linejoin:round;stroke-width:1.25903px"></line><line x1="482.18" y1="252.9" x2="476.14" y2="252.9" style="fill:none;stroke:#263238;stroke-linecap:round;stroke-linejoin:round;stroke-width:1.25903px"></line><path d="M450.81,256l-1.56-6.36a5.08,5.08,0,0,0-4.93-3.86H419.47a2.55,2.55,0,0,0-2.55,2.54v38.37a2.56,2.56,0,0,0,2.55,2.55h62.68a2.55,2.55,0,0,0,2.55-2.55V256Z" style="fill:#999;stroke:#263238;stroke-linecap:round;stroke-linejoin:round;stroke-width:1.25903px"></path><path d="M483.84,188.92H421.15A2.55,2.55,0,0,0,419,190a2.59,2.59,0,0,0-.43,1.43v38.36a2.55,2.55,0,0,0,2.54,2.55h62.69a2.55,2.55,0,0,0,2.54-2.55V191.47A2.55,2.55,0,0,0,483.84,188.92Z" style="fill:#263238;stroke:#263238;stroke-linecap:round;stroke-linejoin:round;stroke-width:1.25903px"></path><path d="M482.15,187.08H419.47a2.55,2.55,0,0,0-2.55,2.54v7.68H484.7v-7.68A2.55,2.55,0,0,0,482.15,187.08Z" style="fill:#2C98ED;stroke:#263238;stroke-linecap:round;stroke-linejoin:round;stroke-width:1.25903px"></path><line x1="476.14" y1="190.18" x2="482.18" y2="190.18" style="fill:none;stroke:#263238;stroke-linecap:round;stroke-linejoin:round;stroke-width:1.25903px"></line><line x1="476.14" y1="192.19" x2="482.18" y2="192.19" style="fill:none;stroke:#263238;stroke-linecap:round;stroke-linejoin:round;stroke-width:1.25903px"></line><line x1="482.18" y1="194.2" x2="476.14" y2="194.2" style="fill:none;stroke:#263238;stroke-linecap:round;stroke-linejoin:round;stroke-width:1.25903px"></line><path d="M450.81,197.3l-1.56-6.36a5.08,5.08,0,0,0-4.93-3.86H419.47a2.55,2.55,0,0,0-2.55,2.54V228a2.55,2.55,0,0,0,2.55,2.55h62.68A2.55,2.55,0,0,0,484.7,228V197.3Z" style="fill:#999;stroke:#263238;stroke-linecap:round;stroke-linejoin:round;stroke-width:1.25903px"></path><path d="M247.15,305.3h26.12c.59,0,1.06-.25,1.06-.56v-27.1c0-.31-.47-.56-1.06-.56H247.15c-.58,0-1.06.25-1.06.56v27.1C246.09,305.05,246.57,305.3,247.15,305.3Z" style="fill:#2C98ED;stroke:#263238;stroke-linecap:round;stroke-linejoin:round;stroke-width:1.25903px"></path><path d="M448.27,279.58H385.58a2.55,2.55,0,0,0-2.55,2.55v7.67h67.78v-7.67A2.55,2.55,0,0,0,448.27,279.58Z" style="fill:#2C98ED;stroke:#263238;stroke-linecap:round;stroke-linejoin:round;stroke-width:1.25903px"></path><line x1="442.25" y1="282.68" x2="448.29" y2="282.68" style="fill:none;stroke:#263238;stroke-linecap:round;stroke-linejoin:round;stroke-width:1.25903px"></line><line x1="442.25" y1="284.69" x2="448.29" y2="284.69" style="fill:none;stroke:#263238;stroke-linecap:round;stroke-linejoin:round;stroke-width:1.25903px"></line><line x1="448.29" y1="286.7" x2="442.25" y2="286.7" style="fill:none;stroke:#263238;stroke-linecap:round;stroke-linejoin:round;stroke-width:1.25903px"></line><path d="M416.92,289.8l-1.56-6.36a5.08,5.08,0,0,0-4.93-3.86H385.58a2.55,2.55,0,0,0-2.55,2.55v38.36a2.55,2.55,0,0,0,2.55,2.55h62.69a2.55,2.55,0,0,0,2.54-2.55V289.8Z" style="fill:#999;stroke:#263238;stroke-linecap:round;stroke-linejoin:round;stroke-width:1.25903px"></path><line x1="494.45" y1="101.53" x2="499.17" y2="101.53" style="fill:none;stroke:#263238;stroke-linecap:round;stroke-linejoin:round;stroke-width:1.25903px"></line><line x1="476.14" y1="101.53" x2="488.92" y2="101.53" style="fill:none;stroke:#263238;stroke-linecap:round;stroke-linejoin:round;stroke-width:1.25903px"></line><line x1="338.66" y1="101.53" x2="464.98" y2="101.53" style="fill:none;stroke:#263238;stroke-linecap:round;stroke-linejoin:round;stroke-width:1.25903px"></line><line x1="324.39" y1="101.53" x2="331.94" y2="101.53" style="fill:none;stroke:#263238;stroke-linecap:round;stroke-linejoin:round;stroke-width:1.25903px"></line></g><g id="freepik--Gear--inject-38"><path d="M395.7,254.8c.08-1,.13-2,.13-3s-.05-2-.13-3l-9.3-1.2a30.41,30.41,0,0,0-3.27-10.1L390,231a40.3,40.3,0,0,0-3.58-4.91l-8.24,4.49a30.73,30.73,0,0,0-8.58-6.25l1.73-9.22a39,39,0,0,0-5.78-1.87l-4,8.48a30.17,30.17,0,0,0-10.61,0l-4-8.48a39,39,0,0,0-5.78,1.87l1.73,9.22a30.73,30.73,0,0,0-8.58,6.25L326,226.07A39.19,39.19,0,0,0,322.4,231l6.82,6.44a30.2,30.2,0,0,0-3.28,10.1l-9.3,1.2c-.08,1-.13,2-.13,3s.05,2,.13,3l9.3,1.21a30.22,30.22,0,0,0,3.28,10.09l-6.82,6.45a39.19,39.19,0,0,0,3.57,4.91l8.24-4.5a30.53,30.53,0,0,0,8.58,6.25l-1.73,9.22a39,39,0,0,0,5.78,1.88l4-8.49a30.17,30.17,0,0,0,10.61,0l4,8.49a39,39,0,0,0,5.78-1.88l-1.73-9.22a30.53,30.53,0,0,0,8.58-6.25l8.24,4.5a40.3,40.3,0,0,0,3.58-4.91l-6.82-6.45A30.43,30.43,0,0,0,386.4,256Zm-39.53-25.7A22.61,22.61,0,0,1,374.11,238l-14.58,6.73a7.81,7.81,0,0,0-6.72,0L338.23,238A22.63,22.63,0,0,1,356.17,229.1Zm-22.66,22.66a22.59,22.59,0,0,1,1.67-8.53l13.19,9.3a7.83,7.83,0,0,0,3.28,5.63l1.46,16A22.64,22.64,0,0,1,333.51,251.76Zm25.72,22.43,1.46-16a7.79,7.79,0,0,0,3.28-5.63l13.19-9.3a22.63,22.63,0,0,1-17.93,31Z" style="fill:#263238;stroke:#263238;stroke-linecap:round;stroke-linejoin:round;stroke-width:1.25903px"></path><path d="M359.47,251.76a3.3,3.3,0,1,1-3.3-3.29A3.3,3.3,0,0,1,359.47,251.76Z" style="fill:#fff;stroke:#263238;stroke-linecap:round;stroke-linejoin:round;stroke-width:1.25903px"></path><path d="M395.57,186.43c.06-.72.09-1.44.09-2.18s0-1.45-.09-2.17l-6.65-.86a21.64,21.64,0,0,0-2.34-7.22l4.88-4.61a28.66,28.66,0,0,0-2.56-3.51L383,169.1a21.73,21.73,0,0,0-6.14-4.47l1.24-6.6A28.83,28.83,0,0,0,374,156.7l-2.88,6.06a21.35,21.35,0,0,0-7.59,0l-2.87-6.06A28.56,28.56,0,0,0,356.5,158l1.24,6.6a21.68,21.68,0,0,0-6.13,4.47l-5.89-3.22a27.64,27.64,0,0,0-2.56,3.51L348,174a21.87,21.87,0,0,0-2.34,7.22l-6.65.86c-.05.72-.09,1.44-.09,2.17s0,1.46.09,2.18l6.65.86a21.87,21.87,0,0,0,2.34,7.22l-4.87,4.61a28.27,28.27,0,0,0,2.56,3.5l5.89-3.21a22.07,22.07,0,0,0,6.13,4.47l-1.24,6.59a27.41,27.41,0,0,0,4.14,1.34l2.87-6.06a22,22,0,0,0,7.59,0l2.88,6.06a27.66,27.66,0,0,0,4.13-1.34l-1.24-6.59a22.12,22.12,0,0,0,6.14-4.47l5.89,3.21a29.33,29.33,0,0,0,2.56-3.5l-4.88-4.61a21.64,21.64,0,0,0,2.34-7.22Zm-28.26-18.38a16.16,16.16,0,0,1,12.82,6.33l-10.42,4.81a5.6,5.6,0,0,0-4.8,0l-10.43-4.81A16.17,16.17,0,0,1,367.31,168.05Zm-16.21,16.2a16.1,16.1,0,0,1,1.2-6.1l9.43,6.65a5.56,5.56,0,0,0,2.35,4l1,11.46A16.2,16.2,0,0,1,351.1,184.25Zm18.39,16,1.05-11.46a5.62,5.62,0,0,0,2.35-4l9.42-6.65a16.17,16.17,0,0,1-12.82,22.14Z" style="fill:#757575;stroke:#263238;stroke-linecap:round;stroke-linejoin:round;stroke-width:1.25903px"></path><circle cx="367.31" cy="184.25" r="2.36" style="fill:#fff;stroke:#263238;stroke-linecap:round;stroke-linejoin:round;stroke-width:1.25903px"></circle><path d="M323.07,281.23c0-.48.07-1,.07-1.44s0-1-.07-1.45l-4.43-.58a14.31,14.31,0,0,0-1.56-4.81l3.25-3.07a18.9,18.9,0,0,0-1.7-2.34l-3.93,2.14a14.73,14.73,0,0,0-4.09-3l.82-4.39a18.05,18.05,0,0,0-2.75-.9l-1.92,4a14,14,0,0,0-2.53-.23,14.17,14.17,0,0,0-2.53.23l-1.91-4a18.55,18.55,0,0,0-2.76.9l.83,4.39a14.59,14.59,0,0,0-4.09,3l-3.93-2.14a17.92,17.92,0,0,0-1.7,2.34l3.25,3.07a14.32,14.32,0,0,0-1.57,4.81l-4.43.58c0,.48-.06,1-.06,1.45s0,1,.06,1.44l4.43.58a14.32,14.32,0,0,0,1.57,4.81l-3.26,3.07a19,19,0,0,0,1.71,2.34l3.93-2.14a14.39,14.39,0,0,0,4.09,3l-.83,4.39a18.55,18.55,0,0,0,2.76.9l1.91-4.05a14.17,14.17,0,0,0,2.53.23,14,14,0,0,0,2.53-.23l1.92,4.05a18.05,18.05,0,0,0,2.75-.9l-.82-4.39a14.53,14.53,0,0,0,4.09-3l3.93,2.14a18.9,18.9,0,0,0,1.7-2.34l-3.25-3.07a14.31,14.31,0,0,0,1.56-4.81ZM304.23,269a10.76,10.76,0,0,1,8.55,4.22l-6.95,3.21a3.68,3.68,0,0,0-1.6-.36,3.75,3.75,0,0,0-1.6.36l-6.95-3.21A10.79,10.79,0,0,1,304.23,269Zm-10.8,10.81a10.78,10.78,0,0,1,.8-4.07l6.28,4.43a3.76,3.76,0,0,0,1.57,2.69l.7,7.64A10.8,10.8,0,0,1,293.43,279.79Zm12.26,10.69.7-7.64a3.75,3.75,0,0,0,1.56-2.69l6.29-4.43a10.8,10.8,0,0,1-8.55,14.76Z" style="fill:#fff;stroke:#263238;stroke-linecap:round;stroke-linejoin:round;stroke-width:1.25903px"></path><path d="M305.8,279.79a1.57,1.57,0,1,1-1.57-1.57A1.57,1.57,0,0,1,305.8,279.79Z" style="fill:none;stroke:#263238;stroke-linecap:round;stroke-linejoin:round;stroke-width:1.25903px"></path></g><g id="freepik--Character--inject-38"><path d="M185.84,288.76l46.45-3.84-24.22,96.3-36.65,57.5L156.64,431s17.22-42.36,29.81-57.89c0,0,2.68-30.75,5.12-46.85C191.57,326.26,187,303.77,185.84,288.76Z" style="fill:#858585"></path><g style="clip-path:url(#freepik--clip-path-16--inject-38)"><path d="M218.11,286.09,198,287.75s-1.6,20.83,13.82,36.68L219,337.74l7.15-28.44Z" style="fill:#263238;stroke:#263238;stroke-linecap:round;stroke-linejoin:round;stroke-width:1.25903px"></path></g><path d="M185.84,288.76l46.45-3.84-24.22,96.3-36.65,57.5L156.64,431s17.22-42.36,29.81-57.89c0,0,2.68-30.75,5.12-46.85C191.57,326.26,187,303.77,185.84,288.76Z" style="fill:none;stroke:#263238;stroke-linecap:round;stroke-linejoin:round;stroke-width:1.25903px"></path><path d="M186,380.05a10.52,10.52,0,0,0-2.37,1.77" style="fill:none;stroke:#263238;stroke-linecap:round;stroke-linejoin:round;stroke-width:1.25903px"></path><path d="M189.6,372.69s9.06-1.58,10.93,4.72c1.47,4.93-5.13.29-11.65,1.62" style="fill:none;stroke:#263238;stroke-linecap:round;stroke-linejoin:round;stroke-width:1.25903px"></path><path d="M200.54,288.69l37.12-5.39,24.22,76.14L282.14,428l-16.66,6.5s-19.62-42.42-24.14-65.53c0,0-18.11-30.84-24.54-45.65A44.73,44.73,0,0,1,200.54,288.69Z" style="fill:#999;stroke:#263238;stroke-linecap:round;stroke-linejoin:round;stroke-width:1.25903px"></path><path d="M234.83,322.71a9.65,9.65,0,0,1,4.5,1.72" style="fill:none;stroke:#263238;stroke-linecap:round;stroke-linejoin:round;stroke-width:1.25903px"></path><path d="M231.36,313.93c-2.68,2.27-13.43,3.17-10.91,7.56,1.5,2.61,5.68,1.51,10.15,1.18" style="fill:none;stroke:#263238;stroke-linecap:round;stroke-linejoin:round;stroke-width:1.25903px"></path><path d="M243.82,367.34s5.48-3.47,9.89,0" style="fill:none;stroke:#263238;stroke-linecap:round;stroke-linejoin:round;stroke-width:1.25903px"></path><path d="M176.17,461.42l-31.94-18.1.88-2.09,1.27.38s2.07-3,7.21-9.28a43.75,43.75,0,0,1,6.33-12.45s20.27,6.43,17,14.07l-4.33,7.55a102.69,102.69,0,0,0,6.5,9.69s4.76,3.06,6,3.32a4,4,0,0,1,3.25,5.08l1.23.26-.78,2.18Z" style="fill:#2C98ED;stroke:#263238;stroke-linecap:round;stroke-linejoin:round;stroke-width:1.25903px"></path><path d="M167,422.71h0a63.66,63.66,0,0,0-7.1-2.83,43.75,43.75,0,0,0-6.33,12.45C162.12,437.63,167,422.71,167,422.71Z" style="fill:#2C98ED"></path><g style="clip-path:url(#freepik--clip-path-17--inject-38)"><path d="M167,422.71h0a63.66,63.66,0,0,0-7.1-2.83,43.75,43.75,0,0,0-6.33,12.45C162.12,437.63,167,422.71,167,422.71Z" style="opacity:0.5"></path></g><path d="M167,422.71h0a63.66,63.66,0,0,0-7.1-2.83,43.75,43.75,0,0,0-6.33,12.45C162.12,437.63,167,422.71,167,422.71Z" style="fill:none;stroke:#263238;stroke-linecap:round;stroke-linejoin:round;stroke-width:1.25903px"></path><path d="M173.71,443.21a5.1,5.1,0,0,1-4.71,2.2" style="fill:none;stroke:#263238;stroke-linecap:round;stroke-linejoin:round;stroke-width:1.25903px"></path><path d="M175.52,445.93s-.47,2.19-3.9,3.15" style="fill:none;stroke:#263238;stroke-linecap:round;stroke-linejoin:round;stroke-width:1.25903px"></path><path d="M177.35,448.67s.61,2.14-3.08,4.12" style="fill:none;stroke:#263238;stroke-linecap:round;stroke-linejoin:round;stroke-width:1.25903px"></path><line x1="179.84" y1="458.8" x2="186.04" y2="459.25" style="fill:none;stroke:#263238;stroke-linecap:round;stroke-linejoin:round;stroke-width:1.25903px"></line><polyline points="152.25 444.95 176.31 458.54 178.48 455.78" style="fill:none;stroke:#263238;stroke-linecap:round;stroke-linejoin:round;stroke-width:1.25903px"></polyline><line x1="148.58" y1="442.88" x2="150.24" y2="443.82" style="fill:none;stroke:#263238;stroke-linecap:round;stroke-linejoin:round;stroke-width:1.25903px"></line><path d="M262.84,432.11s18-11.28,21.76-3.87l2.94,8.19s14.48,2.2,18.89,1.25a4,4,0,0,1,5,3.31l1.23-.26.18,2.31-42.33,16.21-1-2,1.11-.72s-.91-3.5-2.4-11.51A43.67,43.67,0,0,1,262.84,432.11Z" style="fill:#2C98ED;stroke:#263238;stroke-linecap:round;stroke-linejoin:round;stroke-width:1.25903px"></path><path d="M269.59,428.54h0a63.52,63.52,0,0,0-6.75,3.57A43.67,43.67,0,0,0,268.23,445C277.79,441.93,269.59,428.54,269.59,428.54Z" style="fill:#2C98ED"></path><g style="clip-path:url(#freepik--clip-path-18--inject-38)"><path d="M269.59,428.54h0a63.52,63.52,0,0,0-6.75,3.57A43.67,43.67,0,0,0,268.23,445C277.79,441.93,269.59,428.54,269.59,428.54Z" style="opacity:0.5"></path></g><path d="M269.59,428.54h0a63.52,63.52,0,0,0-6.75,3.57A43.67,43.67,0,0,0,268.23,445C277.79,441.93,269.59,428.54,269.59,428.54Z" style="fill:none;stroke:#263238;stroke-linecap:round;stroke-linejoin:round;stroke-width:1.25903px"></path><line x1="307.76" y1="442.48" x2="309.74" y2="441.72" style="fill:none;stroke:#263238;stroke-linecap:round;stroke-linejoin:round;stroke-width:1.25903px"></line><line x1="280.68" y1="452.84" x2="305.25" y2="443.44" style="fill:none;stroke:#263238;stroke-linecap:round;stroke-linejoin:round;stroke-width:1.25903px"></line><line x1="272.36" y1="456.02" x2="275.87" y2="454.68" style="fill:none;stroke:#263238;stroke-linecap:round;stroke-linejoin:round;stroke-width:1.25903px"></line><path d="M289.55,436.71a5.09,5.09,0,0,1-1.38,5" style="fill:none;stroke:#263238;stroke-linecap:round;stroke-linejoin:round;stroke-width:1.25903px"></path><path d="M292.79,437.09s1.36,1.78-.12,5" style="fill:none;stroke:#263238;stroke-linecap:round;stroke-linejoin:round;stroke-width:1.25903px"></path><path d="M296.07,437.47s2,.92,1.14,5" style="fill:none;stroke:#263238;stroke-linecap:round;stroke-linejoin:round;stroke-width:1.25903px"></path><path d="M174.7,185.51a30.33,30.33,0,0,0-6.92,15c-1.57,9.44-9,29.57-6.61,31.07s24.87,18,24.87,18l9.86-9.13-14-17.84,6.94-30.32Z" style="fill:#2C98ED"></path><g style="clip-path:url(#freepik--clip-path-19--inject-38)"><path d="M174.7,185.51a30.33,30.33,0,0,0-6.92,15c-1.57,9.44-9,29.57-6.61,31.07s24.87,18,24.87,18l9.86-9.13-14-17.84,6.94-30.32Z" style="opacity:0.30000000000000004"></path></g><path d="M174.7,185.51a30.33,30.33,0,0,0-6.92,15c-1.57,9.44-9,29.57-6.61,31.07s24.87,18,24.87,18l9.86-9.13-14-17.84,6.94-30.32Z" style="fill:none;stroke:#263238;stroke-linecap:round;stroke-linejoin:round;stroke-width:1.25903px"></path><path d="M165.21,227.61A11.53,11.53,0,0,1,176.74,225" style="fill:none;stroke:#263238;stroke-linecap:round;stroke-linejoin:round;stroke-width:1.25903px"></path><path d="M144.62,272.55a21,21,0,0,0,34.9-10.89l161.9-55.87a21,21,0,0,0,34.19-12.95v-2.52L360,195.71l-8.16-7.09,1.75-9,15.61-5.38v-2.52a21,21,0,0,0-34.91,10.89l-161.9,55.87a21,21,0,0,0-34.19,12.95V254l15.61-5.39,8.16,7.08-1.74,9L144.62,270Z" style="fill:#cbf2d6;stroke:#263238;stroke-linecap:round;stroke-linejoin:round;stroke-width:1.25903px"></path><path d="M351.43,188.26l2.16-11.14,15.61-5.39a21,21,0,0,0-34.91,10.89l-161.9,55.87a21,21,0,0,0-34.19,12.95l15.61-5.38,8.58,7.44-2.16,11.15L144.62,270a21,21,0,0,0,34.9-10.89l161.9-55.87a21,21,0,0,0,34.19-13L360,195.71Z" style="fill:#858585;stroke:#263238;stroke-linecap:round;stroke-linejoin:round;stroke-width:1.25903px"></path><path d="M229,153.44s-3.13-6.22-3.59-8.48c-.33-1.6.32-4.94,0-6.54-.77-3.75-6-14.08-6-14.08a2.89,2.89,0,0,0-.94-1.11L215.35,127H207l-12.74,16.84L200.53,159l-1.84,2.18c1.13,1.11,1.84,1.75,1.84,1.75l-1.84,11,18,1.82.47-7h5.47a2.79,2.79,0,0,0,2.78-2.78v-9.53l2.51-.71A1.67,1.67,0,0,0,229,153.44Z" style="fill:#fff;stroke:#263238;stroke-linecap:round;stroke-linejoin:round;stroke-width:1.25903px"></path><path d="M200.53,162.9l3.06-6s-6.6-2.35-5.23-8.25,6.88-.89,6.88-.89H207l1.56-6.82s3.83-4.11,3.56-5.55a24.92,24.92,0,0,0-.82-3.09s12.38-1.89,10.77-9.17-18.22-4.52-18.22-4.52-4.9-8.74-17.49,8.25c0,0-9.18,5.24-2.47,16.24A100.31,100.31,0,0,0,200.53,162.9Z" style="fill:#263238;stroke:#263238;stroke-linecap:round;stroke-linejoin:round;stroke-width:1.25903px"></path><path d="M207,134.26s-9.62,19.2-17.81,20.62l-2.67-3.62s.47-3.07,5.66-3.5c0,0,4.9-2.16,10.7-12.37Z" style="fill:#858585;stroke:#263238;stroke-linecap:round;stroke-linejoin:round;stroke-width:1.25903px"></path><path d="M216.66,154.88a6.21,6.21,0,0,0,5.4,2" style="fill:none;stroke:#263238;stroke-linecap:round;stroke-linejoin:round;stroke-width:1.25903px"></path><path d="M222.06,143.1c0,.85-.33,1.55-.73,1.55s-.72-.7-.72-1.55.33-1.55.72-1.55S222.06,142.24,222.06,143.1Z" style="fill:#263238"></path><path d="M222.06,137.22a4.32,4.32,0,0,0-4.93,2.61" style="fill:none;stroke:#263238;stroke-linecap:round;stroke-linejoin:round;stroke-width:1.25903px"></path><path d="M186.33,148.09a1.66,1.66,0,0,1-2.8-.23c-3.18-6.09-9.7-22.45,7.79-30.53,20.79-9.6,31.93,3.48,31.93,3.48l5.53.59,1.47,2.57L188.65,145Z" style="fill:#2C98ED;stroke:#263238;stroke-linecap:round;stroke-linejoin:round;stroke-width:1.25903px"></path><path d="M191.16,176.91a10.87,10.87,0,0,1,9.37-6c6.91-.32,17.52.63,20.24,7.24,0,0,14.91,4.31,18.35,14.9s-1.46,59.38-1.46,59.38,4.4,19.52,1.67,32.53c0,0-15.1,5.18-56,6,0,0-3-25.27-1.29-34.24,0,0-11.93-63.09-7.32-71.28S191.16,176.91,191.16,176.91Z" style="fill:#263238;stroke:#263238;stroke-miterlimit:10;stroke-width:1.25903px"></path><path d="M198.94,224.32c-12.21-.28-18.55,2.73-21.56,5,.6,4,1.21,7.82,1.79,11.29,1.88-1.56,6.83-3.29,19.46-3.54a130.5,130.5,0,0,1,39.92,5.53c.28-3.39.59-7.42.87-11.71C232.59,229.07,214.24,224.66,198.94,224.32Z" style="fill:#2C98ED;stroke:#263238;stroke-linecap:round;stroke-linejoin:round;stroke-width:1.25903px"></path><path d="M237.66,252.45s.09-.93.24-2.56c-5.72-1.43-21.83-5.1-37.28-5.45-12.68-.29-17.94,2.43-20.06,4.3.87,4.94,1.46,8.05,1.46,8.05-.12.61-.21,1.3-.29,2,2.4-1.38,7.57-2.72,18.58-2.94a131.18,131.18,0,0,1,38.86,5.21C238.46,256,237.66,252.45,237.66,252.45Z" style="fill:#2C98ED;stroke:#263238;stroke-linecap:round;stroke-linejoin:round;stroke-width:1.25903px"></path><path d="M214,177.24c.86.21,1.73.45,2.62.72" style="fill:none;stroke:#7f7f7f;stroke-linecap:round;stroke-linejoin:round;stroke-width:0.9442689999999999px"></path><path d="M195.9,176.07a46.35,46.35,0,0,1,15.39.57" style="fill:none;stroke:#7f7f7f;stroke-linecap:round;stroke-linejoin:round;stroke-width:0.9442689999999999px"></path><path d="M225.54,217a51.91,51.91,0,0,1,5.06-26.31c6.64-14,12,14.18,12,14.18s7.61,12,9.44,20.58c0,0,6.53-6.35,33.3-8.45l3.14,11.26S251.59,246.38,243.82,245C238.07,244.06,225.54,217,225.54,217Z" style="fill:#2C98ED;stroke:#263238;stroke-linecap:round;stroke-linejoin:round;stroke-width:1.25903px"></path><path d="M238.76,221a17.93,17.93,0,0,0,.28,3.34" style="fill:none;stroke:#263238;stroke-linecap:round;stroke-linejoin:round;stroke-width:1.25903px"></path><path d="M231.88,217s5.38-11.8,8.2-11c2,.59-.14,5.28-1,11" style="fill:none;stroke:#263238;stroke-linecap:round;stroke-linejoin:round;stroke-width:1.25903px"></path><path d="M282.14,215.9s4.33,7.52,4.12,15.37l5.25-2.85s-.52-9.57-4.19-12.79Z" style="fill:#263238;stroke:#263238;stroke-linecap:round;stroke-linejoin:round;stroke-width:1.25903px"></path><path d="M286.26,217.3l8.58-1.4a8,8,0,0,1,7.31-4.48,24.24,24.24,0,0,0,8.63-1.32.53.53,0,0,1,.73.51c0,1.22-.92,3.55-6.91,4.09,0,0,5.41,3.29,6.91,2a3,3,0,0,1,3.06-.69s.18,4.21-2.8,4.38c0,0-.7,2.73-3,2.68,0,0-1.58,2.22-2.8,1.87a8.87,8.87,0,0,1-3.68,0c-2.27-.39-4.72-.88-4.72-.88l-8,2.5Z" style="fill:#263238;stroke:#263238;stroke-linecap:round;stroke-linejoin:round;stroke-width:1.25903px"></path><path d="M310.78,218.31s.11,1.72-1.15,2,.32,1.79-4,3.1" style="fill:none;stroke:#7f7f7f;stroke-linecap:round;stroke-linejoin:round;stroke-width:0.9442689999999999px"></path><path d="M252.13,228.87a21.79,21.79,0,0,1-.84,6.79" style="fill:none;stroke:#263238;stroke-linecap:round;stroke-linejoin:round;stroke-width:1.25903px"></path><path d="M290.45,221.77a17.64,17.64,0,0,0-1.74-4.42" style="fill:none;stroke:#7f7f7f;stroke-linecap:round;stroke-linejoin:round;stroke-width:0.9442689999999999px"></path><path d="M291.07,224.72c-.08-.48-.17-1-.28-1.49" style="fill:none;stroke:#7f7f7f;stroke-linecap:round;stroke-linejoin:round;stroke-width:0.9442689999999999px"></path></g></svg>