<svg xmlns="http://www.w3.org/2000/svg" viewBox="0 0 750 500"><g fill="#ebebeb"><path d="M73.39 67.83a68.06 68.06 0 00-4.61 21.06H50.12v-.52c.05-.48.11-1 .15-1.43a50.58 50.58 0 011.24-7.35 57.2 57.2 0 014.14-11.5.42.42 0 01.45-.27h17.29zM72.82 114.88H55.68a.38.38 0 01-.41-.27 52.26 52.26 0 01-4.26-13 53.23 53.23 0 01-.84-6.56 2.25 2.25 0 00-.05-.22v-.52H68.45c.34 0 .32 0 .35.34.11 1.5.21 3 .35 4.49a60 60 0 001.15 7.06 62.88 62.88 0 002.44 8.39c.03.1.05.18.08.29zM144.91 120.31c-.06.1-.1.18-.15.25a51.05 51.05 0 01-4.86 6.3 48 48 0 01-7.11 6.56 50.84 50.84 0 01-16.68 8.36 53 53 0 01-7.11 1.52c-.24 0-.47.08-.7.12h-.42l-.39-.25.45-.33a54.68 54.68 0 0013.52-13.11 62.56 62.56 0 005.52-9.16.39.39 0 01.42-.27h17.54zM127.76 88.88h-24.08v-21h18.8a.35.35 0 01.38.25 58.54 58.54 0 013.83 12.33 62.56 62.56 0 01.93 6.67c.04.54.09 1.13.14 1.75zM127.62 94.49c0 .5 0 1-.07 1.48-.11 1.18-.19 2.35-.36 3.52-.22 1.61-.47 3.22-.79 4.82a57.65 57.65 0 01-3.12 10.27.41.41 0 01-.44.31h-19.3v-20.4zM98.26 68v21H74.75c0-.53 0-1.06.1-1.58.12-1.17.22-2.36.4-3.53.29-1.78.6-3.57 1-5.34a54.15 54.15 0 013.4-10.36A.36.36 0 0180 68h18.26zM98.28 94.77v20.11H79.49a.38.38 0 01-.41-.27 53.46 53.46 0 01-3.2-10.61 97.44 97.44 0 01-.86-5.65c-.16-1.23-.19-2.48-.28-3.73v-.13H98c.23-.03.28.05.28.28zM153.29 89h-19.73A68.45 68.45 0 00129 67.83h18.39a.4.4 0 01.43.26 51.79 51.79 0 014.55 13.19 55.68 55.68 0 011 7.4c-.07.1-.08.21-.08.32zM153.31 94.33c0 .48 0 .93-.07 1.38a52.36 52.36 0 01-.65 5.31 51.71 51.71 0 01-3.59 11.85c-.27.61-.56 1.22-.84 1.82a.27.27 0 01-.29.19h-18.35l.64-1.85a64.51 64.51 0 003.29-16.77c0-.56.07-1.13.1-1.7 0-.15 0-.22.2-.21a1.2 1.2 0 00.19 0zM144.37 62.46a.59.59 0 000 .08h-17.55a.39.39 0 01-.41-.24 59.32 59.32 0 00-8.57-12.69 47.12 47.12 0 00-6.57-6.06c-1.18-.91-2.4-1.76-3.6-2.63l-.2-.15.24-.16c0-.11-.07-.22-.11-.38a51.63 51.63 0 0136.77 22.23zM94.91 143.18a1.76 1.76 0 01-.5.08 46.85 46.85 0 01-5.62-1.09 50.62 50.62 0 01-20.22-10.41 48.79 48.79 0 01-6.14-6.14 51.34 51.34 0 01-3.83-5.3l-.08-.16h16.35a.4.4 0 01.41.26 62.11 62.11 0 005.9 9.63 61.3 61.3 0 006.92 7.66 53.79 53.79 0 006.67 5.36zM94.7 40.75c-.73.53-1.6 1.14-2.43 1.78a60.07 60.07 0 00-7.79 7.25 54.54 54.54 0 00-8.17 11.65c-.14.27-.26.55-.41.8a.38.38 0 01-.25.16H59.06C67.81 50 79.57 42.61 94.52 40.34l-.1.21zM120.58 120.32a56.61 56.61 0 01-8 10.76 50.14 50.14 0 01-9.09 7.71v-18.47zM98.25 120.33v18.11a52.46 52.46 0 01-16.34-18.11zM120 62.38h-16.31V45.13a50 50 0 019.17 7.68 57.64 57.64 0 017.14 9.57zM98.26 45.67v16.85h-15.7a49.67 49.67 0 0115.7-16.85z"/></g><path fill="none" stroke="#ebebeb" stroke-miterlimit="10" d="M445.43 52.34h234.33v176.95H445.43z"/><path fill="none" stroke="#ebebeb" stroke-miterlimit="10" d="M445.43 52.34h234.33V64.1H445.43z"/><path d="M456.46 58.3a3 3 0 11-3-3 3 3 0 013 3z" fill="#c7c7c7"/><path d="M468.54 58.3a3 3 0 11-3-3 3 3 0 013 3z" fill="#ebebeb"/><path d="M480.61 58.3a3 3 0 11-3-3 3 3 0 013 3z" fill="#ffc727"/><path fill="none" stroke="#ebebeb" stroke-miterlimit="10" d="M59.26 155.58h129.28v93.13H59.26z"/><path fill="none" stroke="#ebebeb" stroke-miterlimit="10" d="M59.26 155.58h129.28v11.76H59.26z"/><path d="M70.29 161.54a3 3 0 11-3-2.95 3 3 0 013 2.95z" fill="#c7c7c7"/><path d="M82.37 161.54a3 3 0 11-3-2.95 3 3 0 013 2.95z" fill="#ebebeb"/><path d="M94.44 161.54a3 3 0 11-3-2.95 3 3 0 013 2.95z" fill="#ffc727"/><g><path fill="#263238" d="M50.72 424.48l81.07-.24 81.07-.09 162.14-.17 162.14.17 81.07.08 81.07.25-81.07.24-81.07.09-162.14.17-162.14-.17-81.07-.09-81.07-.24z"/></g><g><path fill="#fff" d="M88.99 77.91h572.17v346.05H88.99z"/><path d="M661.16 424L89 424.34h-.37V424L88.5 78v-.5h.5l572.17.21h.29V78zm0 0l-.29-346 .29.29L89 78.41l.5-.5-.13 346-.37-.37z" fill="#ebebeb"/><path fill="#ebebeb" d="M142.99 133.94h15.25v2.45h-15.25zM142.99 144.93h15.25v2.45h-15.25zM142.99 139.49h15.25v2.45h-15.25z"/><path fill="#ffc727" d="M164.92 223.8h125.72v3.71H164.92z"/><path d="M143 248.23c10.25-.2 20.49-.29 30.74-.37l30.74-.11 30.75.11 15.37.14 15.37.23-15.37.24-15.37.13-30.75.11-30.74-.11c-10.26-.08-20.5-.17-30.74-.37zM143 258c10.25-.2 20.49-.29 30.74-.37l30.74-.11 30.75.11 15.37.13 15.4.24-15.37.23-15.37.13-30.75.11-30.74-.11c-10.29-.08-20.53-.18-30.77-.36zM143 267.74c10.25-.2 20.49-.29 30.74-.36l30.74-.12 30.75.11 15.37.14 15.37.23-15.37.24-15.37.13-30.75.11-30.74-.11c-10.26-.11-20.5-.17-30.74-.37zM143 287.25c10.25-.19 20.49-.29 30.74-.36l30.74-.11 30.75.11 15.37.13 15.37.23-15.37.24-15.37.13-30.75.11-30.74-.11c-10.26-.08-20.5-.17-30.74-.37zM143 297c10.25-.2 20.49-.29 30.74-.37l30.74-.11 30.75.11 15.37.13 15.4.24-15.37.23-15.37.14-30.75.11-30.74-.11c-10.29-.07-20.53-.16-30.77-.37zM143 306.77c6.24-.2 12.47-.29 18.71-.37s12.47-.07 18.71-.11 12.47 0 18.71.11l9.35.13c3.12.08 6.24.13 9.35.24-3.11.1-6.23.15-9.35.23l-9.35.13c-6.24.08-12.48.08-18.71.11s-12.48 0-18.71-.11-12.48-.13-18.71-.36z" fill="#dbdbdb"/><path d="M151.11 203.68h3.58l7.94 20.87h-4.17l-1.94-5.2h-7.3l-1.91 5.2h-4.17zm4.67 12.82l-2.88-8.21-3 8.21zM181.74 219.17a4.76 4.76 0 01-2 4 7 7 0 01-2.15 1 9.5 9.5 0 01-2.6.35h-10.07v-20.84h11.18a4.07 4.07 0 012 .47 4.9 4.9 0 011.49 1.22 5.58 5.58 0 011 1.7 5.68 5.68 0 01-.43 4.79 4.61 4.61 0 01-2.23 2 5.35 5.35 0 012.84 1.9 5.5 5.5 0 01.97 3.41zm-12.76-12v5.26h5.41a2.41 2.41 0 001.75-.71 2.58 2.58 0 00.72-1.94 2.69 2.69 0 00-.66-1.91 2.15 2.15 0 00-1.63-.7zm8.67 11.26a3 3 0 00-.19-1.08 2.88 2.88 0 00-.51-.89 2.39 2.39 0 00-.77-.61 2.2 2.2 0 00-1-.22H169v5.5h6a2.75 2.75 0 001-.2 2.58 2.58 0 00.84-.58 2.77 2.77 0 00.56-.87 2.84 2.84 0 00.25-1.07zM193.82 224.7a9.47 9.47 0 01-4.16-.9 10.26 10.26 0 01-3.2-2.38 11.12 11.12 0 01-2.81-7.31 10.43 10.43 0 01.78-4 10.87 10.87 0 012.15-3.39 10.17 10.17 0 013.25-2.33 9.57 9.57 0 014.08-.87 9.11 9.11 0 014.13.93 10.1 10.1 0 013.19 2.42 11.26 11.26 0 012.06 3.41 10.77 10.77 0 01.74 3.88 10.81 10.81 0 01-2.89 7.34 10.22 10.22 0 01-3.23 2.32 9.62 9.62 0 01-4.09.88zm-6-10.59a8.21 8.21 0 00.41 2.62 7 7 0 001.19 2.24 6 6 0 001.91 1.55 5.38 5.38 0 002.57.59 5.52 5.52 0 002.61-.6 6 6 0 001.91-1.6 7.1 7.1 0 001.17-2.25 8.23 8.23 0 00.4-2.55 7.94 7.94 0 00-.43-2.61 7.09 7.09 0 00-1.2-2.24 5.85 5.85 0 00-1.91-1.54 5.62 5.62 0 00-2.55-.57 5.52 5.52 0 00-2.61.6 5.69 5.69 0 00-1.91 1.59 7.19 7.19 0 00-1.17 2.23 8.47 8.47 0 00-.44 2.54zM216 221.11a4.61 4.61 0 002.43-.59A4.85 4.85 0 00220 219a6.3 6.3 0 00.85-2.16 13 13 0 00.25-2.51v-10.65h4v10.64a15.39 15.39 0 01-.52 4 9.13 9.13 0 01-1.62 3.29 7.77 7.77 0 01-2.83 2.24 9.75 9.75 0 01-4.15.82 9.5 9.5 0 01-4.25-.87 7.93 7.93 0 01-2.83-2.29 9.24 9.24 0 01-1.58-3.31 15.74 15.74 0 01-.48-3.91v-10.61h4.06v10.64a12.36 12.36 0 00.25 2.54A6.11 6.11 0 00212 219a4.57 4.57 0 001.57 1.52 4.63 4.63 0 002.43.59zM244.8 207.23h-6.67v17.32h-4v-17.32h-6.67v-3.55h17.34zM262.44 221.11a4.61 4.61 0 002.43-.59 4.66 4.66 0 001.59-1.53 6.3 6.3 0 00.85-2.16 12.21 12.21 0 00.25-2.51v-10.64h4v10.64a15 15 0 01-.52 4 9.28 9.28 0 01-1.61 3.29 7.8 7.8 0 01-2.84 2.24 9.75 9.75 0 01-4.15.82 9.43 9.43 0 01-4.24-.87 7.88 7.88 0 01-2.84-2.29 9.24 9.24 0 01-1.58-3.31 15.74 15.74 0 01-.48-3.91v-10.61h4.06v10.64a12.36 12.36 0 00.25 2.54 6.11 6.11 0 00.85 2.16 4.39 4.39 0 003.95 2.09zM288.11 209.15a4.75 4.75 0 00-.75-.56 8 8 0 00-1.32-.69 11.56 11.56 0 00-1.69-.58 7.75 7.75 0 00-1.85-.23 4.15 4.15 0 00-2.5.61 2.06 2.06 0 00-.83 1.74 1.81 1.81 0 00.31 1.07 2.61 2.61 0 00.9.75 7.33 7.33 0 001.48.59c.6.18 1.29.36 2.08.56 1 .27 1.94.57 2.77.88a7.4 7.4 0 012.12 1.18 4.88 4.88 0 011.34 1.69 5.61 5.61 0 01.47 2.42 6.05 6.05 0 01-.63 2.87 5.31 5.31 0 01-1.71 1.93 7.46 7.46 0 01-2.47 1.07 12.62 12.62 0 01-2.92.34 15.76 15.76 0 01-4.65-.71 14.28 14.28 0 01-4.11-2l1.79-3.5a5.33 5.33 0 00.95.69 14.44 14.44 0 001.64.86 13.31 13.31 0 002.08.72 9.78 9.78 0 002.36.29c2.23 0 3.35-.71 3.35-2.15a1.76 1.76 0 00-.38-1.14 3.3 3.3 0 00-1.09-.83 10.3 10.3 0 00-1.71-.64l-2.23-.65a17.36 17.36 0 01-2.6-.9 6.71 6.71 0 01-1.84-1.14 4.21 4.21 0 01-1.1-1.53 5.21 5.21 0 01-.37-2.07 6.43 6.43 0 01.59-2.83 5.56 5.56 0 011.63-2 7.22 7.22 0 012.42-1.25 9.83 9.83 0 013-.43 11.53 11.53 0 014.06.69 15.47 15.47 0 013.23 1.63z" fill="#263238"/><path fill="#ffc727" d="M142.99 326.86h56.57v15.56h-56.57z"/><path d="M150.26 337v-4.77h.47v4.35h2.75v.42zM157.38 336.6v.4h-3.21v-4.77h3.15v.42h-2.68v1.72H157v.39h-2.33v1.82zM159.74 332.25h.4l2 4.77h-.5l-.62-1.49h-2.14l-.61 1.49h-.5zm1.15 2.91l-1-2.36-1 2.36zM162.8 337v-4.77h2a1.33 1.33 0 01.57.13 1.7 1.7 0 01.45.35 1.66 1.66 0 01.29.48 1.47 1.47 0 01.1.54 1.68 1.68 0 01-.07.5 1.59 1.59 0 01-.22.43 1.12 1.12 0 01-.33.32 1.08 1.08 0 01-.44.18l1.17 1.84h-.53l-1.12-1.76h-1.41V337zm.47-2.17h1.56a.83.83 0 00.38-.1 1 1 0 00.29-.24 1.31 1.31 0 00.19-.35 1.4 1.4 0 00.06-.41 1.14 1.14 0 00-.07-.41 1.13 1.13 0 00-.21-.35 1 1 0 00-.31-.23.81.81 0 00-.37-.09h-1.52zM167.65 333.13V337h-.47v-4.77h.37l3.15 4v-4h.47V337h-.41zM178.3 337v-3.91l-1.74 3h-.27l-1.74-3V337h-.47v-4.77h.48l1.86 3.27 1.88-3.27h.47V337zM181.89 337.05a2 2 0 01-.91-.2 2.39 2.39 0 01-.71-.54 2.55 2.55 0 01-.46-.78 2.5 2.5 0 01-.16-.89 2.59 2.59 0 01.17-.92 2.56 2.56 0 01.48-.77 2.2 2.2 0 01.71-.53 2 2 0 01.88-.2 2 2 0 01.91.21 2.29 2.29 0 01.71.56 2.56 2.56 0 01.45.77 2.44 2.44 0 01.16.88 2.39 2.39 0 01-.17.92 2.53 2.53 0 01-.47.77 2.36 2.36 0 01-.71.53 2 2 0 01-.88.19zm-1.77-2.41a2.11 2.11 0 00.13.75 1.79 1.79 0 00.36.63 1.74 1.74 0 00.56.45 1.53 1.53 0 00.72.16 1.6 1.6 0 00.73-.17 1.92 1.92 0 00.56-.46 2.09 2.09 0 00.35-.64 2.27 2.27 0 00.12-.72 2.11 2.11 0 00-.13-.75 2.35 2.35 0 00-.36-.64 2 2 0 00-.56-.44 1.54 1.54 0 00-.71-.16 1.64 1.64 0 00-.74.17 1.84 1.84 0 00-.55.45 2.22 2.22 0 00-.35.64 2 2 0 00-.13.73zM185 337v-4.77h2a1.33 1.33 0 01.57.13 1.7 1.7 0 01.45.35 1.66 1.66 0 01.29.48 1.47 1.47 0 01.1.54 1.42 1.42 0 01-.08.5 1.56 1.56 0 01-.21.43 1.12 1.12 0 01-.33.32 1.14 1.14 0 01-.44.18l1.17 1.84H188l-1.12-1.76h-1.41V337zm.47-2.17H187a.86.86 0 00.38-.1 1 1 0 00.29-.24 1.31 1.31 0 00.19-.35 1.4 1.4 0 00.06-.41 1.14 1.14 0 00-.07-.41 1.71 1.71 0 00-.21-.35 1 1 0 00-.31-.23.81.81 0 00-.37-.09h-1.52zM192.59 336.6v.4h-3.2v-4.77h3.14v.42h-2.67v1.72h2.33v.39h-2.33v1.82z" fill="#fff"/><path fill="#37474f" d="M88.99 77.91h572.17v8.96H88.99z"/><path d="M96.11 82.39a2.22 2.22 0 11-2.22-2.22 2.23 2.23 0 012.22 2.22z" fill="#c7c7c7"/><path d="M105.18 82.39a2.22 2.22 0 11-2.18-2.22 2.23 2.23 0 012.18 2.22z" fill="#fff"/><path d="M114.25 82.39a2.22 2.22 0 11-2.25-2.22 2.23 2.23 0 012.25 2.22z" fill="#ffc727"/><path fill="#dbdbdb" d="M651.33 86.87h9.83v337.1h-9.83z"/><path d="M656.24 203.73a2.53 2.53 0 01-2.54-2.54V91.38a2.54 2.54 0 012.54-2.54 2.54 2.54 0 012.54 2.54v109.81a2.54 2.54 0 01-2.54 2.54z" fill="#a6a6a6"/></g><g><path d="M584.67 361.83v39.43h39.43v-39.43zm3 36.45v-33.47h33.46v33.47z" fill="#ebebeb"/><path fill="#455a64" d="M487.4 292.92h115.36v115.36H487.4z"/><path d="M509.63 408.28h64.18c.27-2.45-9.56-54.6-21.1-71.37-1.31-1.9-12.54-3.29-16.66 1.44-21.82 25.07-26.94 69.33-26.42 69.93z" fill="#263238"/><path d="M554.23 341.24c1.82 4.72 8.69 21.26 12.43 33.14 2.5 8 3.46 14.65 4 16.41 0 0-19-6.08-23.22-6.09-6.57 0-17.11 13.7-14.53 15.42 4.07 2.71 23.44 11.9 38.92 14.79 8.41 1.57 24.25-9.12 23-17.62-1.75-11.93-23.31-43.37-31.51-52.29-4.25-4.63-11.32-9.51-9.09-3.76z" fill="#eb9481"/><path d="M596 399.81c-.4 8.59-11.15 15.83-17.38 16.21-10.75.65-43-8.74-43-8.74l12.53-24.16s22 7.45 22.51 7.66c-.19-.64-5.6-21-8-27.69-.13-.37-.28-.75-.42-1.15-.7-1.87-1.65-4.33-2.71-7-.58-1.48-1.2-3-1.81-4.54-2.65-6.58-5.23-12.85-5.23-12.85 3.69.61 7.34 2.55 13.33 8.84s30.83 39.25 30.18 53.42z" fill="#263238"/><path d="M544 402.05c.9-1.71 1.81-3.41 2.7-5.12s1.78-3.34 2.68-5a58.46 58.46 0 002.65-5.24s0-.07 0 0a44.07 44.07 0 00-3 4.75q-1.44 2.5-2.82 5.06t-2.65 5a42.26 42.26 0 00-2.42 5.36c0 .08.07.15.12.08a51 51 0 002.74-4.89zM577.37 394.35l-6.7-3.56c-.19-.64-5.6-21-8-27.69-.13-.37-.28-.75-.42-1.15-.7-1.87-1.65-4.33-2.71-7z" fill="#37474f"/><path d="M582.91 397.3a54.93 54.93 0 00-5.88-3.78c-1-.57-2-1.1-3.1-1.57s-2.32-.87-3.44-1.38c-.09 0-.15.1-.06.13 1 .48 2 1.14 3.05 1.69s2.1 1.13 3.16 1.68c2.09 1.07 4.14 2.21 6.22 3.31.05.03.14-.05.05-.08z" fill="#37474f"/><path d="M578 392.09c-1.69 0-11.84-2.69-13.32-1.29-9 8.49-11.86 6.78-13.78 7.89-14.85 8.54-34.69 18.58-41.77 18.64-10.73.09-15-8.92-13.22-17.43 3.53-16.83 26.22-49.64 36.49-58.36 5.45-4.62 5 2.35 2.76 9.91-1.32 4.44-3.63 11-6 17.51-2.09 5.77-7.62 20.51-7.72 20.86s0 0 .11 0c.48-.09 13.18-6.07 25.95-9.36 4.5-1.16 13.87-2.81 17.23-1.31 2 .89 2 2.09 2 2.09a4.92 4.92 0 013.3 1.24 4.75 4.75 0 011.46 2.23 5 5 0 012.67 1.26 4.57 4.57 0 011.18 2.49c2.45.71 2.66 3.63 2.66 3.63z" fill="#eb9481"/><path d="M563 381a24.5 24.5 0 00-4 .45c-.09 0-.09.15 0 .14 1.3-.14 2.63-.17 3.94-.21s2.63-.07 3.94-.05A21.13 21.13 0 00563 381zM571.53 384.7a16.25 16.25 0 00-7.09-.63.08.08 0 000 .15 27.75 27.75 0 017.09.53s.03-.04 0-.05zM575.4 388.46a15.93 15.93 0 00-6.72-1.26c-.09 0-.12.13 0 .14a39.09 39.09 0 016.7 1.22c.04.01.07-.08.02-.1zM546.93 380.68a28.93 28.93 0 00-3.32.74c-1.17.29-2.33.6-3.46 1a64 64 0 00-6.68 2.65.07.07 0 100 .13c2.22-.78 4.47-1.51 6.72-2.21l3.3-1.08c1.13-.37 2.31-.65 3.42-1.07.09-.05.09-.17.02-.16z" fill="#263238"/><path d="M538 383.09a12.26 12.26 0 013.42-.8l13.36 22.56s-36.81 13.25-44.36 14a15.07 15.07 0 01-16.3-14.67c-.21-13.33 21.54-45.35 32.48-57.74 5-5.67 10.85-9.79 12.34-8.86 1.76 1.1-1.43 8.23-3.12 13.55-3.11 9.83-14.26 38.73-14.26 38.73s13.68-5.86 16.44-6.77z" fill="#263238"/><path d="M541.34 382.27c-2.08.12-11 3.24-15.44 5.13a76 76 0 00-12.55 6.78c-2.23 1.51-4.36 3.15-6.45 4.85a.07.07 0 10.08.12 133.12 133.12 0 0125-13.59c2.51-1 6.83-2.44 9.28-3.08.66-.18.14-.22.08-.21z" fill="#37474f"/><path d="M532.51 362.54c-.56.9-1.13 1.8-1.61 2.75l-.06.14c.71-2.17 1.39-4.34 2-6.53 0-.13-.18-.2-.23-.07-3.16 8-6.1 16.11-8.95 24.24-.79 2.28-1.49 4.57-2.21 6.87 0 .08.1.12.13 0 .87-2 1.75-3.92 2.54-5.93s1.54-4 2.28-6q2-5.29 3.76-10.65c.37-.62.75-1.25 1.11-1.88.51-.93.94-1.9 1.37-2.87.08-.1-.07-.17-.13-.07zM545.86 399.93c-1-1.66-1.94-3.33-2.92-5s-1.89-3.27-2.83-4.91a57 57 0 00-3.05-5H537a42.67 42.67 0 002.46 5c.91 1.7 1.85 3.39 2.8 5.07s1.89 3.28 2.86 4.9a43.58 43.58 0 003.28 4.9c.05.06.16 0 .13-.07a50.1 50.1 0 00-2.67-4.89z" fill="#37474f"/><path d="M555.35 404.9c-1.11-2.19-2.83-4.33-4.11-6.41 0-.08-.16 0-.12.08 1.16 1.95 2.22 4.05 3.33 6-5.05 2.09-10.42 3.95-15.58 5.78s-10.61 3.65-16 5.21c-3 .87-6 1.81-9.07 2.61-.19 0-.14.2.05.16a136 136 0 0016.15-4.25c5.39-1.71 10.72-3.62 16-5.6 2.94-1.12 9.44-3.41 9.35-3.58z" fill="#37474f"/><path d="M546.59 380.69a179.9 179.9 0 00-18.53 6.11l-.27.1c-3.16 1.24-5.11 2.16-5.58 2.24l-.1-.06a4 4 0 00-1-.54c-.89-.32-9.44-1.39-9.22-4s3.69-2.45 4.2-2.42c-.55-.12-5.19-1.21-3.68-3.52 1.07-1.65 5.66-1.41 6.13-1.39-.47-.15-4.74-1.54-3.27-3.91 1.05-1.69 6.18-1.47 6.77-1.37-.48-.18-4.28-.82-2.5-2.86 1.23-1.42 10.89 0 15.19 2.17 6.4 3.14 11.86 9.45 11.86 9.45z" fill="#eb9481"/><path d="M528.06 386.8l-.27.1a31 31 0 00-11.5-4.69c-.28 0-.3-.19 0-.18a21.32 21.32 0 0111.77 4.77zM518.77 377.34c6.08 1.2 8.83 2.55 14.07 5.87.07.05.15-.06.08-.11-4.88-3.65-7.91-5.46-14.1-5.92-.28-.02-.33.1-.05.16zM522.25 372c5.84 1.56 8.92 2.9 13.62 6.71.11.09.25 0 .14-.15a21.88 21.88 0 00-13.7-6.72c-.38-.04-.43.07-.06.16z" fill="#263238"/><path d="M551.49 348.59c-3.46 1.24-10.18-3.49-13.09-7.62-.19-.29-.09-3.52-.15-7.45 0-2.39-.16-5-.44-7.46l15.58 2a39.07 39.07 0 00-.41 9.45 5.85 5.85 0 00.22 1v.16c.56 1.79 1.63 8.72-1.71 9.92z" fill="#eb9481"/><path d="M553.24 338.61a2.44 2.44 0 01.08.34c-9.32-.4-12.87-4.5-15.17-8.43-.07-1.5-.17-3-.34-4.46l15.58 2a38.52 38.52 0 00-.41 9.45 5 5 0 00.22 1s.02.04.04.1z" fill="#263238"/><path d="M531.43 309.72c-.85 5.59 4.26 20.63 8.57 23.52 6.26 4.19 15.36 3.33 18.63-3.93 3.17-7-3.83-26.52-8.54-29-6.94-3.72-17.41 1.14-18.66 9.41z" fill="#eb9481"/><path d="M545.83 316.48s-.06.08 0 .12c.37 1 .62 2.22-.18 2.86v.05c1.05-.51.7-2.13.18-3.03z" fill="#263238"/><path d="M544.57 315.73c-1.67.42-.71 3.73.85 3.34s.58-3.7-.85-3.34zM552.08 314.6s.1 0 .11.07c.27 1 .75 2.18 1.77 2.25v.06c-1.17.17-1.79-1.35-1.88-2.38z" fill="#263238"/><path d="M552.69 313.26c1.62-.6 2.71 2.67 1.21 3.23s-2.56-2.72-1.21-3.23zM542.82 314.59a11.68 11.68 0 001.16-.83c.43-.32.82-.53 1-1.06a.74.74 0 00-.36-.82 1.83 1.83 0 00-1.8.33 2.66 2.66 0 00-1.15 1.54.77.77 0 001.15.84zM553.49 311.22a13.54 13.54 0 01-1.42 0 2.36 2.36 0 01-1.46-.23.74.74 0 01-.2-.87 1.79 1.79 0 011.63-.83 2.66 2.66 0 011.85.52.78.78 0 01-.4 1.41zM548.21 326c.32.17.66.43 1 .35a2.77 2.77 0 001-.58h.06a1.45 1.45 0 01-1.14.94 1.13 1.13 0 01-1.07-.68c.03-.03.11-.03.15-.03z" fill="#263238"/><path d="M548.4 322.62a3.68 3.68 0 002.78.88 4.7 4.7 0 001.28-.31l.23-.1.22-.1a.28.28 0 00.14-.29.42.42 0 000-.1v-.09c-.21-.79-.63-2-.63-2 .33.07 2 .3 1.85-.11a54.42 54.42 0 00-4.44-10.19c0-.11-.22 0-.18.08 1 3.28 2.62 6.35 3.71 9.63a6.42 6.42 0 00-1.8 0c-.1.06.86 2.26.93 2.63a5 5 0 01-3.94-.07c-.18-.02-.24.08-.15.14z" fill="#263238"/><path d="M533.07 320.32c.88-.73 2-4.43 2.52-6s-1.06-8-1.58-9.94a10.52 10.52 0 00-2.57 5.35c-.38 2.37.35 6.5 1.63 10.59z" fill="#263238" opacity=".2"/><path d="M547.8 306.27a5.14 5.14 0 01-4 3 5.27 5.27 0 01-4.76-1.89c0-.05-.09 0-.06.05a5.2 5.2 0 004.86 2.26 5.31 5.31 0 004.12-3.34c-.02-.1-.13-.15-.16-.08zM539.16 295.53a8.08 8.08 0 00-5.51 5.48 5.73 5.73 0 00.5 3.78h.1a6.36 6.36 0 011.29-6.34 8.17 8.17 0 016.71-2.83 5.22 5.22 0 013.29 1.37c.09.09.28 0 .2-.13-1.29-1.61-4-2.14-6.58-1.33zM557.61 297a6.56 6.56 0 00-3.67-2.63c-2.07-.58-4 .15-5.94.92v.08a9.11 9.11 0 015.1-.87 6.57 6.57 0 013.75 2.2 6.22 6.22 0 01-5.07 10.14c-.06 0-.08.11 0 .11a6.44 6.44 0 005.8-10z" fill="#263238"/><path d="M531.39 312.92s-4.18-4.37-2.74-8c.82-2.05 5.17-3 5.17-3a8 8 0 014-4.67c3.35-1.84 8.21-1 8.21-1s2.86-2.91 6.57-2c5.17 1.29 6.53 8.23 2.66 11.67-2.71 2.42-7.77.84-7.77.84-.4.18-3.89 3.9-8.13 1 0 0-1.93 3-4.71 2.08a3.88 3.88 0 01-3.26 3.08z" fill="#263238"/><path d="M536.59 321.83s-4.32-4.4-6.37-2.78 1.78 8.41 4.6 8.95a2.72 2.72 0 003.37-2.05z" fill="#eb9481"/><path d="M531.36 321v.07c2 .45 3.26 2 4.25 3.68a1.52 1.52 0 00-2.3 0s0 .11.06.09a1.7 1.7 0 011.93.27 7.59 7.59 0 011.12 1.34c.12.15.4 0 .31-.17-.38-2.49-2.73-5.5-5.37-5.28z" fill="#263238"/><path d="M553.19 338.28l-3.31 9.17-11.6-10.95-3 3.77s11.61 17.65 11.64 16.83l3.41-7.89 5.55 5.19-1-13.51z" fill="#ebebeb"/><path d="M555.77 347.69c-.23-2.22-.4-4.47-.74-6.68 0-.08-.13-.11-.15 0-.36 2.17.57 10.68.64 12.72-.23-.22-5.13-4.55-5.18-4.48-.75 1.26-3.26 7-3.42 7.53-1.84-2.81-8.86-13-11-15.62a.08.08 0 00-.13.08c1.64 3 10.93 16.69 11.06 16.64a85.4 85.4 0 003.56-8.33c.84.95 5.81 5.85 5.82 5.52a72.08 72.08 0 00-.46-7.38z" fill="#263238"/></g><g><path fill="#ffc727" d="M361.46 235.33h117.98v121.81H361.46z"/><path d="M332.69 271.7v62.64h62.64V271.7zm4.73 57.91v-53.18h53.18v53.18z" fill="#a6a6a6"/><path d="M439.28 269.59c3.1-.73 11.14 1.37 13.89 5.48s2.62 10.84 1.25 11.52-7.31.26-11.41-1.92-5.26-14.67-3.73-15.08z" fill="#263238"/><path d="M439.27 269.61c-.1 0-.12-.19 0-.2 2.73-.11 5.66.77 8.27 1.48a15.79 15.79 0 016 2.65 7.3 7.3 0 012.74 5.48 14.92 14.92 0 01-1.32 7.46c0 .06-.15 0-.13 0 1.19-4.56 2.2-10.12-2.36-13.14-3.89-2.61-8.8-2.84-13.2-3.73z" fill="#263238"/><path d="M454 285.41c2.73.31 9.89 5.39 11.15 10.55s-2.82 12.88-4.14 13.45-7.42-4.3-9.44-7.91c-1.35-2.42-.36-5.27.2-8.11.76-4.18 1.76-8.02 2.23-7.98z" fill="#263238"/><path d="M449.88 300.87c-.89-5.26 2-10.53 3.74-15.32 0-.05.1 0 .09 0-.92 4.59-3.61 8.74-3.62 13.52a8.73 8.73 0 003.4 7.31c2.05 1.48 4.61 2.13 7 2.93.16.05.06.28-.1.23-4.74-1.44-9.6-3.23-10.51-8.67zM454.55 285.89a.12.12 0 01.09-.22c3.9 1.78 8.6 4.38 10.73 8.27 2.31 4.22.13 8.7-1.81 12.57h-.08c1.91-3.92 3.92-8.78 1.31-12.88-2.25-3.57-6.56-6-10.24-7.74z" fill="#263238"/><path d="M460.64 309.28a11.66 11.66 0 00-4.27 8.18c-.4 6.32-2.87 5.33-9.49 7.67-5.6 2-6.17 8.53-2.79 11.39 0 0-2.17-3.78 1.5-6.11 4.38-2.79 15.45 1 20.06-6.07 5.96-9.14-5.01-15.06-5.01-15.06z" fill="#263238"/><path d="M458.5 312.4c.06-.09-.09-.21-.17-.12a9.5 9.5 0 00-1.59 2.89c-.45 1.38-.33 2.81-.68 4.19-.89 3.54-5 3.84-8 4.35-4 .69-6.95 3.46-6.76 7.7h.09a7.15 7.15 0 013.63-6.47c2.24-1.23 4.93-1 7.3-1.81 1.62-.57 3.2-1.44 3.81-3.14a14.22 14.22 0 00.46-2.92 9.88 9.88 0 011.91-4.67z" fill="#263238"/><path d="M461.77 309.93s-.08 0 0 .06c2.5 2 5.12 4 6.11 7.22 1.06 3.45-.4 7.16-2.95 9.57-2.86 2.69-6.3 1.89-9.83 1.57a14.34 14.34 0 00-7.51.83c-.07 0 0 .16.06.13 3.87-1.32 7.61-.51 11.56-.27a7.86 7.86 0 007.41-3.84c3.91-5.9.51-11.83-4.85-15.27z" fill="#263238"/><path d="M441.62 266.7a1.09 1.09 0 011.71 1.34c-.85 1.12-2.56-.22-1.71-1.34z" fill="#ffc727"/><path d="M440.81 268.55a1.09 1.09 0 011.71 1.34c-.85 1.11-2.52-.22-1.71-1.34z" fill="#ffc727"/><path d="M439.68 270.25a1.09 1.09 0 011.71 1.34 1.09 1.09 0 01-1.71-1.34z" fill="#ffc727"/><path d="M438.37 271.74a1.09 1.09 0 011.71 1.34c-.85 1.12-2.56-.22-1.71-1.34z" fill="#ffc727"/><path d="M436.79 273c.85-1.12 2.56.22 1.71 1.34a1.09 1.09 0 01-1.71-1.34z" fill="#ffc727"/><path d="M435.07 274a1.09 1.09 0 011.71 1.34c-.85 1.06-2.55-.28-1.71-1.34z" fill="#ffc727"/><path d="M433.44 294.1c-4.69 5.78-29.8 24-51 23.64-7.2-.11-27.2-30.84-30.9-42.52-2.65-8.39 15.16-12.63 20.2-11.42 6.28 1.52 18.52 27.87 20.94 28 7.2.5 19.56-3.83 34.73-5.37 7.81-.75 9.65 3.23 6.03 7.67z" fill="#ad6359"/><path d="M352.25 277.15c-1.34-2.92-7.63-19.15-8.14-23.32s-1.1-16.31 2.06-17 3.61 2.83 3.61 2.83.56-5.17 3.81-5.6 3.78 5.1 3.78 5.1 1-5.26 4.23-5.46 2.87 5.45 2.87 5.45.65-4.85 3.41-3.88c3.33 1.17 1.11 10 2 14.54.21 1 5.68 20.74 5.68 20.74z" fill="#ad6359"/><path d="M364.49 238.64c-1.61 6.47-1.2 9.59.86 15.83 0 .12-.13.21-.18.08-2.58-5.92-3.66-9.75-1-16 .14-.31.4-.22.32.09zM357.5 238.62c-1.08 6.87-.66 10.25 1 16.95 0 .09-.13.14-.16.05-2.2-6.43-3.19-10.28-1.2-17 .1-.31.41-.32.36 0zM349.88 240c-.57 6.74-.27 10.46 2.19 16.75a.13.13 0 01-.23.11c-3.13-6.17-3.54-10.82-2.17-16.85.1-.45.25-.47.21-.01z" fill="#263238"/><path d="M380 273.57s.93-8.31.53-12.05-7-17.14-10-15.88c-3.84 1.63-1.55 10.12.12 14.13 0 0-8.89 3.77-8.56 10.22s17.91 3.58 17.91 3.58z" fill="#ad6359"/><path d="M369.65 246.44c-2.43 4 .1 9.13 1.43 13.14a.39.39 0 01-.36.53c-3.62 1.83-8.2 5.46-8.8 9.7a.1.1 0 01-.19 0c0-4.64 4.23-8.57 8.32-10.32-1.42-4.09-3.73-9.34-.43-13.07.01-.03.05-.01.03.02z" fill="#263238"/><path d="M403.43 289.8l8.74 20.2s13.22-6.29 21.26-14.42-.9-10.86-8.68-9.68-21.32 3.9-21.32 3.9z" fill="#ebebeb"/><path d="M433.43 295.62c-8 8.13-21.26 14.42-21.26 14.42l-2.66-6.15 26.63-15.44c.98 1.62.44 3.98-2.71 7.17z" fill="#c7c7c7"/><path d="M415.47 307.2a155 155 0 01-7.55-17.37c0-.07.09-.12.12 0 .59 1.56 4.75 10.16 7.56 17.36.04.05-.09.09-.13.01z" fill="#263238"/><path d="M413.4 329.76l-3.59 27.38h57.31s-7.58-51.35-19.82-67.14c-6.12-7.89-14.32-7.68-20.12-1.65-1.27 1.31-14.07 19.6-16.33 27.15-1.97 6.69 2.55 14.26 2.55 14.26z" fill="#ebebeb"/><path d="M430.08 291.11l-3.62 9.71q-1.79 4.86-3.44 9.75c-1 3.28-2.25 6.56-1.76 9.9a25.21 25.21 0 003.25 9.54l.08.14v.14c-.5 4.35-1.09 8.7-1.62 13s-1.14 8.69-1.76 13q.56-6.56 1.19-13.09c.44-4.36.84-8.72 1.32-13.07l.06.27a26 26 0 01-3.49-9.89 14.34 14.34 0 01.37-5.3c.44-1.7 1-3.35 1.53-5 1.11-3.29 2.42-6.49 3.73-9.69s2.7-6.27 4.16-9.41zM422.08 303.76a.86.86 0 00.63 1 .79.79 0 00.9-.7.85.85 0 00-.63-1 .78.78 0 00-.9.7zM418.61 313.21a.85.85 0 00.63 1 .78.78 0 00.89-.69.85.85 0 00-.63-1 .78.78 0 00-.89.69zM418.17 322.85a.85.85 0 00.63 1 .79.79 0 00.9-.69.86.86 0 00-.63-1 .79.79 0 00-.9.69z" fill="#263238"/><path d="M420.85 330.84a.85.85 0 00.63 1 .79.79 0 00.9-.69.86.86 0 00-.63-1 .79.79 0 00-.9.69zM419.81 339.55a.86.86 0 00.63 1 .78.78 0 00.89-.7.86.86 0 00-.63-1 .78.78 0 00-.89.7zM418.86 348.15a.86.86 0 00.63 1 .79.79 0 00.9-.7.85.85 0 00-.64-1 .77.77 0 00-.89.7z" fill="#263238"/><path d="M430.34 387.13c2.89 2 7.75-6.68 9.4-8.53s2.37-1.79 2.27-.38l3.76-14.92c-1.95 1.51-6.08 4.76-8.28 6.9-2.95 2.86-10.04 14.97-7.15 16.93z" fill="#ad6359"/><path d="M452 292.22c12.24 9.87 27.67 27.23 30.82 38.45 2.42 8.66-9.76 38.75-13.39 45.77-1.58 3.06-22.54-6.25-23.46-9.82s13.69-29.48 13.83-32.23-9.41-20.91-15.92-33.19c-7.95-14.88-2.34-17.37 8.12-8.98z" fill="#ad6359"/><path d="M432.4 395.7c1.93 2.1 5.84-.45 5.84-.45s-3.48 4.3-.76 6 6.43-2 6.43-2-3 4.12-.15 5.58 6.49-1.73 6.49-1.73-.2 1.58 2.27 1.72c3.54.2 8.59-5.54 10.52-9.16s6.31-18.31 6.95-20.57l-23.15-12.58s-.41.3-1.07.82L442 378.22c-.06.93-2.71 6.66-3.67 8.31-2.16 3.71-8.1 6.81-5.93 9.17z" fill="#ad6359"/><path d="M438.36 395c5.19-3.93 6.78-6.54 9-12.54 0-.12.23-.08.19.05-1.67 6.07-3.19 9.64-9.05 12.76-.25.19-.39-.04-.14-.27zM443.65 399.34c5-4.56 6.78-7.38 9.61-13.49 0-.09.19 0 .15.06-2.26 6.23-3.86 9.75-9.49 13.64-.25.18-.5-.01-.27-.21zM450.27 403c4.55-4.76 6.6-7.78 8.58-14.06a.12.12 0 01.24.06c-1.4 6.6-3.93 10.38-8.66 14.12-.33.24-.43.16-.16-.12z" fill="#263238"/><path d="M449.65 319.23L467.32 306s-9.18-11.4-18.95-17.34-10.37 3.42-7.37 10.72 8.65 19.85 8.65 19.85z" fill="#ebebeb"/><path d="M463.79 303.49a156.67 156.67 0 01-15.15 11.37c-.06 0-.13-.06-.07-.11 1.39-.94 8.79-7 15.15-11.38.07-.05.14.06.07.12z" fill="#263238"/><path d="M446.54 311.75c-1.07-2.41-2.54-5.92-3.76-8.27h-.06c.48 1.37 1 2.74 1.59 4.09a2.39 2.39 0 00-.13-.21c-.44-.63-.9-1.25-1.39-1.85.37.68.77 1.35 1.2 2 .27.41.56.8.85 1.19.31.71 1 2.47 1.33 3.18.52 1.19 3.06 7.89 3.17 7.81a18.28 18.28 0 001.78-1.33c.09-.07 0-.23-.13-.16-.32.27-1.12.8-1.25.9-.57-1.21-1-2.49-1.57-3.73s-1.08-2.37-1.63-3.62z" fill="#263238"/><path d="M439.11 286.23c-.3 1-5.57 7.44-10.26 7-1.53-.16-1.05-8.54-1.05-8.54l-.11-.62-1.48-8.78 10.54-6 1.52-.78s.24 2.43.52 5.45v.43c0 .15 0 .33.05.49.05.46.09.92.13 1.38s.06.69.08 1.06 0 .73.07 1.1a57.94 57.94 0 01-.01 7.81z" fill="#ad6359"/><path d="M438.79 273.93a17.89 17.89 0 01-11.1 10.07l-1.48-8.78 10.54-6 1.52-.78s.24 2.47.52 5.49z" fill="#263238"/><path d="M415.22 259.81c-3.18 15.29 5.63 18.92 8.92 19.6 3 .61 13.27 2.34 18-12.55s-1.37-21.19-8.15-23-15.6.65-18.77 15.95z" fill="#ad6359"/><path d="M420.38 256.2a9.75 9.75 0 001.08 0 1.8 1.8 0 001.09-.25.56.56 0 00.11-.67 1.39 1.39 0 00-1.29-.55 2 2 0 00-1.37.5.59.59 0 00.38.97zM430.89 258.55c-.35-.11-.66-.26-1-.4a1.81 1.81 0 01-.95-.6.55.55 0 01.12-.67 1.38 1.38 0 011.39-.09 2 2 0 011.13.92.6.6 0 01-.69.84zM428.19 261.86s.07.06.06.1c-.24 1-.33 2.27.55 2.8v.06c-1.14-.39-1-2.02-.61-2.96z" fill="#263238"/><path d="M429.33 261c1.7.19 1.18 3.59-.39 3.4s-1.04-3.62.39-3.4z" fill="#263238"/><path d="M430 261.23c.26.23.5.62.86.71s.77-.21 1.09-.51c0 0 .06 0 .05.05-.09.65-.44 1.28-1.15 1.27s-1-.65-1.08-1.33c-.04-.13.09-.29.23-.19zM421.76 260.39c0-.05-.09 0-.09.08-.12 1-.44 2.25-1.44 2.46v.06c1.19.01 1.59-1.58 1.53-2.6z" fill="#263238"/><path d="M421 259.15c-1.67-.37-2.3 3-.75 3.35s2.13-3.04.75-3.35z" fill="#263238"/><path d="M420.24 259.24c-.3.13-.63.41-.95.37s-.58-.46-.75-.85h-.06c-.14.65-.05 1.36.55 1.6s1.06-.26 1.33-.88c.05-.09 0-.29-.12-.24zM425.8 269.86c-.28.22-.57.54-1 .53a2.84 2.84 0 01-1.11-.39l-.05.05a1.44 1.44 0 001.28.72 1.14 1.14 0 00.94-.85c.06-.06-.02-.09-.06-.06zM422 265.35s-.48 1.53-.6 2.27c0 .07.16.13.41.19a3.55 3.55 0 003.63-.75c.06-.06 0-.15-.09-.12a5.35 5.35 0 01-3.36.39c0-.21.9-2.59.78-2.62a6.59 6.59 0 00-1.74.1c.9-3.22 2.3-6.27 3.15-9.49a.1.1 0 00-.19-.07 53.86 53.86 0 00-3.82 10.07c-.06.41 1.55.1 1.83.03z" fill="#263238"/><path d="M426.86 245.83a6.88 6.88 0 00-.19 4c1.32 3.61 5.57 3.1 6.86 4.6s.49 4 1.57 5.41c1.51 1.93 3.85 1.46 4 2.68s.59 5.1 2.07 5.73 10.86-24-9.1-25.08c0 0-2.62-1.37-7.06.35-4.89 1.91-7.66 9.4-7.66 9.4s.11-.1.85-.63c1-.76 1.48-1.5 2.24-2 1.19-.75 1.76-.37 3-1.1a13.18 13.18 0 003.42-3.36z" fill="#263238"/><path d="M427.27 244.76a12.69 12.69 0 00-.87 3 5.53 5.53 0 00.14 3 4.1 4.1 0 002.11 2c.91.44 2 .64 2.93 1.14a3.17 3.17 0 011.23 1.13 4.08 4.08 0 01.44 1.59 5.54 5.54 0 00.84 2.85 3.47 3.47 0 002.56 1.38 7.29 7.29 0 013.07.45 7.39 7.39 0 00-3.08-.21 3.8 3.8 0 01-2.85-1.38 5.62 5.62 0 01-1-3 3.92 3.92 0 00-.4-1.41 2.7 2.7 0 00-1.07-.93c-.87-.47-1.92-.7-2.88-1.17a5.62 5.62 0 01-1.35-.91 3.35 3.35 0 01-.93-1.35 5.83 5.83 0 010-3.18 13.19 13.19 0 011.11-3z" fill="#263238"/><path d="M426.8 245.63a11.15 11.15 0 01-1.22 2.65 5.16 5.16 0 01-2.21 2 7.64 7.64 0 01-1.42.4 2.43 2.43 0 00-1.15.62 7.51 7.51 0 01-1 1.09 3.14 3.14 0 01-1.34.61 3.41 3.41 0 001.17-.79 8 8 0 00.85-1.15 2.45 2.45 0 011.31-.82 8 8 0 001.35-.41 5.39 5.39 0 002.08-1.78 20.76 20.76 0 001.58-2.42z" fill="#263238"/><path d="M438.05 266.08s4.11-4.31 6.11-2.78-1.59 8.14-4.3 8.71a2.65 2.65 0 01-3.29-1.94z" fill="#ad6359"/><path d="M443.08 265.17v.07c-1.92.46-3.12 2-4 3.61a1.45 1.45 0 012.21-.06c.05 0 0 .1-.06.08a1.61 1.61 0 00-1.85.3 7.48 7.48 0 00-1.07 1.3c-.11.15-.38 0-.29-.16.29-2.31 2.56-5.31 5.06-5.14z" fill="#263238"/><path d="M427.68 285.35l2.21 7.12 9.28-8 2.2 3s-9.5 13.18-9.51 12.55l-2.36-6.17-4.43 3.8 1.17-10.35z" fill="#ebebeb"/><path d="M425.36 292.46c.25-1.7.45-3.42.78-5.11 0-.06.11-.08.12 0 .21 1.68-.79 8.19-.91 9.76.19-.16 4.1-3.33 4.13-3.27.54 1 2.28 5.49 2.39 5.9 1.5-2.1 7.23-9.69 9-11.65.05-.05.14 0 .1.07-1.36 2.23-9 12.47-9.06 12.43a68.32 68.32 0 01-2.46-6.53c-.68.71-4.66 4.32-4.65 4.06a53.41 53.41 0 01.56-5.66z" fill="#263238"/></g><g><path fill="#dbdbdb" d="M487.4 155.37h129.39v129.39H487.4z"/><path d="M542.57 122.58v87.17h87.17v-87.17zM625 205h-77.7v-77.69H625z" fill="#263238"/><path d="M530.19 232.25l7 .49A21.6 21.6 0 00540 220c-.08-1 2.05 4.9.73 13 7.39.51 17.45 1.21 26.23 1.74.33-3.43.79-6.59.79-6.59a38.38 38.38 0 001.13 6.71c1.2.08 2.38.14 3.51.2a132.3 132.3 0 011.32-14.59 46.91 46.91 0 003.67 14.86c5.59.28 9.26.36 9 .08-8-10.07-1.56-15.37-3.58-24-2.41-10.35-11.15-12.38-10.54-20 .49-6.24 1.78-17.53-6-20.32a15.21 15.21 0 00-16.26-3.97c-12.69 4.2-8.63 23.69-9.66 27.57-1.47 5.54-4.23 7.39-6.51 13.69s.43 10.79.56 15.18-5.6 8.61-4.2 8.69z" fill="#263238"/><path d="M586.75 234a22 22 0 01-2.46-5.59 11.52 11.52 0 01.29-5.87 58.64 58.64 0 001.31-6.12 16.22 16.22 0 00-.32-6.46 14.31 14.31 0 00-3.11-5.7 37.88 37.88 0 00-4.61-4.29 23.11 23.11 0 01-4.25-4.31 11.31 11.31 0 01-2-5.69 10.55 10.55 0 001.34 6.09 21 21 0 004.07 4.82 47.2 47.2 0 014.27 4.35 13.7 13.7 0 012.69 5.15 16.14 16.14 0 01.32 5.85c-.21 2-.67 4-1 6a20.77 20.77 0 00-.34 3.18 9.1 9.1 0 00.56 3.2 17.91 17.91 0 003.24 5.39zM542.59 174a31.19 31.19 0 00-2 7.38c-.43 2.51-.74 5-1 7.57l-.45 3.77a18.88 18.88 0 01-.73 3.59 20.46 20.46 0 01-3.7 6.3 28.7 28.7 0 00-2.19 3.24 17.46 17.46 0 00-1.56 3.67 27.19 27.19 0 00-.73 3.87 16.4 16.4 0 000 4c.17 1.31.48 2.56.73 3.78a20.06 20.06 0 01.42 3.69 7.85 7.85 0 01-3.36 6.31 8 8 0 004.15-6.28 19.53 19.53 0 00-.15-3.9c-.17-1.28-.43-2.52-.51-3.74a20 20 0 01.91-7.24 17.44 17.44 0 011.46-3.31 27.7 27.7 0 012.11-3.05 36.08 36.08 0 002.23-3.19 16 16 0 001.65-3.64 20.62 20.62 0 00.68-3.89c.13-1.28.21-2.55.29-3.82.17-2.54.3-5.07.54-7.59a36.51 36.51 0 011.21-7.52z" fill="#263238"/><path d="M603.64 281.21c0-.15 0-.3-.08-.45a5.43 5.43 0 01.09.56.41.41 0 00-.01-.11zM578.6 285.64a1.59 1.59 0 00.26.14v-.07l-.27-.06z" fill="#ffc727"/><path d="M542.82 215.64c-15.72 17.68-34.75 54.15-30.48 61.12 4.75 7.76 27.42-17.42 26.64-18.56-.66-1 6.71-22.78 12.07-38.73s-4.34-8.2-8.23-3.83z" fill="#d3766a"/><path d="M542.82 215.64c-15.72 17.68-34.75 54.15-30.48 61.12 4.75 7.76 27.42-17.42 26.64-18.56-.66-1 6.71-22.78 12.07-38.73s-4.34-8.2-8.23-3.83z" fill="#455a64"/><path d="M544.94 237.77c-1.54 4.65-2.94 9-4 12.5-2.43.11-9.54-.28-16.92-7.38 2.22-3.93 4.62-7.88 7.1-11.66a22.1 22.1 0 0013.82 6.54z" fill="#ebebeb"/><path d="M527.66 284.82l3.94-26.75s-6.32-11-2.65-19c1.85-4 14.56-23.64 21.4-28.61 6.42-4.66 15.22-.41 18.21 3.64 8.6 11.66 12.79 32.64 17.59 70.69z" fill="#455a64"/><path d="M539.17 222.82c-1.3 1.78-2.56 3.59-3.8 5.42.34-.71.68-1.42 1-2.13 0-.05 0-.1-.07 0-.46.89-.89 1.79-1.3 2.7q-2.49 3.67-4.82 7.46a19.84 19.84 0 00-1.71 3.34 14.94 14.94 0 00-.83 3.54 17.81 17.81 0 00-.06 3.65 24.38 24.38 0 00.53 3.71 23.13 23.13 0 001.3 4.06c.28.64.57 1.27.89 1.9s.87 1.72.87 1.76c-.12.64-.24 1.09-.32 1.63s-.17 1.1-.25 1.65c-.17 1.1-1.59 11.78-1.75 12.88-.32 2.18-.6 4.36-.87 6.55-.15 1.26-.24 2.52-.41 3.77 0 .05.07.07.08 0 .18-1.09.45-2.16.64-3.25s.4-2.18.61-3.27c.41-2.2 2-14 2.34-16.21.1-.61.19-1.22.29-1.84a11.59 11.59 0 00.23-2 49.16 49.16 0 01-2.72-6.84 24.06 24.06 0 01-.77-3.64 18.94 18.94 0 010-3.61 16.4 16.4 0 01.69-3.55 19.07 19.07 0 011.54-3.38c1.28-2.27 2.64-4.5 4-6.71q2.34-3.76 4.76-7.49s-.06-.14-.09-.1z" fill="#263238"/><path d="M512.34 276.76c4 5.15 14.23 5.64 39.85 9.28 3.54.51 13.83-23.55 10.07-24.28-4.73-.93-23.3-3.49-24.68-3.5-11.65-.14-27.97 15.01-25.24 18.5z" fill="#d3766a"/><path d="M557.13 260.86s10.83 1.07 16.35 3.39A38.47 38.47 0 01588 275.61c4.16 5.27 10.56 20.9 6.38 23.53-3.78 2.38-9.52-13.93-9.52-13.93s8.59 15.66 3.51 17.69-10.67-17.28-10.67-17.28 8.47 16.29 2.9 17.55c-4.21 1-10.25-16.24-10.25-16.24s7.18 14.05 2.89 15.21c-4.74 1.29-11.31-14.23-11.31-14.23-11.4 1.13-17.3-3-21.14-6.43-.98-.83 16.34-20.62 16.34-20.62z" fill="#d3766a"/><path d="M582.18 279.61c1.08 1.8 2.18 3.62 3.09 5.51s1.76 3.82 2.49 5.79a35.22 35.22 0 012.12 7.93c-1.06-4.77-4.22-11.59-5.14-13.49s-1.72-3.82-2.63-5.71l.07-.03zM575.29 282.78c1.27 2.36 2.63 4.66 3.8 7.07s2 4.8 3 7.28c.08.19 0 .17-.14 0-1.09-2.44-2.29-4.61-3.41-7s-2.15-4.89-3.36-7.27c.03-.1.09-.12.11-.08zM568.88 284.43a59.35 59.35 0 015 11.27c.07.19-.09.15-.17-.05-1.59-3.77-2.8-6.75-4.93-11.14-.05-.07.06-.15.1-.08z" fill="#263238"/><path d="M565.31 261.05l-21.09 24.82s-28.8-2-32.12-9.6 18.61-18.65 25.45-18 27.76 2.78 27.76 2.78z" fill="#455a64"/><path d="M526.45 261.51c1.66-1.14 6.36-3.82 11.1-3.29v.08c-3.89.12-9.37 2.31-11.06 3.27-.04.03-.08-.04-.04-.06zM539.76 281.58c8.29-8.78 15.67-19.27 17.09-21 .06-.08-.08-.18-.14-.1-1.3 1.78-11 12.85-17.1 21-.07.09.07.18.15.1z" fill="#263238"/><path fill="#ffc727" d="M508.563 273.206l9.349-45.786 35.164 7.18-9.348 45.786z"/><path fill="#ebebeb" d="M527.784 226.945l16.663 3.42-1.038 5.055-16.662-3.42z"/><path fill="#ebebeb" d="M540.65 229.61l-2.05-.43.47-2.32-4.98-1.03-.48 2.33-2.05-.42.87-4.24 9.12 1.87-.9 4.24z"/><path d="M572.77 219.68C589.71 241.23 596.1 280 586.7 283c-8.59 2.76-43.92-6.08-54.45-9.66-3.09-1.05 6.46-25.08 9.77-24 4 1.35 25.84 6.53 26.27 6.54.91 0-3.95-23.82-6-34.63-2.94-15.04 4.12-9.67 10.48-1.57z" fill="#d3766a"/><path d="M513.77 240.32a3.87 3.87 0 00-.34 4.42 5.78 5.78 0 00-3.15 2.34c-1.22 2 1.45 4.85 1.45 4.85a7.09 7.09 0 00-2.93 3c-1 2.07 1.32 5.29 1.32 5.29a6.21 6.21 0 00-.92 4.25c.74 3.94 6.43 6.18 10 7.64s15.2 2.21 17.39 2.58l9.56-23.07s-14.31-11.13-18.8-12.25c-3.73-.94-11.57-1.37-13.58.95z" fill="#d3766a"/><path d="M513.74 244.44c4.26 0 8.27 1.32 12.35 2.38.09 0 0 .16 0 .14-4-1.1-8.26-1.38-12.34-2.32a.1.1 0 01-.01-.2zM511.93 251.66a11 11 0 012.82.67c1 .31 2 .63 2.92 1 2 .68 3.87 1.41 5.78 2.19.08 0 0 .17 0 .14q-2.91-1-5.85-1.91c-1-.3-2-.59-2.95-.87a13.36 13.36 0 01-2.76-.92.15.15 0 01.04-.3zM510.2 260.23a7.81 7.81 0 012.51.75c.87.33 1.76.65 2.64 1 1.76.63 3.53 1.27 5.31 1.84a.08.08 0 010 .15c-1.81-.58-3.64-1.13-5.45-1.72l-2.66-.89a7 7 0 01-2.35-1 .06.06 0 010-.13z" fill="#263238"/><path d="M568 254.91c.27-.17-4.8-23.17-6.5-35.18s3.66-10.85 11.37-.59c8.27 11 23 40.76 17.89 62.8-1.65 7.14-52.78-2.86-52.78-2.86l6.89-29.39s22.68 5.47 23.13 5.22z" fill="#455a64"/><path d="M588.81 252.73c-8.34 2.44-17.39 1.2-21.08.51-.53-2.89-1.82-9.15-3.14-15.91 8.76 1 14.7-.28 17.95-1.37a113.59 113.59 0 016.27 16.77z" fill="#ebebeb"/><path d="M544.64 276.06c3.11-10.24 4.82-21.46 5.26-23.4 0-.09-.13-.11-.14 0-.33 1.92-3.69 14.54-5.28 23.39-.02.08.13.1.16.01zM577.58 258.31c-1-.17-27.09-7.52-32.79-8.41-.09 0 0-.31.08-.29a241.07 241.07 0 0133.06 8.22c1.3.52 1.49.8-.35.48z" fill="#263238"/><path d="M567.72 255.14s-1.72-8.86-2-9.41-1-1.83-1.28-2.42c-.57-1.19-1.06-2.41-1.58-3.62 0-.1.11-.17.15-.07.57 1.16 1.23 2.28 1.9 3.39.33.54.66 1.09 1 1.62 0 0-1.61-8.6-1.84-10.12 0-.11.1-.15.14 0 .49 1.53 3.91 18.84 4.38 20.76a6 6 0 01-.87-.13zM548.48 280.9c-1.71-.47-8.54-1.57-10.2-1.81a21.62 21.62 0 00.6-3.74.08.08 0 00-.14 0 29.94 29.94 0 00-1.25 4.28c0 .14 9.2 1.3 11 1.39.02-.02.04-.1-.01-.12z" fill="#263238"/><path d="M546.19 212.63s.68 6.76 6.29 7.81 16.08-6.31 16.08-6.31a15.61 15.61 0 00-11.81-5.68c-7.31-.01-10.56 4.18-10.56 4.18z" fill="#d3766a"/><path d="M562.28 210.74c-.3 1-5.59 7.42-10.28 6.93-1.53-.17-1-8.55-1-8.55l-.1-.62-1.45-8.78 10.56-6 1.52-.78s.24 2.43.5 5.46v.43c0 .15 0 .33.05.49 0 .45.09.91.12 1.37s.06.7.08 1.06l.06 1.1a57.7 57.7 0 01-.06 7.89z" fill="#d3766a"/><path d="M562 198.44a17.88 17.88 0 01-11.13 10.06l-1.45-8.78 10.56-6 1.52-.78s.25 2.47.5 5.5z" fill="#263238"/><path d="M539.28 183.33c-4.11 15.06 4.46 19.23 7.71 20.11 3 .8 13.09 3.15 18.74-11.41s-.06-21.24-6.72-23.43-15.62-.34-19.73 14.73z" fill="#d3766a"/><path d="M544.71 180.38h1.08a1.74 1.74 0 001.1-.18.54.54 0 00.16-.66 1.37 1.37 0 00-1.24-.63 2 2 0 00-1.41.4.6.6 0 00.31 1.07zM555.45 181.88a8.68 8.68 0 01-1-.45 1.72 1.72 0 01-.92-.64.55.55 0 01.15-.66 1.35 1.35 0 011.4 0 2 2 0 011.08 1 .59.59 0 01-.71.75zM552 186.7s.06.07 0 .11c-.29 1-.44 2.25.41 2.82v.05c-1.07-.44-.84-2.06-.41-2.98z" fill="#263238"/><path d="M553.19 185.85c1.7.28 1 3.65-.56 3.38s-.85-3.62.56-3.38z" fill="#263238"/><path d="M553.82 186.16c.25.25.47.65.82.76s.78-.17 1.12-.45c0 0 .06 0 0 .05-.13.65-.51 1.26-1.22 1.21s-1-.71-1-1.39c.04-.12.18-.28.28-.18zM545.8 184.64s-.09 0-.1.08c-.19 1.05-.58 2.21-1.6 2.35v.06c1.18.09 1.69-1.46 1.7-2.49z" fill="#263238"/><path d="M545.11 183.36c-1.65-.49-2.5 2.84-1 3.29s2.38-2.88 1-3.29z" fill="#263238"/><path d="M544.36 183.4c-.31.11-.65.36-1 .3s-.55-.5-.69-.9h-.06c-.18.63-.14 1.35.44 1.63s1.07-.19 1.39-.78c.09-.09.04-.29-.08-.25zM549.34 194.58c-.29.2-.59.5-1 .47a2.84 2.84 0 01-1.08-.44h-.06a1.45 1.45 0 001.24.79 1.15 1.15 0 001-.8c.02-.02-.05-.05-.1-.02zM545.82 189.87s-.55 1.51-.71 2.24c0 .07.15.14.4.21a3.53 3.53 0 003.66-.56c.07-.06 0-.15-.09-.12a5.34 5.34 0 01-3.37.21c0-.21 1-2.54.92-2.58a6.45 6.45 0 00-1.75 0c1.07-3.17 2.63-6.14 3.64-9.31 0-.12-.13-.19-.18-.09a53.93 53.93 0 00-4.34 9.86c-.13.42 1.5.2 1.82.14z" fill="#263238"/><path d="M545.8 192.09a4.25 4.25 0 001.29 1.7 1.91 1.91 0 001.1.37c.86 0 1.08-.74 1.1-1.41a4.52 4.52 0 00-.1-1.06 5.53 5.53 0 01-3.39.4z" fill="#263238"/><path d="M547.09 193.79a1.91 1.91 0 001.1.37c.86 0 1.08-.74 1.1-1.41a2 2 0 00-2.2 1.04z" fill="#ff9cbd"/><path d="M564.89 191.78c-1.61-.57-4.58-6.29-2.44-14.22 0 0-1.43 7.26-1.19 8.45s-1.66-3.22 0-9.64a26.75 26.75 0 01-7.51 1.52c-3.24 0-5.08-.58-5.23-.86s4.67-.4 6.26-1.44c0 0-9.06 1.43-12.83.65-.43-.09 1.57-9 8.34-11.09s14.64 4.52 16.4 7.56c0 0 2.73 1.22 4.62 6.33s-4.69 13.35-6.42 12.74z" fill="#263238"/><path d="M562.56 192.11s4.22-4.19 6.18-2.6-1.83 8.09-4.55 8.57a2.64 2.64 0 01-3.23-2z" fill="#d3766a"/><path d="M567.61 191.35v.07c-1.92.4-3.17 1.89-4.14 3.49a1.45 1.45 0 012.22 0s0 .1-.07.08a1.62 1.62 0 00-1.86.24 8.29 8.29 0 00-1.1 1.27c-.12.15-.39 0-.29-.16.39-2.34 2.74-5.21 5.24-4.99z" fill="#263238"/><path d="M578.63 285.65l.26.06z" fill="#d3766a"/><path d="M603.56 280.76a5.43 5.43 0 01.09.56.41.41 0 000-.11l-.09-.45z" fill="#ffc727"/><path d="M603.56 280.76a5.43 5.43 0 01.09.56.41.41 0 000-.11l-.09-.45zM577.45 288.37l.81.19z" fill="#ffc727"/><path d="M603.56 280.76a5.43 5.43 0 01.09.56.41.41 0 000-.11l-.09-.45z" fill="#dbdbdb"/></g><g><path d="M317.65 113.62V153h39.43v-39.38zm3 36.44v-33.47h33.45v33.47z" fill="#ebebeb"/><path fill="#37474f" d="M345.67 103.55h133.77v123.19H345.67z"/><path d="M436.45 164.64c16.3 16.52 36.8 51.27 33 58.32-4.26 7.85-26.95-15.31-26.87-16.67.07-1-7.91-22.13-14-37.48s3.84-8.26 7.87-4.17z" fill="#f7a9a0"/><path d="M442.41 206.32c-.69-2.26-11.56-30.09-14.66-38.9s-.23-11.52 8.64-3.46 28.31 35 32.75 49.29c4.27 13.75-2.82 13.75-12.14 7.42-7.69-5.19-14.59-14.35-14.59-14.35z" fill="#ffc727"/><path d="M434.85 164.87a7.19 7.19 0 01-1.54 3.36 6.81 6.81 0 01.55-1.78 7.08 7.08 0 01.99-1.58zm26.88 38.28a6.25 6.25 0 00-.55 1.78 6.54 6.54 0 001-1.58 6.81 6.81 0 00.55-1.78 6.25 6.25 0 00-1 1.58zm-9.61-14.63a6.42 6.42 0 00-.55 1.79 6.8 6.8 0 001-1.59 6.59 6.59 0 00.55-1.78 6.74 6.74 0 00-1 1.58zm-10-3.67a6.25 6.25 0 00-1.78-.55 7.19 7.19 0 003.36 1.54 6.54 6.54 0 00-1.56-.99zm9 14.79a6.42 6.42 0 00-1.79-.55 6.8 6.8 0 001.59 1 6.59 6.59 0 001.78.55 6.74 6.74 0 00-1.56-1zm-7.32-25.33a6.25 6.25 0 00-1.78-.55 6.54 6.54 0 001.58 1 6.35 6.35 0 001.78.55 6.54 6.54 0 00-1.56-1zm-5.58 19.75a6.71 6.71 0 00.87 1.65 7.24 7.24 0 00-1.29-3.47 7 7 0 00.44 1.82zm18.83 17.62a6.54 6.54 0 00.87 1.65 7.24 7.24 0 00-1.29-3.47 6.52 6.52 0 00.44 1.82zm-12.68-3l.33.39a6.29 6.29 0 001.53-.82 6.51 6.51 0 00-1.84.46zm22.31 10.52a6.54 6.54 0 001.65-.87 6.52 6.52 0 00-1.82.42 6.23 6.23 0 00-1.65.87 6.9 6.9 0 001.84-.39zm-33.47-40.79a7.94 7.94 0 00-1.18.55l.09.25a6.61 6.61 0 001.25-.35 6.29 6.29 0 001.66-.87 6.81 6.81 0 00-1.8.45z" opacity=".1"/><path d="M440.46 226.77h-62s9.85-48.6 33.61-69.64c2.94-2.6 9.56-2 13.89.14 1.54.77 7.08 8.52 8.66 15.85s6.02 53.43 5.84 53.65z" fill="#ffc727"/><path d="M435.2 176.15c.49 1.64.89 3.33 1.22 5a1.34 1.34 0 010-.2c0-1 0-1.93.13-2.89 0 0 .09-.06.09 0a14.15 14.15 0 01.08 2.91c0 .45-.05.91-.09 1.37.13.76.25 1.53.34 2.29.19 1.44.67 6.83.71 7.9 0 .22-.25.26-.31 0-.29-1.08-1.06-6.64-1.31-8.07a78.28 78.28 0 01-1-8.37c.03 0 .12 0 .14.06z" fill="#263238"/><path d="M416 169.82a6.6 6.6 0 01-.56 1.78 6.25 6.25 0 01-1 1.58 6.72 6.72 0 01.56-1.78 6.43 6.43 0 011-1.58zm-8.4 24.68a6.25 6.25 0 00-.55 1.78 7.19 7.19 0 001.54-3.36 6.54 6.54 0 00-.99 1.58zm-20.13 8.83a6.42 6.42 0 00-.55 1.79 6.74 6.74 0 001-1.58 6.42 6.42 0 00.55-1.79 6.74 6.74 0 00-1 1.58zm14.8 15.83a6.25 6.25 0 00-.55 1.78 7.08 7.08 0 001-1.58 7.16 7.16 0 00.55-1.79 6.48 6.48 0 00-1 1.59zm25.83-30.58a6.77 6.77 0 00-.55 1.79 6.48 6.48 0 001-1.59 6.25 6.25 0 00.55-1.78 7.08 7.08 0 00-1 1.58zm8.14 16.79a6.42 6.42 0 00-.55 1.79 6.74 6.74 0 001-1.58 6.42 6.42 0 00.55-1.79 7 7 0 00-1 1.58zm-19.7 12.1a7.16 7.16 0 00-.55 1.79 6.48 6.48 0 001-1.59 6.6 6.6 0 00.56-1.78 6.78 6.78 0 00-1.01 1.58zm-18.87-32.73a6.72 6.72 0 00-.56 1.78 6.25 6.25 0 001-1.58 6.6 6.6 0 00.56-1.78 6.43 6.43 0 00-1 1.58zm23.42-5.52a6.25 6.25 0 00-1.78-.55 6.54 6.54 0 001.58 1 6.7 6.7 0 001.78.55 6.54 6.54 0 00-1.58-1zm3.91 19.94a6.25 6.25 0 00-1.78-.55 6.86 6.86 0 001.58 1 6.59 6.59 0 001.78.55 6.25 6.25 0 00-1.58-1zm-36.44 21.13a6.6 6.6 0 00-1.78-.56 6.25 6.25 0 001.58 1 6.83 6.83 0 001.78.56 6.25 6.25 0 00-1.58-1zm37.08 4a6.7 6.7 0 00-1.78-.55 6.54 6.54 0 001.58 1l.38.17c.33 0 .65 0 1 .06a7.2 7.2 0 00-1.18-.65zm-23.15-20.18a6.59 6.59 0 00-1.78-.55 6.25 6.25 0 001.58 1 6.46 6.46 0 001.78.55 6.86 6.86 0 00-1.58-.97zm18.6-42.57a6.6 6.6 0 00-1.78-.56 6.58 6.58 0 001.58 1 7.09 7.09 0 001.78.55 6.25 6.25 0 00-1.58-.96zm4 9.25a6.39 6.39 0 00.87 1.65 6.81 6.81 0 00-.42-1.82 6.69 6.69 0 00-.87-1.65 6.61 6.61 0 00.44 1.85zm9.91 46.15a6.23 6.23 0 00.87 1.65 7.24 7.24 0 00-1.29-3.47 6.52 6.52 0 00.42 1.82zm-26.59-34.53a6.87 6.87 0 00.87 1.65 6.51 6.51 0 00-.41-1.82 6.87 6.87 0 00-.87-1.65 6.88 6.88 0 00.36 1.82zm7.66 20.3a6.37 6.37 0 00.87 1.65 6.61 6.61 0 00-.42-1.82 6.71 6.71 0 00-.87-1.65 6.44 6.44 0 00.35 1.82zm-35.51 23.81a2.11 2.11 0 000 .25h.16zm17.44-.08a6.59 6.59 0 00-.87-1.66 6.44 6.44 0 00.42 1.82l.06.17h.5c-.11-.11-.11-.22-.11-.33zm-3.56-14.31a6.71 6.71 0 00.87 1.65 6.44 6.44 0 00-.42-1.82 6.37 6.37 0 00-.87-1.65 6.61 6.61 0 00.37 1.82zm15-47.78a6.08 6.08 0 00.87 1.65 6.61 6.61 0 00-.42-1.82 6.71 6.71 0 00-.87-1.65 6.44 6.44 0 00.38 1.82zM426 211.18a6.69 6.69 0 001.65-.87 6.51 6.51 0 00-1.82.41 6.87 6.87 0 00-1.65.87 6.51 6.51 0 001.82-.41zm-16.24 14.92a6.54 6.54 0 001.65-.87 7.24 7.24 0 00-3.47 1.29 6.52 6.52 0 001.82-.42zm-27.59-13.51c0 .14-.09.28-.13.42a5.38 5.38 0 00.85-.52 5.43 5.43 0 00-.72.1zm14.14-17.19a6.59 6.59 0 001.66-.87 6.44 6.44 0 00-1.82.42 6.59 6.59 0 00-1.66.87 6.81 6.81 0 001.82-.42zm13 16.42A6.54 6.54 0 00411 211a7.24 7.24 0 00-3.47 1.29 6.52 6.52 0 001.79-.47zm7.69-23.55a6.94 6.94 0 001.66-.87 6.43 6.43 0 00-1.82.41 6.69 6.69 0 00-1.65.87 6.44 6.44 0 001.81-.41zm16.35-9.38a6.29 6.29 0 001.66-.87 6.44 6.44 0 00-1.82.42 6.37 6.37 0 00-1.65.87 6.46 6.46 0 001.85-.42zm-29.23-5.48a6.54 6.54 0 001.65-.87 7.24 7.24 0 00-3.47 1.29 6.52 6.52 0 001.86-.42z" opacity=".1"/><path d="M358.45 138c-.13-3 .47-16.67 1.49-20.44s4.74-14.42 7.71-13.93 2.13 3.69 2.13 3.69 2.28-4.25 5.23-3.49 1.47 5.71 1.47 5.71 2.66-4.19 5.55-3.22.57 5.69.57 5.69 2.25-3.94 4.29-2.14c2.45 2.16-2.53 9-3.34 13.21-.19 1-2.36 19.83-2.36 19.83z" fill="#f7a9a0"/><path d="M382.79 111.63c-3.66 5-4.39 7.84-4.79 13.93 0 .12-.19.13-.19 0-.15-6 .26-9.68 4.74-14.13.22-.2.45-.03.24.2zM376.78 109.18c-3.34 5.53-4.16 8.59-5.06 14.93 0 .09-.16.08-.16 0 .36-6.3.85-10 4.91-15 .19-.29.46-.19.31.07zM369.74 107.67c-2.84 5.59-3.88 8.91-4 15.18a.12.12 0 01-.23 0c-.54-6.4.73-10.55 4-15.26.28-.31.41-.27.23.08z" fill="#263238"/><path d="M381 146.84s5.65-5.33 7.62-8.21 5.35-16.35 2.48-17.25c-3.7-1.15-7.18 6.23-8.41 10.07 0 0-8.56-2.68-12.2 2.08S381 146.84 381 146.84z" fill="#f7a9a0"/><path d="M390 121.4c-4.13 1.38-5.42 6.52-6.9 10.16a.36.36 0 01-.57.16c-3.66-.89-9.08-1.07-12 1.57a.09.09 0 01-.14-.12c2.81-3.27 8.15-3.52 12.1-2.3 1.45-3.75 3-8.86 7.55-9.51-.04-.01-.04.03-.04.04z" fill="#263238"/><path d="M415.53 164.38c-3.72 6.44-25.22 26.29-44 29.73-2.54.46-12.22-1.58-14.25-8-3.61-11.44-.72-35.06 1.12-49.28.36-2.77 26.14 2.93 25.47 7.17-.74 4.7-3.5 21.95-3.07 22.15 1.54.71 18-6.41 28.83-8.74 7.7-1.66 8.77 2.01 5.9 6.97z" fill="#f7a9a0"/><path d="M354.79 143.85l29.38 6.36s-2.67 15-2.15 14.93 21.14-7.61 29.09-8.4 7.94 2.71 3.91 9.27-30.43 28.52-43.44 28.52c-6.62 0-12.78-4.24-14-6.27-3.71-6.26-2.79-44.41-2.79-44.41z" fill="#455a64"/><path d="M354.79 143.85l29.38 6.36s-2.67 15-2.15 14.93 21.14-7.61 29.09-8.4 7.94 2.71 3.91 9.27-30.43 28.52-43.44 28.52c-6.62 0-12.78-4.24-14-6.27-3.71-6.26-2.79-44.41-2.79-44.41z" fill="#ffc727"/><path d="M396.89 164.77a6.59 6.59 0 00-.55 1.78 6.25 6.25 0 001-1.58 6.35 6.35 0 00.55-1.78 6.86 6.86 0 00-1 1.58zM373.55 191a6.25 6.25 0 00-.55 1.78 7.19 7.19 0 001.54-3.36 6.74 6.74 0 00-.99 1.58zm-17.3-18a6.27 6.27 0 00-.56 1.78 6.58 6.58 0 001-1.58 7 7 0 00.55-1.78 6.43 6.43 0 00-.99 1.58zm25.57.07a6.77 6.77 0 00-.55 1.79 6.3 6.3 0 001-1.59 6.6 6.6 0 00.56-1.78 6.66 6.66 0 00-1.01 1.59zM369 180.49a6.81 6.81 0 00-.55 1.78 6.25 6.25 0 001-1.58 6.6 6.6 0 00.56-1.78 6.58 6.58 0 00-1.01 1.58zm1.14-18.06a6.46 6.46 0 00-.55 1.78 7.19 7.19 0 001.54-3.36 6.54 6.54 0 00-1.04 1.58zM357 149a6.6 6.6 0 00-.56 1.78 6 6 0 001-1.58 6.72 6.72 0 00.56-1.78 6.54 6.54 0 00-1 1.58zm52.83 15.17a6.54 6.54 0 00-.87-1.65 6.44 6.44 0 00.42 1.82 6.34 6.34 0 00.86 1.65 6.51 6.51 0 00-.39-1.81zm-17.4 12a6.69 6.69 0 00-.87-1.65 6.52 6.52 0 00.42 1.82 6.23 6.23 0 00.87 1.65 6.81 6.81 0 00-.4-1.8zm-13.07-13.53a6.54 6.54 0 00-.87-1.65 7.24 7.24 0 001.29 3.47 6.52 6.52 0 00-.4-1.8zm-1.69 19.58a6.54 6.54 0 00-.87-1.65 6.52 6.52 0 00.42 1.82 6.37 6.37 0 00.87 1.65 6.52 6.52 0 00-.4-1.8zm-16.76-2.11a6.37 6.37 0 00-.87-1.65 7 7 0 00.42 1.82 6.54 6.54 0 00.87 1.65 6.44 6.44 0 00-.4-1.8zm5.29-27.68a6.59 6.59 0 00-.87-1.66 6.58 6.58 0 00.41 1.83 7.07 7.07 0 00.87 1.65 6.43 6.43 0 00-.39-1.8zm-2 15.7a6.69 6.69 0 00-.87-1.65 6.52 6.52 0 00.42 1.82 6.37 6.37 0 00.87 1.65 6.44 6.44 0 00-.38-1.8zM404 173a6.54 6.54 0 00-1.65.87 6.61 6.61 0 001.82-.42 6.54 6.54 0 001.65-.87 6.52 6.52 0 00-1.82.42zm-31.08-.72a7.07 7.07 0 00-1.65.87 6.44 6.44 0 001.82-.42 6.37 6.37 0 001.65-.87 6.52 6.52 0 00-1.83.38zm2.94-18.46a6.69 6.69 0 00-1.65.87 6.46 6.46 0 001.81-.42 6.08 6.08 0 001.65-.87 6.46 6.46 0 00-1.82.38zm-16.68 5.79a6.69 6.69 0 00-1.65.87 7.1 7.1 0 003.47-1.28 6.8 6.8 0 00-1.83.37zm27.73 25a6.87 6.87 0 00-1.65.87 7.1 7.1 0 003.47-1.28 6.51 6.51 0 00-1.83.41zm-22.33 4.89a6.54 6.54 0 00-1.65.87 6.44 6.44 0 001.82-.42 6.37 6.37 0 001.65-.87 6.52 6.52 0 00-1.83.42zm24.07-24.86a6.69 6.69 0 00-1.65.87 7 7 0 001.82-.41 7.07 7.07 0 001.65-.87 6.43 6.43 0 00-1.83.41z" opacity=".1"/><path d="M382.25 165.27a45 45 0 01-1.17 6.64c-.49 2.22-1.19 4.37-1.84 6.54h-.08c.57-2.18 1-4.41 1.46-6.62s.81-4.42 1.38-6.6c0-.16.26-.11.25.04zM382.44 155.75c-3.4-.84-6.84-1.51-10.29-2.16s-6.9-1.32-10.36-1.89c-2-.32-3.92-.65-5.89-.91 0 0-.07.08 0 .09 3.39.85 6.84 1.53 10.28 2.21s6.9 1.32 10.35 1.93c2 .34 3.92.65 5.89.9.07.02.12-.14.02-.17zM392.14 185.76c.54-.48 1.14-.89 1.71-1.33s1.1-.87 1.66-1.29l3.4-2.61c2.26-1.75 4.48-3.56 6.72-5.34 1.28-1 2.54-2 3.8-3.08a.05.05 0 01.07.08c-1.54 1.45-3.1 2.88-4.7 4.26l.6-.29c.62-.31 1.22-.64 1.82-1 0 0 .09.05 0 .08a16 16 0 01-1.76 1.08c-.3.16-.6.32-.91.46l-.45.19c-.36.31-.72.62-1.09.92q-3.33 2.72-6.8 5.23-1 .69-1.95 1.35c-.69.45-1.36.95-2.09 1.36a.06.06 0 01-.03-.07zM421.3 171.97l3.43-5.22 3.23 4.39-1.32 3.88-3.66.08-1.68-3.13zM422.98 175.1l-6.08 40.43 6.17 14.25 5.57-14.69-2-40.07-3.66.08z" fill="#263238"/><path d="M426 166.38c-3.57.86-9.74-4.56-12.19-9-.17-.3.28-3.5.63-7.42.21-2.38.38-5 .37-7.47l15.28 3.61a38.51 38.51 0 00-1.41 9.35 4.51 4.51 0 00.11 1v.17c.3 1.91.62 8.91-2.79 9.76z" fill="#f7a9a0"/><path d="M415.84 142.77c.47 3.22 2.65 13.82 11.36 14a9.63 9.63 0 001.57-.09 1.28 1.28 0 010-.17 5.17 5.17 0 01-.12-1 38.94 38.94 0 011.42-9.35z" fill="#263238"/><path d="M411.25 125.46c-1.17 5.53 3.06 20.85 7.2 24 6 4.54 15.14 4.21 18.82-2.85 3.57-6.84-2.29-26.7-6.85-29.47-6.72-4.14-17.42.14-19.17 8.32z" fill="#f7a9a0"/><path d="M424.89 134.54s-.07.07-.06.11c.31 1 .5 2.25-.34 2.85v.05c1.12-.47.86-2.09.4-3.01z" fill="#263238"/><path d="M423.67 133.71c-1.69.32-.92 3.69.65 3.39s.77-3.66-.65-3.39zM431.11 133c0-.05.09 0 .1.07.2 1.05.62 2.22 1.64 2.35v.06c-1.18.09-1.72-1.48-1.74-2.48z" fill="#263238"/><path d="M431.79 131.68c1.65-.51 2.55 2.83 1 3.3s-2.38-2.87-1-3.3z" fill="#263238"/><path d="M422 132.48c.43-.22.79-.5 1.2-.76s.85-.49 1.07-1a.72.72 0 00-.31-.83 1.79 1.79 0 00-1.82.22 2.68 2.68 0 00-1.24 1.47.78.78 0 001.1.9zM432.7 129.69a13.54 13.54 0 01-1.42 0 2.22 2.22 0 01-1.43-.32.73.73 0 01-.16-.88 1.81 1.81 0 011.68-.73 2.65 2.65 0 011.81.63.78.78 0 01-.48 1.3z" fill="#a6a6a6"/><path d="M426.47 144.16c.31.19.63.47 1 .41a2.7 2.7 0 001.06-.52h.06a1.45 1.45 0 01-1.2.87 1.15 1.15 0 01-1-.74c-.04-.01.04-.05.08-.02zM426.85 140.79a3.63 3.63 0 002.74 1 4.44 4.44 0 001.29-.23l.23-.08.23-.09a.27.27 0 00.15-.28.49.49 0 000-.11v-.09c-.16-.81-.52-2-.52-2 .33.08 2 .41 1.86 0a55.1 55.1 0 00-3.84-10.43.1.1 0 00-.19.07c.84 3.33 2.25 6.49 3.14 9.82a6.22 6.22 0 00-1.79-.12c-.11.06.73 2.31.78 2.68a5 5 0 01-3.94-.3c-.15 0-.22.09-.14.16z" fill="#263238"/><path d="M430.32 141.42a4.38 4.38 0 01-1.47 1.64 2 2 0 01-1.14.28c-.89-.07-1-.84-1-1.52a4.33 4.33 0 01.19-1.08 5.62 5.62 0 003.42.68z" fill="#263238"/><path d="M428.85 143.06a2 2 0 01-1.14.28c-.89-.07-1-.84-1-1.52a2 2 0 012.14 1.24z" fill="#ff9cbd"/><g opacity=".2"><path d="M426.5 127.36a13.14 13.14 0 001.65-.25c.55-.14 1.06-.39 1.61-.52a9.23 9.23 0 013.19 0c.09 0 .09.07 0 .06a7.81 7.81 0 00-3.33.27 9.91 9.91 0 01-2.68.65 10 10 0 00-5.86 1.94 9.94 9.94 0 015.42-2.15zM426.14 125.9a10.43 10.43 0 001.57-.23c.52-.13 1-.37 1.53-.49a8.74 8.74 0 013 0c.09 0 .09.07 0 .06a7.65 7.65 0 00-3.16.26 9.24 9.24 0 01-2.54.61 9.48 9.48 0 00-5.55 1.85 9.51 9.51 0 015.15-2.06z"/></g><path d="M412.77 138.66s-5.36-8.83-4.86-13.94c.22-2.31 3.36-3.86 3.36-3.86a5.22 5.22 0 011.65-5.25c2.73-2.57 9.34-2 9.34-2s4.28-6.19 10.34-3.74 2.12 9.32 2.12 9.32 2.22 3.16-3.21 5.63-16.1.05-16.1.05a37.55 37.55 0 01-.16 11.2 3.44 3.44 0 01-2.48 2.59z" fill="#a6a6a6"/><path d="M423.3 113.69a10.52 10.52 0 00-4.26-.77 11.39 11.39 0 00-3.84.6 6.37 6.37 0 00-4.49 4.79 4.46 4.46 0 00.85 3.35h.06c-1.4-1.74-.67-4.44.78-5.89a9.66 9.66 0 016.39-2.37 19.18 19.18 0 014.47.47c.09-.03.12-.14.04-.18zM436.94 112.79a5.19 5.19 0 00-3.6-3.3 8.83 8.83 0 00-5.74.2 11.29 11.29 0 00-4.69 3.48s0 .08.06 0a9.8 9.8 0 019.37-3.49 4.8 4.8 0 013.75 7.15 10 10 0 01-3.89 3.91v.06a10.38 10.38 0 003.88-3.32 5.85 5.85 0 00.86-4.69z" fill="#a6a6a6"/><path d="M415.7 137.85s-4.06-4.64-6.21-3.14 1.3 8.5 4.08 9.2a2.73 2.73 0 003.49-1.86z" fill="#f7a9a0"/><path d="M410.53 136.69v.07c2 .56 3.14 2.19 4 3.92a1.53 1.53 0 00-2.3-.17.06.06 0 00.07.1 1.67 1.67 0 011.9.38 8 8 0 011 1.4c.1.16.4 0 .31-.15-.16-2.44-2.39-5.59-4.98-5.55z" fill="#263238"/><path d="M424.59 140a4.72 4.72 0 113.75-6.44 4.72 4.72 0 01-2.62 6.14 5.1 5.1 0 01-1.13.3zm-1.16-8.74a4.53 4.53 0 00-1 .26 4.08 4.08 0 101-.26zM435.07 137.26c-1.79.24-3.66-1.38-4.27-3.76a5.67 5.67 0 01.16-3.45 2.93 2.93 0 014.87-1.23 5.48 5.48 0 011.78 3c.64 2.52-.36 5-2.24 5.43a1.59 1.59 0 01-.3.01zm-1.63-8.63h-.24a2.54 2.54 0 00-1.66 1.62 5.06 5.06 0 00-.13 3.05c.56 2.19 2.26 3.65 3.8 3.25s2.35-2.48 1.79-4.67a5 5 0 00-1.57-2.62 2.56 2.56 0 00-1.99-.63z" fill="#455a64"/><path d="M428.33 134.12l-.52-.37c.55-.76 1.95-1.95 3.37-1l-.34.53c-1.27-.85-2.46.77-2.51.84zM408.25 140.47l-.61-.14c.06-.29.68-2.81 2-3.38s9.62-1.85 10-1.9l.1.62c-2.41.38-8.87 1.44-9.82 1.86s-1.51 2.25-1.67 2.94z" fill="#455a64"/><path d="M428.76 156.31l-4.27 8.76L414.12 153l-3.41 3.43s9.67 18.78 9.79 18l4.23-7.48 5 5.75.49-13.54z" fill="#ebebeb"/><path d="M430.32 165.94c0-2.24.08-4.49 0-6.73 0-.07-.13-.12-.15 0-.59 2.12-.58 10.68-.73 12.72-.2-.24-4.62-5.07-4.67-5-.89 1.17-4 6.62-4.21 7.12-1.52-3-7.42-13.85-9.27-16.7a.08.08 0 00-.14.07c1.31 3.13 9.1 17.75 9.23 17.72a87.11 87.11 0 004.43-7.91c.73 1 5.15 6.44 5.19 6.11a72 72 0 00.32-7.4z" fill="#263238"/><path d="M469.43 223c-3.67 5.24-13.66 6.25-38.56 11.12-3.45.68-14.76-22.36-11.12-23.27 4.59-1.15 22.65-4.6 24-4.69 11.41-.76 28.17 13.24 25.68 16.84z" fill="#f7a9a0"/><path d="M424.74 209.67s-10.56 1.6-15.84 4.15a37.74 37.74 0 00-13.6 11.86c-3.8 5.38-9.28 21-5.05 23.38 3.83 2.14 8.62-14.12 8.62-14.12s-7.62 15.77-2.54 17.5S405.9 235 405.9 235s-7.47 16.39-1.95 17.34c4.18.72 9.22-16.44 9.22-16.44s-6.32 14.13-2.06 15.06c4.71 1 10.36-14.53 10.36-14.53 11.22.53 16.78-3.81 20.37-7.37.87-.89-17.1-19.39-17.1-19.39z" fill="#f7a9a0"/><path d="M401.15 229.31c-1 1.82-1.95 3.66-2.74 5.56s-1.53 3.83-2.15 5.79a35.68 35.68 0 00-1.67 7.88c.8-4.72 3.55-11.57 4.35-13.47s1.49-3.84 2.29-5.73c.02-.05-.05-.07-.08-.03zM408.07 232.06c-1.13 2.38-2.34 4.7-3.36 7.13s-1.77 4.8-2.62 7.28c-.07.19.06.16.13 0 .95-2.44 2-4.63 3-7.06s1.86-4.91 2.92-7.3c0-.06-.06-.11-.07-.05zM414.43 233.36a58.13 58.13 0 00-4.3 11.29c-.06.19.1.14.16-.06 1.36-3.78 2.4-6.75 4.26-11.17.03-.06-.08-.14-.12-.06z" fill="#263238"/><path d="M422.54 209.67L444.36 234s22.07-5.06 25.32-10.72c2.14-3.73-14.48-18.82-27-17.06z" fill="#ffc727"/><path d="M441.91 224.84a6.46 6.46 0 01-.55 1.78 6.25 6.25 0 01-1 1.58 6.59 6.59 0 01.55-1.78 6.86 6.86 0 011-1.58zm15.16-1.37a6.77 6.77 0 00-.55 1.79 6.48 6.48 0 001-1.59 6.6 6.6 0 00.56-1.78 6.78 6.78 0 00-1.01 1.58zm-10.81-5.1a6.25 6.25 0 00-1.78-.55 7.19 7.19 0 003.36 1.54 6.54 6.54 0 00-1.58-.99zm10.81-6.69a6.54 6.54 0 00.87 1.65 7.24 7.24 0 00-1.29-3.47 6.52 6.52 0 00.42 1.82zM435 216.94a6.23 6.23 0 00.87 1.65 7.24 7.24 0 00-1.29-3.47 6.52 6.52 0 00.42 1.82zm-9-5.76a6.69 6.69 0 001.65-.87 6.51 6.51 0 00-1.82.41 6.87 6.87 0 00-1.65.87 6.51 6.51 0 001.82-.41zm18.58-2a6.69 6.69 0 001.65-.87 6.59 6.59 0 00-1.82.41 7.07 7.07 0 00-1.65.87 6.8 6.8 0 001.8-.42zm6.88 21.36a6.54 6.54 0 001.65-.87 6.44 6.44 0 00-1.82.42 6.37 6.37 0 00-1.65.87 6.61 6.61 0 001.8-.43zm16.4-12.12a7.51 7.51 0 00-1.31.37 6.54 6.54 0 00-1.65.87 6.9 6.9 0 001.82-.42 6.42 6.42 0 001.29-.63z" opacity=".1"/><path d="M457.62 210.14a21.74 21.74 0 00-15-4c-.06 0-.06.11 0 .11 5.48-.15 12.87 2.71 14.94 3.95.07.07.12-.02.06-.06zM450.33 229.9c-2.26-2.8-4.66-5.47-7.08-8.14s-4.82-5.35-7.3-8c-1.4-1.47-2.79-3-4.24-4.38a.05.05 0 00-.08.06c2.26 2.79 4.65 5.48 7 8.16s4.82 5.36 7.27 8c1.38 1.49 2.79 3 4.24 4.39.12.1.25.01.19-.09z" fill="#263238"/><path d="M422.5 209.36a29.93 29.93 0 014.09-.94c1.37-.25 2.76-.49 4.14-.71 2.75-.44 8.53-1.69 13.61-1.68.06 0-.23.28-.29.27-2.42-.13-19.75 3.32-21.17 3.42.05.1.11.19.15.29a.08.08 0 01-.12.11c-.18-.12-.3-.27-.47-.4a.2.2 0 01.06-.36z" fill="#263238"/></g><g fill="#263238"><path d="M301.87 268.19l4.19 10.14-4.19 1.74-4.22-10.21-6.93 5.38v-28.56l19.99 20.2-8.84 1.31zM291 242.89a3.5 3.5 0 01-.5-1.9 3.45 3.45 0 01.5-1.89 3.62 3.62 0 01.5 1.89 3.68 3.68 0 01-.5 1.9zM287.71 244.24a3.56 3.56 0 01-1.7-1 3.51 3.51 0 01-1-1.69 3.51 3.51 0 011.69 1 3.64 3.64 0 011.01 1.69zM286.36 247.5a3.68 3.68 0 01-1.9.5 3.62 3.62 0 01-1.89-.5 3.45 3.45 0 011.89-.5 3.59 3.59 0 011.9.5zM287.71 250.76a3.66 3.66 0 01-1 1.69 3.53 3.53 0 01-1.69 1 3.47 3.47 0 011-1.69 3.56 3.56 0 011.69-1zM295.58 247.5a3.53 3.53 0 011.89-.5 3.48 3.48 0 011.9.5 3.84 3.84 0 01-3.79 0zM294.23 244.24a3.63 3.63 0 011-1.7 3.54 3.54 0 011.7-1 3.53 3.53 0 01-1 1.69 3.57 3.57 0 01-1.7 1.01z"/></g><g><path d="M104.78 340.47a67.14 67.14 0 00-2.17 12.31c.11.21.09 1 0 .76 0 .67-1 .55-1-.11v-1.3c-2.4-3-5.89-4.87-8.72-7.47a16.28 16.28 0 01-4.77-7.6c-2.34-8.07-.15-16.61-3-24.66-2.42-6.94-6.77-13-10.46-19.25-3.89-6.65-6.75-13.63-7-21.42-.23-6 .48-13.9 5-18.37 4.81-4.74 10.78-1.19 14.47 3 10.68 12.26 15.62 27.76 17.62 43.6 1.1 8.77 2.25 17.59 2 26.44a71.24 71.24 0 01-1.97 14.07z" fill="#ffc727"/><path d="M102.65 356a150.36 150.36 0 00-.29-24.84v-.09c.13-6.72.67-13.41.4-20.13a119.06 119.06 0 00-3-21.59c0-.08-.15-.06-.13 0a141.14 141.14 0 012.33 21.11c.14 3.8.11 7.59-.09 11.39-.06 1.23-.18 2.47-.26 3.71a132.91 132.91 0 00-20-52.87c-.14-.22-.53 0-.39.24a138.32 138.32 0 0116.26 39.2c-5.14-9.52-12.9-17.34-18.65-26.49 0 0-.12 0-.09.05C84 295.89 92.57 303.92 98 314q1.42 6.14 2.3 12.37a139.22 139.22 0 011.24 17.18c-3.13-5.85-6.38-11.44-8.94-17.63-.07-.17-.31-.05-.25.11 2.18 6.43 5.11 13.35 9.2 18.83 0 4.07-.09 8.14-.33 12.2-.64 10.85-2.5 21.55-3.35 32.36a.25.25 0 00.49.05 247.11 247.11 0 004.29-33.47z" fill="#263238"/><path d="M91.13 272.35c0-.07-.14 0-.12.06 2 5.48 3.1 11 4.54 16.64A.2.2 0 0096 289c-.63-5.71-2.66-11.39-4.87-16.65z" fill="#263238"/><path d="M141.44 295.31a80.89 80.89 0 01-4.56 9.36c-3.56 6.48-7.28 12.42-8 20-.3 3.37-.41 6.75-1.43 10a29.93 29.93 0 01-4 7.82c-3.86 5.64-8.7 10.49-12.28 16.33a68.71 68.71 0 00-8.16 19.68c-.09.38-.68.28-.6-.1a.24.24 0 000-.09.09.09 0 010-.08c-.57-16.17.72-32.47 5.66-48a166.45 166.45 0 017.84-20c2.64-5.62 5.93-11 10.57-15.22 3-2.71 9.54-7.85 13.83-5.13 2.09 1.35 1.94 3.42 1.13 5.43z" fill="#ffc727"/><path d="M125.19 332a134.05 134.05 0 01-9.4 13.51c-1.57 2.05-3.16 4.07-4.72 6.12-.74 1-1.57 1.93-2.25 3 .43-1.7.85-3.4 1.28-5.1 2.09-8.17 4.09-16.42 7.2-24.28a163.93 163.93 0 0111.23-22c.11-.19-.19-.32-.3-.14-3.42 5.62-6.89 11.23-9.76 17.16a87.87 87.87 0 00-4.14 10.18 158 158 0 015.51-21.76c0-.06-.07-.11-.1 0a74.45 74.45 0 00-5.74 22.53c-.7 2.1-1.34 4.22-1.94 6.36-2.55 9.05-4.79 18.19-6.86 27.37a97 97 0 011.56-18 .11.11 0 00-.21 0 56.84 56.84 0 00-1.57 19q-1.17 5.24-2.29 10.47c-1.59 7.46-3.54 15.05-4.47 22.62a.15.15 0 00.3.05c1.11-4.08 1.78-8.31 2.68-12.44s1.85-8.29 2.82-12.42c1.4-6 2.87-12 4.37-18 1-2.2 2.94-4.15 4.39-6 1.59-2 3.19-4 4.74-6.1a91.93 91.93 0 007.78-12c.08-.13-.06-.24-.11-.13z" fill="#263238"/><path d="M125.88 325.06a84.15 84.15 0 00-9.2 14.62c0 .06.07.13.11.07 3.09-4.85 6.14-9.74 9.23-14.6.05-.08-.09-.15-.14-.09z" fill="#263238"/><path d="M57 310.65c2.1 3.61 4.49 7.94 3.59 12.28-.57 2.74-2.58 5-2.94 7.77-.81 6.18 5.35 10.26 9.8 13.18 11.11 7.29 26.34 13.78 28.36 28.66.07.53 1 .4.92-.12a.44.44 0 000-.1v-.08a56.85 56.85 0 00-.21-22.73c-1.65-7.67-5-14.56-8.95-21.3-6.68-11.4-13.76-23.08-23.87-31.82-2.7-2.39-8.48-6.76-10.7-1.3-2.17 5.3 1.46 11.16 4 15.56z" fill="#ffc727"/><path d="M67.19 334.82c7.36 8 19.07 12.44 25.41 21.37a89.56 89.56 0 00-19.53-36.68.29.29 0 01.41-.4 72.3 72.3 0 0116 23.11 103.81 103.81 0 00-6.87-17.58.19.19 0 01.33-.19 67 67 0 017.4 19.76c8.35 20.22 9.13 43.93 7.38 65.24 0 .3-.49.31-.48 0 .48-16.79.21-33.88-3.82-50.28-.08-.35-.18-.68-.26-1-6.9-9.62-18.55-14.07-26-23.2-.16-.11-.05-.23.03-.15z" fill="#263238"/><path d="M65.48 328c3.87 3.54 7.67 7.17 11.54 10.72v.07a56.36 56.36 0 01-11.72-10.56c-.18-.18.02-.4.18-.23zM64.87 312.61a120.29 120.29 0 0011.57 15.91c0 .07 0 .16-.1.1a55.84 55.84 0 01-11.68-15.89c-.06-.13.13-.25.21-.12z" fill="#263238"/><path fill="#455a64" d="M82.27 424.48h33.86l-4.56-45.55H87.49l-5.22 45.55z"/><path fill="#263238" d="M86.64 386.33h25.67l-.74-7.4H87.49l-.85 7.4z"/><path fill="#455a64" d="M115.08 381.15H83.34v-7.27h31.74z"/></g></svg>