<svg width="512" height="512" fill="none" xmlns="http://www.w3.org/2000/svg"><path fill-rule="evenodd" clip-rule="evenodd" d="M172.436 101.577C192.993 65.603 219.7 43.937 248 40.487v111.369c-31.872-1.161-61.982-9.226-88.879-22.746 4.01-9.841 8.468-19.05 13.315-27.533zm-27.422 19.768c4.084-9.83 8.609-19.094 13.53-27.706 10.142-17.749 22.151-32.998 35.64-44.664-31.34 9.344-59.696 25.611-83.295 47.026a216.755 216.755 0 0034.125 25.344zm-45.588-14.143a232.766 232.766 0 0039.795 29.31C127.73 169.339 120.877 207.406 120.079 248H40.145c1.985-54.506 24.165-103.859 59.281-140.798zm54.073 36.986c28.66 14.138 60.661 22.531 94.501 23.678V248H136.082c.777-38.001 7.071-73.388 17.417-103.812zM264 167.866V248h111.918c-.777-38.002-7.071-73.389-17.417-103.813-28.66 14.138-60.662 22.532-94.501 23.679zM308.093 264H264v44.093A120.584 120.584 0 01308.093 264zM248 368v-7.855c-31.872 1.161-61.982 9.226-88.879 22.746 4.01 9.841 8.468 19.05 13.315 27.532 20.557 35.974 47.264 57.639 75.564 61.09V368zm16 59.907a120.586 120.586 0 0028.744 33.568c-9.261 5.438-18.906 8.838-28.744 10.038v-43.606zm57.453 50.732C300.695 484.731 278.729 488 256 488 127.87 488 24 384.13 24 256S127.87 24 256 24s232 103.87 232 232c0 22.729-3.269 44.695-9.361 65.453C484.667 335.767 488 351.494 488 368c0 66.274-53.726 120-120 120-16.506 0-32.233-3.333-46.547-9.361zm145.915-177.935A120.603 120.603 0 00427.907 264h43.948a216.41 216.41 0 01-4.487 36.704zm-94.59-164.194c11.491 32.828 18.345 70.895 19.143 111.49h79.934c-1.985-54.507-24.166-103.86-59.283-140.8a232.729 232.729 0 01-39.794 29.31zM401.109 96a216.797 216.797 0 01-34.124 25.344c-4.084-9.83-8.608-19.093-13.529-27.705-10.142-17.749-22.151-32.998-35.64-44.664 31.34 9.344 59.695 25.61 83.293 47.025zm-48.231 33.109c-26.896 13.52-57.006 21.586-88.878 22.746V40.487c28.3 3.45 55.007 25.116 75.564 61.09 4.847 8.482 9.305 17.691 13.314 27.532zM40.145 264h79.934c.798 40.594 7.652 78.662 19.143 111.489a232.759 232.759 0 00-39.795 29.309C64.31 367.859 42.13 318.506 40.145 264zm70.745 151.999a216.86 216.86 0 0134.124-25.344c4.084 9.83 8.609 19.094 13.53 27.706 10.142 17.749 22.151 32.998 35.64 44.664-31.34-9.344-59.696-25.611-83.294-47.026zm42.609-48.186c28.66-14.138 60.662-22.531 94.501-23.678V264H136.082c.777 38.001 7.071 73.388 17.417 103.813zM368 264c-57.438 0-104 46.562-104 104s46.562 104 104 104 104-46.562 104-104-46.562-104-104-104zm0 144c8.837 0 16-7.163 16-16s-7.163-16-16-16-16 7.163-16 16 7.163 16 16 16zm-29.222-62.081a48.002 48.002 0 0175.585 25.658 8 8 0 01-15.455 4.141 32.002 32.002 0 00-50.39-17.105 31.996 31.996 0 00-11.429 17.105 8 8 0 01-15.455-4.141 47.998 47.998 0 0117.144-25.658zM368.002 296a79.997 79.997 0 00-77.274 59.294 8 8 0 005.657 9.798 7.999 7.999 0 009.797-5.656 64.003 64.003 0 01100.781-34.211 64 64 0 0122.858 34.211 8 8 0 0015.455-4.142A80.004 80.004 0 00368.002 296z" fill="url(#paint0_linear)"/><defs><linearGradient id="paint0_linear" x1="32" y1="32" x2="448" y2="448" gradientUnits="userSpaceOnUse"><stop stop-color="#FF003D"/><stop offset="1" stop-color="#3D00EB"/></linearGradient></defs></svg>