<svg xmlns="http://www.w3.org/2000/svg" viewBox="0 0 45.4 36.4"><circle fill="none" cx="14.3" cy="14.8" r="5.4"/><path fill="none" d="M32 21.9c-1.7 1-2.2 3.3-1.3 5 1 1.8 3.3 2.4 5.1 1.4 1.8-1 2.3-3.3 1.3-5.1-1-1.8-3.4-2.4-5.1-1.3z"/><path fill="#616E7D" d="M26.6 19c.3-1 .5-2 .6-3.1l-2.1-1v-1-.4l2-1.3c-.2-1-.5-2-1-3l-2.3.2c-.2-.4-.5-.8-.8-1.2l1.1-2.1c-.7-.8-1.5-1.5-2.3-2.1l-1.9 1.3-1.2-.6-.1-2.3c-1-.3-2-.5-3.1-.6l-1 2.1h-1.4l-1.3-2c-1 .2-2 .5-3 1L9 5.2c-.5.4-.9.7-1.2 1L5.7 5.1c-.8.7-1.5 1.5-2.1 2.3l1.3 1.9-.6 1.2-2.3.2c-.3 1-.5 2-.6 3.1l2.1 1v1.4l-2 1.3c.2 1 .5 2 1 3l2.3-.2c.2.4.5.8.8 1.2l-1.1 2.1c.7.8 1.5 1.5 2.3 2.1l1.9-1.3 1.2.6.1 2.3c1 .3 2 .5 3.1.6l1-2.1h1.4l1.3 2c1-.2 2-.5 3-1l-.2-2.3c.4-.2.8-.5 1.2-.8l2.1 1.1c.8-.7 1.5-1.5 2.1-2.3l-1.3-1.9.6-1.2 2.3-.4zm-12.3 3.5c-4.2 0-7.6-3.4-7.6-7.6 0-4.2 3.4-7.6 7.6-7.6 4.2 0 7.6 3.4 7.6 7.6 0 4.2-3.4 7.6-7.6 7.6z"/><path fill="#616E7D" d="M7.2 14.8c0 3.9 3.2 7.1 7.1 7.1 3.9 0 7.1-3.2 7.1-7.1 0-3.9-3.2-7.1-7.1-7.1-3.9 0-7.1 3.2-7.1 7.1zm12.4-.4c.3 3-1.9 5.6-4.9 5.8-2.9.3-5.6-1.9-5.8-4.9-.3-3 1.9-5.6 4.9-5.8 3-.3 5.6 1.9 5.8 4.9zM27.8 25c-.1 3.4 2.6 6.1 6 6.2 3.4.1 6.1-2.6 6.2-6 .1-3.4-2.6-6.1-6-6.2-3.3 0-6.1 2.7-6.2 6zm9.3-1.8c1 1.8.5 4-1.3 5.1-1.8 1.1-4.1.4-5.1-1.4-1-1.7-.4-3.9 1.3-5 1.7-1.1 4.1-.5 5.1 1.3z"/><path fill="#616E7D" d="M43.7 26.1c.1-.7.1-1.4 0-2.1l-1.7-.4c-.1-.4-.2-.9-.4-1.3l1.2-1.2c-.1-.3-.3-.6-.5-.9l-.6-.9-1.6.5c-.3-.3-.6-.7-1-.9l.5-1.6c-.6-.4-1.2-.8-1.9-1l-1.2 1.2c-.4-.1-.9-.3-1.3-.3l-.4-1.7c-.7-.1-1.4-.1-2.1 0l-.4 1.7c-.4.1-.9.2-1.3.4l-1.2-1.2c-.3.1-.6.3-.9.5l-.9.6.5 1.6c-.3.3-.7.6-.9 1l-1.6-.5c-.4.6-.8 1.2-1 1.9l1.2 1.2c-.1.4-.3.9-.3 1.3l-1.6.4c-.1.7-.1 1.4 0 2.1l1.7.4c.1.4.2.9.4 1.3l-1.4 1c.1.3.3.6.5.9l.6.9 1.6-.5c.3.3.6.7 1 .9l-.4 1.6c.6.4 1.2.8 1.9 1l1.2-1.2c.4.1.9.3 1.3.3l.4 1.7c.7.1 1.4.1 2.1 0l.4-1.7c.4-.1.9-.2 1.3-.4l1.2 1.2c.3-.1.6-.3.9-.5l.9-.6-.5-1.6c.3-.3.7-.6.9-1l1.6.5c.4-.6.8-1.2 1-1.9l-1.2-1.2c.1-.4.3-.9.3-1.3l1.7-.2zm-9.9 5.4c-3.5-.1-6.3-3-6.2-6.5.1-3.5 3-6.3 6.5-6.2 3.5.1 6.3 3 6.2 6.5-.1 3.5-3 6.3-6.5 6.2z"/><path fill="#AAD3C7" d="M6.6 14.8c0 4.2 3.4 7.6 7.6 7.6 4.2 0 7.6-3.4 7.6-7.6 0-4.2-3.4-7.6-7.6-7.6-4.1 0-7.6 3.4-7.6 7.6zm14.8 0c0 3.9-3.2 7.1-7.1 7.1-3.9 0-7.1-3.2-7.1-7.1 0-3.9 3.2-7.1 7.1-7.1 3.9 0 7.1 3.2 7.1 7.1z"/><path fill="#82BFAB" d="M27.6 25c-.1 3.5 2.7 6.4 6.2 6.5 3.5.1 6.4-2.7 6.5-6.2.1-3.5-2.7-6.4-6.2-6.5-3.6 0-6.5 2.7-6.5 6.2zm12.4.3c-.1 3.4-2.9 6-6.2 6-3.4-.1-6-2.9-6-6.2.1-3.4 2.9-6 6.2-6 3.4.1 6.1 2.8 6 6.2z"/></svg>