<svg width="48" height="48" fill="none" xmlns="http://www.w3.org/2000/svg"><path d="M0 24C0 10.745 10.745 0 24 0s24 10.745 24 24-10.745 24-24 24S0 37.255 0 24z" fill="#2E2882"/><path fill-rule="evenodd" clip-rule="evenodd" d="M39.2 16.017l-6.02 4.763-8.78-5.356 6.093-5.024 8.707 5.617zM18.307 10.4l6.093 5.024-8.78 5.356-6.02-4.763 8.707-5.617zm-2.686 10.38l8.779 5.356 8.78-5.356 6.02 4.764-8.707 5.616-6.093-5.024-6.093 5.024L9.6 25.544l6.02-4.764zm14.908 11.446l-6.111-5.01-6.11 5.01-2.616-1.686v1.89l8.726 5.17 8.725-5.17v-1.89l-2.614 1.686z" fill="#FEB0A5"/></svg>