<?xml version="1.0" encoding="utf-8"?>
<!-- Generator: Adobe Illustrator 25.4.1, SVG Export Plug-In . SVG Version: 6.00 Build 0)  -->
<svg version="1.1" id="Layer_1" xmlns="http://www.w3.org/2000/svg" xmlns:xlink="http://www.w3.org/1999/xlink" x="0px" y="0px"
	 viewBox="0 0 918 500" style="enable-background:new 0 0 918 500;" xml:space="preserve">
<style type="text/css">
	.st0{fill:#F5F5F5;}
	.st1{fill:#E0E0E0;}
	.st2{fill:#BA68C8;}
	.st3{opacity:0.15;enable-background:new    ;}
	.st4{fill:#FFFFFF;}
	.st5{opacity:0.3;enable-background:new    ;}
	.st6{opacity:0.4;enable-background:new    ;}
	.st7{opacity:0.2;enable-background:new    ;}
	.st8{opacity:0.25;enable-background:new    ;}
	.st9{fill:#455A64;}
	.st10{opacity:0.4;fill:#FFFFFF;enable-background:new    ;}
	.st11{opacity:0.8;}
	.st12{opacity:0.55;enable-background:new    ;}
	.st13{opacity:0.45;enable-background:new    ;}
	.st14{fill:#263238;}
	.st15{fill:#37474F;}
	.st16{fill:#FAFAFA;}
	.st17{opacity:0.5;fill:#FFFFFF;enable-background:new    ;}
	.st18{fill:#B16668;}
	.st19{opacity:0.65;fill:#FFFFFF;enable-background:new    ;}
	.st20{fill:#9A4A4D;}
	.st21{opacity:0.8;fill:#FFFFFF;enable-background:new    ;}
	.st22{fill:#FFA8A7;}
	.st23{fill:#F28F8F;}
	.st24{opacity:0.6;fill:#FFFFFF;enable-background:new    ;}
	.st25{fill:#5D58A6;}
	.st26{font-family:'Roboto-Regular';}
	.st27{font-size:18px;}
	.st28{enable-background:new    ;}
	.st29{fill:none;}
</style>
<g id="freepik--Floor--inject-61">
	<ellipse id="freepik--floor--inject-61" class="st0" cx="638.5" cy="343.5" rx="147.8" ry="85.6"/>
</g>
<g id="freepik--Shadows--inject-61">
	<path id="freepik--Shadow--inject-61" class="st1" d="M596.5,397.9c-1.2,0-2.1-0.9-2.4-2l-0.6-3.1c-1.2-0.3-2.4-0.5-3.6-1h-0.1
		l-5.1,2.5c-0.4,0.2-0.8,0.3-1.2,0.3c-0.5,0-1-0.1-1.4-0.4l-5.1-3.1c-1-0.5-1.3-1.8-0.8-2.9c0.1-0.3,0.4-0.5,0.6-0.8l3.1-2.3
		l-0.8-1.2l-6.4-0.4c-1.2-0.1-2.2-1.2-2.2-2.5v-4c0-1.3,1-2.4,2.2-2.5l6.4-0.4l0.8-1.2l-3.1-2.3c-0.9-0.7-1.2-2-0.5-2.9
		c0.2-0.3,0.4-0.5,0.7-0.7l5.1-3.1c0.8-0.5,1.8-0.5,2.6-0.1l5.1,2.5h0.1c1.2-0.4,2.4-0.8,3.6-1l0.6-3.1c0.3-1.2,1.2-2,2.4-2h7.4
		c1.2,0,2.1,0.9,2.4,2l0.5,3.1c1.2,0.2,2.4,0.5,3.6,1h0.1l5.1-2.5c0.4-0.2,0.8-0.3,1.2-0.3c0.5,0,1,0.1,1.4,0.4l5.1,3.1
		c1,0.5,1.3,1.8,0.8,2.9c-0.1,0.3-0.4,0.5-0.6,0.7l-3.1,2.3l0.8,1.2l6.4,0.4c1.2,0.1,2.2,1.2,2.2,2.5v4c0,1.3-1,2.4-2.2,2.5
		l-6.4,0.4c-0.3,0.4-0.4,0.8-0.8,1.2l3.1,2.3c0.9,0.7,1.2,2,0.5,2.9c-0.2,0.3-0.4,0.5-0.7,0.7l-5.1,3.1c-0.4,0.3-1,0.4-1.4,0.4
		c-0.4,0-0.8-0.1-1.2-0.3l-5.1-2.5h-0.1c-1.2,0.4-2.4,0.7-3.7,1l-0.5,3.1c-0.3,1.2-1.2,2-2.4,2L596.5,397.9z M600.2,373.4
		c-2.7-0.1-5.3,0.6-7.7,1.9c-1.7,1-2.7,2.4-2.7,3.7s1,2.7,2.7,3.7c4.9,2.6,10.5,2.6,15.4,0c1.7-1,2.7-2.4,2.7-3.7s-1-2.7-2.7-3.7
		C605.6,374,602.9,373.3,600.2,373.4z"/>
	<path id="freepik--shadow--inject-61" class="st1" d="M643.3,363.4c-0.7,0-1.4-0.3-1.9-0.9l-2-2.2c-0.5,0-1,0.1-1.5,0.1
		c-0.5,0-1,0-1.5-0.1l-2.1,2.4c-0.4,0.5-1.1,0.7-1.7,0.7c-0.2,0-0.4,0-0.6-0.1l-5-1.3c-0.6-0.1-1.2-0.6-1.5-1.2
		c-0.3-0.5-0.3-1.2,0-1.7l0.8-1.7c-0.4-0.3-0.8-0.5-1.2-0.8l-4.7,0.8H620c-0.8,0-1.5-0.4-2-1.1l-1.9-2.8c-0.3-0.4-0.4-0.8-0.4-1.3
		c0-0.9,0.5-1.7,1.3-2l3.6-1.2v-0.2l-3.5-1.2c-0.8-0.2-1.4-1-1.5-1.9v-0.1c0-0.4,0.1-0.8,0.4-1.2l2-3.1c0.4-0.6,1.2-1,1.9-1
		c0.1,0,0.3,0,0.4,0.1l4.6,0.8c0.3-0.3,0.7-0.5,1.1-0.7l0.1-0.1l-0.8-1.6c-0.1-0.3-0.2-0.5-0.2-0.9v-0.4c0.1-0.9,0.7-1.6,1.5-1.8
		l5.2-1.4c0.2-0.1,0.3-0.1,0.5-0.1c0.7,0,1.4,0.3,1.9,0.9l2,2.2c0.5,0,1-0.1,1.5-0.1s1,0,1.4,0.1l2.1-2.4c0.4-0.5,1.1-0.7,1.7-0.7
		c0.2,0,0.4,0,0.6,0.1l5,1.3c0.9,0.2,1.6,1,1.7,2c0,0.3-0.1,0.6-0.2,0.9l-0.8,1.7l0.2,0.1c0.4,0.2,0.7,0.5,1,0.7l4.7-0.8h0.3
		c0.8,0,1.5,0.4,2,1.1l1.9,2.8c0.3,0.3,0.4,0.8,0.4,1.2v0.2l-0.1,0.1c-0.1,0.7-0.6,1.4-1.3,1.6l-3.6,1.2v0.2l3.5,1.2
		c1.1,0.3,1.7,1.6,1.3,2.7c-0.1,0.2-0.1,0.3-0.2,0.5c-0.6,1-1.3,1.9-1.9,2.9l-0.1,0.1c-0.4,0.6-1.2,1-1.9,1c-0.1,0-0.3,0-0.4-0.1
		l-4.6-0.8c-0.4,0.3-0.8,0.5-1.2,0.8l0.7,1.6c0.3,0.6,0.3,1.3,0.1,1.9c-0.3,0.6-0.8,1-1.3,1.2l-5.2,1.3
		C643.6,363.4,643.5,363.4,643.3,363.4L643.3,363.4z M630.7,349.9c0.3,0.4,0.6,0.7,1,1.1l0.6,0.4c0.8,0.5,1.6,0.8,2.5,1
		c1,0.3,2,0.4,3.1,0.3c1.9,0.1,3.9-0.4,5.6-1.4c0.2-0.1,0.4-0.3,0.6-0.4c0.3-0.3,0.6-0.5,0.9-1c0.4-0.5,0.5-1.4,0.1-2l-0.1-0.1
		c-0.1-0.1-0.1-0.1-0.1-0.2c-0.1-0.1-0.1-0.1-0.1-0.1l-0.1-0.1l-0.1-0.1l-0.1-0.1c-1-1-2.3-1.7-3.7-2c-1-0.3-2-0.4-3.1-0.4
		c-3.1,0-6,1.2-7.1,2.7c-0.4,0.5-0.5,1.2-0.3,1.8l0.1,0.1L630.7,349.9L630.7,349.9z"/>
	
		<ellipse id="freepik--shadow--inject-61_00000135650676633958232330000000548932078826677413_" class="st1" cx="750.9" cy="327.4" rx="28.3" ry="17.4"/>
	
		<ellipse id="freepik--shadow--inject-61_00000121255976588627410530000016805896310068641933_" class="st1" cx="697.5" cy="348.4" rx="28.3" ry="17.4"/>
	<path id="freepik--shadow--inject-61_00000074416322264555684340000016621486707115944374_" class="st1" d="M545.4,359.4
		l-38.7-23.8c-1.3-0.8-1.3-2.2,0-3l75.5-46.4c1.5-0.8,3.3-0.8,4.9,0l38.7,23.9c1.3,0.8,1.3,2.2,0,3l-75.5,46.4
		C548.8,360.3,547,360.3,545.4,359.4L545.4,359.4z"/>
</g>
<g id="freepik--Plant--inject-61">
	<g id="freepik--Plants--inject-61">
		<path class="st2" d="M765,313.1c0,0-0.4-7.6,2-14.2c2.5-6.5,6.7-11,11.1-12.3c4.4-1.3,8.8,2.5,4.5,6.4c-4.4,4-12.4,8.7-14.3,20.8
			L765,313.1z"/>
		<path class="st3" d="M765,313.1c0,0-0.4-7.6,2-14.2c2.5-6.5,6.7-11,11.1-12.3c4.4-1.3,8.8,2.5,4.5,6.4c-4.4,4-12.4,8.7-14.3,20.8
			L765,313.1z"/>
		<path class="st4" d="M765.9,310.9c-0.2,0-0.3-0.1-0.3-0.3c2.6-13.4,10.8-20.3,14.7-22.1c0.1-0.1,0.3,0,0.3,0.1
			c0.1,0.1,0,0.3-0.1,0.3c-3.8,1.8-11.8,8.6-14.5,21.7C766.1,310.8,766.1,310.9,765.9,310.9L765.9,310.9z"/>
		<path class="st2" d="M787.8,304.3c-0.2,1-1.1,1.7-1.9,2.2c-0.8,0.5-1.7,1.2-2,2.1c-0.6,2,1.4,4.1,0.6,6c-0.4,0.8-1,1.4-1.8,1.6
			c-0.6,0.3-1.3,0.4-2,0.6c-0.3,0.1-0.6,0.1-1,0.1c-1,0-1.9,0.3-2.7,0.9c-1.2,1-1.3,2.9-1.8,4.4c-0.7,1.8-2.1,3.2-3.9,3.8
			c-1.5,0.5-3.7,0.6-4.2,0c-0.4-0.5,0.2-2.2,0.1-2.9c-0.3-1.6-0.3-3.2-0.3-4.8c0.1-0.7,0-1.5-0.1-2.2c-0.1-0.8-0.3-1.6-0.4-2.5
			s-0.4-1.5-0.3-2.5c0.2-0.9,0.4-1.8,0.9-2.6c0.4-0.8,0.8-1.6,1.2-2.4c0.4-1,1-1.8,1.6-2.7c1.2-1.4,2.8-2.2,4.5-2.2
			c1.4,0,2.9,0.5,4.4,0.1c1.4-0.3,2.7-1,4.1-1.2c1.5-0.3,3.1,0.3,4.2,1.4C787.6,302.5,787.9,303.4,787.8,304.3L787.8,304.3z"/>
		<path class="st4" d="M767.7,322.1c-0.1,0-0.2-0.1-0.2-0.2c1-14.5,14.2-19.2,17.5-19.6c0.1,0,0.2,0.1,0.2,0.2
			c0,0.1-0.1,0.2-0.2,0.2c-3.1,0.4-16.1,5-17.1,19.2C767.9,321.9,767.8,322.1,767.7,322.1z"/>
		<path class="st4" d="M781.6,312c-0.1,0-0.1,0-0.1-0.1c-2.9-1.8-6.5-2.2-9.8-0.9c-0.1,0.1-0.3,0-0.3-0.1c-0.1-0.1,0-0.3,0.1-0.3
			c3.3-1.3,7.1-1,10.2,1c0.1,0.1,0.1,0.2,0.1,0.3C781.7,312,781.7,312,781.6,312z"/>
	</g>
</g>
<g id="freepik--Gears--inject-61">
	<g id="freepik--gears--inject-61">
		<path class="st2" d="M573.2,371.6v9.5c0,0.3,0.3,0.7,0.6,0.7l4.7,0.3v7c0,0.1,0.1,0.3,0.2,0.3l5,3.1c0.2,0.1,0.4,0.1,0.6,0.1
			s0.3,0,0.4-0.1l5-2.5c0.4-0.1,0.8-0.2,1.2-0.1c1.3,0.4,2.6,0.7,3.8,1c0.4,0.1,0.6,0.3,0.7,0.7l0.6,3.5c0.1,0.2,0.1,0.3,0.3,0.5
			s0.3,0.2,0.4,0.2h7.2c0.1,0,0.3-0.1,0.4-0.1c0.1,0,0.1-0.1,0.1-0.1s0.1-0.1,0.1-0.1v-0.1c0.1-0.1,0.1-0.1,0.1-0.2l0.6-3.5
			c0.1-0.4,0.4-0.7,0.7-0.7c1.3-0.2,2.6-0.5,3.8-1c0.4-0.1,0.8-0.1,1.2,0.1l5,2.5c0.1,0,0.2,0.1,0.3,0.1h0.3c0.2,0,0.3-0.1,0.4-0.1
			l4.9-3c0.1-0.1,0.1-0.1,0.2-0.2c0-0.1,0.1-0.1,0.1-0.1v-7l4.5-0.3h0.1c0.1,0,0.1-0.1,0.1-0.1c0.1,0,0.2-0.1,0.3-0.1
			c0.1-0.1,0.1-0.1,0.1-0.3c0-0.1,0.1-0.1,0.1-0.2v-12.7c0-0.3-0.3-0.7-0.6-0.7l-4.7-0.3v-7.1c0-0.1-0.1-0.3-0.3-0.3l-4.9-3
			c-0.3-0.2-0.7-0.2-1.1-0.1l-5,2.5c-0.4,0.1-0.8,0.2-1.2,0.1c-1.3-0.4-2.6-0.7-3.8-1c-0.4-0.1-0.6-0.3-0.7-0.7l-0.6-3.5
			c-0.1-0.3-0.4-0.6-0.7-0.6h-7.2c-0.3,0-0.6,0.3-0.7,0.6l-0.6,3.5c-0.1,0.3-0.4,0.7-0.7,0.7c-1.3,0.2-2.6,0.5-3.8,1
			c-0.4,0.1-0.8,0.1-1.2-0.1l-5-2.5c-0.4-0.1-0.8-0.1-1.1,0.1l-4.9,3c-0.1,0.1-0.3,0.2-0.3,0.4v7l-4.7,0.3c-0.4,0-0.6,0.3-0.6,0.7
			v3.1C573.2,371.6,573.2,371.6,573.2,371.6L573.2,371.6z M592,374.1c4.6-2.8,12-2.8,16.6,0c0.3,0.2,0.6,0.4,1,0.7
			c-0.3,0.3-0.6,0.5-1,0.7c-4.6,2.8-12,2.8-16.6,0c-0.3-0.2-0.6-0.4-1-0.7C591.3,374.6,591.7,374.4,592,374.1z"/>
		<path class="st5" d="M573.2,371.6v9.5c0,0.4,0.3,0.7,0.6,0.7l4.7,0.3v7c0,0.1,0.1,0.3,0.3,0.3l4.9,3.1c0.2,0.1,0.4,0.1,0.6,0.1
			c0.1,0,0.3,0,0.4-0.1l5-2.5c0.1-0.1,0.3-0.1,0.4-0.1c0.2,0,0.4,0,0.6,0.1c1.3,0.4,2.6,0.7,3.8,1c0.1,0,0.2,0.1,0.3,0.1
			c0.2,0.1,0.4,0.3,0.4,0.5l0.6,3.5c0.1,0.2,0.1,0.3,0.3,0.5c0.1,0.1,0.3,0.2,0.4,0.2h7.4c0.2-0.1,0.4-0.1,0.4-0.3v-0.1
			c0.1-0.1,0.1-0.1,0.1-0.2l0.6-3.5c0.1-0.2,0.1-0.3,0.3-0.5c0.1-0.1,0.3-0.2,0.4-0.3c1.3-0.2,2.6-0.5,3.8-1
			c0.3-0.1,0.5-0.1,0.8-0.1c0.1,0,0.3,0.1,0.4,0.1l5,2.5c0.1,0,0.2,0.1,0.3,0.1c0.3,0.1,0.5,0,0.8-0.1l4.9-3c0.1,0,0.1-0.1,0.1-0.1
			s0.1-0.1,0.1-0.1c0-0.1,0.1-0.1,0.1-0.1v-7l0.8-0.1l3.7-0.3h0.1c0.3,0,0.6-0.3,0.6-0.7v-8.9c0,0.3-0.3,0.7-0.6,0.7l-6.5,0.4
			c-0.4,0.1-0.7,0.3-0.9,0.6c-0.4,0.7-0.8,1.4-1.4,2c-0.2,0.2-0.2,0.5,0,0.8l0.1,0.1l3.9,3c0.2,0.1,0.3,0.3,0.1,0.5
			c-0.1,0.1-0.1,0.1-0.1,0.1l-4.9,3.1c-0.3,0.2-0.7,0.2-1.1,0.1l-5-2.5c-0.4-0.1-0.8-0.2-1.2-0.1c-1.3,0.4-2.6,0.7-3.8,1
			c-0.4,0.1-0.6,0.3-0.7,0.7l-0.6,3.5c-0.1,0.3-0.4,0.6-0.7,0.6h-7.2c-0.3,0-0.6-0.3-0.7-0.6l-0.6-3.5c-0.1-0.3-0.4-0.7-0.7-0.7
			c-1.3-0.2-2.6-0.5-3.8-1c-0.4-0.1-0.8-0.1-1.2,0.1l-5,2.5c-0.3,0.1-0.7,0.1-1-0.1l-4.9-3c-0.2-0.1-0.3-0.3-0.1-0.5
			c0-0.1,0.1-0.1,0.1-0.1l3.9-3c0.3-0.2,0.3-0.5,0.1-0.7l-0.1-0.1c-0.5-0.6-1-1.3-1.4-2c-0.2-0.3-0.5-0.5-0.9-0.6l-6.5-0.4
			c-0.4,0-0.6-0.3-0.6-0.7L573.2,371.6L573.2,371.6z M578.4,360.4v7l1.9-0.1c0.4-0.1,0.7-0.3,0.9-0.6c0.4-0.7,0.8-1.4,1.4-2
			c0.2-0.2,0.2-0.5,0-0.8l-0.1-0.1l-3.9-3C578.5,360.6,578.5,360.6,578.4,360.4L578.4,360.4z"/>
		<path class="st6" d="M591.1,374.8l0.4-0.3h0.1c0.1-0.1,0.3-0.2,0.5-0.3c4.6-2.8,12-2.8,16.6,0l0.4,0.3c0.2,0.1,0.4,0.3,0.5,0.3
			c3.6-2.9,3.3-7-1-9.5c-4.6-2.8-12-2.8-16.6,0C587.8,367.8,587.4,372,591.1,374.8z"/>
		<path class="st5" d="M618,364.6c0.5,0.6,1,1.3,1.4,2c0.2,0.3,0.5,0.5,0.9,0.6l1.9,0.1v-7c0,0.1-0.1,0.3-0.2,0.3l-3.9,3
			c-0.3,0.1-0.3,0.5-0.1,0.7C618,364.5,618,364.5,618,364.6L618,364.6z"/>
		<path class="st2" d="M616,357l-5,2.5c-0.4,0.1-0.8,0.2-1.2,0.1c-1.3-0.4-2.6-0.7-3.8-1c-0.4-0.1-0.6-0.3-0.7-0.7l-0.6-3.5
			c-0.1-0.3-0.4-0.6-0.7-0.6h-7.2c-0.3,0-0.6,0.3-0.7,0.6l-0.6,3.5c-0.1,0.3-0.4,0.7-0.7,0.7c-1.3,0.2-2.6,0.5-3.8,1
			c-0.4,0.1-0.8,0.1-1.2-0.1l-5-2.5c-0.4-0.1-0.8-0.1-1.1,0.1l-4.9,3c-0.2,0.1-0.3,0.3-0.1,0.5c0,0.1,0.1,0.1,0.1,0.1l3.9,3
			c0.3,0.2,0.3,0.5,0.1,0.8l-0.1,0.1c-0.5,0.6-1,1.3-1.4,2c-0.2,0.3-0.5,0.5-0.9,0.6l-6.5,0.4c-0.4,0-0.6,0.3-0.6,0.7v3.9
			c0,0.4,0.3,0.7,0.6,0.7l6.5,0.4c0.4,0.1,0.7,0.3,0.9,0.6c0.4,0.7,0.8,1.4,1.4,2c0.2,0.2,0.2,0.5,0,0.8l-0.1,0.1l-3.9,3
			c-0.2,0.1-0.2,0.3-0.1,0.5c0.1,0.1,0.1,0.1,0.1,0.1l4.9,3.1c0.3,0.2,0.7,0.2,1.1,0.1l5-2.5c0.4-0.1,0.8-0.2,1.2-0.1
			c1.3,0.4,2.6,0.7,3.8,1c0.4,0.1,0.6,0.3,0.7,0.7l0.6,3.5c0.1,0.3,0.4,0.6,0.7,0.6h7.2c0.3,0,0.6-0.3,0.7-0.6l0.6-3.5
			c0.1-0.3,0.4-0.7,0.7-0.7c1.3-0.2,2.6-0.5,3.8-1c0.4-0.1,0.8-0.1,1.2,0.1l5,2.5c0.4,0.1,0.8,0.1,1.1-0.1l4.9-3
			c0.2-0.1,0.3-0.3,0.2-0.5c0-0.1-0.1-0.1-0.1-0.1l-3.9-3c-0.3-0.2-0.3-0.5-0.1-0.7l0.1-0.1c0.5-0.6,1-1.3,1.4-2
			c0.2-0.3,0.5-0.5,0.9-0.6l6.5-0.4c0.3,0,0.6-0.3,0.6-0.7v-3.9c0-0.3-0.3-0.7-0.6-0.7l-6.5-0.4c-0.4-0.1-0.7-0.3-0.9-0.7
			c-0.4-0.7-0.8-1.4-1.4-2c-0.2-0.2-0.2-0.5,0-0.7l0.1-0.1l3.9-3c0.2-0.1,0.3-0.3,0.1-0.5c-0.1-0.1-0.1-0.1-0.1-0.1l-4.9-3
			C616.8,356.8,616.4,356.8,616,357L616,357z M608.6,365.2c4.6,2.8,4.6,7.4,0,10.2c-4.6,2.9-12,2.8-16.6,0c-4.6-2.8-4.6-7.4,0-10.2
			C596.6,362.4,604,362.4,608.6,365.2z"/>
		<path class="st2" d="M622.2,380.3c0-0.1-0.1-0.3-0.2-0.3l-1.9-1.5v-5c0.1-0.1,0.2-0.1,0.3-0.1l6.5-0.4c0.3,0,0.6-0.3,0.6-0.7v8.9
			c0,0.3-0.3,0.7-0.6,0.7h-0.1l-3.7,0.3l-0.8,0.1L622.2,380.3L622.2,380.3z"/>
		<path class="st7" d="M622.2,380.3c0-0.1-0.1-0.3-0.2-0.3l-1.9-1.5v-5c0.1-0.1,0.2-0.1,0.3-0.1l6.5-0.4c0.3,0,0.6-0.3,0.6-0.7v8.9
			c0,0.3-0.3,0.7-0.6,0.7h-0.1l-3.7,0.3l-0.8,0.1L622.2,380.3L622.2,380.3z"/>
		<path class="st2" d="M610.6,381.2c0.1,0,0.3,0.1,0.4,0.1l5,2.5c0.2,0.1,0.4,0.1,0.6,0.1v8.9h-0.3c-0.1,0-0.2,0-0.3-0.1l-5-2.5
			c-0.1-0.1-0.3-0.1-0.4-0.1V381.2z"/>
		<path class="st7" d="M610.6,381.2c0.1,0,0.3,0.1,0.4,0.1l5,2.5c0.2,0.1,0.4,0.1,0.6,0.1v8.9h-0.3c-0.1,0-0.2,0-0.3-0.1l-5-2.5
			c-0.1-0.1-0.3-0.1-0.4-0.1V381.2z"/>
		<path class="st2" d="M604.6,386.6c0.1-0.1,0.1-0.1,0.1-0.3l0.6-3.5c0-0.1,0.1-0.2,0.1-0.3v8.9c-0.1,0.1-0.1,0.1-0.1,0.3l-0.6,3.5
			c0,0.1-0.1,0.1-0.1,0.1V386.6L604.6,386.6z"/>
		<path class="st7" d="M604.6,386.6c0.1-0.1,0.1-0.1,0.1-0.3l0.6-3.5c0-0.1,0.1-0.2,0.1-0.3v8.9c-0.1,0.1-0.1,0.1-0.1,0.3l-0.6,3.5
			c0,0.1-0.1,0.1-0.1,0.1V386.6L604.6,386.6z"/>
		<path class="st3" d="M595.2,382.7c0.1,0.1,0.1,0.1,0.1,0.3l0.6,3.5c0,0.1,0.1,0.2,0.1,0.3v8.9c-0.1-0.1-0.1-0.1-0.1-0.3l-0.6-3.5
			c0-0.1-0.1-0.1-0.1-0.3V382.7z M584,383.8c0.2,0,0.4,0,0.6-0.1l5-2.5c0.1-0.1,0.3-0.1,0.4-0.1v8.9c-0.1,0-0.3,0.1-0.4,0.1l-5,2.5
			c-0.1,0.1-0.3,0.1-0.4,0.1H584V383.8z M573.7,373l6.5,0.4c0.1,0,0.2,0,0.3,0.1v4.9l-2,1.5c-0.1,0.1-0.2,0.2-0.2,0.3v1.9l-4.7-0.3
			c-0.4,0-0.6-0.3-0.6-0.7v-9.5v-0.1v0.7C573.1,372.6,573.4,373,573.7,373L573.7,373z"/>
		<path class="st2" d="M658.1,345v-0.1v-6.3c0-0.1-0.1-0.2-0.1-0.3l-1.9-2.7c-0.2-0.3-0.4-0.4-0.8-0.3l-4.8,0.9
			c-0.3,0-0.6-0.1-0.9-0.3l-1-0.6v-4.1c0-0.1-0.1-0.3-0.4-0.4l-4.9-1.2c-0.3-0.1-0.6,0-0.8,0.1l-2.4,2.6c-0.2,0.2-0.5,0.3-0.8,0.3
			c-1.1-0.1-2.1-0.1-3.2,0c-0.3,0-0.6-0.1-0.8-0.4l-2.1-2.3c-0.2-0.3-0.5-0.3-0.8-0.3l-5.1,1.3c-0.1,0.1-0.3,0.2-0.3,0.3v4
			c-0.4,0.3-0.8,0.5-1.2,0.8c-0.3,0.1-0.6,0.2-0.8,0.1l-4.7-0.8c-0.3-0.1-0.5,0-0.7,0.2l-2,3c0,0.1-0.1,0.1-0.1,0.1v7.8
			c0,0.1,0,0.1,0.1,0.1v6.3c0,0.1,0.1,0.2,0.1,0.3l1.9,2.7c0.2,0.3,0.4,0.4,0.8,0.3l4.8-0.9c0.3,0,0.6,0.1,0.9,0.3
			c0.3,0.2,0.6,0.5,1,0.6v4.1c0,0.1,0.1,0.3,0.4,0.4l4.9,1.2c0.3,0.1,0.6,0,0.8-0.1l2.3-2.6c0.2-0.2,0.5-0.3,0.8-0.3
			c1.1,0.1,2.1,0.1,3.2,0c0.3,0,0.6,0.1,0.8,0.4l2.1,2.3c0.2,0.2,0.5,0.3,0.8,0.3l5.1-1.3c0.1,0,0.3-0.1,0.3-0.3v-4.1
			c0.4-0.2,0.8-0.5,1.2-0.7c0.3-0.1,0.6-0.2,0.8-0.1l4.6,0.8c0.3,0.1,0.6,0,0.8-0.2l2-3c0-0.1,0.1-0.1,0.1-0.1
			C658.1,352.7,658.1,345.3,658.1,345L658.1,345z M631,345.2c0.2-0.1,0.4-0.3,0.7-0.5c3.5-2.1,9.2-2.1,12.6,0
			c0.3,0.1,0.5,0.3,0.7,0.5c-0.3,0.2-0.5,0.3-0.8,0.5c-2.5,1.5-6.3,2-9.7,1.2c-1-0.3-2-0.6-2.9-1.2
			C631.5,345.5,631.2,345.3,631,345.2z"/>
		<path class="st5" d="M658.1,345v-0.1v-6.3c0-0.1-0.1-0.2-0.1-0.3l-1.9-2.7c-0.2-0.3-0.4-0.4-0.8-0.3l-4.8,0.9
			c-0.3,0-0.6-0.1-0.9-0.3l-1-0.6v-4.1c0-0.1-0.1-0.3-0.4-0.4l-4.9-1.2c-0.3-0.1-0.6,0-0.8,0.1l-2.4,2.6c-0.2,0.2-0.5,0.3-0.8,0.3
			c-1.1-0.1-2.1-0.1-3.2,0c-0.3,0-0.6-0.1-0.8-0.4l-2.1-2.3c-0.2-0.3-0.5-0.3-0.8-0.3l-5.1,1.3c-0.1,0.1-0.3,0.2-0.3,0.3v4
			c-0.4,0.3-0.8,0.5-1.2,0.8c-0.3,0.1-0.6,0.2-0.8,0.1l-4.7-0.8c-0.3-0.1-0.5,0-0.7,0.2l-2,3c0,0.1-0.1,0.1-0.1,0.1v7.8
			c0,0.1,0,0.1,0.1,0.1v6.3c0,0.1,0.1,0.2,0.1,0.3l1.9,2.7c0.2,0.3,0.4,0.4,0.8,0.3l4.8-0.9c0.3,0,0.6,0.1,0.9,0.3
			c0.3,0.2,0.6,0.5,1,0.6v4.1c0,0.1,0.1,0.3,0.4,0.4l4.9,1.2c0.3,0.1,0.6,0,0.8-0.1l2.3-2.6c0.2-0.2,0.5-0.3,0.8-0.3
			c1.1,0.1,2.1,0.1,3.2,0c0.3,0,0.6,0.1,0.8,0.4l2.1,2.3c0.2,0.2,0.5,0.3,0.8,0.3l5.1-1.3c0.1,0,0.3-0.1,0.3-0.3v-4.1
			c0.4-0.2,0.8-0.5,1.2-0.7c0.3-0.1,0.6-0.2,0.8-0.1l4.6,0.8c0.3,0.1,0.6,0,0.8-0.2l2-3c0-0.1,0.1-0.1,0.1-0.1
			C658.1,352.7,658.1,345.3,658.1,345L658.1,345z M631,345.2c0.2-0.1,0.4-0.3,0.7-0.5c3.5-2.1,9.2-2.1,12.6,0
			c0.3,0.1,0.5,0.3,0.7,0.5c-0.3,0.2-0.5,0.3-0.8,0.5c-2.5,1.5-6.3,2-9.7,1.2c-1-0.3-2-0.6-2.9-1.2
			C631.5,345.5,631.2,345.3,631,345.2z"/>
		<path class="st2" d="M617.8,338.6C617.8,338.5,617.8,338.5,617.8,338.6C617.8,338.5,617.8,338.5,617.8,338.6z"/>
		<path class="st5" d="M628.4,334.5l-1.2,0.6v-4c0,0.1,0,0.1,0.1,0.2l1.2,2.6C628.7,334.1,628.6,334.3,628.4,334.5L628.4,334.5z"/>
		<path class="st3" d="M622.8,340.9c-0.1,0.5-0.1,1.2,0,1.7c0.1,0.3-0.1,0.5-0.3,0.6l-4.4,1.5c-0.1,0.1-0.2,0.1-0.2,0.3v1.5
			c0,0,0-0.1-0.1-0.1v-7.8c0,0.1,0.1,0.3,0.3,0.3l4.2,1.4C622.6,340.3,622.8,340.6,622.8,340.9z M625.6,347.5v7.8h-0.2l-4.8,0.9
			h-0.3v-7.8h0.3l4.8-0.9H625.6z"/>
		<path class="st8" d="M627.3,356.2l-1-0.6c-0.3-0.1-0.5-0.3-0.8-0.3v-7.8c0.3,0,0.5,0.1,0.8,0.3c0.6,0.5,1.3,0.8,1.9,1.2
			c0.3,0.1,0.4,0.4,0.3,0.6l-1.3,2.8v0.1C627.3,352.7,627.3,356.2,627.3,356.2z"/>
		<path class="st3" d="M636,351.2v7.8c-0.1,0.1-0.2,0.1-0.3,0.2l-2.3,2.6c-0.1,0.1-0.3,0.1-0.4,0.2v-7.8c0.1,0,0.3-0.1,0.4-0.1
			l2.3-2.7C635.8,351.2,635.8,351.2,636,351.2L636,351.2z"/>
		<path class="st8" d="M639.9,351.1v7.8c-0.1-0.1-0.2-0.1-0.3-0.1c-1.1,0.1-2.1,0.1-3.2,0c-0.2,0-0.3,0-0.4,0.1v-7.8
			c0.1-0.1,0.3-0.1,0.5-0.1c1.1,0.1,2.1,0.1,3.2,0C639.7,351.1,639.9,351.1,639.9,351.1z"/>
		<path class="st3" d="M643,354.1v7.8c-0.2-0.1-0.3-0.1-0.4-0.3l-2.1-2.3c-0.1-0.1-0.3-0.3-0.6-0.3v-7.8c0.2,0.1,0.4,0.2,0.6,0.3
			l2.1,2.3C642.7,354,642.8,354,643,354.1z"/>
		<path class="st2" d="M648.7,352.5v7.8c0,0.1-0.1,0.3-0.3,0.3l-5.1,1.3h-0.3v-7.8h0.4l5.1-1.3C648.6,352.8,648.6,352.7,648.7,352.5
			L648.7,352.5z"/>
		<path class="st7" d="M648.7,352.5v7.8c0,0.1-0.1,0.3-0.3,0.3l-5.1,1.3h-0.3v-7.8h0.4l5.1-1.3C648.6,352.8,648.6,352.7,648.7,352.5
			L648.7,352.5z"/>
		<path class="st3" d="M650.3,347.5v7.8c-0.2,0-0.4,0.1-0.5,0.1c-0.4,0.3-0.8,0.5-1.2,0.7v-3.7c0-0.1,0-0.1-0.1-0.2l-1.2-2.6
			c-0.1-0.2-0.1-0.5,0.1-0.7c0.8-0.4,1.5-0.8,2.2-1.4C650,347.6,650.2,347.5,650.3,347.5L650.3,347.5z"/>
		<path class="st2" d="M658.1,345v7.8c0,0.1,0,0.1-0.1,0.1l-2,3c-0.1,0.1-0.2,0.2-0.3,0.2v-7.8c0.1,0,0.3-0.1,0.4-0.2l2-3V345z"/>
		<path class="st2" d="M658.1,345v7.8c0,0.1,0,0.1-0.1,0.1l-2,3c-0.1,0.1-0.2,0.2-0.3,0.2v-7.8c0.1,0,0.3-0.1,0.4-0.2l2-3V345z"/>
		<path class="st7" d="M658.1,345v7.8c0,0.1,0,0.1-0.1,0.1l-2,3c-0.1,0.1-0.2,0.2-0.3,0.2v-7.8c0.1,0,0.3-0.1,0.4-0.2l2-3V345z"/>
		<path class="st2" d="M627.3,331.1c0,0.1,0,0.1,0.1,0.2l1.2,2.6c0.1,0.2,0.1,0.5-0.1,0.7h-0.1l-1.2,0.6c-0.4,0.2-0.8,0.5-1.2,0.7
			c-0.3,0.1-0.6,0.2-0.8,0.1l-4.7-0.8c-0.3-0.1-0.5,0-0.7,0.2l-2,3c0,0.1-0.1,0.1-0.1,0.1c0,0.1,0.1,0.3,0.3,0.3l4.2,1.4
			c0.3,0.1,0.4,0.3,0.4,0.6c-0.1,0.5-0.1,1.2,0,1.7c0.1,0.3-0.1,0.5-0.3,0.6l-4.4,1.5c-0.1,0.1-0.2,0.1-0.2,0.3s0.1,0.2,0.1,0.3
			l1.9,2.7c0.2,0.3,0.4,0.4,0.8,0.3l4.8-0.9c0.3,0,0.6,0.1,0.9,0.3c0.6,0.5,1.3,0.8,1.9,1.2c0.3,0.1,0.4,0.4,0.3,0.6l-1.3,2.8
			c-0.1,0.2,0.1,0.4,0.4,0.5l4.9,1.2c0.3,0.1,0.6,0,0.8-0.1l2.3-2.6c0.2-0.2,0.5-0.3,0.8-0.3c1.1,0.1,2.1,0.1,3.2,0
			c0.3,0,0.6,0.1,0.8,0.4l2.1,2.3c0.2,0.2,0.5,0.3,0.8,0.3l5.1-1.3c0.2-0.1,0.3-0.3,0.3-0.5c0-0.1,0-0.1-0.1-0.1l-1.2-2.6
			c-0.1-0.2-0.1-0.5,0.1-0.6c0.8-0.4,1.5-0.8,2.2-1.4c0.3-0.1,0.6-0.2,0.8-0.1l4.7,0.8c0.3,0.1,0.5,0,0.8-0.2l2-3
			c0-0.1,0.1-0.1,0.1-0.1V345c-0.1-0.1-0.2-0.2-0.3-0.2l-4.2-1.4c-0.3-0.1-0.5-0.3-0.4-0.6c0.1-0.5,0.1-1.2,0-1.7
			c-0.1-0.3,0.1-0.5,0.3-0.6l4.4-1.5c0.1-0.1,0.2-0.1,0.2-0.3s-0.1-0.2-0.1-0.3l-1.9-2.7c-0.2-0.3-0.4-0.4-0.8-0.3l-4.8,0.9
			c-0.3,0-0.6-0.1-0.9-0.3l-1-0.6c-0.3-0.2-0.6-0.3-1-0.5c-0.3-0.2-0.4-0.4-0.3-0.6l1.3-2.8v-0.1c0-0.1-0.1-0.3-0.4-0.4l-4.9-1.2
			c-0.3-0.1-0.6,0-0.8,0.1l-2.4,2.6c-0.2,0.2-0.5,0.3-0.8,0.3c-1.1-0.1-2.1-0.1-3.2,0c-0.3,0-0.6-0.1-0.8-0.4l-2.1-2.3
			c-0.2-0.3-0.5-0.3-0.8-0.3l-5.1,1.3C627.4,330.8,627.3,330.9,627.3,331.1L627.3,331.1z M645.8,339l0.1,0.1l0.1,0.1
			c0.1,0.1,0.1,0.1,0.2,0.3c0.1,0.1,0.1,0.2,0.2,0.3c0.1,0.1,0.1,0.1,0.1,0.2l0.1,0.1c0.6,1.2,0.6,2.7-0.3,3.8
			c-0.3,0.5-0.8,0.9-1.2,1.3c-0.3,0.2-0.5,0.3-0.8,0.5c-2.5,1.5-6.3,2-9.7,1.2c-1-0.3-2-0.6-2.9-1.2c-0.3-0.1-0.5-0.3-0.8-0.5
			c-0.6-0.5-1.2-1.1-1.5-1.8l-0.1-0.1c0-0.1-0.1-0.1-0.1-0.1c0-0.1-0.1-0.1-0.1-0.1c-0.4-1.1-0.3-2.4,0.4-3.3
			c1.9-2.8,7.1-4.1,11.7-3C643,337.1,644.5,337.9,645.8,339L645.8,339z"/>
	</g>
</g>
<g id="freepik--Device--inject-61">
	<g id="freepik--device--inject-61_00000119796571395250691890000010828659053935545768_">
		<g id="freepik--device--inject-61">
			<path class="st2" d="M608.9,143.4l-59.3,36.5c-4.5,2.8-8.2,9.5-8.2,15.1v152.7c0,2.5,1.5,5.5,3.3,6.5s4.9,1,6.9-0.3l63.9-39.3
				c2.2-1.5,3.5-4,3.7-6.8V149.7c0-2.5-1.5-5.5-3.3-6.5C614.1,142.1,611,142.2,608.9,143.4L608.9,143.4z"/>
			<path class="st3" d="M550.6,354.4c-2,0.8-4.5,0.7-6-0.1c-1.8-1.1-3.3-4-3.3-6.5V195c0.1-3.1,1-6,2.4-8.6l5.1,3.1
				c-1.4,2-2.2,4.4-2.3,6.9v154.4C546.5,353.9,548.3,355.3,550.6,354.4L550.6,354.4z"/>
			<path class="st2" d="M552,186.4c-3,1.8-5.4,6.3-5.4,10v154.4c0,3.4,2.2,4.8,5,3.1l63.9-39.3c2.2-1.5,3.5-4,3.7-6.8V149.7
				c0-2.5-1.7-3.5-3.7-2.2C615.4,147.4,552,186.4,552,186.4z"/>
			<path class="st2" d="M551.5,194.7c-2.2,1.5-3.5,4-3.7,6.8v142.2c0,2.5,1.7,3.5,3.7,2.2l63.3-38.9c2.2-1.5,3.5-4,3.7-6.8V158
				c0-2.5-1.7-3.5-3.7-2.2C614.8,155.8,551.5,194.7,551.5,194.7z"/>
			<path class="st9" d="M578.1,173l10.6-6.5c0.6-0.4,1.2-0.1,1.2,0.6c-0.1,0.8-0.5,1.6-1.2,2l-10.6,6.5c-0.6,0.4-1.2,0.1-1.2-0.6
				C577.1,174.2,577.5,173.5,578.1,173z M596.5,161.8c0.6-0.3,1.1-0.1,1.1,0.7c-0.1,0.8-0.4,1.6-1.1,2c-0.6,0.3-1.1,0.1-1.1-0.7
				C595.4,162.9,595.8,162.2,596.5,161.8z M600.7,159.1c0.6-0.3,1.1-0.1,1.1,0.7c-0.1,0.8-0.4,1.6-1.1,2c-0.6,0.3-1.1,0.1-1.1-0.7
				C599.7,160.3,600.1,159.5,600.7,159.1z M566.2,180.3c0.6-0.3,1.1-0.1,1.1,0.7c-0.1,0.8-0.4,1.6-1.1,2c-0.6,0.3-1.1,0.1-1.1-0.7
				C565.2,181.5,565.6,180.8,566.2,180.3z M570.5,177.7c0.6-0.3,1.1-0.1,1.1,0.7c-0.1,0.8-0.4,1.6-1.1,2c-0.6,0.3-1.1,0.1-1.1-0.7
				C569.5,178.9,569.9,178.1,570.5,177.7z"/>
			<path class="st2" d="M545.4,212.7c0-0.8-0.4-1.6-1.1-2.1c-0.2-0.1-0.5-0.2-0.8-0.1l-0.8,0.5c-0.3,0.2-0.4,0.5-0.3,0.8v18.4
				c0,0.8,0.4,1.6,1.1,2.1c0.2,0.1,0.4,0.2,0.7,0.1l0.8-0.5c0.3-0.2,0.4-0.5,0.3-0.8L545.4,212.7L545.4,212.7z"/>
			<path class="st6" d="M545.4,212.7c0-0.8-0.4-1.6-1.1-2.1c-0.2-0.1-0.5-0.2-0.8-0.1l-0.8,0.5c-0.3,0.2-0.4,0.5-0.3,0.8v18.4
				c0,0.8,0.4,1.6,1.1,2.1c0.2,0.1,0.4,0.2,0.7,0.1l0.8-0.5c0.3-0.2,0.4-0.5,0.3-0.8L545.4,212.7L545.4,212.7z"/>
			<path class="st2" d="M544.5,213.2v18.4c0,0.7-0.5,1.1-1.1,0.7c-0.6-0.5-1.1-1.3-1.1-2.1v-18.4c0-0.7,0.5-1.1,1.1-0.7
				C544.2,211.6,544.5,212.4,544.5,213.2z M545.4,237.4c-0.1-0.8-0.4-1.6-1.1-2c-0.2-0.1-0.5-0.2-0.8-0.1l-0.8,0.5
				c-0.3,0.2-0.4,0.5-0.3,0.8v8.7c0,0.8,0.4,1.6,1.1,2.1c0.2,0.1,0.4,0.2,0.7,0.1l0.8-0.5c0.3-0.2,0.4-0.5,0.3-0.8L545.4,237.4
				L545.4,237.4z"/>
			<path class="st6" d="M545.4,237.4c-0.1-0.8-0.4-1.6-1.1-2c-0.2-0.1-0.5-0.2-0.8-0.1l-0.8,0.5c-0.3,0.2-0.4,0.5-0.3,0.8v8.7
				c0,0.8,0.4,1.6,1.1,2.1c0.2,0.1,0.4,0.2,0.7,0.1l0.8-0.5c0.3-0.2,0.4-0.5,0.3-0.8L545.4,237.4L545.4,237.4z"/>
			<path class="st2" d="M544.5,237.9v8.7c0,0.7-0.5,1.1-1.1,0.7c-0.6-0.5-1-1.2-1.1-2.1v-8.7c0-0.7,0.5-1.1,1.1-0.7
				C544.1,236.2,544.5,237,544.5,237.9z"/>
			<path class="st10" d="M619.1,149.4c-0.1-2.2-1.7-3.1-3.6-1.9l-63.4,39c-1.2,0.8-2.3,1.9-3.1,3.1l-5.1-3.1
				c1.4-2.7,3.4-4.9,5.8-6.5l59.3-36.5c2-1.2,5.1-1.4,6.9-0.3C617.7,144.2,619,146.9,619.1,149.4L619.1,149.4z"/>
			<path class="st3" d="M617.7,303.6c-0.6,1.4-1.6,2.7-2.9,3.5L551.5,346c-2,1.2-3.7,0.2-3.7-2.2v-3.4l61.1-37.6
				c1.1-0.7,2-1.7,2.6-2.9L617.7,303.6L617.7,303.6z"/>
			<path class="st8" d="M618.5,158v142.3c0,1.2-0.3,2.2-0.8,3.3l-6.1-3.7c0.6-1.2,1-2.5,1.1-3.9V157.1l2.2-1.4
				C616.8,154.5,618.5,155.6,618.5,158L618.5,158z"/>
			<path class="st9" d="M612.7,295.9V157.1l-61.1,37.6c-2.2,1.5-3.5,4-3.7,6.8v138.8l61.1-37.6C611.1,301.2,612.5,298.7,612.7,295.9
				L612.7,295.9z"/>
		</g>
		<g id="freepik--Circuits--inject-61">
			<path class="st2" d="M564.6,204.9c0.1-0.1,0.1-0.1,0.1-0.3v-15.7l-0.5,0.3v15.3l-4.1,2.5c-0.1,0.1-0.1,0.1-0.1,0.3v7.8
				c0,0.1,0.1,0.2,0.1,0.3l4.1,2.5v12.1c-0.3,0.3-0.4,0.7-0.5,1.2c0,0.5,0.3,0.7,0.8,0.5c0.4-0.3,0.7-0.8,0.8-1.4
				c0-0.4-0.2-0.6-0.5-0.5v-11.9c0-0.1-0.1-0.2-0.1-0.3l-4.1-2.5v-7.4L564.6,204.9L564.6,204.9z M555.7,194.4v23.2
				c0,0.1,0.1,0.2,0.1,0.3l4.1,2.5v6.9c-0.3,0.3-0.4,0.7-0.5,1.2c0,0.5,0.3,0.7,0.8,0.5c0.4-0.3,0.7-0.8,0.8-1.4
				c0-0.4-0.2-0.6-0.5-0.5v-6.7c0-0.1-0.1-0.2-0.1-0.3l-4.1-2.5v-23.3L555.7,194.4L555.7,194.4z M556.3,334.1v-28.4
				c0-0.1-0.1-0.2-0.1-0.3L552,303v-74.3c0.3-0.3,0.4-0.7,0.5-1.2c0-0.5-0.3-0.7-0.8-0.5c-0.4,0.3-0.7,0.8-0.8,1.4
				c0,0.4,0.2,0.6,0.5,0.5v74.2c0,0.1,0.1,0.2,0.1,0.3l4.1,2.5v28.5L556.3,334.1L556.3,334.1z M551.5,197v23.2
				c0,0.1,0.1,0.2,0.1,0.3l4.1,2.5v12.1c-0.3,0.3-0.5,0.7-0.5,1.2c0,0.5,0.3,0.7,0.8,0.5c0.4-0.3,0.7-0.8,0.8-1.4
				c0-0.4-0.2-0.6-0.5-0.5v-11.9c0-0.1-0.1-0.2-0.1-0.3L552,220v-23.4L551.5,197L551.5,197z M592.1,312.1v-10.2
				c0-0.1-0.1-0.2-0.1-0.3l-4.1-2.5v-9.5c0.3-0.3,0.4-0.7,0.5-1.2c0-0.5-0.3-0.7-0.8-0.5c-0.4,0.3-0.7,0.8-0.8,1.4
				c0,0.4,0.2,0.6,0.5,0.5v9.3c0,0.1,0.1,0.2,0.1,0.3l4.1,2.5v10.4L592.1,312.1L592.1,312.1z M552,336.7v-14.7
				c0.3-0.3,0.4-0.7,0.5-1.2c0-0.5-0.3-0.7-0.8-0.5c-0.4,0.3-0.7,0.8-0.8,1.4c0,0.4,0.2,0.6,0.5,0.5v14.7L552,336.7L552,336.7z"/>
			<path class="st2" d="M606.8,264l-4.2-2.6c-0.1-0.1-0.2-0.1-0.3,0l-1.7,1.1v-17.6l4.2-7.7c0-0.1,0.1-0.1,0.1-0.1v-13
				c0-0.1-0.1-0.2-0.1-0.3l-4.2-2.6c-0.1-0.1-0.2-0.1-0.3,0l-1.7,1.1v-15.1c0-0.1-0.1-0.2-0.1-0.3l-4.1-2.5V197l6.1-3.7l4,2.5v20.8
				c-0.3,0.3-0.4,0.7-0.5,1.2c0,0.5,0.3,0.7,0.8,0.5c0.4-0.3,0.7-0.8,0.8-1.4c0-0.4-0.2-0.6-0.5-0.5v-20.7c0-0.1-0.1-0.2-0.1-0.3
				l-4.2-2.6c-0.1-0.1-0.2-0.1-0.3,0l-6,3.7v-25.6l-0.5,0.3v25.6l-1.9,1.2l-4-2.5v-20.8l-0.5,0.3v20.5c0,0.1,0.1,0.2,0.1,0.2
				l4.3,2.6c0.1,0.1,0.2,0.1,0.3,0l1.7-1.1v7.4c0,0.1,0.1,0.2,0.1,0.3l4.1,2.5v15.2l-14.2,8.8v-25.4c0-0.1-0.1-0.2-0.1-0.3l-6.2-3.8
				v-20.7l-0.5,0.3v20.6c0,0.1,0.1,0.2,0.1,0.3l6.2,3.8v25.6l-10.3,6.3l-4-2.5v-49.3l-0.5,0.3v49.1c0,0.1,0.1,0.2,0.1,0.3l4.2,2.6
				c0.1,0.1,0.2,0.1,0.3,0l10.2-6.2v9.2c-0.3,0.3-0.4,0.7-0.5,1.2c0,0.5,0.3,0.7,0.8,0.5c0.4-0.3,0.7-0.8,0.8-1.4
				c0-0.4-0.2-0.6-0.5-0.5v-9.2l14.2-8.7v14.9c-0.3,0.3-0.4,0.7-0.5,1.2c0,0.5,0.3,0.7,0.8,0.5s0.7-0.8,0.8-1.4
				c0-0.4-0.2-0.6-0.5-0.5v-14.9l1.9-1.2l4,2.5v12.7l-4.2,7.7v18.1l-5.8,3.5V234c0.3-0.3,0.4-0.7,0.5-1.2c0-0.5-0.3-0.7-0.8-0.5
				c-0.4,0.3-0.7,0.8-0.8,1.4c0,0.4,0.2,0.6,0.5,0.5v32.5l-5.8,3.5v-22.2c0.3-0.3,0.4-0.7,0.5-1.2c0-0.5-0.3-0.7-0.8-0.5
				c-0.4,0.3-0.7,0.8-0.8,1.4c0,0.4,0.2,0.6,0.5,0.5v22.2l-10.1,6.1v-4.6l4.1-2.5c0.1-0.1,0.1-0.1,0.1-0.3v-12.3
				c0.3-0.3,0.4-0.8,0.5-1.2c0-0.5-0.3-0.7-0.8-0.5c-0.4,0.3-0.7,0.8-0.8,1.4c0,0.4,0.2,0.6,0.5,0.5v11.8l-4.1,2.5
				c-0.1,0.1-0.1,0.1-0.1,0.3v5l-3.7,2.3v-35.2c0.3-0.3,0.4-0.7,0.5-1.2c0-0.5-0.3-0.7-0.8-0.5c-0.4,0.3-0.7,0.8-0.8,1.4
				c0,0.4,0.2,0.6,0.5,0.5v35.1l-1.9,1.2l-4-2.5v-15.4c0-0.1-0.1-0.2-0.1-0.3l-4.1-2.5v-3.5c0.3-0.3,0.4-0.7,0.5-1.2
				c0-0.5-0.3-0.7-0.8-0.5c-0.4,0.3-0.7,0.8-0.8,1.4c0,0.4,0.2,0.6,0.5,0.5v3.3c0,0.1,0.1,0.2,0.1,0.3l4.1,2.5v15.4
				c0,0.1,0.1,0.2,0.1,0.3l4.2,2.6c0.1,0.1,0.2,0.1,0.3,0l1.7-1.1v12.5c0,0.1,0.1,0.2,0.1,0.3l4.1,2.5v25.9l0.5-0.3v-25.8
				c0-0.1-0.1-0.2-0.1-0.3l-4.1-2.5V280l3.7-2.2v7.3c0,0.1,0.1,0.2,0.1,0.3l4.1,2.5v31.1l0.5-0.3v-31c0-0.1-0.1-0.2-0.1-0.3
				l-4.1-2.5v-7.5l10.1-6.1v12.5c0,0.1,0.1,0.2,0.1,0.3l8.3,5.1v20.7l0.5-0.3v-20.5c0-0.1-0.1-0.2-0.1-0.3l-8.3-5.1v-12.7l5.8-3.5
				v12.5c0,0.1,0.1,0.2,0.1,0.3l6.2,3.8v23.3l0.5-0.3v-23.2c0-0.1-0.1-0.2-0.1-0.3l-6.2-3.8V267l5.8-3.5v11.8
				c-0.3,0.3-0.4,0.7-0.5,1.2c0,0.5,0.3,0.7,0.8,0.5c0.4-0.3,0.7-0.8,0.8-1.4c0-0.4-0.2-0.6-0.5-0.5v-11.8l1.9-1.2l4,2.5v38.9
				l0.5-0.3v-38.7L606.8,264L606.8,264z M560.5,331.5v-28.4c0-0.1-0.1-0.2-0.1-0.3l-4.1-2.5v-25.3c0.3-0.3,0.4-0.8,0.5-1.2
				c0-0.5-0.3-0.7-0.8-0.5c-0.4,0.3-0.7,0.8-0.8,1.4c0,0.4,0.2,0.6,0.5,0.5v25.2c0,0.1,0.1,0.2,0.1,0.3l4.1,2.5v28.5L560.5,331.5
				L560.5,331.5z"/>
			<path class="st2" d="M585.8,316v-6.9c0.3-0.3,0.4-0.8,0.5-1.2c0-0.5-0.3-0.7-0.8-0.5c-0.4,0.3-0.7,0.8-0.8,1.4
				c0,0.4,0.2,0.6,0.5,0.5v6.9L585.8,316L585.8,316z M597.9,168.4v10.2c0,0.1,0.1,0.2,0.1,0.2l4.1,2.5v6.9c-0.3,0.3-0.4,0.7-0.5,1.2
				c0,0.5,0.3,0.7,0.8,0.5c0.4-0.3,0.7-0.8,0.8-1.4c0-0.4-0.2-0.6-0.5-0.5v-6.7c0-0.1-0.1-0.2-0.1-0.2l-4.1-2.5v-10.4L597.9,168.4
				L597.9,168.4z M606.4,163.3v6.9c-0.3,0.3-0.4,0.7-0.5,1.2c0,0.5,0.3,0.7,0.8,0.5c0.4-0.3,0.7-0.8,0.8-1.4c0-0.4-0.2-0.6-0.5-0.5
				v-7L606.4,163.3L606.4,163.3z M602.2,165.9v10.2c0,0.1,0.1,0.2,0.1,0.2l4.1,2.5v9.5c-0.3,0.3-0.4,0.7-0.5,1.2
				c0,0.5,0.3,0.7,0.8,0.5c0.4-0.3,0.7-0.8,0.8-1.4c0-0.4-0.2-0.6-0.5-0.5v-9.3c0-0.1-0.1-0.2-0.1-0.2l-4.1-2.5v-10.4L602.2,165.9
				L602.2,165.9z M610.9,258.8l-4-2.5v-12.1c0.3-0.3,0.4-0.7,0.5-1.2c0-0.5-0.3-0.7-0.8-0.5c-0.4,0.3-0.7,0.8-0.8,1.4
				c0,0.4,0.2,0.6,0.5,0.5v11.9c0,0.1,0.1,0.2,0.1,0.3l4.4,2.7L610.9,258.8L610.9,258.8z M571,325.1v-23.2c0-0.1-0.1-0.2-0.1-0.3
				l-8.3-5.1v-28.4c0-0.1-0.1-0.2-0.1-0.3l-6.2-3.8v-19.8c0.3-0.3,0.4-0.7,0.5-1.2c0-0.5-0.3-0.7-0.8-0.5c-0.4,0.3-0.7,0.8-0.8,1.4
				c0,0.4,0.2,0.6,0.5,0.5v19.7c0,0.1,0.1,0.2,0.1,0.3l6.2,3.8v28.4c0,0.1,0.1,0.2,0.1,0.3l8.3,5.1v23.3L571,325.1L571,325.1z
				 M566.8,327.6V320c0-0.1-0.1-0.2-0.1-0.3l-2-1.2V309c0.3-0.3,0.4-0.7,0.5-1.2c0-0.5-0.3-0.8-0.8-0.5c-0.4,0.3-0.7,0.8-0.8,1.4
				c0,0.4,0.2,0.6,0.5,0.5v9.3c0,0.1,0.1,0.2,0.1,0.3l2,1.2v7.8L566.8,327.6L566.8,327.6z M577.3,207l-4.1-2.5v-20.7l-0.5,0.3v20.6
				c0,0.1,0.1,0.2,0.1,0.3l4.1,2.5v14.7c-0.3,0.3-0.4,0.7-0.5,1.2c0,0.5,0.3,0.7,0.8,0.5c0.4-0.3,0.7-0.8,0.8-1.4
				c0-0.4-0.2-0.6-0.5-0.5v-14.5C577.4,207.1,577.3,207,577.3,207L577.3,207z M589.9,204.4l-8.3-5.1v-20.7l-0.5,0.3v20.6
				c0,0.1,0.1,0.2,0.1,0.3l8.3,5.1v9.5c-0.3,0.3-0.4,0.7-0.5,1.2c0,0.5,0.3,0.7,0.8,0.5c0.4-0.3,0.7-0.8,0.8-1.4
				c0-0.4-0.2-0.6-0.5-0.5v-9.3C590,204.5,590,204.4,589.9,204.4L589.9,204.4z"/>
			<g id="freepik--Chip--inject-61">
				<path class="st2" d="M561.2,217.5h-1.4v4.8c0,0.4,0.3,0.7,0.7,0.7c0.4,0,0.7-0.3,0.7-0.7L561.2,217.5L561.2,217.5z M563.9,215.8
					h-1.4v4.8c0,0.4,0.3,0.7,0.7,0.7s0.7-0.3,0.7-0.7L563.9,215.8L563.9,215.8z M566.6,214.2h-1.4v4.8c0,0.4,0.3,0.7,0.7,0.7
					c0.4,0,0.7-0.3,0.7-0.7L566.6,214.2L566.6,214.2z M569.2,212.6h-1.4v4.8c0,0.4,0.3,0.7,0.7,0.7c0.4,0,0.7-0.3,0.7-0.7V212.6
					L569.2,212.6z"/>
				<g class="st11">
					<path class="st4" d="M561.2,217.5h-1.4v4.8c0,0.4,0.3,0.7,0.7,0.7c0.4,0,0.7-0.3,0.7-0.7L561.2,217.5L561.2,217.5z
						 M563.9,215.8h-1.4v4.8c0,0.4,0.3,0.7,0.7,0.7s0.7-0.3,0.7-0.7L563.9,215.8L563.9,215.8z M566.6,214.2h-1.4v4.8
						c0,0.4,0.3,0.7,0.7,0.7c0.4,0,0.7-0.3,0.7-0.7L566.6,214.2L566.6,214.2z M569.2,212.6h-1.4v4.8c0,0.4,0.3,0.7,0.7,0.7
						c0.4,0,0.7-0.3,0.7-0.7V212.6L569.2,212.6z"/>
				</g>
				<path class="st2" d="M561.2,217.5h-1.5v4l1.5-0.8V217.5z M567.8,216.6l1.4-0.8v-3.2h-1.4V216.6z M566.6,214.2h-1.4v4l1.4-0.8
					V214.2z M563.9,215.8h-1.4v4l1.4-0.8V215.8z M570,201.4l-0.7-1.3l3.8-2.4c0.3-0.2,0.8-0.1,1,0.3c0.2,0.3,0.1,0.8-0.3,1
					L570,201.4z M570,204.7l-0.7-1.3l3.8-2.4c0.3-0.2,0.8-0.1,1,0.3c0.2,0.3,0.1,0.8-0.3,1L570,204.7z M570,207.9l-0.7-1.3l3.8-2.4
					c0.3-0.2,0.8-0.1,1,0.3c0.2,0.3,0.1,0.8-0.3,1L570,207.9z M570,211.2l-0.7-1.3l3.8-2.4c0.3-0.2,0.8-0.1,1,0.3
					c0.2,0.3,0.1,0.8-0.3,1L570,211.2z"/>
				<g class="st11">
					<path class="st4" d="M570,201.4l-0.7-1.3l3.8-2.4c0.3-0.2,0.8-0.1,1,0.3c0.2,0.3,0.1,0.8-0.3,1L570,201.4z M570,204.7l-0.7-1.3
						l3.8-2.4c0.3-0.2,0.8-0.1,1,0.3c0.2,0.3,0.1,0.8-0.3,1L570,204.7z M570,207.9l-0.7-1.3l3.8-2.4c0.3-0.2,0.8-0.1,1,0.3
						c0.2,0.3,0.1,0.8-0.3,1L570,207.9z M570,211.2l-0.7-1.3l3.8-2.4c0.3-0.2,0.8-0.1,1,0.3c0.2,0.3,0.1,0.8-0.3,1L570,211.2z"/>
				</g>
				<path class="st2" d="M570,201.4l-0.7-1.3l3.3-2v1.7L570,201.4z M572.5,207.9v1.7l-2.6,1.6l-0.7-1.3L572.5,207.9z M570,207.9
					l-0.7-1.3l3.3-2v1.8L570,207.9z M570,204.7l-0.7-1.3l3.3-2v1.8L570,204.7z M571.1,197.1c-0.2-0.1-0.4-0.1-0.6,0.1l-11.6,7.2
					c-0.3,0.1-0.4,0.4-0.6,0.7l-1.6-1c0.1-0.3,0.3-0.5,0.6-0.7l11.1-6.8c0.5-0.3,1.2-0.3,1.7,0L571.1,197.1L571.1,197.1z"/>
				<path class="st5" d="M571.1,197.1c-0.2-0.1-0.4-0.1-0.6,0.1l-11.6,7.2c-0.3,0.1-0.4,0.4-0.6,0.7l-1.6-1c0.1-0.3,0.3-0.5,0.6-0.7
					l11.1-6.8c0.5-0.3,1.2-0.3,1.7,0L571.1,197.1L571.1,197.1z"/>
				<path class="st2" d="M558.1,205.9v14.2c0,0.6,0.4,0.8,0.8,0.5l11.6-7.2c0.5-0.3,0.8-1,0.8-1.6v-14.2c0-0.6-0.4-0.8-0.8-0.5
					l-11.6,7.2C558.4,204.7,558.1,205.2,558.1,205.9z"/>
				<path class="st2" d="M558.3,220.7l-1-0.6c-0.5-0.3-0.8-1-0.8-1.6v-13.6c0-0.3,0.1-0.6,0.3-0.9l1.6,1c-0.1,0.3-0.3,0.6-0.3,0.9
					v14.2C558,220.3,558.2,220.5,558.3,220.7z"/>
				<path class="st3" d="M558.3,220.7l-1-0.6c-0.5-0.3-0.8-1-0.8-1.6v-13.6c0-0.3,0.1-0.6,0.3-0.9l1.6,1c-0.1,0.3-0.3,0.6-0.3,0.9
					v14.2C558,220.3,558.2,220.5,558.3,220.7z"/>
				<path class="st0" d="M560,218.1c-0.1,0-0.1,0-0.2-0.1c-0.1-0.1-0.3-0.3-0.2-0.5v-11.1c0-0.5,0.3-0.9,0.6-1.1l9-5.5
					c0.2-0.1,0.4-0.1,0.6,0.1c0.1,0.1,0.1,0.3,0.1,0.3v11.1c0,0.5-0.3,0.9-0.6,1.1l-9,5.6C560.2,218.1,560.1,218.1,560,218.1z
					 M569.5,199.9c-0.1,0-0.1,0-0.2,0.1l-9,5.5c-0.3,0.2-0.4,0.5-0.5,0.9v11.1c0,0.1,0,0.2,0.1,0.3c0.1,0.1,0.2,0,0.3-0.1l9-5.5
					c0.3-0.2,0.4-0.5,0.5-0.9v-11.1C569.7,200.1,569.6,200,569.5,199.9L569.5,199.9L569.5,199.9z"/>
				<path class="st0" d="M561.6,214.8h-0.1c-0.1-0.1-0.1-0.1-0.1-0.3v-7.3c0-0.2,0.1-0.4,0.3-0.5l6-3.7c0.1-0.1,0.2-0.1,0.3,0
					c0.1,0.1,0.1,0.1,0.1,0.3v7.4c0,0.2-0.1,0.4-0.3,0.5l-6,3.6C561.8,214.7,561.7,214.8,561.6,214.8L561.6,214.8z M567.8,203.2
					l-6,3.7c-0.1,0.1-0.1,0.2-0.2,0.3v7.4h0.1l6-3.7c0.1-0.1,0.1-0.2,0.2-0.3L567.8,203.2C567.8,203.2,567.8,203.2,567.8,203.2
					L567.8,203.2z"/>
				<path class="st2" d="M561.2,197.6c0-0.4-0.3-0.7-0.7-0.7c-0.4,0-0.7,0.3-0.7,0.7v4.6c0,0.1,0.1,0.3,0.2,0.3c0.3,0.1,0.7,0.1,1,0
					c0.1-0.1,0.2-0.1,0.2-0.3L561.2,197.6z M563.8,196c-0.1-0.4-0.4-0.7-0.8-0.7c-0.3,0.1-0.6,0.3-0.6,0.7v4.6
					c0,0.1,0.1,0.3,0.2,0.3c0.3,0.1,0.7,0.1,1,0c0.1-0.1,0.2-0.2,0.2-0.3V196L563.8,196z M566.5,194.4c0-0.4-0.3-0.7-0.7-0.7
					c-0.4,0-0.7,0.3-0.7,0.7v4.6c0,0.1,0.1,0.3,0.2,0.3c0.3,0.1,0.7,0.1,1,0c0.1-0.1,0.2-0.2,0.2-0.3L566.5,194.4z M568.4,192
					c-0.4,0-0.7,0.3-0.7,0.7v4.6c0,0.1,0.1,0.3,0.2,0.3c0.3,0.1,0.7,0.1,1,0c0.1-0.1,0.2-0.2,0.2-0.3v-4.6
					C569.1,192.3,568.8,192,568.4,192z M553.8,210.5c-0.3,0.2-0.8,0.1-1-0.3c-0.2-0.3-0.1-0.8,0.3-1l3.7-2.2c0.1-0.1,0.3-0.1,0.4,0
					c0.3,0.2,0.4,0.5,0.5,1c0,0.1-0.1,0.3-0.1,0.3L553.8,210.5L553.8,210.5z M553.8,213.8c-0.3,0.2-0.8,0.1-1-0.3
					c-0.2-0.3-0.1-0.8,0.3-1l3.7-2.2c0.1-0.1,0.3-0.1,0.4,0.1c0.3,0.2,0.5,0.5,0.5,1c0,0.1-0.1,0.3-0.1,0.3L553.8,213.8L553.8,213.8
					z M553.8,217.1c-0.3,0.2-0.8,0.1-1-0.3c-0.2-0.3-0.1-0.8,0.3-1l3.7-2.2c0.1-0.1,0.3-0.1,0.4,0.1c0.3,0.2,0.5,0.5,0.5,1
					c0,0.1-0.1,0.3-0.1,0.3L553.8,217.1L553.8,217.1z M552.9,220.1c-0.2-0.3-0.1-0.8,0.3-1l3.7-2.2c0.1-0.1,0.3-0.1,0.3,0.1
					c0.3,0.2,0.5,0.5,0.5,1c0,0.1-0.1,0.3-0.1,0.3l-3.7,2.2C553.5,220.5,553.1,220.4,552.9,220.1z"/>
				<g class="st11">
					<path class="st4" d="M561.2,197.6c0-0.4-0.3-0.7-0.7-0.7c-0.4,0-0.7,0.3-0.7,0.7v4.6c0,0.1,0.1,0.3,0.2,0.3
						c0.3,0.1,0.7,0.1,1,0c0.1-0.1,0.2-0.1,0.2-0.3L561.2,197.6z M563.8,196c-0.1-0.4-0.4-0.7-0.8-0.7c-0.3,0.1-0.6,0.3-0.6,0.7v4.6
						c0,0.1,0.1,0.3,0.2,0.3c0.3,0.1,0.7,0.1,1,0c0.1-0.1,0.2-0.2,0.2-0.3V196L563.8,196z M566.5,194.4c0-0.4-0.3-0.7-0.7-0.7
						c-0.4,0-0.7,0.3-0.7,0.7v4.6c0,0.1,0.1,0.3,0.2,0.3c0.3,0.1,0.7,0.1,1,0c0.1-0.1,0.2-0.2,0.2-0.3L566.5,194.4z M568.4,192
						c-0.4,0-0.7,0.3-0.7,0.7v4.6c0,0.1,0.1,0.3,0.2,0.3c0.3,0.1,0.7,0.1,1,0c0.1-0.1,0.2-0.2,0.2-0.3v-4.6
						C569.1,192.3,568.8,192,568.4,192z M553.8,210.5c-0.3,0.2-0.8,0.1-1-0.3c-0.2-0.3-0.1-0.8,0.3-1l3.7-2.2c0.1-0.1,0.3-0.1,0.4,0
						c0.3,0.2,0.4,0.5,0.5,1c0,0.1-0.1,0.3-0.1,0.3L553.8,210.5L553.8,210.5z M553.8,213.8c-0.3,0.2-0.8,0.1-1-0.3
						c-0.2-0.3-0.1-0.8,0.3-1l3.7-2.2c0.1-0.1,0.3-0.1,0.4,0.1c0.3,0.2,0.5,0.5,0.5,1c0,0.1-0.1,0.3-0.1,0.3L553.8,213.8
						L553.8,213.8z M553.8,217.1c-0.3,0.2-0.8,0.1-1-0.3c-0.2-0.3-0.1-0.8,0.3-1l3.7-2.2c0.1-0.1,0.3-0.1,0.4,0.1
						c0.3,0.2,0.5,0.5,0.5,1c0,0.1-0.1,0.3-0.1,0.3L553.8,217.1L553.8,217.1z M552.9,220.1c-0.2-0.3-0.1-0.8,0.3-1l3.7-2.2
						c0.1-0.1,0.3-0.1,0.3,0.1c0.3,0.2,0.5,0.5,0.5,1c0,0.1-0.1,0.3-0.1,0.3l-3.7,2.2C553.5,220.5,553.1,220.4,552.9,220.1z"/>
				</g>
			</g>
			<path class="st2" d="M609.1,282.6c-0.2-0.1-0.4-0.1-0.6,0.1l-51.9,31.5c-0.3,0.1-0.5,0.4-0.6,0.7l-1.7-1c0.1-0.3,0.4-0.5,0.6-0.7
				l51.3-31.2c0.6-0.3,1.2-0.3,1.8,0L609.1,282.6z"/>
			<path class="st5" d="M609.1,282.6c-0.2-0.1-0.4-0.1-0.6,0.1l-51.9,31.5c-0.3,0.1-0.5,0.4-0.6,0.7l-1.7-1c0.1-0.3,0.4-0.5,0.6-0.7
				l51.3-31.2c0.6-0.3,1.2-0.3,1.8,0L609.1,282.6z"/>
			<path class="st2" d="M555.7,315.9v13c0,0.6,0.4,0.8,0.9,0.5l51.9-31.5c0.5-0.3,0.8-1,0.9-1.6v-13c0-0.6-0.4-0.8-0.9-0.5
				l-51.9,31.5C556.1,314.6,555.7,315.2,555.7,315.9L555.7,315.9z"/>
			<path class="st2" d="M555.9,329.5l-1-0.6c-0.5-0.3-0.8-1-0.9-1.6v-12.3c0-0.3,0.1-0.7,0.3-1l1.7,1c-0.2,0.3-0.3,0.6-0.3,1v13
				C555.7,329.1,555.8,329.4,555.9,329.5z"/>
			<path class="st3" d="M555.9,329.5l-1-0.6c-0.5-0.3-0.8-1-0.9-1.6v-12.3c0-0.3,0.1-0.7,0.3-1l1.7,1c-0.1,0.3-0.3,0.6-0.3,1v13
				C555.7,329.1,555.8,329.4,555.9,329.5z"/>
			<path class="st0" d="M557.7,326.8c-0.1,0-0.1,0-0.2-0.1c-0.1-0.1-0.3-0.3-0.3-0.5v-9.7c0-0.5,0.3-0.9,0.6-1.2l49.2-29.9
				c0.1-0.1,0.4-0.1,0.5-0.1c0.1,0.1,0.3,0.3,0.3,0.5v9.7c0,0.5-0.3,0.9-0.6,1.2L558,326.7C557.9,326.8,557.8,326.8,557.7,326.8z
				 M607.3,285.6c-0.1,0-0.1,0-0.2,0.1L558,315.6c-0.3,0.2-0.4,0.5-0.5,1v9.7c-0.1,0.1,0,0.3,0.1,0.3c0.1,0,0.2,0,0.3-0.1l49.2-29.9
				c0.3-0.2,0.4-0.5,0.5-0.9V286C607.5,285.9,607.5,285.7,607.3,285.6C607.4,285.6,607.3,285.6,607.3,285.6L607.3,285.6z"/>
			<path class="st0" d="M559.5,323.4c-0.1,0-0.1,0-0.1-0.1s-0.1-0.1-0.1-0.3v-5.7c0-0.2,0.1-0.4,0.3-0.5l46-28
				c0.1-0.1,0.3-0.1,0.4,0.1c0.1,0.1,0.1,0.1,0.1,0.2v5.8c0,0.2-0.1,0.4-0.3,0.5l-45.9,27.9C559.6,323.3,559.5,323.4,559.5,323.4
				L559.5,323.4z M605.6,289.1l-46,28c-0.1,0.1-0.1,0.2-0.2,0.3v5.8l45.9-27.9c0.1-0.1,0.2-0.2,0.2-0.3L605.6,289.1z"/>
			<path class="st2" d="M610.3,169c-0.2-0.1-0.4-0.1-0.6,0.1l-24.8,15.2c-0.3,0.1-0.5,0.4-0.6,0.7l-1.7-1c0.1-0.3,0.4-0.5,0.6-0.7
				l24.3-14.9c0.6-0.3,1.2-0.3,1.8,0L610.3,169z"/>
			<path class="st5" d="M610.3,169c-0.2-0.1-0.4-0.1-0.6,0.1l-24.8,15.2c-0.3,0.1-0.5,0.4-0.6,0.7l-1.7-1c0.1-0.3,0.4-0.5,0.6-0.7
				l24.3-14.9c0.6-0.3,1.2-0.3,1.8,0L610.3,169z"/>
			<path class="st2" d="M584,185.9v14.9c0,0.6,0.4,0.8,0.9,0.5l24.8-15.2c0.5-0.3,0.8-1,0.9-1.6v-14.9c0-0.6-0.4-0.8-0.9-0.5
				l-24.8,15.2C584.4,184.6,584,185.2,584,185.9z"/>
			<path class="st2" d="M584.2,201.4l-1-0.6c-0.5-0.3-0.8-1-0.9-1.6v-14.2c0-0.3,0.1-0.7,0.3-1l1.7,1c-0.2,0.3-0.3,0.6-0.3,1v14.9
				C584,201,584,201.2,584.2,201.4L584.2,201.4z"/>
			<path class="st3" d="M584.2,201.4l-1-0.6c-0.5-0.3-0.8-1-0.9-1.6v-14.2c0-0.3,0.1-0.7,0.3-1l1.7,1c-0.1,0.3-0.3,0.6-0.3,1v14.9
				C584,201,584,201.3,584.2,201.4L584.2,201.4z"/>
			<path class="st0" d="M586,198.7c-0.1,0-0.1,0-0.2-0.1c-0.1-0.1-0.3-0.3-0.3-0.5v-11.6c0-0.5,0.3-0.9,0.6-1.2l22.1-13.6
				c0.2-0.2,0.5-0.1,0.6,0.1c0.1,0.1,0.1,0.3,0.1,0.4v11.6c0,0.5-0.3,0.9-0.6,1.2l-22.1,13.6C586.2,198.7,586.1,198.7,586,198.7
				L586,198.7z M608.6,172c-0.1,0-0.1,0-0.2,0.1l-22.1,13.6c-0.3,0.2-0.4,0.5-0.5,0.9v11.6c0,0.1,0,0.2,0.1,0.3
				c0.1,0.1,0.2,0,0.3-0.1l22.1-13.5c0.3-0.2,0.4-0.5,0.5-0.9v-11.6c0-0.1,0-0.2-0.1-0.3C608.6,172.1,608.6,172,608.6,172L608.6,172
				z"/>
			<path class="st0" d="M587.7,195.2c-0.1,0-0.1,0-0.1-0.1c-0.1-0.1-0.1-0.1-0.1-0.3v-7.6c0-0.2,0.1-0.4,0.3-0.5l18.9-11.6
				c0.1-0.1,0.2-0.1,0.3,0c0.1,0.1,0.1,0.1,0.1,0.3v7.7c0,0.2-0.1,0.4-0.3,0.5l-18.9,11.5C587.9,195.2,587.7,195.2,587.7,195.2z
				 M606.8,175.4l-19,11.6c-0.1,0.1-0.1,0.2-0.2,0.3v7.7h0.1l18.9-11.5c0.1-0.1,0.2-0.2,0.2-0.3V175.4
				C606.8,175.4,606.8,175.4,606.8,175.4z"/>
			<path class="st2" d="M566.4,237.1v10.3c-0.1,0.8-0.4,1.6-1.2,2.1l-10.2,6.3c-0.6,0.4-1.2,0.1-1.2-0.7v-10.3
				c0.1-0.8,0.4-1.6,1.2-2.1c2.8-1.7,7.4-4.6,10.2-6.3C565.9,236,566.4,236.4,566.4,237.1z"/>
			<path class="st4" d="M566.4,239.4v0.6l-12.4,7.7v-0.6L566.4,239.4z"/>
			<path class="st4" d="M562,247.8l0.5-0.6v-5.2l-0.5,0.6V247.8z M558,250.3l0.5-0.7v-5.2l-0.5,0.6V250.3z"/>
			<path class="st4" d="M566.4,244.6v0.6l-12.4,7.7v-0.6L566.4,244.6z"/>
			<path class="st2" d="M601.8,241.7c0.3,0.2,0.4,0.5,0.3,0.8v33.2c-0.1,0.9-0.5,1.7-1.2,2.2l-45.1,27.7c-0.3,0.2-0.6,0.2-0.8,0.1
				l-1.1-0.7c-0.3-0.2-0.4-0.5-0.4-0.8V271c0.1-0.9,0.5-1.7,1.2-2.2l45.1-27.7c0.3-0.2,0.6-0.2,0.8-0.1L601.8,241.7L601.8,241.7z"/>
			<path class="st12" d="M555,270.4l-1.1-0.7c-0.2,0.4-0.3,0.8-0.4,1.3v33.2c0,0.3,0.1,0.6,0.4,0.8c0.2,0.1,0.9,0.5,1.1,0.7
				c-0.3-0.2-0.4-0.5-0.4-0.8v-33.2C554.7,271.3,554.8,270.8,555,270.4L555,270.4z"/>
			<path class="st2" d="M602.1,276.2l-0.8,1.4C601.7,277.2,602,276.7,602.1,276.2z"/>
			<path class="st13" d="M601.7,241.6l-1-0.6c-0.3-0.1-0.6-0.1-0.8,0.1l-45.1,27.7c-0.4,0.2-0.6,0.5-0.8,1l1.1,0.7
				c0.2-0.4,0.5-0.7,0.8-1l45.1-27.7C601.2,241.6,601.5,241.5,601.7,241.6L601.7,241.6z"/>
			<path class="st2" d="M555.9,269.5l45.1-27.7c0.6-0.4,1.2-0.1,1.2,0.7v33.2c-0.1,0.9-0.5,1.7-1.2,2.2l-45.1,27.7
				c-0.6,0.4-1.2,0.1-1.2-0.7v-33.2C554.7,270.8,555.2,270,555.9,269.5z"/>
			<path class="st5" d="M555.9,269.5l45.1-27.7c0.6-0.4,1.2-0.1,1.2,0.7v33.2c-0.1,0.9-0.5,1.7-1.2,2.2l-45.1,27.7
				c-0.6,0.4-1.2,0.1-1.2-0.7v-33.2C554.7,270.8,555.2,270,555.9,269.5z"/>
			<path class="st2" d="M561.3,276.5l-5.2,3.3c-0.1,0.1-0.3,0.1-0.3,0c0-0.1,0.1-0.2,0.3-0.3l5.1-3.1v-2.2c0-0.1,0-0.1,0.1-0.1
				l2.8-1.7h0.1l1.8,1.1l4.2-2.6c0.1-0.2,0.1-0.3,0.3-0.5c0.2-0.1,0.3,0,0.3,0.2c0,0.3-0.1,0.5-0.3,0.6c-0.1,0.1-0.3,0.1-0.3-0.1
				l-4.2,2.6h-0.1l-1.8-1.1l-2.6,1.6v2.2C561.4,276.4,561.3,276.5,561.3,276.5L561.3,276.5z M556,275l7.9-4.8h0.1l1.8,1.1l1.9-1.2
				c0.1-0.2,0.1-0.3,0.3-0.5c0.2-0.1,0.3,0,0.3,0.2c0,0.3-0.1,0.5-0.3,0.6c-0.1,0.1-0.3,0.1-0.3-0.1l-1.8,1.1h-0.1l-1.8-1.1
				l-7.9,4.9c-0.1,0.1-0.3,0.1-0.3,0S555.9,275.1,556,275z M600.8,247.7l-9.7,5.9H591l-1.8-1.1L567,266.3c-0.1,0.2-0.1,0.3-0.3,0.5
				c-0.2,0.1-0.3,0-0.3-0.2c0-0.3,0.1-0.5,0.3-0.6c0.1-0.1,0.3-0.1,0.3,0.1l22.2-13.6h0.1l1.8,1.1l9.7-6c0.1-0.1,0.3-0.1,0.3,0
				C601.1,247.5,600.9,247.7,600.8,247.7z M556,272.8l7.9-4.8h0.1l1.8,1.1l4.2-2.6c0.1-0.2,0.1-0.3,0.3-0.5s0.3,0,0.3,0.2
				c0,0.3-0.1,0.5-0.3,0.6c-0.1,0.1-0.3,0.1-0.3-0.1l-4.2,2.6h-0.1l-1.8-1.1L556,273c-0.1,0.1-0.3,0.1-0.3,0S555.9,272.8,556,272.8
				L556,272.8z M600.8,266.8l-3.3,2h-0.1l-1.8-1.1l-3.3,2c-0.1,0.2-0.1,0.3-0.3,0.5c-0.2,0.1-0.3,0-0.3-0.2c0-0.3,0.1-0.5,0.3-0.6
				c0.1-0.1,0.3-0.1,0.3,0.1l3.3-2h0.1l1.8,1.1l3.4-2.1c0.1-0.1,0.3-0.1,0.3,0S600.9,266.7,600.8,266.8L600.8,266.8z M600.8,245.6
				l-4.9,3c-0.1,0.2-0.1,0.3-0.3,0.5c-0.2,0.1-0.3,0-0.3-0.2c0-0.3,0.1-0.5,0.3-0.6c0.1-0.1,0.3-0.1,0.3,0.1l4.9-3
				c0.1-0.1,0.3-0.1,0.3,0C601.1,245.4,600.9,245.4,600.8,245.6z"/>
			<path class="st2" d="M585.5,281.6v-0.9l-2.4,1.4l-1.8,3.3l-0.1,0.1l-4.5,2.8h-0.1l-1.8-1.1c-0.1,0-0.1-0.1-0.1-0.1v-0.9l-5.2,3.3
				h-0.1l-1.8-1.1l-2.6,1.6v3.2l1.7,1l7.3-4.5c0.1-0.2,0.1-0.3,0.3-0.5c0.2-0.1,0.3,0,0.3,0.2c0,0.3-0.1,0.5-0.3,0.6
				c-0.1,0.1-0.3,0.1-0.3-0.1l-7.2,4.4h-0.1l-1.8-1.1c-0.1,0-0.1-0.1-0.1-0.1v-3.1l-8.7,5.4c-0.1,0.1-0.3,0.1-0.3,0s0.1-0.2,0.3-0.3
				l8.7-5.4v-1l-1.7-1.1l-7,4.3c-0.1,0.1-0.3,0.1-0.3,0s0.1-0.2,0.3-0.3l7-4.3h0.1l1.9,1.2c0.1,0,0.1,0.1,0.1,0.1v1l2.6-1.6h0.1
				l1.8,1.1l5.3-3.3v-7.5l-8.9,5.5h-0.1l-2.7-1.6l-7,4.3c-0.1,0.1-0.3,0.1-0.3,0c0-0.1,0.1-0.2,0.3-0.3l7-4.3h0.1l2.7,1.6l9-5.5
				v-5.5l-1.7-1l-17,10.5c-0.1,0.1-0.3,0.1-0.3,0s0.1-0.2,0.3-0.3l17-10.4h0.1l1.8,1.1c0.1,0,0.1,0.1,0.1,0.1v5.4l3.2-2
				c0.1-0.2,0.1-0.3,0.3-0.5c0.2-0.1,0.3,0,0.3,0.2c0,0.3-0.1,0.5-0.3,0.6c-0.1,0.1-0.3,0.1-0.3-0.1l-3.2,2v7.6l5.2-3.2
				c0.1-0.2,0.1-0.3,0.3-0.5c0.2-0.1,0.3,0,0.3,0.2c0,0.3-0.1,0.5-0.3,0.6c-0.1,0.1-0.3,0.1-0.3-0.1l-5.2,3.2v1l1.7,1l4.5-2.7
				l1.8-3.3c0,0,0-0.1,0.1-0.1l2.5-1.5v-3.2L578,282c-0.1,0.2-0.1,0.3-0.3,0.5s-0.3,0-0.3-0.2c0-0.3,0.1-0.5,0.3-0.6
				c0.1-0.1,0.3-0.1,0.3,0.1l7.7-4.7v-3.1l-5.1,3.1c-0.1,0.2-0.1,0.3-0.3,0.5c-0.2,0.1-0.3,0-0.3-0.2c0-0.3,0.1-0.5,0.3-0.6
				c0.1-0.1,0.3-0.1,0.3,0.1l5.1-3.1v-5.3l-1.6,1v2.2c0,0.1,0,0.1-0.1,0.1l-2,1.3c-0.1,0.2-0.1,0.3-0.3,0.5s-0.3,0-0.3-0.2
				c0-0.3,0.1-0.5,0.3-0.6c0.1-0.1,0.3-0.1,0.3,0.1l1.9-1.2v-2.2c0-0.1,0-0.1,0.1-0.1l1.8-1.1v-2l-8.5,5.2c-0.1,0.2-0.1,0.3-0.3,0.5
				c-0.2,0.1-0.3,0-0.3-0.2c0-0.3,0.1-0.5,0.3-0.6c0.1-0.1,0.3-0.1,0.3,0.1l8.5-5.2v-1l-1.7-1l-5.4,3.3h-0.1l-1.8-1.1l-3.3,2
				c-0.1,0.2-0.1,0.3-0.3,0.5c-0.2,0.1-0.3,0-0.3-0.2c0-0.3,0.1-0.5,0.3-0.6c0.1-0.1,0.3-0.1,0.3,0.1l3.3-2h0.1l1.8,1.1l5.4-3.3h0.1
				l1.8,1.1c0.1,0,0.1,0.1,0.1,0.1v1l4.4-2.7h0.1l1.8,1.1l8.8-5.5c0.1-0.1,0.3-0.1,0.3,0s-0.1,0.2-0.3,0.3l-8.8,5.4H592l-1.8-1.1
				l-4.4,2.7v2l2.6-1.6h0.1l1.8,1.1L601,261c0.1-0.1,0.3-0.1,0.3,0c0,0.1-0.1,0.2-0.3,0.3l-10.6,6.5h-0.1l-1.8-1.1l-2.6,1.6v5.3
				l4.4-2.7h0.1l3.6,2.2l7-4.3c0.1-0.1,0.3-0.1,0.3,0s-0.1,0.2-0.3,0.3l-7,4.3h-0.1l-3.6-2.2l-4.4,2.7v3.1l4.4-2.7h0.1l2.7,1.6
				l7.9-4.9c0.1-0.1,0.3-0.1,0.3,0s-0.1,0.2-0.3,0.3l-7.9,4.8h-0.1l-2.7-1.6l-4.4,2.7v3.1l4.1-2.5c0.1-0.2,0.1-0.3,0.3-0.5
				s0.3,0,0.3,0.2c0,0.3-0.1,0.5-0.3,0.6c-0.1,0.1-0.3,0.1-0.3-0.1l-4.1,2.5v1l1.7,1l13.4-8.2c0.1-0.1,0.3-0.1,0.3,0
				c0,0.1-0.1,0.2-0.3,0.3l-13.3,8.2h-0.1l-1.9-1.2C585.5,281.6,585.5,281.6,585.5,281.6L585.5,281.6z M600.8,250l-9.7,6H591
				l-1.8-1.1l-8.8,5.5c-0.1,0.2-0.1,0.3-0.3,0.5s-0.3,0-0.3-0.2c0-0.3,0.1-0.5,0.3-0.6c0.1-0.1,0.3-0.1,0.3,0.1l8.8-5.4h0.1l1.8,1.1
				l9.7-6c0.1-0.1,0.3-0.1,0.3,0C601.1,249.9,600.9,249.9,600.8,250L600.8,250z"/>
			<path class="st2" d="M600.8,263.4l-2.2,1.4c-0.1,0.2-0.1,0.3-0.3,0.5c-0.2,0.1-0.3,0-0.3-0.2c0-0.3,0.1-0.5,0.3-0.6
				c0.1-0.1,0.3-0.1,0.3,0.1l2.2-1.4c0.1-0.1,0.3-0.1,0.3,0C601.1,263.2,600.9,263.4,600.8,263.4z M556,297.4l3.3-2h0.1l1.8,1.1
				l2.4-1.5c0.1-0.2,0.1-0.3,0.3-0.5c0.2-0.1,0.3,0,0.3,0.2c0,0.3-0.1,0.5-0.3,0.6c-0.1,0.1-0.3,0.1-0.3-0.1l-2.4,1.4h-0.1l-1.8-1.1
				l-3.4,2.1c-0.1,0.1-0.3,0.1-0.3,0C555.7,297.6,555.9,297.4,556,297.4L556,297.4z M556,301.8l2.2-1.4c0.1-0.2,0.1-0.3,0.3-0.5
				c0.2-0.1,0.3,0,0.3,0.2c0,0.3-0.1,0.5-0.3,0.6c-0.1,0.1-0.3,0.1-0.3-0.1l-2.2,1.4c-0.1,0.1-0.3,0.1-0.3,0S555.9,301.9,556,301.8
				L556,301.8z M556,299.6l3.3-2h0.1l1.8,1.1l3.3-2c0.1-0.2,0.1-0.3,0.3-0.5c0.2-0.1,0.3,0,0.3,0.2c0,0.3-0.1,0.5-0.3,0.6
				c-0.1,0.1-0.3,0.1-0.3-0.1l-3.3,2h-0.1l-1.8-1.1L556,300c-0.1,0.1-0.3,0.1-0.3,0C555.7,299.9,555.9,299.7,556,299.6L556,299.6z
				 M586.4,285.5l-1.7-1l-1.3,0.7c-0.1,0.2-0.1,0.3-0.3,0.5c-0.2,0.1-0.3,0-0.3-0.2c0-0.3,0.1-0.5,0.3-0.6c0.1-0.1,0.3-0.1,0.3,0.1
				l1.2-0.7h0.1l1.9,1.2L586.4,285.5L586.4,285.5z M600.8,255.6l-7.9,4.8h-0.1l-3.6-2.2l-9.9,6.1h-0.1l-2.7-1.6l-3.1,1.9
				c-0.1,0.2-0.1,0.3-0.3,0.5c-0.2,0.1-0.3,0-0.3-0.2c0-0.3,0.1-0.5,0.3-0.6c0.1-0.1,0.3-0.1,0.3,0.1l3.1-1.9h0.1l2.7,1.6l9.9-6.1
				h0.1l3.6,2.2l7.9-4.9c0.1-0.1,0.3-0.1,0.3,0C601.1,255.3,600.9,255.5,600.8,255.6L600.8,255.6z M600.8,253.3l-2.4,1.5h-0.1
				l-0.8-0.5l-3.3,2c-0.1,0.2-0.1,0.3-0.3,0.5c-0.2,0.1-0.3,0-0.3-0.2c0-0.3,0.1-0.5,0.3-0.6c0.1-0.1,0.3-0.1,0.3,0.1l3.3-2h0.1
				l0.8,0.5l2.5-1.5c0.1-0.1,0.3-0.1,0.3,0C601.1,253.2,600.9,253.3,600.8,253.3L600.8,253.3z M563,279.9l-7,4.3
				c-0.1,0.1-0.3,0.1-0.3,0s0.1-0.2,0.3-0.3l7-4.3h0.1l1.8,1.1l5.1-3.1c0.1-0.2,0.1-0.3,0.3-0.5s0.3,0,0.3,0.2
				c0,0.3-0.1,0.5-0.3,0.6c-0.1,0.1-0.3,0.1-0.3-0.1l-5.1,3.1h-0.1L563,279.9z M563,284.4l-7,4.3c-0.1,0.1-0.3,0.1-0.3,0
				c0-0.1,0.1-0.2,0.3-0.3l7-4.3h0.1l3.6,2.2l3.3-2c0.1-0.2,0.1-0.3,0.3-0.5c0.2-0.1,0.3,0,0.3,0.2c0,0.3-0.1,0.5-0.3,0.6
				c-0.1,0.1-0.3,0.1-0.3-0.1l-3.3,2h-0.1L563,284.4L563,284.4z"/>
			<g id="freepik--chip--inject-61">
				<path class="st14" d="M558.7,292.1c-0.1-0.1-0.2-0.3-0.2-0.4v-10c0-0.2,0.1-0.4,0.2-0.6l-1.2-0.7c-0.1,0.2-0.2,0.4-0.2,0.6v9.5
					c0,0.4,0,0.7,0.3,0.9L558.7,292.1L558.7,292.1z"/>
				<path class="st9" d="M559.1,280.5l8.1-5c0.3-0.2,0.6-0.1,0.6,0.3v10c0,0.5-0.3,0.9-0.6,1.1l-8.1,5c-0.3,0.2-0.6,0.1-0.6-0.3v-10
					C558.5,281.1,558.8,280.7,559.1,280.5z"/>
				<path class="st15" d="M567.6,275.5l-1-0.6c-0.3-0.2-0.6,0-0.9,0.2l-7.8,4.8c-0.2,0.1-0.3,0.3-0.4,0.5l1.2,0.7
					c0.1-0.2,0.3-0.3,0.4-0.5l8.1-5C567.3,275.4,567.5,275.4,567.6,275.5L567.6,275.5z"/>
				<path class="st0" d="M566.8,277.7v7.8c0,0.3-0.2,0.6-0.4,0.7l-6.3,3.9c-0.1,0.1-0.3,0.1-0.3,0c-0.1-0.1-0.2-0.2-0.1-0.3V282
					c0-0.3,0.2-0.6,0.4-0.7l6.3-3.9c0.1-0.1,0.3-0.1,0.3,0c0.1,0,0.1,0.1,0.1,0.1C566.8,277.5,566.8,277.6,566.8,277.7L566.8,277.7z
					 M559.8,290h0.2l6.3-3.9c0.2-0.1,0.3-0.3,0.3-0.6v-7.8c0-0.1,0-0.1-0.1-0.2c-0.1,0-0.1,0-0.2,0.1l-6.3,3.9
					c-0.2,0.1-0.3,0.3-0.3,0.6L559.8,290L559.8,290z"/>
				<path class="st0" d="M565.5,279.8v5.1c0,0.1-0.1,0.3-0.2,0.3l-4.2,2.6c-0.1,0.1-0.1,0.1-0.2,0c-0.1-0.1-0.1-0.1-0.1-0.2v-5.1
					c0-0.1,0.1-0.3,0.2-0.3l4.2-2.6c0.1-0.1,0.1-0.1,0.2,0l0.1,0.1C565.4,279.7,565.4,279.8,565.5,279.8z M561,287.8l4.2-2.6
					c0.1-0.1,0.1-0.1,0.1-0.2v-5.1l-4.2,2.6c-0.1,0.1-0.1,0.1-0.1,0.2V287.8L561,287.8z"/>
			</g>
			<path class="st2" d="M609.3,196.5v41.5c0,0.3-0.2,0.6-0.5,0.7l-22.5,13.8c-0.8,0.4-1.7,0.4-2.4,0l-1-0.6
				c-0.3-0.1-0.4-0.4-0.5-0.7v-41.7c0-0.3,0.2-0.6,0.5-0.7l22.5-13.8c0.8-0.4,1.7-0.4,2.4,0l1,0.6
				C609.3,195.9,609.4,196.2,609.3,196.5z"/>
			<path class="st2" d="M609.3,196.5v41.5c0,0.3-0.2,0.6-0.5,0.7l-22.5,13.8c-0.8,0.4-1.7,0.4-2.4,0l-1-0.6
				c-0.3-0.1-0.4-0.4-0.5-0.7v-41.7c0-0.3,0.2-0.6,0.5-0.7l22.5-13.8c0.8-0.4,1.7-0.4,2.4,0l1,0.6
				C609.3,195.9,609.4,196.2,609.3,196.5z"/>
			<path class="st3" d="M582.5,209.6v41.7c0,0.3,0.2,0.6,0.5,0.7l1,0.6c0.3,0.2,0.7,0.3,1.1,0.3v-41.7c-0.4,0-0.8-0.1-1.2-0.3
				l-1-0.6C582.7,210.2,582.5,209.8,582.5,209.6z"/>
			<path class="st8" d="M583,210.3l1,0.6c0.8,0.4,1.7,0.4,2.4,0l22.5-13.8c0.4-0.1,0.6-0.5,0.4-1c-0.1-0.2-0.3-0.4-0.4-0.5l-1-0.6
				c-0.8-0.4-1.7-0.4-2.4,0L583,208.9c-0.4,0.1-0.6,0.6-0.4,1C582.6,210,582.8,210.2,583,210.3z"/>
			<path class="st2" d="M587.4,209.1l-1.5-1c-0.3-0.1-0.5-0.1-0.7,0l-0.3,0.1c-0.1,0.1-0.2,0.2-0.1,0.3c0,0.1,0.1,0.1,0.1,0.1l1.5,1
				c0.3,0.1,0.5,0.1,0.7,0l0.3-0.1c0.1,0,0.1-0.1,0.1-0.1C587.6,209.3,587.6,209.2,587.4,209.1L587.4,209.1z"/>
			<path class="st5" d="M587.4,209.1l-1.5-1c-0.3-0.1-0.5-0.1-0.7,0l-0.3,0.1c-0.1,0.1-0.2,0.2-0.1,0.3c0,0.1,0.1,0.1,0.1,0.1l1.5,1
				c0.3,0.1,0.5,0.1,0.7,0l0.3-0.1c0.1,0,0.1-0.1,0.1-0.1C587.6,209.3,587.6,209.2,587.4,209.1L587.4,209.1z"/>
			<path class="st2" d="M589.1,208.1l-1.5-1c-0.3-0.1-0.5-0.1-0.7,0l-0.3,0.1c-0.1,0.1-0.2,0.2-0.1,0.3c0,0.1,0.1,0.1,0.1,0.1l1.5,1
				c0.3,0.1,0.5,0.1,0.7,0l0.3-0.1c0.1,0,0.1-0.1,0.1-0.1C589.2,208.3,589.2,208.1,589.1,208.1L589.1,208.1z"/>
			<path class="st5" d="M589.1,208.1l-1.5-1c-0.3-0.1-0.5-0.1-0.7,0l-0.3,0.1c-0.1,0.1-0.2,0.2-0.1,0.3c0,0.1,0.1,0.1,0.1,0.1l1.5,1
				c0.3,0.1,0.5,0.1,0.7,0l0.3-0.1c0.1,0,0.1-0.1,0.1-0.1C589.2,208.3,589.2,208.1,589.1,208.1L589.1,208.1z"/>
			<path class="st2" d="M590.7,207.1l-1.5-1c-0.3-0.1-0.5-0.1-0.7,0l-0.3,0.1c-0.1,0.1-0.2,0.2-0.1,0.3c0,0.1,0.1,0.1,0.1,0.1l1.5,1
				c0.3,0.1,0.5,0.1,0.7,0l0.3-0.1c0.1,0,0.1-0.1,0.1-0.1C590.9,207.3,590.8,207.2,590.7,207.1L590.7,207.1z"/>
			<path class="st5" d="M590.7,207.1l-1.5-1c-0.3-0.1-0.5-0.1-0.7,0l-0.3,0.1c-0.1,0.1-0.2,0.2-0.1,0.3c0,0.1,0.1,0.1,0.1,0.1l1.5,1
				c0.3,0.1,0.5,0.1,0.7,0l0.3-0.1c0.1,0,0.1-0.1,0.1-0.1C590.9,207.3,590.8,207.2,590.7,207.1L590.7,207.1z"/>
			<path class="st2" d="M592.3,206.1l-1.5-1c-0.3-0.1-0.5-0.1-0.7,0l-0.3,0.1c-0.1,0.1-0.2,0.2-0.1,0.3c0,0.1,0.1,0.1,0.1,0.1l1.5,1
				c0.3,0.1,0.5,0.1,0.7,0l0.3-0.1c0.1,0,0.1-0.1,0.1-0.1C592.5,206.4,592.4,206.2,592.3,206.1L592.3,206.1z"/>
			<path class="st5" d="M592.3,206.1l-1.5-1c-0.3-0.1-0.5-0.1-0.7,0l-0.3,0.1c-0.1,0.1-0.2,0.2-0.1,0.3c0,0.1,0.1,0.1,0.1,0.1l1.5,1
				c0.3,0.1,0.5,0.1,0.7,0l0.3-0.1c0.1,0,0.1-0.1,0.1-0.1C592.5,206.4,592.4,206.2,592.3,206.1L592.3,206.1z"/>
			<path class="st2" d="M587.4,209.3l-1.5-1c-0.3-0.1-0.5-0.1-0.7,0l-0.3,0.1c-0.1,0-0.1,0.1-0.1,0.1c0,0.1,0.1,0.1,0.1,0.1l1.5,1
				c0.3,0.1,0.5,0.1,0.7,0l0.3-0.1c0.1,0,0.1-0.1,0.1-0.1C587.5,209.4,587.5,209.4,587.4,209.3z M589,208.3l-1.5-1
				c-0.3-0.1-0.5-0.1-0.7,0l-0.3,0.1l-0.1,0.1c0,0.1,0.1,0.1,0.1,0.1l1.5,1c0.3,0.1,0.5,0.1,0.7,0l0.3-0.1c0.1,0,0.1-0.1,0.1-0.1
				C589.2,208.4,589.1,208.3,589,208.3z M590.6,207.3l-1.5-1c-0.3-0.1-0.5-0.1-0.7,0l-0.3,0.1c-0.1,0-0.1,0.1-0.1,0.1
				c0,0.1,0.1,0.1,0.1,0.1l1.5,1c0.3,0.1,0.5,0.1,0.7,0l0.3-0.1c0.1,0,0.1-0.1,0.1-0.1C590.8,207.4,590.7,207.4,590.6,207.3z
				 M592.3,206.4l-1.5-1c-0.3-0.1-0.5-0.1-0.7,0l-0.3,0.1l-0.1,0.1c0,0.1,0.1,0.1,0.1,0.1l1.5,1c0.3,0.1,0.5,0.1,0.7,0l0.3-0.1
				c0.1,0,0.1-0.1,0.1-0.1L592.3,206.4z M570.9,252.9c0,0.9,0.4,1.6,1.2,2.1l0.1,0.1c0.7,0.4,1.2,1.2,1.2,2.1l-0.1,17.9l-0.6-0.3
				l0.1-17.6c0-0.7-0.3-1.2-0.8-1.6l-0.1-0.1c-0.9-0.5-1.4-1.5-1.4-2.6v-24l0.6,0.3L570.9,252.9z"/>
			<path class="st5" d="M570.9,252.9c0,0.9,0.4,1.6,1.2,2.1l0.1,0.1c0.7,0.4,1.2,1.2,1.2,2.1l-0.1,17.9l-0.6-0.3l0.1-17.6
				c0-0.7-0.3-1.2-0.8-1.6l-0.1-0.1c-0.9-0.5-1.4-1.5-1.4-2.6v-24l0.6,0.3L570.9,252.9z"/>
			<path class="st2" d="M570.9,229.2v23.6c0,0.9,0.4,1.6,1.2,2.1l0.1,0.1c0.7,0.4,1.2,1.2,1.2,2.1l-0.1,17.9l6.8-4.2v-18
				c0-0.9-0.4-1.6-1.2-2.1c-0.7-0.4-1.2-1.2-1.2-2.1V225L570.9,229.2L570.9,229.2z"/>
			<path class="st16" d="M576.7,249.3c0,0.9,0.4,1.6,1.2,2.1l0.1,0.1c0.7,0.4,1.2,1.2,1.2,2.1l-0.1,17.9l-0.4,0.3l0.1-17.9
				c0-0.9-0.4-1.6-1.2-2.1l-0.1-0.1c-0.7-0.4-1.2-1.2-1.2-2.1v-23.7l0.4-0.3V249.3z"/>
			<path class="st16" d="M574.6,250.6c0,0.9,0.4,1.6,1.2,2.1l0.1,0.1c0.7,0.4,1.2,1.2,1.2,2.1l-0.1,17.9l-0.4,0.3l0.1-17.9
				c0-0.9-0.4-1.6-1.2-2.1l-0.1-0.1c-0.7-0.4-1.2-1.2-1.2-2.1v-23.7l0.4-0.3V250.6z"/>
			<path class="st16" d="M572.4,252c0,0.9,0.4,1.6,1.2,2.1l0.1,0.1c0.7,0.4,1.2,1.2,1.2,2.1l-0.1,17.9l-0.4,0.3l0.1-17.9
				c0-0.9-0.4-1.6-1.2-2.1l-0.1-0.1c-0.7-0.4-1.2-1.2-1.2-2.1v-23.7l0.4-0.3V252z"/>
			<g id="freepik--chip--inject-61_00000172401059572728759860000003123574272474183868_">
				<path class="st14" d="M569.8,232.4c-0.1-0.1-0.2-0.3-0.2-0.4v-5.9c0-0.2,0.1-0.4,0.2-0.6l-1.2-0.7c-0.1,0.2-0.2,0.4-0.2,0.6v5.5
					c0,0.4-0.1,0.7,0.3,0.9L569.8,232.4z"/>
				<path class="st9" d="M570.3,225l8.1-5c0.3-0.2,0.6-0.1,0.6,0.3v5.9c0,0.5-0.3,0.9-0.6,1.1l-8.1,5c-0.3,0.2-0.6,0.1-0.6-0.3v-5.9
					C569.7,225.6,569.9,225.2,570.3,225z"/>
				<path class="st15" d="M578.8,219.9l-1-0.6c-0.3-0.2-0.6,0-0.9,0.2l-7.8,4.8c-0.2,0.1-0.3,0.3-0.4,0.5l1.2,0.7
					c0.1-0.2,0.3-0.3,0.4-0.5l8.1-5C578.5,219.9,578.7,219.9,578.8,219.9L578.8,219.9z"/>
				<path class="st0" d="M578,222.1v3.7c0,0.3-0.2,0.6-0.4,0.7l-6.3,3.9c-0.1,0.1-0.3,0.1-0.4-0.1c-0.1-0.1-0.1-0.1-0.1-0.3v-3.7
					c0-0.3,0.2-0.6,0.4-0.7l6.3-3.9c0.1-0.1,0.3-0.1,0.3,0c0.1,0,0.1,0.1,0.1,0.1C577.9,222,578,222,578,222.1L578,222.1z
					 M570.9,230.4h0.2l6.3-3.9c0.2-0.1,0.3-0.3,0.3-0.6v-3.7c0-0.1,0-0.1-0.1-0.2c-0.1,0-0.1,0-0.2,0.1l-6.3,3.9
					c-0.2,0.1-0.3,0.3-0.3,0.6L570.9,230.4L570.9,230.4L570.9,230.4z"/>
				<path class="st0" d="M576.6,224.2v1.1c0,0.1-0.1,0.3-0.2,0.3l-4.2,2.6c-0.1,0.1-0.1,0.1-0.2,0c-0.1-0.1-0.1-0.1-0.1-0.2v-1.1
					c0-0.1,0.1-0.3,0.2-0.3l4.2-2.6c0.1-0.1,0.1-0.1,0.2,0l0.1,0.1V224.2z M572.1,228.1l4.2-2.6c0.1-0.1,0.1-0.1,0.1-0.2v-1.1v-0.1
					l-4.2,2.6c-0.1,0.1-0.1,0.1-0.1,0.2V228.1L572.1,228.1z"/>
			</g>
		</g>
	</g>
</g>
<g id="freepik--Screen--inject-61">
	<g id="freepik--screen--inject-61">
		<g id="freepik--Window--inject-61">
			<path class="st9" d="M568,199.9c-2.2,1.5-3.5,4-3.7,6.8v142.2c0,2.5,1.7,3.5,3.7,2.2l63.3-38.9c2.2-1.5,3.5-4,3.7-6.8V163.3
				c0-2.5-1.7-3.5-3.7-2.2L568,199.9z"/>
			<path class="st2" d="M633,161c1,0,1.5,0.8,1.5,2.2v142.3c-0.1,2.5-1.4,4.9-3.4,6.3l-63.3,38.9c-0.4,0.3-0.9,0.4-1.3,0.5
				c-1,0-1.5-0.8-1.5-2.2V206.7c0.1-2.6,1.4-4.9,3.4-6.3l63.3-38.9C632,161.2,632.4,161.1,633,161 M633,160.5
				c-0.6,0-1.2,0.2-1.7,0.5L568,199.9c-2.2,1.5-3.5,4-3.7,6.8v142.2c0,1.8,0.8,2.8,2,2.8c0.6,0,1.2-0.2,1.7-0.5l63.3-38.9
				c2.2-1.5,3.5-4,3.7-6.8V163.3C635,161.5,634.2,160.5,633,160.5z"/>
		</g>
		<path class="st16" d="M576.9,205.9v-0.7l-0.8,0.5c-0.1,0-0.1,0-0.1-0.1v-0.2v-0.1v-0.1l0.8-2.4c0,0,0-0.1,0.1-0.1
			c0,0,0-0.1,0.1-0.1l0.1-0.1h0.1v2l0.2-0.1h0.1v0.4c0,0.1-0.1,0.1-0.1,0.1l-0.3,0.1v0.7c0,0.1-0.1,0.1-0.1,0.1L576.9,205.9
			C577,205.9,576.9,205.9,576.9,205.9L576.9,205.9z M576.9,204.7v-1.3l-0.6,1.6L576.9,204.7z M577.9,205c-0.2-0.3-0.3-0.7-0.3-1.1
			c0-0.5,0.1-1,0.3-1.4c0.1-0.3,0.3-0.6,0.6-0.8c0.1-0.1,0.2-0.1,0.3-0.1c0.1,0,0.2,0,0.3,0.1v0.1l-0.1,0.3v0.1
			c-0.1-0.1-0.3,0-0.4,0.1c-0.2,0.1-0.4,0.3-0.4,0.5c-0.1,0.3-0.2,0.7-0.1,1c0,0.3,0,0.5,0.1,0.8c0.1,0.1,0.3,0.1,0.4,0.1
			c0.1-0.1,0.1-0.1,0.2-0.1c0.1-0.1,0.1-0.1,0.1-0.2v-0.9l-0.3,0.2h-0.1v-0.3v-0.1l0.1-0.1l0.5-0.3h0.1v1.6
			c-0.1,0.3-0.4,0.5-0.6,0.6C578.2,205.2,578,205.2,577.9,205L577.9,205z M584.4,200.8c0,0.4-0.1,0.7-0.4,1
			c-0.3,0.1-0.4-0.1-0.4-0.5c0-0.4,0.1-0.7,0.4-1C584.2,200.2,584.4,200.4,584.4,200.8z"/>
		<path class="st16" d="M584,199.1c-0.5,0.4-0.9,1-1,1.6c-0.1,0.1,0,0.3,0.1,0.3c0.1,0.1,0.2-0.1,0.3-0.3c0.1-0.5,0.4-0.9,0.7-1.2
			c0.2-0.1,0.5-0.1,0.6,0.1c0.1,0.1,0.1,0.1,0.1,0.1c0.1,0.1,0.2,0.1,0.3-0.1s0.1-0.3,0.1-0.4c-0.1-0.4-0.4-0.6-0.8-0.5
			C584.1,199,584,199.1,584,199.1L584,199.1z"/>
		<path class="st16" d="M584,197.9c-0.8,0.6-1.3,1.4-1.6,2.5c-0.1,0.1-0.1,0.3,0.1,0.3c0.1,0.1,0.2-0.1,0.3-0.2
			c0.2-0.8,0.6-1.5,1.3-2c0.4-0.3,1-0.2,1.2,0.2c0.1,0.1,0.1,0.1,0.1,0.2c0.1,0.1,0.2,0.1,0.3-0.1c0.1-0.1,0.1-0.3,0.1-0.4
			c-0.3-0.5-0.9-0.8-1.4-0.5C584,197.8,584,197.9,584,197.9z M595.7,192.4L595.7,192.4v-0.2l0.6-1.2l0.1-0.1l0.1-0.1l0.3-0.1h0.1
			v3.3l-0.1,0.1l-0.3,0.1h-0.1v-2.5l-0.4,0.8l-0.1,0.1h-0.1C595.8,192.7,595.7,192.4,595.7,192.4z M597.2,191.5L597.2,191.5v-0.2
			l0.6-1.2c0,0,0-0.1,0.1-0.1c0,0,0-0.1,0.1-0.1l0.3-0.1h0.1v3.3c0,0,0,0.1-0.1,0.1l-0.3,0.1h-0.1v-2.5l-0.4,0.8l-0.1,0.1h-0.1
			C597.4,191.8,597.2,191.5,597.2,191.5z M599.2,190.1C599.3,190.1,599.3,190.1,599.2,190.1C599.3,190.1,599.3,190.2,599.2,190.1
			l0.1,0.7c0,0,0,0.1-0.1,0.1L599,191h-0.1v-0.5v-0.1l0.1-0.1C599,190.3,599.2,190.1,599.2,190.1z M599.2,191.8
			C599.2,191.8,599.3,191.8,599.2,191.8C599.3,191.8,599.3,191.9,599.2,191.8l0.1,0.7c0,0,0,0.1-0.1,0.1l-0.3,0.2h-0.1v-0.5v-0.1
			l0.1-0.1L599.2,191.8z M600.8,191.6C600.7,191.6,600.7,191.6,600.8,191.6C600.7,191.6,600.7,191.6,600.8,191.6l-0.1-0.7l-0.9,0.5
			h-0.1v-0.4v-0.1c0-0.1,0-0.1,0.1-0.1l0.9-2.5c0-0.1,0.1-0.1,0.1-0.2l0.3-0.1h0.1v2l0.3-0.1h0.1v0.5c0,0,0,0.1-0.1,0.1l-0.3,0.1
			v0.7c0,0,0,0.1-0.1,0.1L600.8,191.6L600.8,191.6z M600.7,190.3v-1l-0.5,1.4L600.7,190.3z M602,187.6v-0.1c0,0,0-0.1,0.1-0.1
			l1.2-0.7h0.1v0.5c0,0,0,0.1-0.1,0.1l-0.8,0.5l-0.1,0.7l0.1-0.1l0.1-0.1c0.1-0.1,0.2-0.1,0.3-0.1c0.1,0,0.2,0,0.3,0.1
			s0.1,0.1,0.1,0.3c0.1,0.1,0.1,0.3,0.1,0.5s0,0.4-0.1,0.5c-0.1,0.1-0.1,0.3-0.2,0.5c-0.1,0.1-0.1,0.3-0.3,0.3
			c-0.1,0.1-0.2,0.2-0.3,0.3c-0.1,0.1-0.3,0.1-0.4,0.1c-0.1,0-0.2,0-0.3-0.1c-0.1-0.1-0.1-0.1-0.1-0.2c-0.1-0.1-0.1-0.2-0.1-0.3
			v-0.1l0.1-0.1l0.3-0.1h0.1v0.1c0,0.1,0,0.1,0.1,0.1l0.1,0.1h0.1c0.1,0,0.1-0.1,0.1-0.1c0.1-0.1,0.2-0.2,0.3-0.3
			c0.1-0.1,0.1-0.3,0.1-0.5c0-0.1,0-0.2-0.1-0.3c-0.1-0.1-0.2-0.1-0.3,0c-0.1,0-0.1,0.1-0.1,0.1l-0.1,0.1l-0.1,0.1l-0.1,0.1
			l-0.3,0.1h-0.1v-0.1L602,187.6L602,187.6z M568.4,211.5v-1l0.8-0.5v1L568.4,211.5z M569.6,210.8v-2l0.8-0.5v2L569.6,210.8z
			 M570.9,210v-3l0.8-0.5v3.1L570.9,210z M572.1,209.2v-4.1l0.8-0.5v4.1L572.1,209.2z M630.3,170.2c-0.1-0.1-0.2-0.2-0.3-0.1
			l-3.1,1.9c-0.3,0.3-0.4,0.6-0.4,1v1.8c0,0.2,0.1,0.4,0.1,0.6c0,0.1,0.1,0.1,0.1,0.1c0.1,0.1,0.1,0.1,0.2,0l3.1-1.9
			c0.3-0.3,0.4-0.6,0.4-1v-1.8C630.4,170.6,630.3,170.4,630.3,170.2z M626.7,175.2c-0.1-0.1-0.1-0.2-0.1-0.3v-1.8
			c0-0.3,0.1-0.5,0.3-0.7l3.1-1.9h0.1l0.1,0.1c0.1,0.1,0.1,0.2,0.1,0.3v1.8c0,0.3-0.1,0.5-0.3,0.7l-3.1,1.9
			C626.8,175.3,626.7,175.3,626.7,175.2L626.7,175.2z"/>
		<path class="st16" d="M627.5,172.3v2.2l-0.5,0.3h-0.1V173c0-0.2,0.1-0.4,0.2-0.5C627.1,172.5,627.5,172.3,627.5,172.3z
			 M627.8,172.1l0.6-0.3v2.2l-0.6,0.3V172.1z M628.5,171.7l0.6-0.4v2.2l-0.6,0.3V171.7z M629.9,170.9v1.6c0,0.3-0.1,0.5-0.4,0.7
			l-0.2,0.1v-2.2l0.4-0.3C629.9,170.8,629.9,170.8,629.9,170.9L629.9,170.9z M630.5,170.7c0.1-0.1,0.1,0.2,0.1,0.6v0.3
			c0,0.3,0,0.5-0.1,0.8l-0.1,0.1v-1.8L630.5,170.7z M621.8,176.3l3-2.8l-1,4.2l-0.4-1.8L621.8,176.3z"/>
		<path class="st1" d="M573.9,338.2c-0.1,0-0.3-0.1-0.4-0.1c-0.3-0.2-0.5-0.6-0.4-1v-5.2c0.1-1,0.5-1.8,1.3-2.4l15-9.2
			c0.4-0.3,1-0.3,1.3,0.1c0.2,0.2,0.3,0.5,0.2,0.8v5.2c-0.1,1-0.5,1.8-1.3,2.4l-15,9.2C574.4,338.1,574.2,338.2,573.9,338.2z
			 M590,320.6c-0.1,0-0.3,0.1-0.4,0.1l-15,9.2c-0.6,0.4-1,1.1-1,1.9v5.2c-0.1,0.3,0.1,0.5,0.3,0.6c0.2,0.1,0.3,0,0.4-0.1l15-9.2
			c0.6-0.4,1-1.1,1-1.9v-5.2c0-0.2-0.1-0.4-0.2-0.5C590.1,320.6,590.1,320.6,590,320.6L590,320.6z"/>
		<path class="st1" d="M577.8,331.2v0.8c0,0.1,0,0.1,0.1,0.1c0,0,0.1,0.1,0.1,0.1s0.1,0,0.1-0.1c0.1,0,0.1-0.1,0.1-0.1
			c0.1-0.1,0.1-0.1,0.1-0.1c0-0.1,0.1-0.1,0.1-0.1v-0.1v-0.1c0,0,0-0.1,0.1-0.1l0.3-0.2h0.1v0.1c0,0.1,0,0.3-0.1,0.4
			c-0.1,0.1-0.1,0.3-0.2,0.4c-0.1,0.1-0.1,0.3-0.3,0.3c-0.1,0.1-0.2,0.2-0.3,0.3s-0.2,0.1-0.3,0.1c-0.1,0-0.2-0.1-0.3-0.1
			c-0.1-0.1-0.1-0.1-0.1-0.3c-0.1-0.1-0.1-0.3-0.1-0.4v-0.3v-0.3c0-0.1,0-0.3,0.1-0.5c0.1-0.1,0.1-0.3,0.1-0.5
			c0.1-0.1,0.1-0.3,0.3-0.4c0.1-0.1,0.2-0.2,0.3-0.3c0.1-0.1,0.2-0.1,0.3-0.1c0.2,0,0.4,0.1,0.4,0.3c0.1,0.1,0.1,0.2,0.1,0.3v0.1
			c0,0,0,0.1-0.1,0.1l-0.3,0.2h-0.1v-0.1v-0.1l-0.1-0.1h-0.1c-0.1,0-0.1,0-0.1,0.1c-0.1,0-0.1,0.1-0.1,0.1c-0.1,0.1-0.1,0.1-0.1,0.1
			c0,0.1-0.1,0.1-0.1,0.2V331.2L577.8,331.2z M579.2,331.5c0-0.2,0.1-0.3,0.1-0.5c0.1-0.2,0.3-0.4,0.4-0.5l0.3-0.3
			c0-0.1,0-0.1-0.1-0.1h-0.1c-0.1,0-0.1,0.1-0.1,0.1l-0.1,0.1c0,0,0,0.1-0.1,0.1l-0.1,0.1l-0.3,0.2h-0.1c-0.1,0,0,0,0-0.1
			s0-0.1,0.1-0.2c0.1-0.1,0.1-0.2,0.1-0.3c0.1-0.1,0.1-0.2,0.2-0.3c0.1-0.1,0.1-0.1,0.3-0.2c0.1-0.1,0.2-0.1,0.3-0.1
			c0.1,0,0.1,0,0.2,0.1c0.1,0.1,0.1,0.1,0.1,0.2c0,0.1,0.1,0.2,0.1,0.3v1.3c0,0,0,0.1-0.1,0.1l-0.3,0.2H580v-0.2
			c-0.1,0.1-0.1,0.2-0.1,0.3c-0.1,0.1-0.1,0.1-0.3,0.2c-0.1,0.1-0.1,0.1-0.2,0.1s-0.1,0-0.1-0.1c-0.1-0.1-0.1-0.1-0.1-0.1
			C579.3,331.7,579.2,331.6,579.2,331.5L579.2,331.5z M579.8,331.3c0.1,0,0.1-0.1,0.1-0.1c0-0.1,0.1-0.1,0.1-0.1s0.1-0.1,0.1-0.1
			v-0.1l-0.3,0.2l-0.1,0.1c0,0.1-0.1,0.1-0.1,0.1v0.1C579.7,331.3,579.7,331.3,579.8,331.3L579.8,331.3z M582.3,330.1L582.3,330.1
			c0,0.1,0,0.1-0.1,0.1l-0.3,0.2h-0.1v-1.1c0-0.1,0-0.2-0.1-0.3c-0.1-0.1-0.1-0.1-0.2,0l-0.2,0.2c-0.1,0.1-0.1,0.2-0.1,0.3v1.1
			c0,0,0,0.1-0.1,0.1L581,331 M581,331.1C581,331.1,581,331,581,331.1v-2v-0.1c0,0,0-0.1,0.1-0.1l0.3-0.2h0.1v0.1
			c0-0.1,0-0.1,0.1-0.1c0-0.1,0.1-0.1,0.1-0.1s0.1-0.1,0.1-0.1c0.1-0.1,0.1-0.1,0.1-0.1c0.1-0.1,0.1-0.1,0.3-0.1
			c0.1,0,0.1,0,0.2,0.1c0.1,0.1,0.1,0.1,0.1,0.2c0,0.1,0.1,0.3,0.1,0.4L581,331.1L581,331.1z M583.1,328.5v0.3c0,0.1,0,0.1,0.1,0.2
			c0.1,0.1,0.1,0,0.1,0c0.1,0,0.1-0.1,0.1-0.1c0.1-0.1,0.1-0.1,0.1-0.1v-0.1c0,0,0-0.1,0.1-0.1l0.3-0.2h0.1v0.3
			c0,0.1-0.1,0.2-0.1,0.3c-0.1,0.1-0.1,0.3-0.2,0.3c-0.1,0.1-0.2,0.2-0.3,0.3c-0.1,0.1-0.2,0.1-0.3,0.1s-0.1,0-0.2-0.1
			s-0.1-0.1-0.1-0.2c-0.1-0.1-0.1-0.2-0.1-0.3v-0.3c0-0.1,0-0.3,0.1-0.4c0-0.1,0.1-0.3,0.1-0.4c0.1-0.1,0.1-0.2,0.2-0.3
			c0.1-0.1,0.2-0.1,0.3-0.2c0.1-0.1,0.2-0.1,0.3-0.1c0.1,0,0.1,0.1,0.2,0.1c0.1,0.1,0.1,0.1,0.1,0.2v0.3c0,0,0,0.1-0.1,0.1l-0.3,0.2
			h-0.1v-0.1l-0.1-0.1c-0.1,0-0.1,0-0.1,0.1c-0.1,0.1-0.1,0.1-0.1,0.2C583.1,328.3,583.1,328.4,583.1,328.5L583.1,328.5z
			 M584.7,327.9v0.1c0,0,0,0.1,0.1,0.1h0.1c0.1,0,0.1-0.1,0.1-0.1c0,0,0.1-0.1,0.1-0.1l0.1-0.1h0.1l0.3-0.2c0.1,0,0.1,0,0.1,0.1
			s0,0.1-0.1,0.2c0,0.1-0.1,0.2-0.1,0.3c-0.1,0.1-0.1,0.2-0.2,0.3c-0.1,0.1-0.2,0.2-0.3,0.3c-0.1,0.1-0.2,0.1-0.3,0.1
			c-0.1,0-0.1-0.1-0.2-0.1c-0.1-0.1-0.1-0.2-0.1-0.3c-0.1-0.1-0.1-0.3-0.1-0.4c0-0.1,0-0.3,0.1-0.5c0-0.1,0.1-0.3,0.1-0.4
			c0.1-0.1,0.1-0.3,0.2-0.3c0.1-0.1,0.2-0.2,0.3-0.3c0.1-0.1,0.2-0.1,0.3-0.1c0.1,0,0.1,0.1,0.2,0.1s0.1,0.2,0.1,0.3
			c0,0.1,0.1,0.3,0.1,0.4v0.2c0,0,0,0.1-0.1,0.1L584.7,327.9L584.7,327.9z M585,326.9c-0.1,0.1-0.1,0.1-0.1,0.2
			c-0.1,0.1-0.1,0.2-0.1,0.3l0.4-0.3c0-0.1,0-0.1-0.1-0.2H585L585,326.9z M586.5,327.5L586.5,327.5c0,0.1,0,0.1-0.1,0.1l-0.3,0.2
			H586v-2.8V325c0,0,0-0.1,0.1-0.1l0.3-0.2h0.1V327.5z"/>
		<path class="st2" d="M609,315.1v-5.2c0.1-0.9,0.4-1.6,1.2-2.1l15-9.2c0.6-0.4,1.2-0.1,1.2,0.7v5.1c-0.1,0.9-0.4,1.6-1.2,2.1
			l-15,9.3C609.5,316.2,609,315.9,609,315.1z"/>
		<path class="st16" d="M614.8,307.3L614.8,307.3c0.1,0,0.1,0.1,0.1,0.1l0.6,2.3v0.1c0,0,0,0.1-0.1,0.1l-0.3,0.2h-0.1v-0.1l-0.1-0.3
			l-0.7,0.4l-0.1,0.4v0.1c0,0.1-0.1,0.1-0.1,0.1l-0.3,0.2h-0.1v-0.1v-0.1l0.6-3c0-0.1,0-0.1,0.1-0.1c0-0.1,0.1-0.1,0.1-0.1
			L614.8,307.3L614.8,307.3z M614.4,309.4l0.4-0.3l-0.2-0.9L614.4,309.4L614.4,309.4z M616.6,309.2l-0.1,0.1h-0.2l-0.1-0.1v1
			c0,0,0,0.1-0.1,0.1l-0.3,0.2h-0.1v-2.8v-0.1c0,0,0-0.1,0.1-0.1l0.3-0.2 M616.3,307.3C616.3,307.3,616.3,307.3,616.3,307.3
			L616.3,307.3c0.1,0,0.1-0.1,0.1-0.1c0-0.1,0.1-0.1,0.1-0.1l0.1-0.1c0.1-0.1,0.1-0.1,0.2-0.1c0.1,0,0.1,0,0.2,0.1
			c0.1,0.1,0.1,0.1,0.1,0.2c0.1,0.1,0.1,0.3,0.1,0.4v0.3c0,0.1,0,0.3-0.1,0.5c0,0.1-0.1,0.3-0.1,0.3c-0.1,0.1-0.1,0.2-0.2,0.3
			c-0.1,0.1-0.1,0.1-0.2,0.1L616.3,307.3L616.3,307.3z M616.8,308.1v-0.2c0-0.1,0-0.1-0.1-0.2s-0.1-0.1-0.2,0
			c-0.1,0-0.1,0.1-0.1,0.1c0,0.1-0.1,0.1-0.1,0.1s0,0.1-0.1,0.1v0.5c0,0,0,0.1,0.1,0.1l0.1,0.1h0.1l0.2-0.2
			C616.8,308.3,616.8,308.2,616.8,308.1L616.8,308.1z M618.4,308.1c-0.1,0-0.1,0.1-0.1,0.1h-0.1c0,0-0.1,0-0.1-0.1L618,308v1
			c0,0,0,0.1-0.1,0.1l-0.3,0.2h-0.1v-2.8v-0.1c0,0,0-0.1,0.1-0.1l0.3-0.2h0.1v0.1l0.1-0.1c0-0.1,0.1-0.1,0.1-0.1
			c0-0.1,0.1-0.1,0.1-0.1l0.1-0.1c0.1-0.1,0.1-0.1,0.2-0.1c0.1,0,0.1,0,0.2,0.1c0.1,0.1,0.1,0.1,0.1,0.2c0.1,0.3,0.1,0.5,0.1,0.7
			c0,0.1,0,0.3-0.1,0.5c0,0.1-0.1,0.3-0.1,0.3c-0.1,0.1-0.1,0.2-0.2,0.3C618.5,308,618.5,308.1,618.4,308.1L618.4,308.1z M618.5,307
			v-0.2c0-0.1,0-0.1-0.1-0.2c0-0.1-0.1-0.1-0.2,0c-0.1,0-0.1,0.1-0.1,0.1c0,0.1-0.1,0.1-0.1,0.1s-0.1,0.1-0.1,0.1v0.5
			c0,0,0,0.1,0.1,0.1c0,0,0.1,0.1,0.1,0h0.1l0.2-0.2C618.5,307.3,618.5,307.1,618.5,307L618.5,307z M619.8,307.1L619.8,307.1
			c0,0.1,0,0.1-0.1,0.1l-0.3,0.2h-0.1v-2.8v-0.1c0,0,0-0.1,0.1-0.1l0.3-0.2h0.1V307.1z M620.9,307.2L620.9,307.2
			c0,0.1,0,0.1-0.1,0.1l-0.3,0.2h-0.1c-0.1,0,0,0,0-0.1l0.2-0.9l-0.5-1.6v-0.1c0,0,0-0.1,0.1-0.1l0.3-0.2h0.1v0.1l0.3,0.9l0.3-1.2
			v-0.1c0,0,0-0.1,0.1-0.1l0.3-0.2h0.1v0.1L620.9,307.2L620.9,307.2z"/>
		<path class="st2" d="M583.1,213.7c3.4-2,6.1-0.4,6.1,3.7c0,4.2-2.8,9.1-6.1,11.2c-3.4,2-6.1,0.4-6.1-3.7
			C577,220.8,579.7,215.8,583.1,213.7z"/>
		<path class="st1" d="M595.3,215.2l26.5-16.3c0.7-0.4,1.3-0.1,1.3,0.7c-0.1,1-0.5,1.8-1.3,2.3l-26.6,16.4c-0.7,0.4-1.3,0.1-1.2-0.7
			C594,216.5,594.5,215.7,595.3,215.2z"/>
		<path class="st2" d="M595.3,209.2l30.6-18.8c0.7-0.5,1.3-0.1,1.3,0.7c-0.1,1-0.5,1.8-1.3,2.2l-30.7,18.9c-0.7,0.4-1.3,0.1-1.2-0.7
			C594,210.6,594.5,209.7,595.3,209.2L595.3,209.2z"/>
		<path class="st2" d="M595.3,209.2l30.6-18.8c0.7-0.5,1.3-0.1,1.3,0.7c-0.1,1-0.5,1.8-1.3,2.2l-30.7,18.9c-0.7,0.4-1.3,0.1-1.2-0.7
			C594,210.6,594.5,209.7,595.3,209.2L595.3,209.2z"/>
		<path class="st8" d="M595.3,209.2l30.6-18.8c0.7-0.5,1.3-0.1,1.3,0.7c-0.1,1-0.5,1.8-1.3,2.2l-30.7,18.9c-0.7,0.4-1.3,0.1-1.2-0.7
			C594,210.6,594.5,209.7,595.3,209.2L595.3,209.2z"/>
		<path class="st2" d="M579.2,278.7l7-4.4c0.7-0.4,1.3-0.1,1.3,0.8l0.1,11.7c-0.1,1-0.5,1.8-1.3,2.4l-7.1,4.4
			c-0.7,0.4-1.3,0.1-1.3-0.8v-11.7C578,280.1,578.5,279.2,579.2,278.7L579.2,278.7z"/>
		<path class="st1" d="M593.9,278.6l20.7-12.7c0.7-0.4,1.3-0.1,1.3,0.7c-0.1,1-0.5,1.8-1.3,2.3l-20.8,12.7c-0.7,0.4-1.3,0.1-1.3-0.7
			C592.6,280,593.1,279.2,593.9,278.6L593.9,278.6z"/>
		<path class="st2" d="M593.9,272.7l26.5-16.3c0.7-0.4,1.3-0.1,1.3,0.7c-0.1,1-0.5,1.8-1.3,2.3l-26.6,16.4c-0.7,0.4-1.3,0.1-1.3-0.7
			C592.6,274,593.1,273.2,593.9,272.7L593.9,272.7z"/>
		<path class="st2" d="M593.9,272.7l26.5-16.3c0.7-0.4,1.3-0.1,1.3,0.7c-0.1,1-0.5,1.8-1.3,2.3l-26.6,16.4c-0.7,0.4-1.3,0.1-1.3-0.7
			C592.6,274,593.1,273.2,593.9,272.7L593.9,272.7z"/>
		<path class="st8" d="M593.9,272.7l26.5-16.3c0.7-0.4,1.3-0.1,1.3,0.7c-0.1,1-0.5,1.8-1.3,2.3l-26.6,16.4c-0.7,0.4-1.3,0.1-1.3-0.7
			C592.6,274,593.1,273.2,593.9,272.7L593.9,272.7z"/>
		<path class="st2" d="M579.2,299.6l7-4.4c0.7-0.4,1.3-0.1,1.3,0.8l0.1,11.8c-0.1,1-0.5,1.8-1.3,2.4l-7.1,4.4
			c-0.7,0.4-1.3,0.1-1.3-0.8v-11.8C578,301,578.5,300.1,579.2,299.6z"/>
		<path class="st1" d="M593.9,299.6l20.7-12.7c0.7-0.4,1.3-0.1,1.3,0.7c-0.1,1-0.5,1.8-1.3,2.3l-20.8,12.7c-0.7,0.4-1.3,0.1-1.3-0.7
			C592.6,301,593.1,300.1,593.9,299.6z"/>
		<path class="st2" d="M593.9,293.6l26.5-16.3c0.7-0.4,1.3-0.1,1.3,0.7c-0.1,1-0.5,1.8-1.3,2.3l-26.6,16.4c-0.7,0.4-1.3,0.1-1.3-0.7
			C592.6,295,593.1,294.2,593.9,293.6L593.9,293.6z"/>
		<path class="st2" d="M593.9,293.6l26.5-16.3c0.7-0.4,1.3-0.1,1.3,0.7c-0.1,1-0.5,1.8-1.3,2.3l-26.6,16.4c-0.7,0.4-1.3,0.1-1.3-0.7
			C592.6,295,593.1,294.2,593.9,293.6L593.9,293.6z"/>
		<path class="st8" d="M593.9,293.6l26.5-16.3c0.7-0.4,1.3-0.1,1.3,0.7c-0.1,1-0.5,1.8-1.3,2.3l-26.6,16.4c-0.7,0.4-1.3,0.1-1.3-0.7
			C592.6,295,593.1,294.2,593.9,293.6L593.9,293.6z"/>
		<path class="st2" d="M574.8,240.1l20.6-12.7c0.6-0.4,1.1-0.1,1.1,0.6c-0.1,0.8-0.4,1.5-1.1,2l-20.6,12.7c-0.6,0.4-1.1,0.1-1.1-0.6
			C573.8,241.3,574.2,240.5,574.8,240.1z"/>
		<path class="st2" d="M574.8,240.1l20.6-12.7c0.6-0.4,1.1-0.1,1.1,0.6c-0.1,0.8-0.4,1.5-1.1,2l-20.6,12.7c-0.6,0.4-1.1,0.1-1.1-0.6
			C573.8,241.3,574.2,240.5,574.8,240.1z"/>
		<path class="st8" d="M574.8,240.1l20.6-12.7c0.6-0.4,1.1-0.1,1.1,0.6c-0.1,0.8-0.4,1.5-1.1,2l-20.6,12.7c-0.6,0.4-1.1,0.1-1.1-0.6
			C573.8,241.3,574.2,240.5,574.8,240.1z"/>
		<path class="st1" d="M574.8,251.2l12.2-7.4c0.6-0.4,1.1-0.1,1.1,0.6c-0.1,0.8-0.4,1.5-1.1,2l-12.2,7.4c-0.6,0.4-1.1,0.1-1.1-0.6
			C573.8,252.4,574.2,251.7,574.8,251.2z"/>
		<path class="st2" d="M573.7,248.4c-0.1,0-0.2-0.1-0.2-0.1c-0.1-0.1,0-0.3,0.1-0.3l54-33.2c0.1-0.1,0.3,0,0.3,0.1
			c0.1,0.1,0,0.3-0.1,0.3l-54,33.2H573.7z M573.7,258.6c-0.1,0-0.2-0.1-0.2-0.1c-0.1-0.1,0-0.3,0.1-0.3l54-33.3
			c0.1-0.1,0.3,0,0.3,0.1c0.1,0.1,0,0.3-0.1,0.3l-54,33.2C573.9,258.6,573.8,258.6,573.7,258.6z"/>
		<path class="st1" d="M622.5,222.1c0.5-0.3,1-0.1,1,0.6c-0.1,0.7-0.4,1.4-1,1.7c-0.5,0.3-1,0.1-1-0.6
			C621.5,223.1,621.9,222.5,622.5,222.1z"/>
		<path class="st1" d="M621.8,225.3c-0.2,0-0.3-0.1-0.5-0.1c-0.3-0.3-0.5-0.7-0.5-1.1c0.1-1.2,0.6-2.2,1.6-2.9l3.2-2
			c0.4-0.3,0.8-0.3,1.3-0.1c0.3,0.3,0.5,0.7,0.5,1.1c-0.1,1.2-0.7,2.2-1.6,2.9l-3.1,2C622.4,225.2,622.1,225.3,621.8,225.3z
			 M621.2,224.1c-0.1,0.3,0.1,0.6,0.3,0.8c0.3,0.1,0.6,0.1,1-0.1l3.1-2c0.8-0.5,1.3-1.5,1.4-2.5c0-0.3-0.1-0.6-0.3-0.8
			c-0.3-0.1-0.6-0.1-1,0.1l-3.2,2C621.7,222.1,621.2,223.1,621.2,224.1L621.2,224.1z M574.8,261.4l18.6-11.4
			c0.6-0.4,1.1-0.1,1.1,0.6c-0.1,0.8-0.4,1.5-1.1,2l-18.6,11.5c-0.6,0.4-1.1,0.1-1.1-0.6C573.8,262.6,574.2,261.9,574.8,261.4z"/>
		<path class="st2" d="M573.7,268.8c-0.1,0-0.3-0.1-0.3-0.3c0-0.1,0.1-0.2,0.1-0.2l54-33.2c0.1-0.1,0.3,0,0.3,0.1
			c0.1,0.1,0.1,0.3-0.1,0.3l-54,33.2C573.9,268.7,573.8,268.8,573.7,268.8L573.7,268.8z M621.8,235.5c-0.2,0-0.3-0.1-0.5-0.1
			c-0.3-0.3-0.5-0.7-0.5-1.1c0.1-1.2,0.6-2.2,1.6-2.9l3.2-2c0.4-0.3,0.8-0.3,1.3-0.1c0.3,0.3,0.5,0.7,0.5,1.1
			c-0.1,1.2-0.7,2.2-1.6,2.9l-3.1,2C622.4,235.5,622.1,235.5,621.8,235.5z"/>
		<path class="st16" d="M625.8,230.2c0.5-0.3,1-0.1,1,0.6c-0.1,0.7-0.4,1.4-1,1.7c-0.5,0.3-1,0.1-1-0.6
			C624.9,231.2,625.3,230.6,625.8,230.2z"/>
		<path class="st1" d="M574.8,271.7l12.2-7.4c0.6-0.4,1.1-0.1,1.1,0.6c-0.1,0.8-0.4,1.5-1.1,2l-12.2,7.4c-0.6,0.4-1.1,0.1-1.1-0.6
			C573.8,272.8,574.2,272.1,574.8,271.7z M622.5,242.5c0.5-0.3,1-0.1,1,0.6c-0.1,0.7-0.4,1.4-1,1.7c-0.5,0.3-1,0.1-1-0.5
			C621.5,243.5,621.9,242.9,622.5,242.5L622.5,242.5z"/>
		<path class="st1" d="M621.8,245.8c-0.2,0-0.3-0.1-0.5-0.1c-0.3-0.3-0.5-0.7-0.5-1.1c0.1-1.2,0.6-2.2,1.6-2.9l3.2-2
			c0.4-0.3,0.8-0.3,1.3-0.1c0.3,0.3,0.5,0.7,0.5,1.1c-0.1,1.2-0.7,2.2-1.6,2.9l-3.1,2C622.4,245.6,622.1,245.8,621.8,245.8z
			 M621.2,244.5c-0.1,0.3,0.1,0.6,0.3,0.8c0.3,0.1,0.6,0.1,1-0.1l3.1-2c0.8-0.5,1.3-1.5,1.4-2.5c0.1-0.3-0.1-0.6-0.3-0.8
			c-0.3-0.1-0.6-0.1-1,0.1l-3.2,2C621.7,242.5,621.2,243.4,621.2,244.5L621.2,244.5z"/>
	</g>
</g>
<g id="freepik--Icons--inject-61">
	<g id="freepik--check-box--inject-61">
		<path class="st2" d="M538.6,163.5c-0.1-1.4-0.8-2.7-2-3.5l-1.7-1c-1.3-0.6-2.8-0.6-4.1,0l-25.2,14.7c-1.2,0.8-2,2.1-2,3.5v28.1
			c0.1,1.4,0.8,2.7,2,3.5l1.7,1c1.3,0.7,2.8,0.7,4.1,0l25.2-14.7c1.2-0.8,2-2.1,2-3.6V163.5L538.6,163.5z"/>
		<path class="st7" d="M503.5,205.4c0.1,1.4,0.8,2.7,2,3.5l1.7,1c1.1,0.6,2.5,0.6,3.7,0.2c-1,0.4-1.7-0.2-1.7-1.4v-28.1
			c0-0.7,0.2-1.4,0.6-2l-5.7-3.4c-0.4,0.6-0.5,1.3-0.6,2L503.5,205.4L503.5,205.4z"/>
		<path class="st17" d="M538.5,163c-0.2-0.8-1-1.1-2-0.6l-25.3,14.7c-0.6,0.4-1.1,0.9-1.4,1.5l-5.7-3.4c0.3-0.6,0.8-1.1,1.4-1.5
			l25.2-14.7c1.3-0.6,2.8-0.6,4.1,0l1.7,1C537.5,160.7,538.3,161.8,538.5,163z"/>
		<path id="freepik--Check--inject-61" class="st16" d="M532.3,170.2c-1.2-0.5-2.5,0.1-3,1.2l-8.8,21l-2.1-2.1
			c-0.9-0.9-2.4-0.8-3.3,0.1c-0.9,0.9-0.8,2.4,0.1,3.4l4.5,4.4c0.5,0.5,1,0.7,1.6,0.7c0.2,0,0.3,0,0.5-0.1c0.8-0.2,1.4-0.7,1.7-1.4
			l10.1-24.2C534,172.1,533.4,170.8,532.3,170.2L532.3,170.2z"/>
	</g>
	<g id="freepik--check-box--inject-61_00000035489480184281804180000004825688572141621896_">
		<path class="st2" d="M538.6,213.7c-0.1-1.4-0.8-2.7-2-3.5l-1.7-1c-1.3-0.6-2.8-0.6-4.1,0l-25.2,14.7c-1.2,0.8-2,2.1-2,3.5v28.1
			c0.1,1.4,0.8,2.7,2,3.5l1.7,1c1.3,0.7,2.8,0.7,4,0l25.2-14.7c1.2-0.8,2-2.1,2-3.5L538.6,213.7L538.6,213.7z"/>
		<path class="st7" d="M503.5,255.5c0.1,1.4,0.8,2.7,2,3.5l1.7,1c1.1,0.6,2.5,0.6,3.7,0.2c-1,0.4-1.7-0.2-1.7-1.4v-28.1
			c0-0.7,0.2-1.4,0.6-2l-5.7-3.4c-0.4,0.6-0.5,1.3-0.6,2L503.5,255.5L503.5,255.5z"/>
		<path class="st17" d="M538.5,213.1c-0.2-0.8-1-1.1-2-0.6l-25.2,14.7c-0.6,0.4-1.1,0.9-1.4,1.5l-5.7-3.3c0.3-0.6,0.8-1.1,1.4-1.5
			l25.2-14.8c1.3-0.6,2.8-0.6,4.1,0l1.7,1C537.5,210.8,538.3,211.9,538.5,213.1z"/>
		<path id="freepik--check--inject-61" class="st16" d="M532.3,220.3c-1.2-0.5-2.5,0.1-3,1.2l-8.8,21.1l-2.1-2.1
			c-0.9-0.9-2.4-0.9-3.2,0.1s-0.9,2.4,0.1,3.3l4.5,4.4c0.5,0.5,1,0.7,1.6,0.7c0.2,0,0.3,0,0.5-0.1c0.8-0.2,1.4-0.7,1.7-1.4
			l10.1-24.2C534,222.2,533.5,220.9,532.3,220.3L532.3,220.3z"/>
	</g>
	<g id="freepik--check-box--inject-61_00000093896569988982927220000016285344585721931922_">
		<path class="st2" d="M538.6,263.8c-0.1-1.4-0.8-2.7-2-3.6l-1.7-1c-1.3-0.7-2.8-0.7-4.1,0L505.6,274c-1.2,0.8-2,2.1-2,3.5v28.1
			c0.1,1.4,0.8,2.7,2,3.5l1.7,1c1.3,0.7,2.8,0.7,4,0l25.2-14.8c1.2-0.8,2-2.1,2-3.5L538.6,263.8L538.6,263.8z"/>
		<path class="st7" d="M503.5,305.5c0.1,1.4,0.8,2.7,2,3.5l1.7,1c1.1,0.6,2.5,0.6,3.7,0.2c-1,0.4-1.7-0.2-1.7-1.4v-28.1
			c0-0.7,0.2-1.4,0.6-2l-5.7-3.4c-0.4,0.6-0.5,1.3-0.6,2L503.5,305.5L503.5,305.5z"/>
		<path class="st17" d="M538.5,263.2c-0.2-0.8-1-1.1-2-0.6l-25.2,14.7c-0.6,0.4-1.1,0.9-1.4,1.5l-5.7-3.4c0.3-0.6,0.8-1.1,1.4-1.5
			l25.2-14.7c1.3-0.6,2.8-0.6,4.1,0l1.7,0.9C537.6,260.9,538.3,261.9,538.5,263.2z"/>
		<path class="st9" d="M533.9,284.1l-0.7-4.9c0-0.2-0.2-0.4-0.4-0.5c-0.2-0.1-0.5-0.1-0.6,0.1l-1.7,1.3c-0.2-0.8-0.5-1.6-1-2.3
			l0.8-2l1.1-3.8c0.1-0.3-0.1-0.7-0.4-0.8h-0.2c-0.2,0-0.5,0.2-0.6,0.5l-1.1,3.7l-0.6,1.4c-0.2-0.2-0.4-0.3-0.5-0.4
			c-0.5-0.4-1.2-0.5-1.9-0.5l1-3.9c0.1-0.3-0.1-0.6-0.4-0.7h-0.2c-0.2,0-0.5,0.2-0.5,0.5l-1.1,4.3c-0.5,0.2-0.9,0.3-1.3,0.5
			c-0.3,0.2-0.6,0.4-0.9,0.6l-0.7-2.6c-0.1-0.2-0.3-0.5-0.6-0.5h-0.2c-0.3,0.1-0.5,0.4-0.4,0.7l0.8,3.1c-1.2,1.2-2.3,2.6-3,4.1
			l-0.3-0.4l-0.8-2.7c-0.1-0.2-0.3-0.4-0.5-0.4h-0.2c-0.3,0.1-0.5,0.5-0.4,0.8l0.8,2.7l0.8,1.1c-0.6,1.4-1.1,2.8-1.4,4.3h-0.2
			l-2,0.5c-0.2,0.1-0.4,0.2-0.5,0.5l-1,5.7c-0.1,0.3,0.2,0.6,0.5,0.7h0.1c0.3,0,0.5-0.2,0.6-0.5l0.9-5.4l1.3-0.4
			c-0.1,0.7-0.2,1.4-0.2,2.1c-0.1,1.4,0.1,2.9,0.5,4.3c-0.1,0-0.1,0.1-0.2,0.2l-1.9,2.3c-0.2,0.2-0.2,0.5-0.1,0.6l1.8,3.7
			c0.1,0.2,0.3,0.3,0.5,0.3c0.1,0,0.2,0,0.2-0.1c0.3-0.2,0.4-0.5,0.2-0.8l-1.7-3.4l1.4-1.7c0.4,0.8,1,1.5,1.7,2
			c0.6,0.4,1.3,0.6,2,0.6c0.8,0,1.7-0.2,2.4-0.7c2.6-1.4,4.8-4.9,6.1-8.8h0.1l1.4,0.2l-1.9,5.2c-0.2,0.3,0,0.6,0.3,0.8h0.2
			c0.2,0,0.5-0.2,0.5-0.4l2.1-5.8c0.1-0.2,0.1-0.3,0-0.5c-0.1-0.2-0.2-0.2-0.4-0.3l-2-0.3c0.4-1.5,0.6-3,0.7-4.6
			c0-0.8,0-1.6-0.1-2.4h0.1l1.3-1l0.5,3.8c0.1,0.3,0.3,0.5,0.6,0.5h0.1c0.2,0,0.3-0.1,0.4-0.2C533.8,284.4,533.9,284.3,533.9,284.1
			L533.9,284.1z M524.4,277.6c0.6-0.3,1.2-0.5,1.9-0.5c0.5,0,1,0.2,1.4,0.4c0.2,0.2,0.5,0.3,0.7,0.5c-1,2.2-2.6,4-4.6,5.3
			c-0.6,0.4-1.4,0.6-2.1,0.6c-0.7,0-1.3-0.2-1.8-0.7C521,280.6,522.6,278.6,524.4,277.6z M517.9,291.1c0.1-2.4,0.6-4.6,1.4-6.8
			c0.7,0.5,1.4,0.8,2.3,0.8c0.6,0,1.2-0.2,1.7-0.4l-0.4,12.8c-0.5,0.2-1,0.4-1.6,0.4c-0.5,0-1-0.2-1.4-0.4
			C518.6,296.6,517.7,294.2,517.9,291.1z M524.1,296.8l0.4-12.7c1.9-1.2,3.5-3,4.5-5c0.6,1.5,0.9,3.1,0.8,4.7
			C529.7,289,527.2,294.4,524.1,296.8z"/>
	</g>
</g>
<g id="freepik--character-2--inject-61">
	<g id="freepik--Character--inject-61">
		<path class="st18" d="M725.7,218.1c-2.4-0.5-3.1-1.1-5.5-4.5c-1.3-1.8-5.8-9.4-6.4-10.3c-0.6-0.8-1.3-1.6-2-2.3
			c-0.8-0.6-1.5-1.4-2-2.2c-0.9-1.4-1.4-3.3-0.5-5c0.2-0.3,0.4-0.6,0.5-1c0.1-0.4-0.1-0.8,0-1.2c0.1-0.5,0.8-0.7,1.2-1.3v-0.1
			c0.1-0.5,0.1-1-0.1-1.4l-0.8-2.5l-0.4-1.2c-0.1-0.3-0.3-0.6-0.3-0.9c0.1-0.1,0.2-0.3,0.3-0.3c0.4-0.1,0.9,0.1,1.2,0.5
			c0.7,0.9,1.3,1.9,1.6,3c0.4,1.2,1,2.4,1.6,3.5c0.1,0.3,0.7,1.4,1.1,1c0.3-0.4,0.4-0.9,0.4-1.4c0.1-0.4,0.2-0.9,0.4-1.2
			c0.2-0.4,0.9-1,1.2-0.3c0.1,0.1,0.1,0.3,0.1,0.5c0,0.8,0.1,1.7,0.1,2.5c0,0.4,0,0.8-0.1,1.3c0,0.2,0,0.5-0.1,0.7
			c-0.1,0.2-0.1,0.4-0.1,0.6c-0.1,0.6-0.2,1.2-0.2,1.9c0.1,0.9,0.4,1.6,1,2.2l0.8,0.9l7.9,10l26.1,2.8l-4.9,9.4
			C747.8,222,729.9,219,725.7,218.1L725.7,218.1z"/>
		<path class="st2" d="M749.7,211.8c-3.5-0.3-23-2-23-2l-4.8-6c0,0-1.5,3.9-5.2,4.2c0,0,3.7,6.3,5.1,8.3c1.3,2,1.8,1.8,6.1,2.6
			c4.4,0.8,17.9,3.3,17.9,3.3L749.7,211.8L749.7,211.8z"/>
		<path class="st19" d="M749.7,211.8c-3.5-0.3-23-2-23-2l-4.8-6c0,0-1.5,3.9-5.2,4.2c0,0,3.7,6.3,5.1,8.3c1.3,2,1.8,1.8,6.1,2.6
			c4.4,0.8,17.9,3.3,17.9,3.3L749.7,211.8L749.7,211.8z"/>
		<path class="st20" d="M711.3,190.9c0.7,0,1.4,0.3,1.9,0.8c0.4,0.8,0.9,1.6,1.2,2.5c0.2,0.4,0.1,1-0.3,1.2c0.1,0.5-0.2,0.9-0.6,1.1
			c0,0.5-0.2,1-0.6,1.2c0,0.4-0.2,0.7-0.5,1c0.4-0.1,0.7-0.4,0.8-0.8c0.4-0.2,0.6-0.7,0.6-1.1c0.4-0.2,0.6-0.6,0.6-1
			c0.4-0.3,0.6-0.7,0.4-1.2c-0.3-0.9-0.6-1.7-1.1-2.5C713.5,191.3,713.1,190.5,711.3,190.9L711.3,190.9z"/>
		<g id="freepik--Botom--inject-61">
			<path class="st18" d="M767.8,323.4c-1.7,1-3.8,1.2-5.6,0.5l-1-10.8l6.3,0.7L767.8,323.4L767.8,323.4z M749.6,317.8
				c-1.2,3-3.5,2.2-6.2,0.4l0.2-10.5l6.3-0.2L749.6,317.8L749.6,317.8z"/>
			<path class="st14" d="M757.1,333.6c-0.1,0.5-0.1,1.1,0.1,1.6c0.2,0.3,1.3,1.3,3.4,1.4c2,0.1,3.7-0.3,4.8-1c1-0.6,1.7-1.6,1.7-2.9
				c0.1-1.2-0.1-2.3,0.4-3.3c0.5-1,1.2-1.8,1.3-2.3c0.2-0.8,0.2-1.6-0.1-2.4L757.1,333.6z"/>
			<path class="st9" d="M761.4,323.1v0.3c-0.1,1.4-0.4,2.7-1,3.9c-0.3,0.6-0.6,1.2-1,1.8c-0.4,0.5-0.8,1.1-1.3,1.6
				c-0.6,0.7-1,1.6-1.2,2.6c-0.1,1.6,1.7,2.1,2.9,2.3c1.4,0.2,2.8,0.1,4.2-0.3c1.4-0.5,2.5-1.8,2.7-3.3c0.1-0.5,0-1,0.1-1.4
				c0.1-1,0.5-2,1.1-2.9c0.3-0.5,0.6-1,0.9-1.6c0.4-1,0-2.1-0.3-3.1c-0.3-0.9-0.5-1.8-0.8-1.8c0,0.2-0.1,0.5-0.1,0.7
				s-0.1,0.5-0.1,0.7c0,0.3-0.1,0.6-0.2,0.9c0,0.1-0.1,0.2-0.1,0.3s-0.1,0.1-0.3,0.1v-1c0-0.1,0-0.3-0.1-0.3c-0.2-0.2-0.6-0.1-0.8,0
				c-0.4,0-0.8,0.1-1.2,0.1c-0.8,0-1.6-0.1-2.4-0.2c-0.3-0.1-0.4-0.1-0.7,0S761.4,322.7,761.4,323.1z"/>
			<path class="st14" d="M733.3,325c-0.1,0.5-0.1,1,0.1,1.4c0.2,0.4,2.3,1.6,5.1,1.3c2.1-0.2,4.1-1,5.8-2.4c1.1-0.7,2.3-1.1,3.5-1.1
				c1.4-0.1,3.2-1,3.5-1.6c0.1-0.6,0.1-1.3-0.1-1.9L733.3,325L733.3,325z"/>
			<path class="st9" d="M744.4,315.4l-0.8-0.3c-0.1-0.1-0.3-0.1-0.4,0c-0.2,0.1-0.3,0.3-0.3,0.5c-0.1,0.5-0.1,0.9-0.3,1.3
				c-0.2,0.3-0.4,0.7-0.8,0.9c-0.7,0.6-1.4,1.2-2.2,1.6c-0.9,0.5-1.8,1-2.8,1.5c-1,0.5-2.2,0.8-2.9,1.4c-0.9,0.7-1.1,2-0.4,3
				c0.1,0.2,0.3,0.4,0.6,0.5c1.1,0.7,4,1.3,7,0.3c1.6-0.5,3.4-2.5,5.5-2.7c1.3-0.1,3.9-0.7,4.7-1.8c0.3-0.5-0.2-2-0.6-3.3
				c-0.4-1.4-0.6-3.7-1.1-3.5c0,0.5-0.4,0.7-0.6,1.2c-0.2,0.4-0.3,0.7-0.4,1.2s-0.4,0.7-0.7,1c-0.3,0.3-0.8,0.3-1.1,0
				c-0.4-0.4-0.2-1.2-0.5-1.7c-0.3-0.3-0.6-0.5-1-0.6L744.4,315.4L744.4,315.4z"/>
			<path class="st15" d="M765.5,247.2c0.6,11.5,1.8,36.6,1.8,36.6c0.1,1.4,0.6,4.8,0.9,10c0.4,7.4,0.1,26,0.1,26s-3.7,1.8-6.8,0.5
				c0,0-3.4-25.6-4.7-32.9c-1.1-6.4-3.3-18.5-3.3-18.5l-1,15.6c0.2,3.1,0.1,6.3-0.3,9.4c-0.4,3.4-2,20-2,20s-4,1.2-7.4,0.1
				c0,0-0.3-26-0.4-29.1c-0.1-3.5-0.8-40.1-0.8-40.1L765.5,247.2L765.5,247.2z"/>
			<path class="st14" d="M753.6,268.9l-1.9-9.3c-2,0.1-3.8-0.6-5.2-2.1c0,0,0.8,2.3,4.4,3.2l1.9,9.4l0.2,8.8L753.6,268.9
				L753.6,268.9z"/>
		</g>
		<path class="st2" d="M763.6,213.2c2.1,0.4,2.2,1.5,2.7,3.7c0.4,1.8,0.6,3.6,0.5,5.5l-1.6,13.2l0.5,15.1c-3.4,4-17,5.2-24.4-0.5
			c0,0-1.2-18.7,0.3-28.2c1.2-7.3,3.8-10.2,8.1-10.2l7.5,0.7L763.6,213.2L763.6,213.2z"/>
		<path class="st21" d="M763.6,213.2c2.1,0.4,2.2,1.5,2.7,3.7c0.4,1.8,0.6,3.6,0.5,5.5l-1.6,13.2l0.5,15.1c-3.4,4-17,5.2-24.4-0.5
			c0,0-1.2-18.7,0.3-28.2c1.2-7.3,3.8-10.2,8.1-10.2l7.5,0.7L763.6,213.2L763.6,213.2z"/>
		<path class="st14" d="M755.7,195.6c0,3.9-3,7-6.7,7c-3.6,0-6.6-3.2-6.6-7.1s3-7,6.7-7S755.7,191.7,755.7,195.6z M757.7,196.9
			l1.4-4c0.8-0.1,1.5,0.2,2,0.7c0.9,1,0.4,4-0.7,7c0,0-1.1,5.4-1.5,6.3c-0.3,0.5-0.8,1-1.3,1.2L757.7,196.9L757.7,196.9z"/>
		<path class="st18" d="M757.9,200.8c0.4,0.3,1-0.5,1.5-1.1c0.5-0.5,2.1-1.3,2.9,0.5s-0.7,4.3-2,4.8c-2.2,0.7-2.6-0.7-2.6-0.7
			l-0.2,8.5c-1,2.3-3,4-5.4,4.3c-3.9,0.5-3.1-2.9-1.8-4.6V210c-1,0.1-2,0.2-3,0.1c-1.6-0.3-2.6-1.6-3.1-3.5c-0.8-3-1.1-5.5-0.4-11.4
			c0.8-6.5,7.9-6.5,11.7-4S757.9,200.8,757.9,200.8L757.9,200.8z"/>
		<path class="st14" d="M757.8,201.4c0.6-0.2,1.1-1.3,1.5-1.7c0.7-0.7-0.2-6.8-0.2-6.8c0.4-1.1,0.1-2.3-0.6-3.1
			c-0.6-0.5-1.3-1-2.1-1.2c-2-0.7-4.3-0.5-6.5-0.3c-2.2,0.3-4.4,0.5-6.5,0.1c-0.2-0.1-0.3-0.1-0.5-0.1c-0.4,0.1-0.8,0.5-0.8,1.1
			c0,1.1,0.8,2,1.5,2.7c0.8,0.7,1.6,1.4,2.6,1.8c1.6,0.7,3.4,1,5.1,0.7c0.8-0.1,1.5-0.3,2.2-0.5c0.1,0.3,0.3,0.5,0.5,0.8
			c0.2,0.3,0.4,0.5,0.7,0.7c0.3,0.2,0.6,0.3,0.8,0.4c0.3,0.1,0.6,0.1,0.8,0.4c0.1,0.2,0.1,0.5,0.1,0.7c0,0.7,0.1,1.5,0.1,2.2
			c0,0.4,0.1,0.7,0.1,1.1c0.1,0.3,0.4,0.7,0.7,0.8C757.5,201.4,757.7,201.4,757.8,201.4L757.8,201.4z"/>
		<path class="st20" d="M750.3,209.9c0,0,3.6-0.7,4.9-1.5c0.8-0.4,1.3-1.1,1.8-1.8c-0.2,0.8-0.5,1.5-1,2.2c-1,1.3-5.7,2.2-5.7,2.2
			V209.9z"/>
		<path class="st14" d="M750.8,199.7c0,0.4,0.4,0.7,0.8,0.7s0.7-0.4,0.7-0.8c0-0.4-0.3-0.7-0.7-0.7
			C751.1,198.9,750.8,199.2,750.8,199.7z M751.7,197.3l1.6,1.1c0.3-0.5,0.1-1.2-0.3-1.4C752.6,196.7,752,196.8,751.7,197.3z"/>
		<path class="st20" d="M752.1,204.4l-2.6,1.2c0.3,0.7,1.2,1.2,1.9,0.8C752.1,206,752.4,205.2,752.1,204.4L752.1,204.4L752.1,204.4z
			"/>
		<path class="st14" d="M744.2,198.1l1.5-1c-0.2-0.5-0.8-0.6-1.2-0.3h-0.1C744.1,197.1,743.9,197.6,744.2,198.1L744.2,198.1z
			 M744.8,199.4c0,0.4,0.3,0.8,0.7,0.8c0.4,0,0.8-0.3,0.7-0.8c0-0.4-0.3-0.8-0.7-0.8C745.1,198.7,744.7,199,744.8,199.4z"/>
		<path class="st20" d="M748.5,199.3l-0.6,4.9l-2.4-1.1L748.5,199.3z"/>
		<path class="st2" d="M726.8,233.7l18.2,0.1l4.7,22l-17.3-0.6L726.8,233.7z"/>
		<path class="st3" d="M742.3,249.7c-0.1,0.5,0.3,1.1,1.1,1.8c0.7,0.5,1.2,1.6,2.4,1.8c2.4,0.5,3.5,0,3.5,0l-0.6-3L742.3,249.7
			L742.3,249.7z M732.1,235.7L732,235c-0.1-0.4,1-0.7,2.4-0.7h2.7c1.4,0,2.6,0.3,2.7,0.7l0.1,0.7H732.1z"/>
		<path class="st15" d="M738.3,233.8h2l-0.1-0.4c-0.1-0.2-0.6-0.4-1.3-0.4l-1.2-0.1c0,0-0.4-1.6-2.8-1.6c-2.4,0.1-2.1,1.6-2.1,1.6
			h-1.1c-0.6,0-1,0.1-1,0.4c0.1,0.3,0.1,0.4,0.1,0.4h1.9c0.4,0.1,0.6,0.1,0.7,0.5c0.1,0.7,0.2,1.2,0.2,1.2l4.2,0.1
			c0,0-0.2-0.8-0.3-1.2C737.5,234,737.7,233.8,738.3,233.8L738.3,233.8z"/>
		<path class="st9" d="M732,235.7l-0.1-0.7c-0.1-0.4,1-0.7,2.4-0.7h2.7c1.4,0,2.6,0.3,2.7,0.7l0.1,0.7H732z"/>
		<path class="st18" d="M747.2,243.8c1.3,0,3.3,0.3,4.4,0.5c0.6,0.1,1.2,0.1,1.7,0c0.4-0.1,0.9-0.2,1.3-0.4
			c1.5-0.9,14.1-7.4,14.1-7.4l-4.2-12c0,0-1.5-6.6-0.8-10.9c5.3,0.4,6.4,3.7,8,9.2c1.8,6.3,4.1,13,4.5,16.1c0.2,1.4-0.3,2.9-3.1,4.4
			c-3,1.5-6.5,2.6-16.5,6.3c-1.9,0.8-3.8,1.6-5.8,2.2c-5.2,1.2-7.3,0.3-8.5-1.8c-0.3-0.6-0.4-1.3-0.8-1.9c-0.2-0.3-0.4-0.7-0.5-1
			c-0.1-0.4,0.1-0.8,0.4-1c0.2-0.1,0.3-0.1,0.5,0c0.8,0.1,1.7,0.3,2.5,0.3c1,0.1,1.9,0.1,2.9-0.1c0.1,0,0.1,0,0.1-0.1
			c0.1-0.1,0.1-0.1,0-0.2"/>
		<path class="st2" d="M763.6,213.2c2.4,0.1,5.4,0.1,7,4.4c1.5,3.8,2.6,7,4.3,12.7c1.3,4.5,2.6,8.8,2.2,10.2
			c-0.4,1.4-3.5,2.9-5.2,3.5c-2.6,1-10.1,3.5-10.1,3.5c-0.1-1.9-1.9-4.6-3.5-5.6l10.1-5.8l-3.6-10.6
			C762.7,221.8,762.3,217.3,763.6,213.2L763.6,213.2z"/>
		<path class="st19" d="M763.6,213.2c2.4,0.1,5.4,0.1,7,4.4c1.5,3.8,2.6,7,4.3,12.7c1.3,4.5,2.6,8.8,2.2,10.2
			c-0.4,1.4-3.5,2.9-5.2,3.5c-2.6,1-10.1,3.5-10.1,3.5c-0.1-1.9-1.9-4.6-3.5-5.6l10.1-5.8l-3.6-10.6
			C762.7,221.8,762.3,217.3,763.6,213.2L763.6,213.2z"/>
	</g>
</g>
<g id="freepik--character-1--inject-61">
	<g id="freepik--character--inject-61_00000076576768594147796380000006091497854054894245_">
		<path id="freepik--Arm--inject-61" class="st22" d="M692.6,236.4c-4.5-0.1-5.8,2.9-7.2,7c-1.3,3.9-2.4,8.4-3.6,10.9
			c-3.5,1.2-9.8,2.9-12.4,3c-0.5,0-1-0.1-1.3-0.5c-0.9-0.7-1.9-1.2-2.9-1.6c-0.9-0.4-1.2-1-1.4-0.7c-0.4,0.4-0.4,1.1-0.1,1.5
			c0.4,0.5,0.8,1,1.3,1.3c-1.3,0.2-2.6,0.1-3.8-0.3c-2.3-1-3.6,0.1-2.2,3.1c0.5,1.1,2.6,2.9,7.3,3c1.7,0.1,3.3,0.1,5-0.1
			c4.5-0.5,9.5-1.2,12.6-1.8c1.3-0.3,2.4-1,3.2-2.2c1.2-1.6,5.6-12.5,7.3-16.8L692.6,236.4L692.6,236.4z"/>
		<g id="freepik--character--inject-61">
			<path class="st14" d="M711.1,341.4c0.3,1.4,0.4,2.9,0.4,4.3c0.1,2.6,0.6,3.5,0.6,5.7c0.1,2.5-0.3,3.3-1.2,4.8s-3.3,2.7-4.4,0.4
				c-1.1-2.3-1-3.8-0.7-6.2c0.3-2.4,0.3-3.9,0.4-5.8c0.1-1.7,0.3-2.9,0.3-2.9L711.1,341.4L711.1,341.4z"/>
			<path class="st22" d="M703.8,321l8.1-0.3c0,5.7-0.7,15.3-0.7,20.7c0,1,0.2,7.8-0.1,10c-0.5,3.1-4,2.8-4.2,1
				c-0.2-1.8,0.1-9.9,0-10.7c-0.1-3.5-1.7-12.4-2.6-18.6C704.1,322.7,703.8,321.4,703.8,321L703.8,321z"/>
			<path class="st14" d="M692.7,337.1c0,0,0.4,0,0.5,0.3c0.1,0.3,0.1,1.1,0.4,1.8c0.3,1.1,0.5,2.2,0.4,3.4c-0.1,0.8-1.7,2.1-2.9,2.4
				c-1.2,0.3-2.8,1.6-3.6,2.6c-1.4,1.4-3.2,2.2-5.1,2.5c-1.4,0.1-3.5-0.2-4.2-1.8c-0.2-0.5-0.1-1,0.1-1.4c0.3-0.4,0.7-0.7,1.2-0.8
				c1-0.5,1.9-1,2.8-1.6c1.4-0.9,2.7-2,3.8-3.2c0.5-0.5,0.9-1.1,1.3-1.7c0.2-0.3,0.3-0.6,0.4-0.9c0.1-0.3,0.3-0.7,0.4-1L692.7,337.1
				z"/>
			<path class="st22" d="M692.9,337.1c0.1-1.8,0.7-5.5,1.8-16l-7.6-0.5c0,0,0.9,13.7,1,15.5c0,1.8-0.3,2.5-1,3.4
				c-0.6,0.7-1.3,1.5-1.9,2.2c-0.6,0.7-1.4,1.4-2.1,2l-1.7,1.4c-0.2,0.1-0.4,0.3-0.3,0.6c0.1,0.3,0.3,0.3,0.4,0.3
				c0.9,0.2,1.8,0.1,2.6-0.3c1.3-0.5,2.6-1.2,3.6-2.2c0.6-0.5,1-1,1.5-1.5s1.2-0.9,1.7-1.4C691.9,340.1,693.4,338.3,692.9,337.1z"/>
			<path class="st9" d="M704.8,259.1c2.6,3.2,4.4,7,5.3,11c1.7,8,0.7,31.1,0.7,31.1c0.1,1.4,0.3,4.1,1,10.4c0.8,7.4-0.3,16-0.3,16
				s-4.2,1.3-6.9,0c0,0-2.6-15-3.6-22.4c-0.9-6.4-3.6-22.4-3.6-22.4l-2,20.6c0,0,0.1,3.5,0.3,6.9c0.3,4.4-1.7,17-1.7,17
				s-3.9,0.9-6.5,0c0,0-1.7-19.1-1.9-24.3c-0.3-6.3,0.4-18.8,1.2-28.8c0.3-3,1.3-11.6,1.7-14.2L704.8,259.1L704.8,259.1z"/>
			<path class="st14" d="M697.4,282.8l-1-6.1c-2.4-0.1-4.7-0.9-6.8-2.2c1.4,1.8,3.5,3,5.7,3.3l0.6,5.5l-0.3,17.5L697.4,282.8
				L697.4,282.8z"/>
			<path class="st2" d="M687.9,252.8c0.1,1.8,0.6,7.2,0.6,7.2c6.9,5,16.5-0.7,16.5-0.7l2.5-10.8c0,0-4.5-5.7-1.2-11.3l-5.6-0.9
				l-6.3-0.1l-1.9,0.1c-2.1,1.6-5.3,5.2-6,7.1S684.9,249,687.9,252.8L687.9,252.8z"/>
			<path class="st19" d="M687.9,252.8c0.1,1.8,0.6,7.2,0.6,7.2c6.9,5,16.5-0.7,16.5-0.7l2.5-10.8c0,0-4.5-5.7-1.2-11.3l-5.6-0.9
				l-6.3-0.1l-1.9,0.1c-2.1,1.6-5.3,5.2-6,7.1S684.9,249,687.9,252.8L687.9,252.8z"/>
			<path class="st14" d="M686.2,234.8h8.8c7,0,12.8-6.1,12.8-13.6c0-6-4.5-10.9-10.2-10.9h-1.2c-5.6,0-10.2,4.9-10.2,10.9
				L686.2,234.8L686.2,234.8z"/>
			<path class="st14" d="M704.7,210.2l-0.7,2.9c0.7,0.2,1.5-0.2,1.7-1v-0.1C705.9,211.3,705.5,210.5,704.7,210.2z"/>
			<path class="st14" d="M707,212.9l-2.8,0.1c0,0.8,0.6,1.4,1.3,1.4h0.1C706.5,214.4,707,213.7,707,212.9L707,212.9z"/>
			<path class="st22" d="M690.2,215.4c-1.2,0.7-2.6,3.7-2.4,10.2c0.1,5.5,1.8,6.7,2.6,7.2s2.4,0.1,4-0.1v3.3c0,0-2.2,2.7-2,4.2
				s3.1,1.8,5.1,0.4c1.3-1,2.4-2.2,3.3-3.7v-8.5c0,0,0.8,1,2.4-0.1c1.3-0.9,1.7-2.7,0.8-4.1c-0.1-0.1-0.1-0.1-0.1-0.2
				c-0.8-0.8-2.1-0.7-2.9,0.1c-0.1,0.1-0.1,0.2-0.2,0.3c0,0-2.1-0.2-5.4-2.1C692.8,220.7,691,218.3,690.2,215.4L690.2,215.4z"/>
			<path class="st14" d="M694,224.3c-0.1,0.3,0.3,0.7,0.6,0.7c0.4,0,0.6-0.3,0.6-0.7s-0.3-0.7-0.6-0.7
				C694.4,223.6,694,223.9,694,224.3z"/>
			<path class="st23" d="M693.3,228.9l-1.5,0.5c0.1,0.4,0.5,0.7,1,0.6C693.2,229.8,693.4,229.3,693.3,228.9L693.3,228.9z"/>
			<path class="st14" d="M688.3,222.2l1.3-1c-0.2-0.4-0.7-0.5-1-0.3h-0.1C688.2,221.2,688.1,221.8,688.3,222.2L688.3,222.2z
				 M688.7,223.7c0,0.4,0.3,0.7,0.6,0.7s0.6-0.3,0.6-0.7s-0.3-0.7-0.6-0.7C689,223.1,688.7,223.3,688.7,223.7z"/>
			<path class="st23" d="M692.2,223.4l-0.1,4.1l-2-0.7L692.2,223.4z M694.4,232.7c1.7-0.2,5-1.3,5.6-2.7c-0.2,0.7-0.6,1.4-1.2,1.8
				c-1,1-4.4,2-4.4,2V232.7z"/>
		</g>
		<g id="freepik--magnifying-glass--inject-61">
			<path class="st2" d="M658.2,254.2c-0.6-0.7-0.8-1.6-0.6-2.5c0.6-2.5,2.2-4.6,4.5-5.6c0.8-0.4,1.7-0.3,2.4,0.2l40.1,33.7
				c0.8,0.7,1.2,2,1,3.7c-0.8,3.5-3.1,6.5-6.3,7.8c-1.5,0.6-2.8,0.3-3.5-0.4L658.2,254.2z"/>
			<path class="st3" d="M658.2,254.2c-0.6-0.7-0.8-1.6-0.6-2.5c0.6-2.5,2.2-4.6,4.5-5.6c0.8-0.4,1.7-0.3,2.4,0.2l40.1,33.7
				c0.8,0.7,1.2,2,1,3.7c-0.8,3.5-3.1,6.5-6.3,7.8c-1.5,0.6-2.8,0.3-3.5-0.4L658.2,254.2z"/>
			<path class="st2" d="M662.2,246c2.1-0.7,3.5,0.5,3.1,2.8c-0.6,2.5-2.2,4.6-4.5,5.6c-2.1,0.7-3.5-0.5-3.1-2.8
				C658.2,249,659.9,247,662.2,246z"/>
			<path class="st8" d="M662.2,246c2.1-0.7,3.5,0.5,3.1,2.8c-0.6,2.5-2.2,4.6-4.5,5.6c-2.1,0.7-3.5-0.5-3.1-2.8
				C658.2,249,659.9,247,662.2,246z"/>
			<path class="st15" d="M651.7,244.1c0.3-1.6,1.3-2.8,2.8-3.4c0.5-0.3,1-0.2,1.5,0.1l7.5,6.9c0.4,0.4,0.5,1,0.4,1.6
				c-0.3,1.6-1.3,2.8-2.8,3.4c-0.5,0.3-1,0.2-1.5-0.1l-7.5-6.9C651.6,245.3,651.5,244.7,651.7,244.1z"/>
			<path class="st9" d="M654.4,240.7c-0.2,0.1-0.3,0.1-0.5,0.3l-0.1,0.1c-0.1,0.1-0.3,0.2-0.4,0.3c-0.9,0.7-1.5,1.7-1.7,2.8
				c-0.1,0.5,0,1.2,0.3,1.6l2.5,2.3c0.8-0.7,1.5-1.4,2.2-2.2l6.2,5.4c0.4-0.5,0.6-1.2,0.8-1.8c0.1-0.5,0-1.2-0.4-1.6l-5-4.6
				l-2.4-2.2C655.5,240.5,654.9,240.5,654.4,240.7L654.4,240.7z"/>
			<path class="st10" d="M664.5,250.9l40.5,35c0.3-0.7,0.6-1.5,0.8-2.3c0.3-1.7-0.1-3-1-3.7l-40.1-33.7c0.6,0.7,0.8,1.6,0.6,2.5
				C665.1,249.5,664.8,250.3,664.5,250.9L664.5,250.9z"/>
			<path class="st3" d="M704.7,280l-3-2.5c-0.8,0.5-1.5,1-2,1.3c-0.8,0.5-1.4,0.5-1.4,0.7c0.1,0.6,0.6,1,1.2,1
				c0.8-0.1,1.7-0.4,2.5-0.7c-0.9,1.1-1.9,2.1-2.8,3.1c-1.9,1.7-2,3.4,1.1,4c2,0.3,3.4-0.5,5.4-3.3
				C705.9,281.9,705.6,280.7,704.7,280L704.7,280z"/>
			<path class="st2" d="M674.5,197.2c0-0.4,0-0.8-0.1-1.3c-0.1-0.4-0.1-0.8-0.1-1.2c0-0.3-0.1-0.5-0.1-0.8c-0.1-0.7-0.1-1.4-0.3-2
				c-0.1-0.3-0.1-0.6-0.1-1s-0.1-0.5-0.2-0.8c-0.2-0.7-0.3-1.5-0.6-2.2c-0.1-0.3-0.2-0.7-0.3-1c0-0.1-0.1-0.1-0.1-0.1
				c-0.1-0.3-0.3-0.7-0.3-1c-0.1-0.3-0.3-0.7-0.4-1.1s-0.2-0.5-0.3-0.7c-0.1-0.2-0.1-0.3-0.3-0.5c-0.1-0.2-0.2-0.5-0.3-0.6
				c0-0.1-0.1-0.1-0.1-0.1c-0.1-0.2-0.2-0.4-0.3-0.5c-0.1-0.2-0.1-0.2-0.2-0.3c-0.5-0.8-1.1-1.6-1.7-2.4c-0.1-0.1-0.2-0.3-0.3-0.4
				c-0.1-0.1-0.2-0.2-0.3-0.3c-0.1-0.1-0.3-0.2-0.3-0.3c-0.3-0.3-0.6-0.7-1-1c-0.2-0.1-0.3-0.3-0.5-0.4c-0.2-0.1-0.3-0.3-0.5-0.4
				c-0.3-0.2-0.6-0.4-0.9-0.6l-0.3-0.1l-0.1-0.1l-5.5-3.4l-0.1-0.1c-2.7-1.6-5.7-2.5-8.8-2.4c-4.5,0-9.7,1.6-15.2,4.9
				c-18.7,11.5-33.9,39.5-33.9,62.5c0,11.5,3.8,19.6,9.9,23.3h0.1l5.5,3.4l0.1,0.1l0.1,0.1l0.1,0.1c0.3,0.1,0.5,0.3,0.8,0.5
				c0.3,0.1,0.7,0.3,1,0.5s0.6,0.3,1,0.3c0.2,0.1,0.3,0.1,0.5,0.1c0.2,0.1,0.4,0.1,0.6,0.1c0.2,0.1,0.4,0.1,0.6,0.1
				c0.1,0.1,0.3,0.1,0.4,0.1c0.3,0.1,0.5,0.1,0.8,0.1h0.2c0.3,0.1,0.6,0.1,0.9,0.1c5.1,0.5,10.9-1,17.2-4.8
				c18.8-11.5,33.9-39.5,33.9-62.5C674.5,198.2,674.5,197.7,674.5,197.2z M612.7,251.5c-0.8-3.1-1.2-6.3-1.2-9.5
				c0-21.8,15-49.5,32.7-60.4c2.6-1.6,5.4-2.9,8.3-3.7c1.4-0.3,2.8-0.5,4.3-0.5c0.7,0,1.5,0.1,2.2,0.2h0.1
				c3.6,4.6,4.2,11.9,4.2,15.8c0,21.8-15,49.5-32.7,60.4c-4.5,2.8-8.8,4.2-12.6,4.2c-0.8,0-1.5-0.1-2.3-0.3
				C614.3,255.9,613.3,253.7,612.7,251.5L612.7,251.5z"/>
			<path class="st24" d="M674.5,197.2c0-0.4,0-0.8-0.1-1.3c-0.1-0.4-0.1-0.8-0.1-1.2c0-0.3-0.1-0.5-0.1-0.8c-0.1-0.7-0.1-1.4-0.3-2
				c-0.1-0.3-0.1-0.6-0.1-1s-0.1-0.5-0.2-0.8c-0.2-0.7-0.3-1.5-0.6-2.2c-0.1-0.3-0.2-0.7-0.3-1c0-0.1-0.1-0.1-0.1-0.1
				c-0.1-0.3-0.3-0.7-0.3-1c-0.1-0.3-0.3-0.7-0.4-1.1s-0.2-0.5-0.3-0.7c-0.1-0.2-0.1-0.3-0.3-0.5c-0.1-0.2-0.2-0.5-0.3-0.6
				c0-0.1-0.1-0.1-0.1-0.1c-0.1-0.2-0.2-0.4-0.3-0.5c-0.1-0.2-0.1-0.2-0.2-0.3c-0.5-0.8-1.1-1.6-1.7-2.4c-0.1-0.1-0.2-0.3-0.3-0.4
				c-0.1-0.1-0.2-0.2-0.3-0.3c-0.1-0.1-0.3-0.2-0.3-0.3c-0.3-0.3-0.6-0.7-1-1c-0.2-0.1-0.3-0.3-0.5-0.4c-0.2-0.1-0.3-0.3-0.5-0.4
				c-0.3-0.2-0.6-0.4-0.9-0.6l-0.3-0.1l-0.1-0.1l-5.5-3.4l-0.1-0.1c-2.7-1.6-5.7-2.5-8.8-2.4c-4.5,0-9.7,1.6-15.2,4.9
				c-18.7,11.5-33.9,39.5-33.9,62.5c0,11.5,3.8,19.6,9.9,23.3h0.1l5.5,3.4l0.1,0.1l0.1,0.1l0.1,0.1c0.3,0.1,0.5,0.3,0.8,0.5
				c0.3,0.1,0.7,0.3,1,0.5s0.6,0.3,1,0.3c0.2,0.1,0.3,0.1,0.5,0.1c0.2,0.1,0.4,0.1,0.6,0.1c0.2,0.1,0.4,0.1,0.6,0.1
				c0.1,0.1,0.3,0.1,0.4,0.1c0.3,0.1,0.5,0.1,0.8,0.1h0.2c0.3,0.1,0.6,0.1,0.9,0.1c5.1,0.5,10.9-1,17.2-4.8
				c18.8-11.5,33.9-39.5,33.9-62.5C674.5,198.2,674.5,197.7,674.5,197.2z M612.7,251.5c-0.8-3.1-1.2-6.3-1.2-9.5
				c0-21.8,15-49.5,32.7-60.4c2.6-1.6,5.4-2.9,8.3-3.7c1.4-0.3,2.8-0.5,4.3-0.5c0.7,0,1.5,0.1,2.2,0.2h0.1
				c3.6,4.6,4.2,11.9,4.2,15.8c0,21.8-15,49.5-32.7,60.4c-4.5,2.8-8.8,4.2-12.6,4.2c-0.8,0-1.5-0.1-2.3-0.3
				C614.3,255.9,613.3,253.7,612.7,251.5L612.7,251.5z"/>
			<path class="st2" d="M669.6,197.2c0,11.6-4.2,24.8-10.9,36.3l-1,1.6c-0.3,0.5-0.6,1-0.8,1.4c-0.6,1-1.3,2-1.9,2.9
				c-0.3,0.5-0.6,0.9-1,1.4c-0.3,0.5-0.7,1-1.1,1.4l-2.1,2.7c-0.4,0.6-1,1.2-1.4,1.7c-3.6,4.3-7.9,8-12.6,11c-0.8,0.5-1.7,1-2.5,1.4
				c-2.7,1.4-5.6,2.4-8.6,2.7c-0.5,0.1-1,0.1-1.4,0.1h-0.7c-0.4,0-0.9-0.1-1.3-0.1c-0.3-0.1-0.4-0.1-0.6-0.1
				c-0.2-0.1-0.4-0.1-0.6-0.1c-2.1-0.5-4-1.8-5.3-3.7c0.8,0.2,1.5,0.3,2.3,0.3c3.7,0,8.1-1.4,12.6-4.2
				c17.7-10.9,32.7-38.6,32.7-60.4c0-4-0.5-11.2-4.2-15.8h-0.1c4.6,0.8,7.2,4.2,8.8,8c0.4,1.1,0.8,2.2,1,3.4c0,0.1,0,0.1,0.1,0.2
				c0.1,0.2,0.1,0.4,0.1,0.6s0.1,0.4,0.1,0.6v0.1c0.1,0.2,0.1,0.4,0.1,0.7c0.1,0.8,0.2,1.6,0.3,2.3c0,0.2,0,0.4,0.1,0.6
				c0.1,0.2,0,0.3,0,0.5V197.2L669.6,197.2z"/>
			<path class="st24" d="M621.4,260c1.5,0,2.9-0.2,4.3-0.5c2.9-0.8,5.7-2,8.3-3.7c17.7-10.9,32.7-38.6,32.7-60.4
				c0-3.2-0.4-6.3-1.2-9.5c-0.8-2.9-2.1-5.8-4.4-7.7l-0.2-0.1l-0.6-0.2l-0.3-0.1c-0.2-0.1-0.4-0.1-0.6-0.1l-0.4-0.1H659h0.1
				c3.6,4.6,4.2,11.9,4.2,15.8c0,21.8-15,49.5-32.7,60.4c-4.5,2.8-8.8,4.2-12.6,4.2c-0.8,0-1.5-0.1-2.3-0.3l0.1,0.1
				c0.4,0.5,0.8,1,1.3,1.4C618.4,259.7,619.9,260,621.4,260L621.4,260z"/>
			<path class="st10" d="M664.6,175.4l-5.6-3.5l-0.1-0.1c-2.7-1.6-5.7-2.5-8.8-2.4c-4.5,0-9.7,1.6-15.2,4.9
				c-10.4,6.4-19.7,17.9-25.9,30.7h0.1h-0.1c-5,10.3-8,21.6-8,31.8c0,11.5,3.8,19.6,9.9,23.3l5.1,3.2c-5.9-3.9-9.5-11.9-9.5-23.1
				c0-10.2,3.3-21.3,8.3-31.6c6.2-12.7,15.4-24.1,25.7-31c9.3-6.2,18.1-6.3,24.3-2.3L664.6,175.4L664.6,175.4z"/>
		</g>
		<path id="freepik--arm--inject-61" class="st22" d="M717.1,262.6c-0.4-4.5-3.6-14.7-4.4-18.5c-0.9-4.2-2.6-6.4-6.4-7
			c-1.9,0.5-2.9,7.2-0.3,11.6c0.9,3.1,4.5,13.1,4.5,13.1c-0.2,0.7-4.3,10.5-5.8,13c-0.3,0.4-0.7,0.7-1.2,0.9
			c-1.3,0.4-2.9,1.6-3.9,2.2c-0.8,0.5-1.4,0.5-1.4,0.7c0.1,0.6,0.6,1,1.2,1c0.8-0.1,1.7-0.4,2.5-0.7c-0.9,1.1-1.9,2.1-2.9,3.1
			c-1.9,1.8-2,3.4,1.1,4c2.4,0.4,3.8-0.8,6.5-4.8c0.8-1.2,1.7-2.9,2.6-4.4c2.4-3.8,3.8-5.3,5.1-7.8
			C716.6,265.2,717.3,264.4,717.1,262.6L717.1,262.6z"/>
	</g>
</g>
<text transform="matrix(0.914 0 0 1 134 139.4395)" class="st25 st26 st27">                We are a team of software testers that are </text>
<text transform="matrix(0.8801 0 0 1 134 163.4082)" class="st25 st26 st27">                 passionate about quality and love to test.</text>
<text transform="matrix(0.8801 0 0 1 158.1035 228.4941)" class="st28"><tspan x="0" y="0" class="st25 st26 st27">          We develop an in-depth understanding of </tspan><tspan x="0" y="21.6" class="st25 st26 st27">          the applications under test and include </tspan><tspan x="0" y="43.2" class="st25 st26 st27">          software testing services strategies that </tspan><tspan x="0" y="64.8" class="st25 st26 st27">          deliver quantifiable results.</tspan></text>
<text transform="matrix(0.8801 0 0 1 141.1416 293.5801)" class="st28"><tspan x="0" y="0" class="st25 st26 st27">   </tspan><tspan x="0" y="64.8" class="st25 st26 st27">               In short, we help in building incredible software.</tspan></text>
<rect x="195.7" y="235.3" class="st29" width="65.7" height="24.4"/>
</svg>
