<svg width="48" height="48" fill="none" xmlns="http://www.w3.org/2000/svg"><path d="M0 24C0 10.745 10.745 0 24 0s24 10.745 24 24-10.745 24-24 24S0 37.255 0 24z" fill="#fff"/><path fill-rule="evenodd" clip-rule="evenodd" d="M23.61 23.01l-10.45-4.79c-.214-.098-.214-.259 0-.357l10.45-4.79c.214-.098.566-.098.78 0l10.45 4.79c.214.098.214.26 0 .358L24.39 23.01a1.07 1.07 0 01-.78 0zm11.23.683l-2.504-1.143a1.073 1.073 0 00-.78 0l-7.166 3.272a1.073 1.073 0 01-.78 0l-7.166-3.272a1.073 1.073 0 00-.78 0l-2.503 1.143c-.215.098-.215.258 0 .356L23.61 28.82c.214.098.566.098.78 0l10.45-4.77c.214-.099.214-.259 0-.357zm0 6.106l-2.504-1.142a1.073 1.073 0 00-.78 0l-7.166 3.272a1.074 1.074 0 01-.78 0l-7.166-3.272a1.073 1.073 0 00-.78 0l-2.503 1.142c-.215.099-.215.259 0 .357l10.449 4.77c.214.099.566.099.78 0l10.45-4.77c.214-.098.214-.258 0-.357z" fill="#000"/></svg>