<svg xmlns="http://www.w3.org/2000/svg" viewBox="0 0 58 58"><path d="M42.319 58H15.681A3.68 3.68 0 0112 54.319V3.681A3.68 3.68 0 0115.681 0h26.637A3.681 3.681 0 0146 3.681v50.637A3.681 3.681 0 0142.319 58z" fill="#cbd4d8"/><path fill="#434c6d" d="M12 6h34v46H12z"/><path d="M23 4c-.26 0-.521-.11-.71-.29-.181-.19-.29-.45-.29-.71s.109-.521.29-.71c.38-.37 1.04-.37 1.42 0 .18.189.29.45.29.71s-.11.52-.29.71c-.19.18-.45.29-.71.29zM15 4c-.271 0-.521-.11-.71-.29-.181-.19-.29-.44-.29-.71 0-.271.109-.521.29-.71.37-.37 1.04-.37 1.42 0 .18.189.29.45.29.71s-.11.52-.29.71c-.19.18-.45.29-.71.29zM43 4c-.271 0-.521-.11-.71-.29-.181-.19-.29-.45-.29-.71s.109-.521.29-.71c.37-.37 1.05-.37 1.42 0 .18.189.29.45.29.71s-.11.52-.29.71c-.19.18-.44.29-.71.29zM26 4c-.26 0-.521-.11-.71-.29-.181-.19-.29-.45-.29-.71s.109-.521.29-.71c.37-.37 1.04-.37 1.42 0a1.011 1.011 0 010 1.42c-.19.18-.45.29-.71.29zM29 4a1.01 1.01 0 01-.71-.29C28.109 3.52 28 3.26 28 3c0-.271.109-.521.29-.71.359-.37 1.05-.37 1.42 0 .18.189.29.45.29.71s-.11.52-.29.71c-.19.189-.45.29-.71.29zM32 4c-.26 0-.521-.11-.71-.29-.181-.19-.29-.45-.29-.71s.109-.521.29-.71c.37-.37 1.04-.37 1.42 0a1.011 1.011 0 010 1.42c-.19.18-.45.29-.71.29zM35 4c-.26 0-.521-.11-.71-.29-.181-.19-.29-.45-.29-.71 0-.271.109-.521.29-.71.38-.37 1.05-.37 1.42 0 .18.189.29.45.29.71s-.11.52-.29.71c-.19.18-.45.29-.71.29z" fill="#839594"/><g fill="#839594"><path d="M22.29 54.29c-.181.189-.29.45-.29.71s.109.52.29.71c.189.18.45.29.71.29s.52-.11.71-.29c.18-.19.29-.45.29-.71 0-.271-.11-.521-.29-.71-.37-.37-1.05-.37-1.42 0zM25.29 54.29c-.181.189-.29.45-.29.71 0 .27.109.52.29.71.189.18.439.29.71.29.26 0 .52-.11.71-.29.18-.19.29-.45.29-.71s-.101-.521-.29-.71c-.38-.37-1.05-.37-1.42 0zM28.29 54.29c-.181.189-.29.45-.29.71s.109.52.29.71c.189.18.439.29.71.29.26 0 .52-.11.71-.29.18-.19.29-.45.29-.71s-.11-.521-.29-.71c-.37-.37-1.05-.37-1.42 0zM31.29 54.29c-.181.189-.29.45-.29.71s.109.52.29.71c.189.18.45.29.71.29s.52-.11.71-.29c.18-.19.29-.45.29-.71s-.101-.521-.29-.71c-.38-.37-1.04-.37-1.42 0zM35.71 54.3c-.37-.38-1.05-.38-1.42-.01-.181.189-.29.45-.29.71 0 .27.109.52.29.71.189.18.45.29.71.29s.52-.11.71-.29c.18-.19.29-.45.29-.71s-.11-.521-.29-.7z"/></g><g fill="#6363ad"><path d="M15 14a.997.997 0 00.707-.293l4-4a.999.999 0 10-1.414-1.414l-4 4A.999.999 0 0015 14zM15 19a.997.997 0 00.707-.293l2-2a.999.999 0 10-1.414-1.414l-2 2A.999.999 0 0015 19zM18.29 13.29c-.181.189-.29.439-.29.71 0 .26.109.52.29.71.189.18.45.29.71.29s.52-.11.71-.29c.18-.19.29-.45.29-.71s-.11-.521-.29-.71c-.38-.37-1.05-.37-1.42 0zM20.293 12.707a.997.997 0 001.414 0l3-3a.999.999 0 10-1.414-1.414l-3 3a.999.999 0 000 1.414zM23.293 13.293l-9 9a.999.999 0 101.414 1.414l9-9a.999.999 0 10-1.414-1.414zM25.29 11.29c-.181.189-.29.439-.29.71 0 .26.109.52.29.71.189.18.45.29.71.29s.52-.11.71-.29a1.011 1.011 0 000-1.42c-.38-.37-1.05-.37-1.42 0zM29.707 8.293a.999.999 0 00-1.414 0l-1 1a.999.999 0 101.414 1.414l1-1a.999.999 0 000-1.414z"/></g></svg>