<svg version="1.1" id="Layer_1" xmlns="http://www.w3.org/2000/svg" x="0" y="0" viewBox="0 0 30 30" xml:space="preserve"><style></style><linearGradient id="SVGID_1_" gradientUnits="userSpaceOnUse" x1="2" y1="14.8" x2="27.6" y2="14.8"><stop offset="0" stop-color="#fd3e40"/><stop offset=".273" stop-color="#e5334e"/><stop offset=".845" stop-color="#a81670"/><stop offset="1" stop-color="#960e7a"/></linearGradient><path d="M12.4 6.3h-2.2V4.9c0-1.6-1.3-2.9-3-2.9s-3 1.3-3 2.9v1.3H2v8.1h10.4v-8zM6.2 4.9c0-.5.4-.9 1-.9s1 .4 1 .9v1.3h-2V4.9zm4.2 7.5H4V8.3h6.4v4.1zm4 6.5h-2.5v-2.5h2.5v2.5zm13.2-8.1v13.8c0 1.7-1.3 3-3 3H10.8c-1.7 0-3-1.3-3-3v-8.2h2v8.2c0 .6.4 1 1 1h13.9c.6 0 1-.4 1-1V10.8c0-.6-.4-1-1-1H14.4v-2h10.2c1.7 0 3 1.3 3 3zM11.9 20.9h2.5v2.5h-2.5v-2.5zm4.5-4.5h2.5v2.5h-2.5v-2.5zm7-2h-2.5v-2.5h2.5v2.5zm-2.5 6.5h2.5v2.5h-2.5v-2.5zm0-4.5h2.5v2.5h-2.5v-2.5zm-2-2h-2.5v-2.5h2.5v2.5zm-2.5 6.5h2.5v2.5h-2.5v-2.5z" fill="url(#SVGID_1_)"/></svg>