<svg version="1.1" id="Layer_1" xmlns="http://www.w3.org/2000/svg" x="0" y="0" viewBox="0 0 918 500" xml:space="preserve"><style>.st0{fill:#f5f5f5}.st1{fill:#e0e0e0}.st2{fill:#ba68c8}.st4{fill:#fff}.st5,.st6,.st7,.st8,.st9{opacity:.3;enable-background:new}.st6,.st7,.st8,.st9{opacity:.4}.st7,.st8,.st9{opacity:.2}.st8,.st9{opacity:.15}.st9{opacity:.25}.st10{fill:#455a64}.st11{opacity:.4;fill:#fff;enable-background:new}.st12{opacity:.8}.st15{fill:#263238}.st16{fill:#37474f}.st17{fill:#fafafa}.st18{opacity:.5;fill:#fff;enable-background:new}.st19{fill:#b16668}.st20{opacity:.65;fill:#fff;enable-background:new}.st21{fill:#9a4a4d}.st23{fill:#ffa8a7}.st24{fill:#f28f8f}.st26{opacity:.6;fill:#fff;enable-background:new}.st27{fill:#5d58a6}.st28{font-family:&apos;PalatinoLinotype-Bold&apos;}.st29{font-size:21px}.st30{font-size:18px}</style><g id="freepik--Floor--inject-61"><ellipse id="freepik--floor--inject-61" class="st0" cx="666.8" cy="343.1" rx="230.8" ry="125.5"/></g><g id="freepik--Shadows--inject-61"><path id="freepik--Shadow--inject-61" class="st1" d="M601.2 422.8c-1.8 0-3.3-1.3-3.7-3l-.9-4.5c-1.9-.4-3.8-.8-5.7-1.4h-.1l-7.9 3.6c-.6.3-1.2.4-1.8.4-.8 0-1.6-.2-2.2-.6l-7.9-4.5c-1.5-.8-2.1-2.7-1.3-4.2.2-.4.6-.8 1-1.1l4.8-3.4-1.2-1.8-10-.6c-1.9-.1-3.4-1.7-3.4-3.6v-5.8c0-1.9 1.5-3.5 3.4-3.6l10-.6 1.2-1.8-4.8-3.4c-1.4-1-1.8-2.9-.8-4.3.3-.4.7-.8 1.1-1l7.9-4.5c1.3-.7 2.8-.8 4.1-.2l7.9 3.6h.1c1.9-.6 3.8-1.1 5.7-1.4l.9-4.5c.4-1.7 1.9-3 3.7-3h11.5c1.8 0 3.3 1.3 3.7 3l.8 4.5c1.9.3 3.8.8 5.7 1.4h.1l7.9-3.6c.6-.3 1.2-.4 1.8-.4.8 0 1.6.2 2.2.6l7.9 4.5c1.5.8 2.1 2.7 1.3 4.2-.2.4-.6.8-1 1.1l-4.8 3.4 1.2 1.8 10 .6c1.9.1 3.4 1.7 3.4 3.6v5.9c0 1.9-1.5 3.5-3.4 3.6l-10 .6c-.4.6-.7 1.2-1.2 1.8l4.8 3.4c1.4 1 1.8 2.9.8 4.3-.3.4-.7.8-1.1 1l-7.9 4.5c-.7.4-1.5.6-2.2.6-.6 0-1.3-.1-1.8-.4l-7.9-3.6h-.1c-1.9.6-3.8 1.1-5.8 1.4l-.8 4.5c-.4 1.7-1.9 3-3.7 3l-11.5-.1zm5.8-35.9c-4.2-.1-8.3.9-12 2.8-2.7 1.5-4.2 3.5-4.2 5.5s1.5 3.9 4.2 5.5c7.6 3.8 16.4 3.8 24 0 2.7-1.5 4.2-3.5 4.2-5.5s-1.5-3.9-4.2-5.5c-3.7-1.9-7.8-2.9-12-2.8z"/><path id="freepik--shadow--inject-61" class="st1" d="M674.2 372.2c-1.1 0-2.2-.5-3-1.3l-3.1-3.3c-.8 0-1.5.1-2.3.1s-1.5 0-2.3-.1l-3.3 3.5c-.7.7-1.7 1.1-2.7 1.1-.3 0-.7 0-1-.1l-7.8-1.9c-1-.2-1.8-.9-2.3-1.8-.4-.8-.4-1.7 0-2.5l1.2-2.5c-.7-.4-1.3-.8-1.9-1.2l-7.3 1.2h-.6c-1.3 0-2.4-.6-3.2-1.6l-2.9-4.1c-.4-.6-.6-1.2-.6-1.9 0-1.3.8-2.5 2.1-2.9l5.6-1.8v-.3l-5.5-1.7c-1.3-.3-2.2-1.5-2.3-2.8v-.2c0-.6.2-1.2.6-1.7l3.2-4.5c.7-.9 1.8-1.5 3-1.4.2 0 .4 0 .7.1l7.2 1.2c.5-.4 1.1-.7 1.7-1l.2-.1-1.2-2.3c-.2-.4-.3-.8-.3-1.3V334.5c.1-1.3 1.1-2.3 2.3-2.6l8.1-2c.3-.1.5-.1.8-.1 1.1 0 2.2.5 2.9 1.3l3.1 3.3c.8 0 1.6-.1 2.4-.1.8 0 1.5 0 2.2.1l3.3-3.5c.7-.7 1.7-1.1 2.7-1.1.3 0 .7 0 1 .1l7.8 1.9c1.4.3 2.5 1.5 2.6 3 0 .4-.1.9-.3 1.3l-1.3 2.5.3.1c.6.3 1.1.7 1.6 1l7.4-1.2h.5c1.2 0 2.4.6 3.1 1.6l3 4.1c.4.5.6 1.2.6 1.8v.3l-.1.2c-.2 1.1-.9 2-2 2.4l-5.7 1.8v.3l5.5 1.7c1.7.5 2.6 2.3 2.1 4-.1.3-.2.5-.3.7-.9 1.5-2 2.8-3 4.2l-.2.2c-.7.9-1.8 1.5-3 1.4-.2 0-.5 0-.7-.1l-7.2-1.2c-.6.4-1.2.8-1.9 1.2l1.1 2.3c.5.9.5 1.9.1 2.8-.4.9-1.2 1.5-2.1 1.7l-8.1 1.9c0 .4-.2.4-.5.4zm-19.6-19.7c.4.6.9 1.1 1.5 1.6l.9.6c1.2.7 2.5 1.2 3.9 1.5 1.6.4 3.2.6 4.9.5 3 .1 6.1-.6 8.8-2 .3-.2.6-.4 1-.6.5-.4 1-.8 1.4-1.4.7-.8.8-2.1.2-3l-.1-.2c-.1-.1-.1-.2-.2-.3-.1-.1-.1-.2-.2-.2l-.1-.1-.1-.1-.1-.1c-1.6-1.5-3.6-2.5-5.8-2.9-1.6-.4-3.2-.6-4.9-.6-4.8 0-9.4 1.7-11.1 4-.6.7-.8 1.7-.4 2.6l.1.2.3.5z"/><ellipse id="freepik--shadow--inject-61_00000135650676633958232330000000548932078826677413_" class="st1" cx="842.3" cy="319.5" rx="44.2" ry="25.5"/><ellipse id="freepik--shadow--inject-61_00000121255976588627410530000016805896310068641933_" class="st1" cx="758.9" cy="350.2" rx="44.2" ry="25.5"/><path id="freepik--shadow--inject-61_00000074416322264555684340000016621486707115944374_" class="st1" d="M521.4 366.4l-60.5-34.9c-2.1-1.2-2.1-3.2 0-4.4L578.8 259c2.4-1.2 5.2-1.2 7.6 0l60.5 35c2.1 1.2 2.1 3.2 0 4.4l-117.9 68c-2.3 1.3-5.2 1.3-7.6 0z"/></g><g id="freepik--Plant--inject-61"><g id="freepik--Plants--inject-61"><path class="st2" d="M864.3 298.5s-.7-11.2 3.2-20.8 10.5-16.2 17.4-18.1 13.8 3.6 7 9.4-19.3 12.7-22.4 30.5l-5.2-1z"/><path d="M864.3 298.5s-.7-11.2 3.2-20.8 10.5-16.2 17.4-18.1 13.8 3.6 7 9.4-19.3 12.7-22.4 30.5l-5.2-1z" opacity=".15"/><path class="st4" d="M865.8 295.3c-.3 0-.4-.2-.4-.4 4.1-19.6 16.9-29.8 23-32.4.2-.1.4 0 .5.2.1.2 0 .4-.2.5-6 2.6-18.5 12.6-22.6 31.9 0 0-.1.2-.3.2z"/><path class="st2" d="M899.9 285.6c-.3 1.5-1.7 2.5-3 3.3s-2.6 1.7-3.1 3.1c-1 2.9 2.2 6 1 8.8-.6 1.2-1.6 2-2.8 2.4-1 .4-2 .6-3.1.9-.5.1-1 .1-1.5.2-1.5 0-3 .4-4.2 1.3-1.8 1.5-2 4.3-2.8 6.5-1.1 2.7-3.3 4.7-6.1 5.6-2.3.8-5.8.9-6.6 0-.6-.7.3-3.3.2-4.2-.4-2.3-.5-4.7-.4-7.1.1-1.1 0-2.2-.2-3.2-.2-1.2-.5-2.4-.7-3.6s-.7-2.2-.5-3.6c.3-1.3.7-2.6 1.4-3.8.6-1.2 1.2-2.4 1.8-3.5.7-1.4 1.5-2.7 2.5-3.9 1.8-2 4.4-3.2 7.1-3.3 2.2 0 4.6.8 6.8.2 2.2-.5 4.2-1.5 6.4-1.8 2.4-.4 4.8.4 6.6 2 .9 1 1.4 2.4 1.2 3.7z"/><path class="st4" d="M868.6 311.6c-.2 0-.3-.2-.3-.3 1.5-21.2 22.2-28.2 27.3-28.8.2 0 .3.2.3.3 0 .2-.1.3-.3.3-4.9.6-25.2 7.4-26.7 28.2 0 .1-.1.3-.3.3z"/><path class="st4" d="M890.3 296.8c-.1 0-.1 0-.2-.1-4.6-2.7-10.2-3.2-15.3-1.3-.2.1-.4 0-.4-.2-.1-.2 0-.4.2-.4 5.2-1.9 11.1-1.4 15.9 1.4.2.1.2.3.1.5-.1.1-.2.1-.3.1z"/></g></g><g id="freepik--Gears--inject-61"><g id="freepik--gears--inject-61"><path class="st2" d="M564.7 384.3v14c0 .5.4 1 .9 1l7.3.5V410c0 .2.1.4.3.5l7.8 4.5c.3.2.7.2 1 .2.3 0 .5 0 .7-.1l7.8-3.6c.6-.2 1.2-.3 1.8-.1 2 .6 4 1.1 6 1.4.6.1 1 .5 1.1 1.1l1 5.1c.1.3.2.5.4.7.2.2.5.3.7.3h11.3c.2 0 .5-.1.6-.2.1 0 .1-.1.1-.1s.1-.1.2-.1v-.1c.1-.1.2-.2.2-.3l1-5.1c.1-.6.6-1 1.1-1.1 2-.3 4-.8 6-1.4.6-.2 1.2-.1 1.8.1l7.8 3.6c.2 0 .3.1.5.1h.5c.3 0 .5-.1.7-.2l7.7-4.4c.1-.1.2-.1.3-.3 0-.1.1-.1.1-.2V400l7.1-.5h.1c.1 0 .1-.1.2-.1.2 0 .3-.1.5-.2.1-.1.1-.2.2-.4 0-.1.1-.2.1-.3v-18.7c0-.5-.4-1-1-1l-7.3-.5v-10.4c0-.2-.1-.4-.4-.5l-7.7-4.4c-.5-.3-1.1-.3-1.7-.1l-7.8 3.6c-.6.2-1.2.3-1.8.1-2-.6-4-1.1-6-1.4-.6-.1-1-.5-1.1-1.1l-1-5.1c-.1-.5-.6-.9-1.1-.9h-11.3c-.5 0-1 .4-1.1.9l-1 5.1c-.1.5-.6 1-1.1 1.1-2 .3-4 .8-6 1.4-.6.1-1.2.1-1.8-.1l-7.8-3.6c-.6-.2-1.2-.2-1.7.1l-7.7 4.4c-.2.1-.4.3-.4.6v10.2l-7.3.5c-.6 0-1 .4-1 1v4.6c.2-.1.2-.1.2 0zm29.5 3.7c7.2-4.1 18.8-4.1 25.9 0 .5.3 1 .6 1.5 1-.5.4-1 .7-1.5 1-7.2 4.1-18.8 4.1-25.9 0-.5-.3-1-.6-1.5-1 .4-.4.9-.7 1.5-1z"/><path class="st5" d="M564.7 384.3v14c0 .6.4 1 1 1l7.3.5V410c0 .2.2.4.4.5l7.7 4.5c.3.2.7.2 1 .2.2 0 .5 0 .7-.1l7.8-3.6c.2-.1.5-.2.7-.2.3 0 .7 0 1 .1 2 .6 4 1.1 6 1.4.2 0 .3.1.5.2.3.2.6.5.7.8l1 5.1c.1.3.2.5.4.7.2.2.5.3.7.3h11.5c.3-.1.6-.2.7-.5v-.1c.1-.1.2-.2.2-.3l1-5.1c.1-.3.2-.5.5-.7.2-.2.4-.3.7-.4 2-.3 4-.8 6-1.4.4-.1.8-.1 1.2-.1.2 0 .4.1.6.1l7.8 3.6c.2 0 .3.1.5.1.4.1.8 0 1.2-.2l7.7-4.4c.1 0 .1-.1.2-.1s.1-.1.1-.1c0-.1.1-.1.1-.2v-10.2l1.3-.1 5.8-.4h.1c.5 0 1-.5 1-1v-13c0 .5-.4 1-1 1l-10.2.6c-.6.1-1.1.4-1.4.9-.6 1.1-1.3 2.1-2.2 3-.3.3-.3.8 0 1.1l.1.1 6.1 4.4c.3.2.4.5.2.8-.1.1-.1.2-.2.2l-7.7 4.5c-.5.3-1.1.3-1.7.1l-7.8-3.6c-.6-.2-1.2-.3-1.8-.1-2 .6-4 1.1-6 1.4-.6.1-1 .5-1.1 1.1l-1 5.1c-.1.5-.6.9-1.1.9h-11.3c-.5 0-1-.4-1.1-.9l-1-5.1c-.1-.5-.6-1-1.1-1.1-2-.3-4.1-.8-6-1.4-.6-.2-1.2-.1-1.8.1l-7.8 3.6c-.5.2-1.1.2-1.6-.1l-7.7-4.4c-.3-.1-.4-.5-.2-.8 0-.1.1-.2.2-.2l6.1-4.4c.4-.3.5-.8.2-1.1l-.1-.1c-.8-.9-1.6-1.9-2.2-3-.3-.5-.8-.8-1.4-.9l-10.2-.6c-.6 0-1-.4-1-1l-.3-1.2zM572.9 367.9v10.2l3-.2c.6-.1 1.1-.4 1.4-.9.6-1.1 1.3-2.1 2.2-3 .3-.3.3-.8 0-1.2l-.1-.1-6.1-4.4c-.2-.1-.3-.2-.4-.4z"/><path class="st6" d="M592.7 388.9l.7-.5h.1c.2-.2.5-.3.8-.5 7.2-4.1 18.8-4.1 25.9 0l.7.4c.3.2.6.4.8.5 5.6-4.2 5.1-10.2-1.5-14-7.2-4.1-18.8-4.1-25.9 0-6.8 3.9-7.3 10-1.6 14.1z"/><path class="st5" d="M634.8 374c.8.9 1.6 1.9 2.2 3 .3.5.8.8 1.4.9l2.9.2v-10.3c0 .2-.1.4-.3.5l-6.1 4.4c-.4.2-.5.7-.2 1.1 0 .1.1.1.1.2z"/><path class="st2" d="M631.6 362.8l-7.8 3.6c-.6.2-1.2.3-1.8.1-2-.6-4-1.1-6-1.4-.6-.1-1-.5-1.1-1.1l-1-5.1c-.1-.5-.6-.9-1.1-.9h-11.3c-.5 0-1 .4-1.1.9l-1 5.1c-.1.5-.6 1-1.1 1.1-2 .3-4 .8-6 1.4-.6.1-1.2.1-1.8-.1l-7.8-3.6c-.6-.2-1.2-.2-1.7.1l-7.7 4.4c-.3.1-.4.5-.2.8 0 .1.1.2.2.2l6.1 4.4c.4.3.5.8.2 1.1l-.1.1c-.8.9-1.6 1.9-2.2 3-.3.5-.8.8-1.4.9l-10.2.6c-.6 0-1 .4-1 1v5.7c0 .6.4 1 1 1l10.2.6c.6.1 1.1.4 1.4.9.6 1.1 1.3 2.1 2.2 3 .3.3.3.8 0 1.2l-.1.1-6.1 4.4c-.3.2-.3.5-.2.8.1.1.1.2.2.2l7.7 4.6c.5.3 1.1.3 1.7.1l7.8-3.6c.6-.2 1.2-.3 1.8-.1 2 .6 4 1.1 6 1.4.6.1 1 .5 1.1 1.1l1 5.1c.1.5.6.9 1.1.9h11.3c.5 0 1-.4 1.1-.9l1-5.1c.1-.5.6-1 1.1-1.1 2-.3 4-.8 6-1.4.6-.1 1.2-.1 1.8.1l7.8 3.6c.6.2 1.2.2 1.7-.1l7.7-4.4c.3-.1.4-.5.3-.8 0-.1-.1-.2-.2-.2l-6.1-4.4c-.4-.3-.5-.8-.2-1.1l.1-.1c.8-.9 1.6-1.9 2.2-3 .3-.5.8-.8 1.4-.9l10.2-.6c.5 0 1-.5.9-1v-5.7c0-.5-.4-1-.9-1l-10.2-.6c-.6-.1-1.1-.5-1.4-1-.6-1.1-1.3-2.1-2.2-3-.3-.3-.3-.8 0-1.1l.1-.1 6.1-4.4c.3-.2.4-.5.2-.8-.1-.1-.1-.2-.2-.2l-7.7-4.4c-.6-.5-1.2-.5-1.8-.3zm-11.5 12.1c7.2 4.1 7.2 10.8 0 15-7.2 4.2-18.8 4.1-25.9 0-7.2-4.1-7.2-10.8 0-15 7.1-4.1 18.7-4.1 25.9 0z"/><path class="st2" d="M641.3 397c0-.2-.1-.4-.3-.5l-3-2.2V387c.1-.1.3-.1.4-.1l10.2-.6c.5 0 1-.5.9-1v13c0 .5-.4 1-.9 1h-.1l-5.8.4-1.3.1-.1-2.8z"/><path class="st7" d="M641.3 397c0-.2-.1-.4-.3-.5l-3-2.2V387c.1-.1.3-.1.4-.1l10.2-.6c.5 0 1-.5.9-1v13c0 .5-.4 1-.9 1h-.1l-5.8.4-1.3.1-.1-2.8z"/><path class="st2" d="M623.2 398.3c.2 0 .4.1.6.2l7.8 3.6c.3.1.7.2 1 .1v13h-.5c-.2 0-.3 0-.5-.1l-7.8-3.6c-.2-.1-.4-.1-.6-.1v-13.1z"/><path class="st7" d="M623.2 398.3c.2 0 .4.1.6.2l7.8 3.6c.3.1.7.2 1 .1v13h-.5c-.2 0-.3 0-.5-.1l-7.8-3.6c-.2-.1-.4-.1-.6-.1v-13.1z"/><path class="st2" d="M613.8 406.3c.1-.1.1-.2.2-.4l1-5.1c0-.1.1-.3.2-.4v13c-.1.1-.1.2-.2.4l-1 5.1c0 .1-.1.2-.2.2v-12.8z"/><path class="st7" d="M613.8 406.3c.1-.1.1-.2.2-.4l1-5.1c0-.1.1-.3.2-.4v13c-.1.1-.1.2-.2.4l-1 5.1c0 .1-.1.2-.2.2v-12.8z"/><path class="st8" d="M599.2 400.5c.1.1.1.2.2.4l1 5.1c0 .1.1.3.2.4v13c-.1-.1-.1-.2-.2-.4l-1-5.1c0-.1-.1-.2-.2-.4v-13zM581.7 402.1c.3 0 .7 0 1-.1l7.8-3.6c.2-.1.4-.1.6-.2v13c-.2 0-.4.1-.6.2l-7.8 3.6c-.2.1-.5.1-.7.1h-.3v-13zM565.6 386.3l10.2.6c.1 0 .3 0 .4.1v7.2l-3.1 2.2c-.2.1-.3.3-.3.5v2.8l-7.3-.5c-.6 0-1-.4-1-1v-14-.2 1.1c.1.7.6 1.2 1.1 1.2z"/><path class="st2" d="M697.4 345.2v-.2-9.2c0-.2-.1-.3-.2-.4l-2.9-4c-.3-.4-.7-.6-1.2-.5l-7.5 1.3c-.5 0-1-.1-1.4-.4l-1.5-.9v-6c0-.2-.2-.5-.6-.6l-7.6-1.8c-.4-.1-.9 0-1.2.2l-3.7 3.8c-.3.3-.8.4-1.2.4-1.7-.1-3.3-.1-5 0-.5 0-1-.2-1.3-.6l-3.3-3.4c-.3-.4-.8-.5-1.3-.5l-7.9 1.9c-.2.1-.4.3-.4.5v5.9c-.6.4-1.2.7-1.8 1.1-.4.2-.9.3-1.3.2l-7.3-1.2c-.4-.1-.8 0-1.1.3l-3.2 4.4c0 .1-.1.1-.1.2v11.4c0 .1 0 .1.1.2v9.2c0 .2.1.3.2.5l2.9 4c.3.4.7.6 1.2.5l7.5-1.3c.5 0 1 .1 1.4.4.5.3 1 .7 1.5.9v6c0 .2.2.5.6.6l7.6 1.8c.4.1.9 0 1.2-.2l3.6-3.8c.3-.3.8-.4 1.2-.4 1.7.1 3.3.1 5 0 .5 0 1 .2 1.3.6l3.3 3.4c.3.3.8.5 1.3.5l7.9-1.9c.2 0 .4-.2.4-.4v-6c.6-.3 1.2-.7 1.8-1.1.4-.2.9-.3 1.3-.2l7.2 1.2c.4.1.9 0 1.2-.3l3.1-4.4c0-.1.1-.1.1-.2.1-.2.1-11 .1-11.5zm-42.4.3c.3-.2.7-.5 1.1-.7 5.4-3.1 14.3-3.1 19.7 0 .4.2.8.5 1.1.7-.4.3-.8.5-1.2.8-3.9 2.2-9.8 3-15.1 1.7-1.6-.4-3.1-.9-4.5-1.7-.3-.3-.7-.6-1.1-.8z"/><path class="st5" d="M697.4 345.2v-.2-9.2c0-.2-.1-.3-.2-.4l-2.9-4c-.3-.4-.7-.6-1.2-.5l-7.5 1.3c-.5 0-1-.1-1.4-.4l-1.5-.9v-6c0-.2-.2-.5-.6-.6l-7.6-1.8c-.4-.1-.9 0-1.2.2l-3.7 3.8c-.3.3-.8.4-1.2.4-1.7-.1-3.3-.1-5 0-.5 0-1-.2-1.3-.6l-3.3-3.4c-.3-.4-.8-.5-1.3-.5l-7.9 1.9c-.2.1-.4.3-.4.5v5.9c-.6.4-1.2.7-1.8 1.1-.4.2-.9.3-1.3.2l-7.3-1.2c-.4-.1-.8 0-1.1.3l-3.2 4.4c0 .1-.1.1-.1.2v11.4c0 .1 0 .1.1.2v9.2c0 .2.1.3.2.5l2.9 4c.3.4.7.6 1.2.5l7.5-1.3c.5 0 1 .1 1.4.4.5.3 1 .7 1.5.9v6c0 .2.2.5.6.6l7.6 1.8c.4.1.9 0 1.2-.2l3.6-3.8c.3-.3.8-.4 1.2-.4 1.7.1 3.3.1 5 0 .5 0 1 .2 1.3.6l3.3 3.4c.3.3.8.5 1.3.5l7.9-1.9c.2 0 .4-.2.4-.4v-6c.6-.3 1.2-.7 1.8-1.1.4-.2.9-.3 1.3-.2l7.2 1.2c.4.1.9 0 1.2-.3l3.1-4.4c0-.1.1-.1.1-.2.1-.2.1-11 .1-11.5zm-42.4.3c.3-.2.7-.5 1.1-.7 5.4-3.1 14.3-3.1 19.7 0 .4.2.8.5 1.1.7-.4.3-.8.5-1.2.8-3.9 2.2-9.8 3-15.1 1.7-1.6-.4-3.1-.9-4.5-1.7-.3-.3-.7-.6-1.1-.8z"/><path class="st2" d="M634.5 335.8c0-.1 0-.1 0 0 0-.1 0-.1 0 0z"/><path class="st5" d="M651 329.8l-1.8.9v-5.9c0 .1 0 .2.1.3l1.9 3.8c.2.3.1.7-.2.9z"/><path class="st8" d="M642.3 339.2c-.1.8-.1 1.7 0 2.5.1.4-.1.7-.5.9l-6.9 2.2c-.2.1-.3.2-.3.4v2.2s0-.1-.1-.2v-11.5c0 .2.2.4.5.5l6.5 2.1c.5.1.8.5.8.9zM646.6 348.9v11.5h-.3l-7.5 1.3h-.4v-11.5h.4l7.5-1.3h.3z"/><path class="st9" d="M649.2 361.7l-1.5-.9c-.4-.2-.8-.4-1.2-.4v-11.5c.4 0 .8.2 1.2.4 1 .7 2 1.2 3 1.8.5.2.7.6.5.9l-2.1 4.1v.2c.1.2.1 5.4.1 5.4z"/><path class="st8" d="M662.8 354.3v11.5c-.2.1-.3.1-.5.3l-3.6 3.8c-.2.2-.4.2-.7.3v-11.5c.2 0 .5-.1.7-.2l3.6-3.9c.2-.2.3-.3.5-.3z"/><path class="st9" d="M669 354.2v11.5c-.2-.1-.3-.1-.5-.1-1.7.1-3.3.1-5 0-.3 0-.5 0-.7.1v-11.5c.2-.1.5-.1.8-.1 1.7.1 3.3.1 5 0 .1.1.3.1.4.1z"/><path class="st8" d="M673.8 358.6V370c-.3-.1-.5-.2-.7-.4l-3.3-3.4c-.2-.2-.5-.4-.9-.5v-11.4c.3.1.6.3.9.5l3.3 3.4c.2.2.4.3.7.4z"/><path class="st2" d="M682.7 356.3V367.8c0 .2-.2.4-.4.4l-7.9 1.9h-.5v-11.5h.6l7.9-1.9c.1 0 .2-.2.3-.4z"/><path class="st7" d="M682.7 356.3V367.8c0 .2-.2.4-.4.4l-7.9 1.9h-.5v-11.5h.6l7.9-1.9c.1 0 .2-.2.3-.4z"/><path class="st8" d="M685.2 348.9v11.5c-.3 0-.6.1-.8.2-.6.4-1.2.8-1.8 1.1v-5.5c0-.1 0-.2-.1-.3l-1.9-3.8c-.2-.3-.1-.8.2-1 1.2-.6 2.4-1.2 3.5-2 .4-.1.7-.2.9-.2z"/><path class="st2" d="M697.4 345.2v11.4c0 .1 0 .1-.1.2l-3.2 4.4c-.1.2-.3.3-.5.3v-11.4c.2 0 .4-.1.6-.3l3.2-4.4v-.2z"/><path class="st2" d="M697.4 345.2v11.4c0 .1 0 .1-.1.2l-3.2 4.4c-.1.2-.3.3-.5.3v-11.4c.2 0 .4-.1.6-.3l3.2-4.4v-.2z"/><path class="st7" d="M697.4 345.2v11.4c0 .1 0 .1-.1.2l-3.2 4.4c-.1.2-.3.3-.5.3v-11.4c.2 0 .4-.1.6-.3l3.2-4.4v-.2z"/><path class="st2" d="M649.3 324.8c0 .1 0 .2.1.3l1.9 3.8c.2.3.1.7-.2 1h-.1l-1.8.9c-.6.3-1.2.7-1.8 1.1-.4.2-.9.3-1.3.2l-7.3-1.2c-.4-.1-.8 0-1.1.3l-3.2 4.4c0 .1-.1.1-.1.2 0 .2.2.4.5.5l6.5 2.1c.4.1.7.4.7.9-.1.8-.1 1.7 0 2.5.1.4-.1.7-.5.9l-6.9 2.2c-.2.1-.3.2-.3.4s.1.3.2.5l2.9 4c.3.4.7.6 1.2.5l7.5-1.3c.5 0 1 .1 1.4.4 1 .7 2 1.2 3 1.8.4.2.7.6.5.9l-2.1 4.1c-.1.3.1.6.6.7l7.6 1.8c.4.1.9 0 1.2-.2l3.6-3.8c.3-.3.8-.4 1.2-.4 1.7.1 3.3.1 5 0 .5 0 1 .2 1.3.6l3.3 3.4c.3.3.8.5 1.3.5l7.9-1.9c.3-.1.5-.4.4-.7 0-.1 0-.1-.1-.2l-1.9-3.8c-.2-.3-.1-.7.2-.9 1.2-.6 2.4-1.2 3.5-2 .4-.2.9-.3 1.3-.2l7.3 1.2c.4.1.8 0 1.2-.3l3.2-4.4c0-.1.1-.1.1-.2v-.2c-.1-.2-.3-.3-.5-.3l-6.5-2c-.5-.1-.8-.5-.7-.9.1-.8.1-1.7 0-2.5-.1-.4.1-.7.5-.9l6.9-2.2c.2-.1.3-.2.3-.4s-.1-.3-.2-.4l-2.9-4c-.3-.4-.7-.6-1.2-.5l-7.5 1.3c-.5 0-1-.1-1.4-.4l-1.5-.9c-.5-.3-1-.5-1.6-.8-.5-.3-.7-.6-.5-.9l2.1-4.1v-.2c0-.2-.2-.5-.6-.6l-7.6-1.8c-.4-.1-.9 0-1.2.2l-3.7 3.8c-.3.3-.8.4-1.2.4-1.7-.1-3.3-.1-5 0-.5 0-1-.2-1.3-.6l-3.3-3.4c-.3-.4-.8-.5-1.3-.5l-7.9 1.9c0-.1-.1 0-.1.3zm28.8 11.7l.2.2.1.1c.1.1.2.2.3.4.1.1.2.3.3.4.1.1.1.2.2.3l.1.1c1 1.8.9 4-.4 5.6-.5.7-1.2 1.3-1.9 1.9-.4.3-.8.5-1.2.8-3.9 2.2-9.8 3-15.1 1.7-1.6-.4-3.1-.9-4.5-1.7-.4-.2-.8-.5-1.2-.8-1-.7-1.8-1.6-2.4-2.6l-.1-.1c0-.1-.1-.1-.1-.2s-.1-.1-.1-.2c-.6-1.6-.4-3.5.7-4.9 3-4.1 11.1-6 18.2-4.4 2.6.5 5 1.7 6.9 3.4z"/></g></g><g id="freepik--Device--inject-61"><g id="freepik--device--inject-61_00000119796571395250691890000010828659053935545768_"><g id="freepik--device--inject-61"><path class="st2" d="M620.6 49.6l-92.7 53.5c-7 4.1-12.8 14-12.8 22.2v223.9c0 3.7 2.3 8 5.1 9.6 2.8 1.6 7.6 1.4 10.8-.4l99.8-57.6c3.4-2.2 5.5-5.9 5.8-10v-232c0-3.7-2.3-8-5.1-9.6-2.9-1.6-7.7-1.4-10.9.4z"/><path class="st8" d="M529.5 359.1c-3.1 1.2-7 1.1-9.4-.2-2.8-1.6-5.1-5.9-5.1-9.6v-224c.2-4.5 1.5-8.8 3.8-12.6l7.9 4.6c-2.2 2.9-3.5 6.5-3.6 10.1v226.5c0 4.4 2.8 6.5 6.4 5.2z"/><path class="st2" d="M531.6 112.7c-4.7 2.7-8.5 9.3-8.5 14.7v226.5c0 5 3.5 7 7.8 4.5l99.8-57.6c3.4-2.2 5.5-5.9 5.8-10v-232c0-3.7-2.6-5.2-5.8-3.3l-99.1 57.2z"/><path class="st2" d="M530.9 124.8c-3.4 2.2-5.5 5.9-5.8 10v208.6c0 3.7 2.6 5.2 5.8 3.3l98.8-57c3.4-2.2 5.5-5.9 5.8-10V71c0-3.7-2.6-5.2-5.8-3.3l-98.8 57.1z"/><path class="st10" d="M572.5 93l16.6-9.6c1-.6 1.8-.2 1.8.9-.1 1.2-.8 2.3-1.8 3l-16.6 9.6c-1 .6-1.8.2-1.8-.9.1-1.2.8-2.3 1.8-3zM601.1 76.5c.9-.5 1.7-.1 1.7 1-.1 1.2-.7 2.3-1.7 2.9-.9.5-1.7.1-1.7-1 0-1.2.7-2.3 1.7-2.9zM607.8 72.6c.9-.5 1.7-.1 1.7 1-.1 1.2-.7 2.3-1.7 2.9-.9.5-1.7.1-1.7-1 .1-1.2.7-2.3 1.7-2.9zM553.8 103.7c.9-.5 1.7-.1 1.7 1-.1 1.2-.7 2.3-1.7 2.9-.9.5-1.7.1-1.7-1 .1-1.1.8-2.2 1.7-2.9zM560.6 99.8c.9-.5 1.7-.1 1.7 1-.1 1.2-.7 2.3-1.7 2.9-.9.5-1.7.1-1.7-1 .1-1.1.7-2.2 1.7-2.9z"/><path class="st2" d="M521.3 151.2c0-1.2-.7-2.4-1.7-3.1-.3-.2-.8-.3-1.2-.1l-1.3.7c-.4.3-.6.7-.5 1.2v27c0 1.2.7 2.4 1.7 3.1.3.2.7.3 1.1.1l1.3-.7c.4-.3.6-.7.5-1.2v-27z"/><path class="st6" d="M521.3 151.2c0-1.2-.7-2.4-1.7-3.1-.3-.2-.8-.3-1.2-.1l-1.3.7c-.4.3-.6.7-.5 1.2v27c0 1.2.7 2.4 1.7 3.1.3.2.7.3 1.1.1l1.3-.7c.4-.3.6-.7.5-1.2v-27z"/><path class="st2" d="M520 152v27c0 1.1-.8 1.6-1.7 1.1-1-.7-1.7-1.9-1.7-3.1v-27c0-1.1.8-1.6 1.7-1.1 1.1.7 1.7 1.9 1.7 3.1zM521.3 187.4c-.1-1.2-.7-2.3-1.7-3-.3-.2-.8-.3-1.2-.1l-1.3.7c-.4.3-.6.7-.5 1.2v12.7c0 1.2.7 2.4 1.7 3.1.3.2.7.3 1.1.1l1.3-.7c.4-.3.6-.7.5-1.2v-12.8z"/><path class="st6" d="M521.3 187.4c-.1-1.2-.7-2.3-1.7-3-.3-.2-.8-.3-1.2-.1l-1.3.7c-.4.3-.6.7-.5 1.2v12.7c0 1.2.7 2.4 1.7 3.1.3.2.7.3 1.1.1l1.3-.7c.4-.3.6-.7.5-1.2v-12.8z"/><path class="st2" d="M520 188.1v12.7c0 1.1-.8 1.6-1.7 1.1-1-.7-1.6-1.8-1.7-3.1v-12.7c0-1.1.8-1.6 1.7-1.1 1 .7 1.7 1.9 1.7 3.1z"/><path class="st11" d="M636.5 58.3c-.2-3.3-2.7-4.6-5.7-2.8l-99.1 57.2c-1.9 1.2-3.6 2.8-4.9 4.6l-7.9-4.6c2.2-3.9 5.3-7.2 9-9.6l92.7-53.6c3.2-1.8 8-2 10.8-.4 2.8 1.7 4.9 5.6 5.1 9.2z"/><path class="st8" d="M634.2 284.5c-1 2.1-2.5 3.9-4.5 5.2l-98.8 57c-3.2 1.8-5.8.3-5.8-3.3v-5l95.4-55.1c1.7-1.1 3.1-2.5 4-4.3l9.7 5.5z"/><path class="st9" d="M635.5 71v208.7c0 1.7-.5 3.3-1.2 4.8l-9.6-5.5c1-1.7 1.6-3.7 1.7-5.7V69.7l3.4-2c3.1-1.8 5.7-.3 5.7 3.3z"/><path class="st10" d="M626.4 273.3V69.7L531 124.8c-3.4 2.2-5.5 5.9-5.8 10v203.6l95.4-55.1c3.4-2.3 5.5-6 5.8-10z"/></g><g id="freepik--Circuits--inject-61"><path class="st2" d="M551.3 139.7c.1-.1.2-.2.2-.4v-23.1l-.8.5v22.4l-6.4 3.7c-.1.1-.2.2-.2.4v11.4c0 .1.1.3.2.4l6.4 3.7v17.7c-.5.5-.7 1.1-.8 1.7 0 .8.5 1.1 1.2.7.7-.5 1.1-1.2 1.2-2.1 0-.6-.3-.9-.8-.8v-17.5c0-.1-.1-.3-.2-.4l-6.4-3.7v-10.9l6.4-3.7zM537.5 124.4v34c0 .1.1.3.2.4l6.4 3.7v10.1c-.5.5-.7 1.1-.8 1.7 0 .8.5 1.1 1.2.7.7-.5 1.1-1.2 1.2-2.1 0-.6-.3-.9-.8-.8v-9.9c0-.1-.1-.3-.2-.4l-6.4-3.7v-34.2l-.8.5zM538.3 329.3v-41.6c0-.1-.1-.3-.2-.4l-6.4-3.7v-109c.5-.5.7-1.1.8-1.7 0-.8-.5-1.1-1.2-.7-.7.5-1.1 1.2-1.2 2.1 0 .6.3.9.8.8v108.8c0 .1.1.3.2.4l6.4 3.7v41.8l.8-.5zM530.9 128.2v34c0 .1.1.3.2.4l6.4 3.7V184c-.5.5-.8 1.1-.8 1.7 0 .8.5 1.1 1.2.7.7-.5 1.1-1.2 1.2-2.1 0-.6-.3-.9-.8-.8V166c0-.1-.1-.3-.2-.4l-6.4-3.7v-34.3l-.8.6zM594.3 297v-15c0-.1-.1-.3-.2-.4l-6.4-3.6v-14c.5-.5.7-1.1.8-1.7 0-.8-.5-1.1-1.2-.7-.7.5-1.1 1.2-1.2 2 0 .6.3.9.8.8v13.7c0 .1.1.3.2.4l6.4 3.7v15.2l.8-.4zM531.7 333.1v-21.5c.5-.5.7-1.1.8-1.7 0-.8-.5-1.1-1.2-.7-.7.5-1.1 1.2-1.2 2.1 0 .6.3.9.8.8v21.5l.8-.5z"/><path class="st2" d="M617.2 226.5l-6.6-3.8c-.1-.1-.3-.1-.4 0l-2.7 1.6v-25.8l6.5-11.3c0-.1.1-.1.1-.2v-19c0-.1-.1-.3-.2-.4l-6.6-3.8c-.1-.1-.3-.1-.4 0l-2.7 1.6v-22.1c0-.1-.1-.3-.2-.4l-6.4-3.7v-11l9.5-5.5 6.2 3.6v30.5c-.5.5-.7 1.1-.8 1.7 0 .8.5 1.1 1.2.7.7-.4 1.1-1.2 1.2-2 0-.6-.3-.9-.8-.8V126c0-.1-.1-.3-.2-.4l-6.6-3.8c-.1-.1-.3-.1-.4 0l-9.3 5.4V89.7l-.8.5v37.6l-2.9 1.7-6.3-3.6V95.4l-.8.5V126c0 .1.1.3.2.3l6.7 3.8c.1.1.3.1.4 0l2.7-1.6v10.8c0 .1.1.3.2.4l6.4 3.7v22.3l-22.2 12.9v-37.3c0-.1-.1-.3-.2-.4l-9.7-5.6v-30.4l-.8.5v30.2c0 .1.1.3.2.4l9.7 5.6v37.6l-16.1 9.3-6.2-3.6v-72.3l-.8.5v72c0 .1.1.3.2.4l6.6 3.8c.1.1.3.1.4 0l15.9-9.1v13.5c-.5.5-.7 1.1-.8 1.7 0 .8.5 1.1 1.2.7.7-.5 1.1-1.2 1.2-2.1 0-.6-.3-.9-.8-.8v-13.5l22.2-12.8v21.8c-.5.5-.7 1.1-.8 1.7 0 .8.5 1.1 1.2.7.7-.4 1.1-1.2 1.2-2 0-.6-.3-.9-.8-.8v-21.9l2.9-1.7 6.2 3.6V187l-6.5 11.3V224.9l-9.1 5.2v-47.7c.5-.5.7-1.1.8-1.7 0-.8-.5-1.1-1.2-.7-.7.5-1.1 1.2-1.2 2.1 0 .6.3.9.8.8v47.7l-9.1 5.2v-32.5c.5-.5.7-1.1.8-1.7 0-.8-.5-1.1-1.2-.7-.7.5-1.1 1.2-1.2 2.1 0 .6.3.9.8.8v32.5l-15.7 9v-6.7l6.4-3.7c.1-.1.2-.2.2-.4v-18c.5-.5.7-1.1.8-1.7 0-.8-.5-1.1-1.2-.7-.7.5-1.1 1.2-1.2 2.1 0 .6.3.9.8.8v17.3l-6.4 3.7c-.1.1-.2.2-.2.4v7.4l-5.8 3.4v-51.6c.5-.5.7-1.1.8-1.7 0-.8-.5-1.1-1.2-.7-.7.5-1.1 1.2-1.2 2.1 0 .6.3.9.8.8v51.5l-2.9 1.7-6.2-3.6v-22.6c0-.1-.1-.3-.2-.4l-6.4-3.7v-5.2c.5-.5.7-1.1.8-1.7 0-.8-.5-1.1-1.2-.7-.7.4-1.1 1.2-1.2 2 0 .6.3.9.8.8v4.9c0 .1.1.3.2.4l6.4 3.7v22.6c0 .1.1.3.2.4l6.6 3.8c.1.1.3.1.4 0l2.7-1.6v18.3c0 .1.1.3.2.4l6.4 3.7v38l.8-.5v-37.8c0-.1-.1-.3-.2-.4l-6.4-3.7v-18.5l5.8-3.3v10.7c0 .1.1.3.2.4l6.4 3.7V307l.8-.5V261c0-.1-.1-.3-.2-.4l-6.4-3.7v-11l15.7-9v18.3c0 .1.1.3.2.4l13 7.5v30.4l.8-.5v-30c0-.1-.1-.3-.2-.4l-13-7.5v-18.6l9.1-5.2v18.3c0 .1.1.3.2.4l9.7 5.6v34.2l.8-.5v-34c0-.1-.1-.3-.2-.4l-9.7-5.6v-18.5l9.1-5.2v17.3c-.5.5-.7 1.1-.8 1.7 0 .8.5 1.1 1.2.7.7-.4 1.1-1.2 1.2-2 0-.6-.3-.9-.8-.8v-17.3l2.9-1.7 6.2 3.6v57l.8-.5v-56.8l-.3-.3zM544.9 325.5v-41.6c0-.1-.1-.3-.2-.4l-6.4-3.7v-37.1c.5-.5.7-1.1.8-1.7 0-.8-.5-1.1-1.2-.7-.7.5-1.1 1.2-1.2 2.1 0 .6.3.9.8.8v36.9c0 .1.1.3.2.4l6.4 3.7V326l.8-.5z"/><path class="st2" d="M584.4 302.7v-10.1c.5-.5.7-1.1.8-1.7 0-.8-.5-1.1-1.2-.7-.7.5-1.1 1.2-1.2 2 0 .6.3.9.8.8v10.1l.8-.4zM603.4 86.3v15c0 .1.1.3.2.3l6.4 3.7v10.1c-.5.5-.7 1.1-.8 1.7 0 .8.5 1.1 1.2.7.7-.4 1.1-1.2 1.2-2 0-.6-.3-.9-.8-.8v-9.9c0-.1-.1-.3-.2-.3l-6.4-3.7V85.9l-.8.4zM616.6 78.7v10.1c-.5.5-.7 1.1-.8 1.7 0 .8.5 1.1 1.2.7.7-.4 1.1-1.2 1.2-2 0-.6-.3-.9-.8-.8V78.2l-.8.5zM610 82.5v15c0 .1.1.3.2.3l6.4 3.7v13.9c-.5.5-.7 1.1-.8 1.7 0 .8.5 1.1 1.2.7.7-.4 1.1-1.2 1.2-2 0-.6-.3-.9-.8-.8v-13.7c0-.1-.1-.3-.2-.3l-6.4-3.7V82.1l-.8.4zM623.6 218.8l-6.2-3.6v-17.7c.5-.5.7-1.1.8-1.7 0-.8-.5-1.1-1.2-.7-.7.5-1.1 1.2-1.2 2.1 0 .6.3.9.8.8v17.5c0 .1.1.3.2.4l6.8 3.9v-1zM561.4 316v-34c0-.1-.1-.3-.2-.4l-13-7.5v-41.6c0-.1-.1-.3-.2-.4l-9.7-5.6v-29.1c.5-.5.7-1.1.8-1.7 0-.8-.5-1.1-1.2-.7-.7.5-1.1 1.2-1.2 2.1 0 .6.3.9.8.8v28.9c0 .1.1.3.2.4l9.7 5.6v41.6c0 .1.1.3.2.4l13 7.5v34.2l.8-.5zM554.8 319.8v-11.2c0-.1-.1-.3-.2-.4l-3.1-1.8v-13.9c.5-.5.7-1.1.8-1.7 0-.8-.5-1.1-1.2-.7-.7.5-1.1 1.2-1.2 2 0 .6.3.9.8.8v13.7c0 .1.1.3.2.4l3.1 1.8v11.4l.8-.4zM571.1 142.8l-6.4-3.7v-30.4l-.8.5v30.2c0 .1.1.3.2.4l6.4 3.7V165c-.5.5-.7 1.1-.8 1.7 0 .8.5 1.1 1.2.7.7-.5 1.1-1.2 1.2-2.1 0-.6-.3-.9-.8-.8v-21.3c0-.2-.1-.3-.2-.4zM590.8 139l-13-7.5v-30.4l-.8.5v30.2c0 .1.1.3.2.4l13 7.5v13.9c-.5.5-.7 1.1-.8 1.7 0 .8.5 1.1 1.2.7.7-.5 1.1-1.2 1.2-2.1 0-.6-.3-.9-.8-.8v-13.7c0-.2 0-.3-.2-.4z"/><g id="freepik--Chip--inject-61"><path class="st2" d="M546.1 158.2h-2.2v7c0 .6.5 1.1 1.1 1.1.6 0 1.1-.5 1.1-1.1v-7zM550.2 155.8H548v7c0 .6.5 1.1 1.1 1.1.6 0 1.1-.5 1.1-1.1v-7zM554.4 153.4h-2.2v7c0 .6.5 1.1 1.1 1.1.6 0 1.1-.5 1.1-1.1v-7zM558.5 151h-2.2v7c0 .6.5 1.1 1.1 1.1.6 0 1.1-.5 1.1-1.1v-7z"/><g class="st12"><path class="st4" d="M546.1 158.2h-2.2v7c0 .6.5 1.1 1.1 1.1.6 0 1.1-.5 1.1-1.1v-7zM550.2 155.8H548v7c0 .6.5 1.1 1.1 1.1.6 0 1.1-.5 1.1-1.1v-7zM554.4 153.4h-2.2v7c0 .6.5 1.1 1.1 1.1.6 0 1.1-.5 1.1-1.1v-7zM558.5 151h-2.2v7c0 .6.5 1.1 1.1 1.1.6 0 1.1-.5 1.1-1.1v-7z"/></g><path class="st2" d="M546.1 158.2h-2.3v5.9l2.3-1.2zM556.3 156.9l2.2-1.2V151h-2.2zM554.4 153.4h-2.2v5.9l2.2-1.2zM550.2 155.8H548v5.9l2.2-1.2zM559.7 134.6l-1.1-1.9 6-3.5c.5-.3 1.2-.1 1.5.4.3.5.1 1.2-.4 1.5l-6 3.5zM559.7 139.4l-1.1-1.9 6-3.5c.5-.3 1.2-.1 1.5.4.3.5.1 1.2-.4 1.5l-6 3.5zM559.7 144.2l-1.1-1.9 6-3.5c.5-.3 1.2-.1 1.5.4.3.5.1 1.2-.4 1.5l-6 3.5zM559.7 149l-1.1-1.9 6-3.5c.5-.3 1.2-.1 1.5.4.3.5.1 1.2-.4 1.5l-6 3.5z"/><g class="st12"><path class="st4" d="M559.7 134.6l-1.1-1.9 6-3.5c.5-.3 1.2-.1 1.5.4.3.5.1 1.2-.4 1.5l-6 3.5zM559.7 139.4l-1.1-1.9 6-3.5c.5-.3 1.2-.1 1.5.4.3.5.1 1.2-.4 1.5l-6 3.5zM559.7 144.2l-1.1-1.9 6-3.5c.5-.3 1.2-.1 1.5.4.3.5.1 1.2-.4 1.5l-6 3.5zM559.7 149l-1.1-1.9 6-3.5c.5-.3 1.2-.1 1.5.4.3.5.1 1.2-.4 1.5l-6 3.5z"/></g><path class="st2" d="M559.7 134.6l-1.1-1.9 5.1-3v2.5zM563.7 144.1v2.5l-4 2.4-1.1-1.9zM559.7 144.2l-1.1-1.9 5.1-3v2.6zM559.7 139.4l-1.1-1.9 5.1-3v2.6zM561.5 128.3c-.3-.1-.7-.1-.9.1l-18.1 10.5c-.4.2-.7.6-.9 1l-2.5-1.4c.2-.4.5-.7.9-1l17.3-10c.8-.4 1.8-.4 2.7 0l1.5.8z"/><path class="st5" d="M561.5 128.3c-.3-.1-.7-.1-.9.1l-18.1 10.5c-.4.2-.7.6-.9 1l-2.5-1.4c.2-.4.5-.7.9-1l17.3-10c.8-.4 1.8-.4 2.7 0l1.5.8z"/><path class="st2" d="M541.2 141.2v20.9c0 .9.6 1.2 1.3.8l18.1-10.5c.8-.5 1.3-1.4 1.3-2.3v-20.9c0-.9-.6-1.2-1.3-.8l-18.1 10.5c-.8.5-1.3 1.3-1.3 2.3z"/><path class="st2" d="M541.5 162.9l-1.5-.9c-.8-.5-1.3-1.4-1.3-2.3v-20c0-.5.1-.9.4-1.3l2.5 1.4c-.2.4-.4.9-.4 1.3V162c-.1.4.1.7.3.9z"/><path class="st8" d="M541.5 162.9l-1.5-.9c-.8-.5-1.3-1.4-1.3-2.3v-20c0-.5.1-.9.4-1.3l2.5 1.4c-.2.4-.4.9-.4 1.3V162c-.1.4.1.7.3.9z"/><path class="st0" d="M544.1 159.1c-.1 0-.2 0-.3-.1-.2-.2-.4-.4-.3-.7V142c0-.7.4-1.3.9-1.6l14.1-8.1c.3-.2.7-.2 1 .1.1.2.2.4.1.5v16.3c0 .7-.4 1.3-.9 1.6l-14.1 8.2c-.2.1-.3.1-.5.1zm.4-.3zm14.5-26.3c-.1 0-.2 0-.3.1l-14.1 8.1c-.4.3-.7.8-.8 1.3v16.3c0 .1 0 .3.2.4.1.1.3 0 .4-.1l14.1-8.1c.4-.3.7-.8.8-1.3v-16.3c0-.2-.1-.3-.2-.4h-.1z"/><path class="st0" d="M546.7 154.3h-.2c-.1-.1-.2-.2-.2-.4v-10.7c0-.3.2-.6.5-.8l9.3-5.4c.1-.1.3-.1.4 0 .1.1.2.2.2.4v10.8c0 .3-.2.6-.5.8l-9.3 5.3c0-.1-.1 0-.2 0zm9.6-17l-9.3 5.4c-.1.1-.2.3-.3.5V154h.1l9.3-5.4c.2-.1.2-.3.3-.4l-.1-10.9c0-.1 0-.1 0 0z"/><path class="st2" d="M546 129.1c0-.6-.5-1.1-1.1-1.1-.6 0-1.1.5-1.1 1.1v6.7c0 .2.1.4.3.4.5.2 1.1.2 1.5 0 .2-.1.3-.2.3-.4l.1-6.7zM550.1 126.7c-.1-.6-.6-1.1-1.2-1-.5.1-.9.5-1 1v6.7c0 .2.1.4.3.4.5.2 1.1.2 1.6 0 .2-.1.3-.3.3-.4v-6.7zM554.3 124.3c0-.6-.5-1.1-1.1-1.1-.6 0-1.1.5-1.1 1.1v6.7c0 .2.1.4.3.4.5.2 1.1.2 1.5 0 .2-.1.3-.3.3-.4l.1-6.7zM557.3 120.8c-.6 0-1.1.5-1.1 1.1v6.7c0 .2.1.4.3.4.5.2 1.1.2 1.6 0 .2-.1.3-.3.3-.4v-6.7c0-.6-.5-1.1-1.1-1.1zM534.5 148c-.5.3-1.2.1-1.5-.4-.3-.5-.1-1.2.4-1.5l5.8-3.3c.2-.1.4-.1.6 0 .5.3.7.8.8 1.4 0 .2-.1.4-.2.5l-5.9 3.3zM534.5 152.8c-.5.3-1.2.1-1.5-.4-.3-.5-.1-1.2.4-1.5l5.8-3.3c.2-.1.4-.1.6.1.5.3.8.8.8 1.4 0 .2-.1.4-.2.5l-5.9 3.2zM534.5 157.6c-.5.3-1.2.1-1.5-.4-.3-.5-.1-1.2.4-1.5l5.8-3.3c.2-.1.4-.1.6.1.5.3.8.8.8 1.4 0 .2-.1.4-.2.5l-5.9 3.2zM533 162c-.3-.5-.1-1.2.4-1.5l5.8-3.3c.2-.1.4-.1.5.1.5.3.8.8.8 1.4 0 .2-.1.4-.2.5l-5.8 3.3c-.5.2-1.2 0-1.5-.5z"/><g class="st12"><path class="st4" d="M546 129.1c0-.6-.5-1.1-1.1-1.1-.6 0-1.1.5-1.1 1.1v6.7c0 .2.1.4.3.4.5.2 1.1.2 1.5 0 .2-.1.3-.2.3-.4l.1-6.7zM550.1 126.7c-.1-.6-.6-1.1-1.2-1-.5.1-.9.5-1 1v6.7c0 .2.1.4.3.4.5.2 1.1.2 1.6 0 .2-.1.3-.3.3-.4v-6.7zM554.3 124.3c0-.6-.5-1.1-1.1-1.1-.6 0-1.1.5-1.1 1.1v6.7c0 .2.1.4.3.4.5.2 1.1.2 1.5 0 .2-.1.3-.3.3-.4l.1-6.7zM557.3 120.8c-.6 0-1.1.5-1.1 1.1v6.7c0 .2.1.4.3.4.5.2 1.1.2 1.6 0 .2-.1.3-.3.3-.4v-6.7c0-.6-.5-1.1-1.1-1.1zM534.5 148c-.5.3-1.2.1-1.5-.4-.3-.5-.1-1.2.4-1.5l5.8-3.3c.2-.1.4-.1.6 0 .5.3.7.8.8 1.4 0 .2-.1.4-.2.5l-5.9 3.3zM534.5 152.8c-.5.3-1.2.1-1.5-.4-.3-.5-.1-1.2.4-1.5l5.8-3.3c.2-.1.4-.1.6.1.5.3.8.8.8 1.4 0 .2-.1.4-.2.5l-5.9 3.2zM534.5 157.6c-.5.3-1.2.1-1.5-.4-.3-.5-.1-1.2.4-1.5l5.8-3.3c.2-.1.4-.1.6.1.5.3.8.8.8 1.4 0 .2-.1.4-.2.5l-5.9 3.2zM533 162c-.3-.5-.1-1.2.4-1.5l5.8-3.3c.2-.1.4-.1.5.1.5.3.8.8.8 1.4 0 .2-.1.4-.2.5l-5.8 3.3c-.5.2-1.2 0-1.5-.5z"/></g></g><path class="st2" d="M620.8 253.8c-.3-.1-.7-.1-1 .1l-81 46.2c-.4.2-.8.6-1 1l-2.6-1.5c.2-.4.6-.8 1-1l80.2-45.8c.9-.4 1.9-.4 2.8 0l1.6 1z"/><path class="st5" d="M620.8 253.8c-.3-.1-.7-.1-1 .1l-81 46.2c-.4.2-.8.6-1 1l-2.6-1.5c.2-.4.6-.8 1-1l80.2-45.8c.9-.4 1.9-.4 2.8 0l1.6 1z"/><path class="st2" d="M537.4 302.6v19.1c0 .9.6 1.2 1.4.8l81-46.2c.8-.5 1.3-1.4 1.4-2.4v-19.1c0-.9-.6-1.2-1.4-.8l-81 46.2c-.8.5-1.3 1.4-1.4 2.4z"/><path class="st2" d="M537.8 322.5l-1.6-.9c-.8-.5-1.3-1.4-1.4-2.4v-18.1c0-.5.2-1 .4-1.4l2.6 1.5c-.3.4-.4.9-.4 1.4v19.1c0 .3.2.6.4.8z"/><path class="st8" d="M537.8 322.5l-1.6-.9c-.8-.5-1.3-1.4-1.4-2.4v-18.1c0-.5.2-1 .4-1.4l2.6 1.5c-.2.4-.4.9-.4 1.4v19.1c0 .3.2.6.4.8z"/><path class="st0" d="M540.5 318.5c-.1 0-.2 0-.3-.1-.2-.2-.4-.4-.4-.7v-14.2c0-.7.4-1.3 1-1.7l76.8-43.8c.2-.2.6-.2.8-.1.2.2.4.5.4.8v14.2c0 .7-.4 1.3-1 1.7L541 318.4c-.1.1-.3.1-.5.1zm77.6-60.3c-.1 0-.2 0-.3.1L541 302.1c-.5.3-.7.8-.8 1.4v14.2c-.1.2 0 .4.2.4.1 0 .3 0 .4-.1l76.8-43.8c.5-.3.7-.8.8-1.3v-14.2c0-.2-.1-.4-.3-.5.1 0 0 0 0 0z"/><path class="st0" d="M543.3 313.5c-.1 0-.1 0-.2-.1s-.2-.2-.2-.4v-8.4c0-.3.2-.6.5-.8l71.8-41c.2-.1.4-.1.6.1.1.1.1.2.1.3v8.5c0 .3-.2.6-.5.8l-71.7 40.9c-.2 0-.3.1-.4.1zm0-.4zm72-49.9l-71.8 41c-.1.1-.2.3-.3.5v8.5l71.7-40.9c.2-.1.3-.3.3-.5l.1-8.6z"/><path class="st2" d="M622.7 87.1c-.3-.1-.7-.1-1 .1L583 109.5c-.4.2-.8.6-1 1l-2.6-1.5c.2-.4.6-.8 1-1l37.9-21.8c.9-.4 1.9-.4 2.8 0l1.6.9z"/><path class="st5" d="M622.7 87.1c-.3-.1-.7-.1-1 .1L583 109.5c-.4.2-.8.6-1 1l-2.6-1.5c.2-.4.6-.8 1-1l37.9-21.8c.9-.4 1.9-.4 2.8 0l1.6.9z"/><path class="st2" d="M581.6 111.9v21.9c0 .9.6 1.2 1.4.8l38.7-22.3c.8-.5 1.3-1.4 1.4-2.4V88c0-.9-.6-1.2-1.4-.8L583 109.5c-.8.5-1.3 1.4-1.4 2.4z"/><path class="st2" d="M582 134.7l-1.6-.9c-.8-.5-1.3-1.4-1.4-2.4v-20.9c0-.5.2-1 .4-1.4l2.6 1.5c-.3.4-.4.9-.4 1.4v21.9c0 .2.1.5.4.8z"/><path class="st8" d="M582 134.7l-1.6-.9c-.8-.5-1.3-1.4-1.4-2.4v-20.9c0-.5.2-1 .4-1.4l2.6 1.5c-.2.4-.4.9-.4 1.4v21.9c0 .2.1.6.4.8z"/><path class="st0" d="M584.7 130.7c-.1 0-.2 0-.3-.1-.2-.2-.4-.5-.4-.8v-17c0-.7.4-1.3 1-1.7l34.5-19.9c.3-.3.8-.2 1 .1.1.2.2.4.2.6v17c0 .7-.4 1.3-1 1.7l-34.5 19.9c-.1.1-.3.2-.5.2zM620 91.5c-.1 0-.2 0-.3.1l-34.5 19.9c-.5.3-.7.8-.8 1.3v17c0 .2 0 .3.2.4.1.1.3 0 .4-.1l34.5-19.8c.5-.3.7-.8.8-1.3V92c0-.1 0-.3-.1-.4-.1 0-.1-.1-.2-.1z"/><path class="st0" d="M587.4 125.6c-.1 0-.1 0-.2-.1s-.2-.2-.2-.4V114c0-.3.2-.6.5-.8l29.5-17c.1-.1.3-.1.5 0 .1.1.2.2.2.4v11.3c0 .3-.2.6-.5.8l-29.5 16.9h-.3zm0-.4zm29.8-28.7l-29.6 17c-.1.1-.2.3-.3.5V125.3h.1l29.5-16.9c.2-.1.3-.3.3-.5V96.5c.1 0 .1 0 0 0z"/><path class="st2" d="M554.2 187v15.1c-.1 1.2-.7 2.4-1.8 3.1l-15.9 9.3c-1 .6-1.8.1-1.8-1v-15.1c.1-1.2.7-2.4 1.8-3.1 4.3-2.5 11.5-6.8 15.9-9.3 1-.6 1.8-.1 1.8 1z"/><path class="st4" d="M554.2 190.3v.9l-19.4 11.3v-.9z"/><path class="st4" d="M547.2 202.7l.8-.9v-7.7l-.8.9zM541 206.4l.8-1v-7.6l-.8.9z"/><path class="st4" d="M554.2 198v.9l-19.4 11.3v-.9z"/><path class="st2" d="M609.4 193.7c.4.3.6.7.5 1.2v48.7c-.1 1.3-.8 2.5-1.9 3.3l-70.4 40.6c-.4.3-.9.3-1.3.1l-1.7-1c-.4-.3-.6-.7-.6-1.2v-48.7c.1-1.3.8-2.5 1.9-3.3l70.4-40.6c.4-.3.9-.3 1.3-.1l1.8 1z"/><path d="M536.4 235.9l-1.7-1c-.3.6-.5 1.2-.6 1.9v48.7c0 .5.2.9.6 1.2.3.2 1.4.8 1.7 1-.4-.3-.6-.7-.6-1.2v-48.7c.1-.7.2-1.4.6-1.9z" opacity=".55"/><path class="st2" d="M609.9 244.3l-1.2 2.1c.6-.6 1-1.3 1.2-2.1z"/><path d="M609.3 193.6l-1.6-.9c-.4-.2-.9-.1-1.3.1L536 233.5c-.6.3-1 .8-1.3 1.4l1.7 1c.3-.6.8-1.1 1.3-1.4l70.4-40.6c.4-.3.8-.4 1.2-.3z" opacity=".45"/><path class="st2" d="M537.7 234.5l70.4-40.6c1-.6 1.9-.1 1.9 1.1v48.7c-.1 1.3-.8 2.5-1.9 3.3l-70.4 40.6c-1 .6-1.9.1-1.9-1.1v-48.7c.1-1.4.8-2.6 1.9-3.3z"/><path class="st5" d="M537.7 234.5l70.4-40.6c1-.6 1.9-.1 1.9 1.1v48.7c-.1 1.3-.8 2.5-1.9 3.3l-70.4 40.6c-1 .6-1.9.1-1.9-1.1v-48.7c.1-1.4.8-2.6 1.9-3.3z"/><path class="st2" d="M546.2 244.8l-8.2 4.8c-.2.1-.4.1-.4 0s.2-.3.4-.4l8-4.6v-3.2c0-.1 0-.1.1-.1l4.3-2.5h.2l2.8 1.6 6.6-3.8c.1-.3.2-.5.5-.7.3-.2.5 0 .5.3 0 .4-.2.7-.5.9-.2.1-.4.1-.5-.1l-6.5 3.8h-.2l-2.8-1.6-4.1 2.4v3.2c-.1-.1-.2 0-.2 0zM537.9 242.6l12.3-7.1h.2l2.8 1.6 2.9-1.7c.1-.3.2-.5.5-.7.3-.2.5 0 .5.3 0 .4-.2.7-.5.9-.2.1-.4.1-.5-.1l-2.8 1.6h-.2l-2.8-1.6-12.4 7.2c-.2.1-.4.1-.4 0s.2-.3.4-.4zM607.9 202.6l-15.1 8.7h-.2l-2.8-1.6-34.7 20.1c-.1.3-.2.5-.5.7-.3.2-.5 0-.5-.3 0-.4.2-.7.5-.9.2-.1.4-.1.5.1l34.6-20h.2l2.8 1.6 15.2-8.8c.2-.1.4-.1.4 0s-.2.3-.4.4zM537.9 239.3l12.3-7.1h.2l2.8 1.6 6.6-3.8c.1-.3.2-.5.5-.7.3-.2.5 0 .5.3 0 .4-.2.7-.5.9-.2.1-.4.1-.5-.1l-6.5 3.8h-.2l-2.8-1.6-12.4 7.1c-.2.1-.4.1-.4 0s.2-.3.4-.4zM607.9 230.5l-5.2 3h-.2l-2.8-1.6-5.2 3c-.1.3-.2.5-.5.7-.3.2-.5 0-.5-.3 0-.4.2-.7.5-.9.2-.1.4-.1.5.1l5.1-3h.2l2.8 1.6 5.3-3.1c.2-.1.4-.1.4 0s-.2.4-.4.5zM607.9 199.4l-7.7 4.4c-.1.3-.2.5-.5.7-.3.2-.5 0-.5-.3 0-.4.2-.7.5-.9.2-.1.4-.1.5.1l7.7-4.4c.2-.1.4-.1.4 0s-.2.2-.4.4z"/><path class="st2" d="M584 252.2v-1.3l-3.7 2.1-2.8 4.9-.1.1-7.1 4.1h-.2l-2.8-1.6c-.1 0-.1-.1-.1-.1v-1.3l-8.2 4.8h-.2l-2.8-1.6-4.1 2.4v4.7l2.7 1.5 11.4-6.6c.1-.3.2-.5.5-.7.3-.2.5 0 .5.3 0 .4-.2.7-.5.9-.2.1-.4.1-.5-.1l-11.3 6.5h-.2l-2.8-1.6c-.1 0-.1-.1-.1-.1v-4.6l-13.6 7.9c-.2.1-.4.1-.4 0s.2-.3.4-.4l13.6-7.9v-1.4l-2.7-1.6-11 6.3c-.2.1-.4.1-.4 0s.2-.3.4-.4l10.9-6.3h.2l2.9 1.7c.1 0 .1.1.1.1v1.4l4-2.3h.2l2.8 1.6 8.3-4.8v-11l-13.9 8h-.2l-4.2-2.4-11 6.3c-.2.1-.4.1-.4 0s.2-.3.4-.4l10.9-6.3h.2l4.2 2.4 14-8.1v-8l-2.7-1.5-26.6 15.4c-.2.1-.4.1-.4 0s.2-.3.4-.4l26.5-15.3h.2l2.8 1.6c.1 0 .1.1.1.1v7.9l5-2.9c.1-.3.2-.5.5-.7.3-.2.5 0 .5.3 0 .4-.2.7-.5.9-.2.1-.4.1-.5-.1l-5 2.9v11.1l8.1-4.7c.1-.3.2-.5.5-.7.3-.2.5 0 .5.3 0 .4-.2.7-.5.9-.2.1-.4.1-.5-.1l-8.1 4.7v1.4l2.7 1.5 7-4 2.8-4.9s0-.1.1-.1l3.9-2.2V246l-11.8 6.8c-.1.3-.2.5-.5.7-.3.2-.5 0-.5-.3 0-.4.2-.7.5-.9.2-.1.4-.1.5.1l12-6.9V241l-8 4.6c-.1.3-.2.5-.5.7-.3.2-.5 0-.5-.3 0-.4.2-.7.5-.9.2-.1.4-.1.5.1l8-4.6v-7.8l-2.5 1.4v3.2c0 .1 0 .1-.1.1l-3.2 1.9c-.1.3-.2.5-.5.7-.3.2-.5 0-.5-.3 0-.4.2-.7.5-.9.2-.1.4-.1.5.1l3-1.7v-3.2c0-.1 0-.1.1-.1l2.8-1.6v-2.9l-13.3 7.7c-.1.3-.2.5-.5.7-.3.2-.5 0-.5-.3 0-.4.2-.7.5-.9.2-.1.4-.1.5.1l13.2-7.6v-1.4l-2.7-1.5-8.4 4.9h-.2l-2.8-1.6-5.2 3c-.1.3-.2.5-.5.7-.3.2-.5 0-.5-.3 0-.4.2-.7.5-.9.2-.1.4-.1.5.1l5.1-2.9h.2l2.8 1.6 8.4-4.9h.2l2.8 1.6c.1 0 .1.1.1.1v1.4l6.8-3.9h.2l2.8 1.6 13.8-8c.2-.1.4-.1.4 0s-.2.3-.4.4l-13.8 7.9h-.2l-2.8-1.6-6.9 4v2.9l4-2.3h.2l2.8 1.6 16.7-9.6c.2-.1.4-.1.4 0s-.2.3-.4.4l-16.6 9.6h-.2l-2.8-1.6-4.1 2.4v7.8l6.8-4h.2l5.6 3.2 11-6.3c.2-.1.4-.1.4 0s-.2.3-.4.4l-10.9 6.3h-.2l-5.6-3.2-6.9 4v4.5l6.8-3.9h.2l4.2 2.4 12.4-7.2c.2-.1.4-.1.4 0s-.2.3-.4.4l-12.3 7.1h-.2l-4.2-2.4-6.9 4v4.5l6.4-3.7c.1-.3.2-.5.5-.7.3-.2.5 0 .5.3 0 .4-.2.7-.5.9-.2.1-.4.1-.5-.1l-6.4 3.7v1.4l2.7 1.5 20.9-12.1c.2-.1.4-.1.4 0s-.2.3-.4.4l-20.8 12h-.2l-2.9-1.7c-.2-.1-.2-.2-.2-.2zM607.9 205.9l-15.1 8.8h-.2l-2.8-1.6-13.8 8c-.1.3-.2.5-.5.7-.3.2-.5 0-.5-.3 0-.4.2-.7.5-.9.2-.1.4-.1.5.1l13.8-7.9h.2l2.8 1.6 15.2-8.8c.2-.1.4-.1.4 0s-.3.2-.5.3z"/><path class="st2" d="M607.9 225.6l-3.4 2c-.1.3-.2.5-.5.7-.3.2-.5 0-.5-.3 0-.4.2-.7.5-.9.2-.1.4-.1.5.1l3.4-2c.2-.1.4-.1.4 0s-.2.3-.4.4zM537.9 275.4l5.2-3h.2l2.8 1.6 3.8-2.2c.1-.3.2-.5.5-.7.3-.2.5 0 .5.3 0 .4-.2.7-.5.9-.2.1-.4.1-.5-.1l-3.7 2.1h-.2l-2.8-1.6-5.3 3.1c-.2.1-.4.1-.4 0s.2-.3.4-.4zM537.9 281.9l3.4-2c.1-.3.2-.5.5-.7.3-.2.5 0 .5.3 0 .4-.2.7-.5.9-.2.1-.4.1-.5-.1l-3.4 2c-.2.1-.4.1-.4 0s.2-.2.4-.4zM537.9 278.7l5.2-3h.2l2.8 1.6 5.2-3c.1-.3.2-.5.5-.7.3-.2.5 0 .5.3 0 .4-.2.7-.5.9-.2.1-.4.1-.5-.1l-5.1 3h-.2l-2.8-1.6-5.3 3.1c-.2.1-.4.1-.4 0s.2-.4.4-.5zM585.4 258l-2.7-1.5-2 1.1c-.1.3-.2.5-.5.7-.3.2-.5 0-.5-.3 0-.4.2-.7.5-.9.2-.1.4-.1.5.1l1.9-1.1h.2l2.9 1.7-.3.2zM607.9 214.1l-12.3 7.1h-.2l-5.6-3.2-15.5 9h-.2l-4.2-2.4-4.9 2.8c-.1.3-.2.5-.5.7-.3.2-.5 0-.5-.3 0-.4.2-.7.5-.9.2-.1.4-.1.5.1l4.8-2.8h.2l4.2 2.4 15.5-9h.2l5.6 3.2 12.4-7.2c.2-.1.4-.1.4 0s-.2.4-.4.5zM607.9 210.8l-3.8 2.2h-.2l-1.3-.8-5.2 3c-.1.3-.2.5-.5.7-.3.2-.5 0-.5-.3 0-.4.2-.7.5-.9.2-.1.4-.1.5.1l5.1-2.9h.2l1.3.8 3.9-2.2c.2-.1.4-.1.4 0s-.2.2-.4.3zM548.9 249.8l-11 6.3c-.2.1-.4.1-.4 0s.2-.3.4-.4l10.9-6.3h.2l2.8 1.6 8-4.6c.1-.3.2-.5.5-.7.3-.2.5 0 .5.3 0 .4-.2.7-.5.9-.2.1-.4.1-.5-.1l-8 4.6h-.2l-2.7-1.6zM548.9 256.3l-11 6.3c-.2.1-.4.1-.4 0s.2-.3.4-.4l10.9-6.3h.2l5.6 3.2 5.2-3c.1-.3.2-.5.5-.7.3-.2.5 0 .5.3 0 .4-.2.7-.5.9-.2.1-.4.1-.5-.1l-5.1 3h-.2l-5.6-3.2z"/><g id="freepik--chip--inject-61"><path class="st15" d="M542.1 267.6c-.2-.1-.3-.4-.3-.6v-14.7c0-.3.1-.6.3-.9l-1.8-1c-.2.3-.3.6-.3.9v14c0 .6 0 1 .5 1.3l1.6 1z"/><path class="st10" d="M542.7 250.7l12.7-7.3c.5-.3.9-.1.9.5v14.7c0 .7-.4 1.3-.9 1.6l-12.7 7.3c-.5.3-.9.1-.9-.5v-14.7c0-.7.4-1.3.9-1.6z"/><path class="st16" d="M556 243.3l-1.5-.9c-.5-.3-.9 0-1.4.3l-12.2 7c-.3.2-.5.4-.7.7l1.8 1c.2-.3.4-.5.7-.7l12.7-7.3c.2-.2.4-.2.6-.1z"/><path class="st0" d="M554.7 246.5v11.4c0 .5-.3.9-.6 1.1l-9.9 5.7c-.2.1-.4.1-.5 0-.2-.1-.3-.3-.2-.5v-11.4c0-.5.3-.9.7-1.1l9.9-5.7c.2-.1.4-.1.5 0 .1 0 .1.1.2.2-.1.1-.1.2-.1.3zm-10.9 18.1h.3l9.9-5.7c.3-.2.5-.5.5-.9v-11.4c0-.1 0-.2-.1-.3-.1 0-.2 0-.3.1l-9.9 5.7c-.3.2-.5.5-.5.9v11.6h.1z"/><path class="st0" d="M552.7 249.6v7.5c0 .2-.1.4-.3.5l-6.5 3.8c-.1.1-.2.1-.3 0-.1-.1-.2-.2-.1-.3v-7.5c0-.2.1-.4.3-.5l6.5-3.8c.1-.1.2-.1.3 0l.1.1c-.1.1-.1.2 0 .2zm-7 11.7l6.5-3.8c.1-.1.2-.2.2-.3v-7.5l-6.5 3.8c-.1.1-.2.2-.2.3v7.5z"/></g><path class="st2" d="M621.2 127.5v60.9c0 .5-.3.9-.8 1.1l-35.1 20.2c-1.2.6-2.6.6-3.8 0l-1.5-.9c-.4-.2-.7-.6-.8-1.1v-61.2c0-.5.3-.9.8-1.1l35.1-20.2c1.2-.6 2.6-.6 3.8 0l1.5.9c.7.4.9.9.8 1.4z"/><path class="st2" d="M621.2 127.5v60.9c0 .5-.3.9-.8 1.1l-35.1 20.2c-1.2.6-2.6.6-3.8 0l-1.5-.9c-.4-.2-.7-.6-.8-1.1v-61.2c0-.5.3-.9.8-1.1l35.1-20.2c1.2-.6 2.6-.6 3.8 0l1.5.9c.7.4.9.9.8 1.4z"/><path class="st8" d="M579.3 146.6v61.2c0 .5.3.9.8 1.1l1.5.9c.5.3 1.1.4 1.7.4V149c-.6 0-1.2-.2-1.8-.4l-1.5-.9c-.4-.2-.7-.7-.7-1.1z"/><path class="st9" d="M580.1 147.7l1.5.9c1.2.6 2.6.6 3.8 0l35.1-20.2c.6-.2.9-.8.7-1.4-.1-.3-.4-.6-.7-.7l-1.5-.9c-1.2-.6-2.6-.6-3.8 0l-35.1 20.2c-.6.2-.9.9-.7 1.5.1.2.3.5.7.6z"/><path class="st2" d="M587 145.9l-2.4-1.4c-.4-.2-.8-.2-1.1 0l-.4.2c-.2.1-.3.3-.2.5 0 .1.1.1.2.2l2.4 1.4c.4.2.8.2 1.1 0l.4-.2c.1 0 .1-.1.1-.1.2-.3.2-.5-.1-.6z"/><path class="st5" d="M587 145.9l-2.4-1.4c-.4-.2-.8-.2-1.1 0l-.4.2c-.2.1-.3.3-.2.5 0 .1.1.1.2.2l2.4 1.4c.4.2.8.2 1.1 0l.4-.2c.1 0 .1-.1.1-.1.2-.3.2-.5-.1-.6z"/><path class="st2" d="M589.6 144.4l-2.4-1.4c-.4-.2-.8-.2-1.1 0l-.4.2c-.2.1-.3.3-.2.5 0 .1.1.1.2.2l2.4 1.4c.4.2.8.2 1.1 0l.4-.2c.1 0 .1-.1.2-.1 0-.2 0-.5-.2-.6z"/><path class="st5" d="M589.6 144.4l-2.4-1.4c-.4-.2-.8-.2-1.1 0l-.4.2c-.2.1-.3.3-.2.5 0 .1.1.1.2.2l2.4 1.4c.4.2.8.2 1.1 0l.4-.2c.1 0 .1-.1.2-.1 0-.2 0-.5-.2-.6z"/><path class="st2" d="M592.1 143l-2.4-1.4c-.4-.2-.8-.2-1.1 0l-.4.2c-.2.1-.3.3-.2.5 0 .1.1.1.2.2l2.4 1.4c.4.2.8.2 1.1 0l.4-.2c.1 0 .1-.1.2-.1.1-.3 0-.5-.2-.6z"/><path class="st5" d="M592.1 143l-2.4-1.4c-.4-.2-.8-.2-1.1 0l-.4.2c-.2.1-.3.3-.2.5 0 .1.1.1.2.2l2.4 1.4c.4.2.8.2 1.1 0l.4-.2c.1 0 .1-.1.2-.1.1-.3 0-.5-.2-.6z"/><path class="st2" d="M594.6 141.5l-2.4-1.4c-.4-.2-.8-.2-1.1 0l-.4.2c-.2.1-.3.3-.2.5 0 .1.1.1.2.2l2.4 1.4c.4.2.8.2 1.1 0l.4-.2c.1 0 .1-.1.1-.1.2-.2.1-.5-.1-.6z"/><path class="st5" d="M594.6 141.5l-2.4-1.4c-.4-.2-.8-.2-1.1 0l-.4.2c-.2.1-.3.3-.2.5 0 .1.1.1.2.2l2.4 1.4c.4.2.8.2 1.1 0l.4-.2c.1 0 .1-.1.1-.1.2-.2.1-.5-.1-.6z"/><path class="st2" d="M587 146.2l-2.4-1.4c-.4-.2-.8-.2-1.1 0l-.4.2c-.1 0-.1.1-.2.1 0 .1.1.1.2.2l2.4 1.4c.4.2.8.2 1.1 0l.4-.2c.1 0 .1-.1.1-.1 0-.1 0-.1-.1-.2zM589.5 144.8l-2.4-1.4c-.4-.2-.8-.2-1.1 0l-.4.2-.2.1c0 .1.1.1.2.2l2.4 1.4c.4.2.8.2 1.1 0l.4-.2c.1 0 .1-.1.2-.1 0-.1-.1-.2-.2-.2zM592 143.3l-2.4-1.4c-.4-.2-.8-.2-1.1 0l-.4.2c-.1 0-.1.1-.2.1 0 .1.1.1.2.2l2.4 1.4c.4.2.8.2 1.1 0l.4-.2c.1 0 .1-.1.2-.1 0-.1-.1-.1-.2-.2zM594.6 141.9l-2.4-1.4c-.4-.2-.8-.2-1.1 0l-.4.2-.2.1c0 .1.1.1.2.2l2.4 1.4c.4.2.8.2 1.1 0l.4-.2c.1 0 .1-.1.2-.1l-.2-.2zM561.2 210.1c0 1.3.7 2.4 1.8 3.1l.2.1c1.1.6 1.8 1.8 1.8 3.1l-.2 26.3-.9-.5.2-25.8c0-1-.5-1.8-1.3-2.3l-.2-.1c-1.4-.8-2.2-2.2-2.2-3.8V175l.9.5-.1 34.6z"/><path class="st5" d="M561.2 210.1c0 1.3.7 2.4 1.8 3.1l.2.1c1.1.6 1.8 1.8 1.8 3.1l-.2 26.3-.9-.5.2-25.8c0-1-.5-1.8-1.3-2.3l-.2-.1c-1.4-.8-2.2-2.2-2.2-3.8V175l.9.5-.1 34.6z"/><path class="st2" d="M561.2 175.4V210c0 1.3.7 2.4 1.8 3.1l.2.1c1.1.6 1.8 1.8 1.8 3.1l-.2 26.3 10.6-6.1v-26.4c0-1.3-.7-2.4-1.8-3.1-1.1-.6-1.8-1.8-1.8-3.1v-34.7l-10.6 6.2z"/><path class="st17" d="M570.2 204.9c0 1.3.7 2.4 1.8 3.1l.2.1c1.1.6 1.8 1.8 1.8 3.1l-.2 26.3-.7.4.2-26.3c0-1.3-.7-2.4-1.8-3.1l-.2-.1c-1.1-.6-1.8-1.8-1.8-3.1v-34.7l.7-.4v34.7z"/><path class="st17" d="M566.9 206.8c0 1.3.7 2.4 1.8 3.1l.2.1c1.1.6 1.8 1.8 1.8 3.1l-.2 26.3-.7.4.2-26.3c0-1.3-.7-2.4-1.8-3.1l-.2-.1c-1.1-.6-1.8-1.8-1.8-3.1v-34.7l.7-.4v34.7z"/><path class="st17" d="M563.5 208.8c0 1.3.7 2.4 1.8 3.1l.2.1c1.1.6 1.8 1.8 1.8 3.1l-.2 26.3-.7.4.2-26.3c0-1.3-.7-2.4-1.8-3.1l-.2-.1c-1.1-.6-1.8-1.8-1.8-3.1v-34.7l.7-.4v34.7z"/><g id="freepik--chip--inject-61_00000172401059572728759860000003123574272474183868_"><path class="st15" d="M559.5 180.1c-.2-.1-.3-.4-.3-.6v-8.7c0-.3.1-.6.3-.9l-1.8-1c-.2.3-.3.6-.3.9v8.1c0 .6-.1 1 .5 1.3l1.6.9z"/><path class="st10" d="M560.2 169.2l12.7-7.3c.5-.3.9-.1.9.5v8.7c0 .7-.4 1.3-.9 1.6l-12.7 7.3c-.5.3-.9.1-.9-.5v-8.7c0-.7.3-1.3.9-1.6z"/><path class="st16" d="M573.5 161.8l-1.5-.9c-.5-.3-.9 0-1.4.3l-12.2 7c-.3.2-.5.4-.7.7l1.8 1c.2-.3.4-.5.7-.7l12.7-7.3c.2-.2.4-.2.6-.1z"/><path class="st0" d="M572.2 165v5.5c0 .5-.3.9-.6 1.1l-9.9 5.7c-.2.2-.5.1-.7-.1-.1-.1-.1-.2-.1-.4v-5.5c0-.5.3-.9.7-1.1l9.9-5.7c.2-.1.4-.1.5 0 .1 0 .1.1.2.2-.1.1 0 .2 0 .3zm-.1 0zm-10.9 12.1h.3l9.9-5.7c.3-.2.5-.5.5-.9V165c0-.1 0-.2-.1-.3-.1 0-.2 0-.3.1l-9.9 5.7c-.3.2-.5.5-.5.9v5.7h.1z"/><path class="st0" d="M570.1 168.1v1.6c0 .2-.1.4-.3.5l-6.5 3.8c-.1.1-.2.1-.3 0-.1-.1-.2-.2-.1-.3v-1.6c0-.2.1-.4.3-.5l6.5-3.8c.1-.1.2-.1.3 0l.1.1v.2zm-7 5.7l6.5-3.8c.1-.1.2-.2.2-.3v-1.6-.1l-6.5 3.8c-.1.1-.2.2-.2.3v1.7z"/></g></g></g></g><g id="freepik--Screen--inject-61"><g id="freepik--screen--inject-61"><g id="freepik--Window--inject-61"><path class="st10" d="M556.7 132.4c-3.4 2.2-5.5 5.9-5.8 10V351c0 3.7 2.6 5.2 5.8 3.3l98.8-57c3.4-2.2 5.5-5.9 5.8-10V78.7c0-3.7-2.6-5.2-5.8-3.3l-98.8 57z"/><path class="st2" d="M658.1 75.4c1.5 0 2.4 1.2 2.4 3.3v208.7c-.2 3.7-2.2 7.2-5.3 9.2l-98.8 57c-.6.4-1.4.6-2.1.7-1.5 0-2.4-1.2-2.4-3.3V142.4c.2-3.8 2.2-7.2 5.3-9.2l98.8-57c.6-.5 1.3-.7 2.1-.8m0-.8c-.9 0-1.8.3-2.6.8l-98.8 57c-3.4 2.2-5.5 5.9-5.8 10V351c0 2.6 1.3 4.1 3.2 4.1.9 0 1.8-.3 2.6-.8l98.8-57c3.4-2.2 5.5-5.9 5.8-10V78.7c0-2.6-1.3-4.1-3.2-4.1z"/></g><path class="st17" d="M570.6 141.2v-1l-1.2.7c-.1 0-.1 0-.1-.1v-.3-.1-.1l1.3-3.5s0-.1.1-.1c0 0 0-.1.1-.1l.2-.1h.1V139.4l.3-.2h.1V139.8c0 .1-.1.1-.1.1l-.4.1v1c0 .1-.1.1-.1.1l-.3.1c.1 0 0 0 0 0zm0-1.7v-1.9l-.9 2.4.9-.5zM572.1 139.9c-.3-.5-.4-1-.4-1.6 0-.7.1-1.4.4-2 .2-.5.5-.9 1-1.2.1-.1.3-.2.5-.2.1 0 .3 0 .4.1v.2l-.1.4v.1c-.2-.1-.4 0-.6.1-.3.2-.6.5-.7.8-.2.5-.3 1-.2 1.5 0 .4 0 .8.2 1.2.2.2.4.2.7.1.1-.1.2-.1.3-.2.1-.1.2-.2.2-.3v-1.3l-.5.3h-.1v-.4-.2l.1-.1.8-.5h.1V139c-.2.4-.6.7-1 .9-.6.3-.9.3-1.1 0zM582.3 133.7c0 .6-.2 1.1-.7 1.5-.4.2-.7-.1-.7-.7s.2-1.1.7-1.5c.4-.2.7.1.7.7z"/><path class="st17" d="M581.6 131.2c-.8.6-1.4 1.5-1.6 2.4-.1.2 0 .4.1.5.1.1.3-.1.4-.4.2-.7.6-1.3 1.1-1.7.3-.2.8-.2 1 .2.1.1.1.2.1.2.1.2.3.1.4-.1.1-.2.1-.4.1-.6-.2-.6-.7-.9-1.3-.7-.1.1-.2.2-.3.2z"/><path class="st17" d="M581.6 129.5c-1.2.9-2.1 2.1-2.5 3.6-.1.2-.1.5.1.5.1.1.3-.1.4-.3.3-1.2 1-2.2 2-2.9.6-.4 1.5-.3 1.9.3.1.1.1.2.1.3.1.2.3.1.4-.1.1-.2.1-.4.1-.6-.4-.8-1.4-1.2-2.2-.8-.2-.1-.2 0-.3 0zM599.9 121.5v-.1-.2l1-1.8.1-.1.1-.1.4-.2h.1V123.9l-.1.1-.4.2h-.1v-3.6l-.7 1.2-.1.1h-.1l-.2-.4zM602.3 120.1v-.1-.2l1-1.8s0-.1.1-.1c0 0 0-.1.1-.1l.4-.2h.1V122.5s0 .1-.1.1l-.4.2h-.1v-3.6l-.7 1.2-.1.1h-.1l-.2-.4zM605.4 118.1c.1 0 .1 0 0 0 .1 0 .1.1.1.1V119.1s0 .1-.1.1l-.4.2h-.1V118.6v-.2l.1-.1.4-.2zm0 2.5s.1 0 0 0c.1 0 .1.1.1.1V121.6s0 .1-.1.1l-.4.3h-.1V121.2v-.2l.1-.1.4-.3zM607.9 120.3c-.1 0-.1 0 0 0-.1 0-.1-.1-.1-.1v-.9l-1.4.8h-.1v-.6-.2c0-.1 0-.1.1-.2l1.4-3.6c0-.1.1-.2.2-.3l.4-.2h.1v3l.4-.2h.1v.8s0 .1-.1.1l-.4.2v1.1s0 .1-.1.1l-.5.2zm-.2-1.9v-1.5l-.8 2 .8-.5zM609.7 114.4v-.2s0-.1.1-.1l1.8-1h.1v.8s0 .1-.1.1l-1.3.8-.1 1 .2-.2.2-.1c.1-.1.3-.2.5-.2.1 0 .3 0 .4.1.1.1.2.2.2.4.1.2.1.4.1.7 0 .3 0 .6-.1.8-.1.2-.1.5-.3.7-.1.2-.2.4-.4.5-.1.1-.3.3-.5.4-.2.1-.4.2-.6.2-.1 0-.3 0-.4-.1-.1-.1-.2-.2-.2-.3-.1-.2-.1-.3-.1-.5v-.2l.1-.1.4-.2h.1v.1c0 .1 0 .2.1.2l.1.1h.2c.1 0 .1-.1.2-.1.2-.1.3-.3.4-.5.1-.2.2-.5.2-.7 0-.2 0-.3-.2-.4-.1-.1-.3-.1-.4 0-.1 0-.2.1-.2.2l-.1.2-.1.1-.1.1-.4.2h-.1v-.1l.3-2.7zM557.2 149.5V148l1.3-.8v1.5zM559.2 148.4v-3l1.3-.8v3zM561.1 147.2v-4.4l1.3-.8v4.5zM563.1 146.1v-6l1.2-.7v6zM653.9 88.8c-.1-.2-.3-.3-.5-.2l-4.8 2.8c-.4.4-.6.9-.6 1.5v2.7c0 .3.1.6.2.9 0 .1.1.1.2.2s.2.1.3 0l4.8-2.8c.4-.4.6-.9.6-1.5v-2.7c0-.3-.1-.6-.2-.9zm-5.6 7.4c-.1-.1-.1-.3-.1-.4v-2.7c0-.4.1-.8.4-1.1l4.8-2.8h.1l.1.1c.1.1.1.3.1.4v2.7c0 .4-.1.8-.4 1.1l-4.8 2.8s-.1 0-.2-.1z"/><path class="st17" d="M649.6 91.9v3.2l-.8.4h-.1V93c0-.3.1-.6.3-.8l.6-.3zM650 91.7l.9-.5v3.2l-.9.5zM651.2 91l.9-.6v3.3l-.9.5zM653.4 89.9v2.3c0 .4-.2.8-.6 1l-.3.2v-3.2l.7-.4c.1 0 .1 0 .2.1zM654.3 89.6c.1-.1.2.3.2.9v.5c0 .4 0 .8-.2 1.2l-.2.2v-2.6l.2-.2zM640.7 97.8l4.7-4.1-1.5 6.1-.7-2.6z"/><path class="st1" d="M565.9 335.3c-.2 0-.5-.1-.7-.2-.5-.3-.8-.9-.7-1.5V326c.1-1.4.8-2.7 2-3.5L590 309c.6-.5 1.6-.4 2.1.2.3.3.4.8.3 1.2v7.6c-.1 1.4-.8 2.7-2 3.5L566.9 335c-.3.2-.6.3-1 .3zm25.1-25.8c-.2 0-.4.1-.6.2l-23.5 13.5c-.9.6-1.5 1.6-1.6 2.8v7.6c-.1.4.1.8.5.9.3.1.5 0 .7-.2l23.5-13.5c.9-.6 1.5-1.6 1.6-2.8v-7.6c0-.3-.1-.6-.3-.8-.1-.1-.2-.1-.3-.1z"/><path class="st1" d="M572 325v1.2c0 .1 0 .1.1.2 0 0 .1.1.2.1s.2 0 .2-.1c.1 0 .2-.1.2-.2.1-.1.1-.1.1-.2s.1-.1.1-.2v-.2-.2s0-.1.1-.1l.5-.3h.1v.1c0 .2 0 .4-.1.6-.1.2-.1.4-.3.6-.1.2-.2.4-.4.5-.1.2-.3.3-.5.4-.2.1-.3.2-.5.2-.1 0-.3-.1-.4-.1-.1-.1-.2-.2-.2-.4-.1-.2-.1-.4-.1-.6v-.5-.5c0-.2 0-.5.1-.7.1-.2.1-.5.2-.7.1-.2.2-.4.4-.6.1-.2.3-.3.5-.4.1-.1.3-.1.5-.2.3 0 .6.1.7.4.1.2.1.3.1.5v.1s0 .1-.1.1l-.5.3h-.1v-.1-.1l-.1-.1h-.1c-.1 0-.2 0-.2.1-.1 0-.2.1-.2.2-.1.1-.1.2-.2.2 0 .1-.1.2-.1.3v.4zM574.2 325.5c0-.3.1-.5.2-.8.2-.3.4-.6.6-.8l.5-.4c0-.1 0-.2-.1-.2h-.2c-.1 0-.1.1-.2.1l-.1.1s0 .1-.1.1l-.1.1-.5.3h-.1c-.1 0 0 0 0-.1s0-.2.1-.3c.1-.1.1-.3.2-.4.1-.1.2-.3.3-.4.1-.1.2-.2.4-.3.1-.1.3-.1.4-.1.1 0 .2 0 .3.1.1.1.2.2.2.3 0 .2.1.3.1.5V325.2s0 .1-.1.1l-.5.3h-.1V325.3c-.1.2-.1.3-.2.4-.1.1-.2.2-.4.3-.1.1-.2.1-.3.1-.1 0-.2 0-.2-.1-.1-.1-.1-.1-.1-.2.1-.1 0-.2 0-.3zm.9-.4c.1 0 .1-.1.2-.1 0-.1.1-.1.1-.2s.1-.2.1-.2v-.2l-.4.3-.2.2c0 .1-.1.1-.1.2v.1c.1-.1.2-.1.3-.1zM579 323.4v.1s0 .1-.1.1l-.5.3h-.1v-1.6c0-.1 0-.3-.1-.4-.1-.1-.2-.1-.3 0l-.3.3c-.1.2-.1.3-.1.5v1.6s0 .1-.1.1l-.5.3m.1.1s0-.1 0 0v-3-.1s0-.1.1-.1l.5-.3h.1v.2c0-.1 0-.1.1-.2 0-.1.1-.1.1-.2s.1-.1.2-.2.1-.1.2-.1c.1-.1.2-.1.4-.1.1 0 .2 0 .3.1.1.1.1.2.2.3 0 .2.1.4.1.6l-2.3 3.1zM580.3 321v.4c0 .1 0 .2.1.3.1.1.2 0 .2 0 .1 0 .1-.1.2-.2s.1-.1.1-.2v-.1s0-.1.1-.1l.5-.3h.1v.4c0 .2-.1.3-.2.5s-.2.4-.3.5c-.1.2-.3.3-.5.4-.1.1-.3.1-.4.1-.1 0-.2 0-.3-.1-.1-.1-.2-.2-.2-.3-.1-.2-.1-.3-.1-.5v-.5c0-.2 0-.4.1-.6 0-.2.1-.4.2-.6.1-.2.2-.3.3-.5.1-.1.3-.2.4-.3.2-.1.3-.2.5-.2.1 0 .2.1.3.1.1.1.1.2.2.3v.4s0 .1-.1.1l-.5.3h-.1v-.1l-.1-.1c-.1 0-.1 0-.2.1s-.2.2-.2.3c-.1.3-.1.4-.1.5zM582.8 320.1v.2s0 .1.1.1h.2c.1 0 .1-.1.2-.1 0 0 .1-.1.1-.2l.1-.1h.1l.5-.3c.1 0 .1 0 .1.1s0 .2-.1.3c0 .1-.1.3-.2.4-.1.2-.2.3-.3.5-.1.2-.3.3-.5.4-.1.1-.3.1-.5.2-.1 0-.2-.1-.3-.1-.1-.1-.2-.3-.2-.4-.1-.2-.1-.4-.1-.6 0-.2 0-.5.1-.7 0-.2.1-.4.2-.6.1-.2.2-.4.3-.5.1-.2.3-.3.5-.4.1-.1.3-.1.5-.1.1 0 .2.1.3.2.1.1.2.3.2.4 0 .2.1.4.1.6V319.7s0 .1-.1.1l-1.3.3zm.4-1.4c-.1.1-.2.2-.2.3-.1.1-.1.3-.1.4l.7-.4c0-.1 0-.2-.1-.3h-.3zM585.5 319.6v.1s0 .1-.1.1l-.5.3h-.1V316v-.1s0-.1.1-.1l.5-.3h.1v4.1z"/><path class="st2" d="M620.7 301.4v-7.6c.1-1.3.7-2.4 1.8-3.1l23.5-13.5c1-.6 1.8-.1 1.8 1v7.5c-.1 1.3-.7 2.4-1.8 3.1l-23.5 13.6c-1 .6-1.8.1-1.8-1z"/><path class="st17" d="M629.8 290h.1s0 .1.1.1l.9 3.4v.2s0 .1-.1.1l-.5.3h-.1v-.1l-.1-.5-1.1.6-.1.6v.1c0 .1-.1.1-.1.1l-.5.3h-.1v-.1-.1l.9-4.4c0-.1 0-.1.1-.2 0-.1.1-.1.1-.1l.5-.3zm-.6 3l.6-.4-.3-1.3-.3 1.7zM632.6 292.7l-.2.1H632.1l-.1-.1V294.1s0 .1-.1.1l-.5.3h-.1v-4.1-.1s0-.1.1-.1l.5-.3m.2 0s0 .1 0 0v0c.1 0 .1-.1.2-.1 0-.1.1-.1.1-.2l.2-.2c.1-.1.2-.1.3-.1.1 0 .2 0 .3.1.1.1.2.2.2.3.1.2.1.4.1.6v.5c0 .2 0 .5-.1.7 0 .2-.1.4-.2.5-.1.2-.2.3-.3.4-.1.1-.2.1-.3.2l-.5-2.7zm.7 1.2v-.3c0-.1 0-.2-.1-.3-.1-.1-.1-.1-.3 0-.1 0-.1.1-.2.1 0 .1-.1.1-.1.2s0 .1-.1.2v.8s0 .1.1.1l.1.1h.2l.3-.3c.1-.3.1-.4.1-.6zM635.3 291.1c-.1 0-.1.1-.2.1h-.2s-.1 0-.1-.1l-.1-.1V292.4s0 .1-.1.1l-.5.3h-.1v-4.1-.1s0-.1.1-.1l.5-.3h.1v.2l.1-.2c0-.1.1-.1.1-.2s.1-.1.2-.2l.2-.2c.1-.1.2-.1.3-.1.1 0 .2 0 .3.1.1.1.2.2.2.3.1.4.1.7.1 1.1 0 .2 0 .5-.1.7 0 .2-.1.4-.2.5-.1.2-.2.3-.3.4 0 .4-.1.5-.3.5zm.2-1.6v-.3c0-.1 0-.2-.1-.3 0-.1-.1-.1-.3 0-.1 0-.1.1-.1.1 0 .1-.1.1-.1.2s-.1.1-.1.2v.8s0 .1.1.1c0 0 .1.1.1 0h.1l.3-.3c.1-.1.1-.3.1-.5zM637.5 289.6v.1s0 .1-.1.1l-.5.3h-.1V286v-.1s0-.1.1-.1l.5-.3h.1v4.1zM639.3 289.8v.1s0 .1-.1.1l-.5.3h-.1c-.1 0 0 0 0-.1l.3-1.3-.8-2.4v-.1s0-.1.1-.1l.5-.3h.1v.1l.4 1.3.4-1.8v-.1s0-.1.1-.1l.5-.3h.1v.1l-1 4.6z"/><path class="st2" d="M580.3 152.7c5.3-3 9.5-.6 9.5 5.5s-4.3 13.4-9.6 16.4c-5.3 3-9.5.6-9.5-5.5 0-6 4.3-13.4 9.6-16.4z"/><path class="st1" d="M599.3 154.8l41.4-23.9c1.1-.6 2-.2 2 1-.1 1.4-.8 2.6-2 3.4l-41.6 24c-1.1.6-2 .2-1.9-1.1.1-1.4.9-2.6 2.1-3.4z"/><path class="st2" d="M599.3 146.1l47.8-27.6c1.1-.7 2-.2 2 1-.1 1.4-.8 2.6-2 3.3l-48 27.7c-1.1.6-2 .2-1.9-1.1.1-1.3.9-2.6 2.1-3.3z"/><path class="st2" d="M599.3 146.1l47.8-27.6c1.1-.7 2-.2 2 1-.1 1.4-.8 2.6-2 3.3l-48 27.7c-1.1.6-2 .2-1.9-1.1.1-1.3.9-2.6 2.1-3.3z"/><path class="st9" d="M599.3 146.1l47.8-27.6c1.1-.7 2-.2 2 1-.1 1.4-.8 2.6-2 3.3l-48 27.7c-1.1.6-2 .2-1.9-1.1.1-1.3.9-2.6 2.1-3.3z"/><path class="st2" d="M574.2 248l11-6.4c1.1-.6 2-.1 2 1.2l.1 17.2c-.1 1.4-.8 2.7-2 3.5l-11.1 6.4c-1.1.6-2 .1-2-1.2v-17.2c.1-1.4.8-2.7 2-3.5z"/><path class="st1" d="M597.1 247.9l32.3-18.6c1.1-.6 2-.2 2 1-.1 1.4-.8 2.6-2 3.4l-32.5 18.7c-1.1.6-2 .2-2-1.1.2-1.4 1-2.6 2.2-3.4z"/><path class="st2" d="M597.1 239.2l41.4-23.9c1.1-.6 2-.2 2 1-.1 1.4-.8 2.6-2 3.4l-41.6 24c-1.1.6-2 .2-2-1.1.2-1.5 1-2.7 2.2-3.4z"/><path class="st2" d="M597.1 239.2l41.4-23.9c1.1-.6 2-.2 2 1-.1 1.4-.8 2.6-2 3.4l-41.6 24c-1.1.6-2 .2-2-1.1.2-1.5 1-2.7 2.2-3.4z"/><path class="st9" d="M597.1 239.2l41.4-23.9c1.1-.6 2-.2 2 1-.1 1.4-.8 2.6-2 3.4l-41.6 24c-1.1.6-2 .2-2-1.1.2-1.5 1-2.7 2.2-3.4z"/><path class="st2" d="M574.2 278.6l11-6.4c1.1-.6 2-.1 2 1.1l.1 17.3c-.1 1.4-.8 2.7-2 3.5l-11.1 6.4c-1.1.6-2 .1-2-1.2V282c.1-1.3.8-2.6 2-3.4z"/><path class="st1" d="M597.1 278.7l32.3-18.6c1.1-.6 2-.2 2 1-.1 1.4-.8 2.6-2 3.4l-32.5 18.7c-1.1.6-2 .2-2-1.1.2-1.4 1-2.7 2.2-3.4z"/><path class="st2" d="M597.1 269.9l41.4-23.9c1.1-.6 2-.2 2 1-.1 1.4-.8 2.6-2 3.4l-41.6 24c-1.1.6-2 .2-2-1.1.2-1.4 1-2.6 2.2-3.4z"/><path class="st2" d="M597.1 269.9l41.4-23.9c1.1-.6 2-.2 2 1-.1 1.4-.8 2.6-2 3.4l-41.6 24c-1.1.6-2 .2-2-1.1.2-1.4 1-2.6 2.2-3.4z"/><path class="st9" d="M597.1 269.9l41.4-23.9c1.1-.6 2-.2 2 1-.1 1.4-.8 2.6-2 3.4l-41.6 24c-1.1.6-2 .2-2-1.1.2-1.4 1-2.6 2.2-3.4z"/><path class="st2" d="M567.3 191.4l32.2-18.6c1-.6 1.7-.2 1.7.9-.1 1.2-.7 2.2-1.7 2.9l-32.2 18.6c-.9.6-1.7.2-1.7-.9.1-1.2.8-2.3 1.7-2.9z"/><path class="st2" d="M567.3 191.4l32.2-18.6c1-.6 1.7-.2 1.7.9-.1 1.2-.7 2.2-1.7 2.9l-32.2 18.6c-.9.6-1.7.2-1.7-.9.1-1.2.8-2.3 1.7-2.9z"/><path class="st9" d="M567.3 191.4l32.2-18.6c1-.6 1.7-.2 1.7.9-.1 1.2-.7 2.2-1.7 2.9l-32.2 18.6c-.9.6-1.7.2-1.7-.9.1-1.2.8-2.3 1.7-2.9z"/><path class="st1" d="M567.3 207.7l19-10.9c1-.6 1.7-.2 1.7.9-.1 1.2-.7 2.2-1.7 2.9l-19 10.9c-.9.6-1.7.2-1.7-.9.1-1.2.8-2.2 1.7-2.9z"/><path class="st2" d="M565.6 203.5c-.1 0-.3-.1-.3-.2-.1-.2 0-.4.1-.5l84.4-48.7c.2-.1.4 0 .5.2.1.2 0 .4-.1.5l-84.4 48.7h-.2zM565.6 218.5c-.1 0-.3-.1-.3-.2-.1-.2 0-.4.1-.5l84.4-48.8c.2-.1.4 0 .5.2.1.2 0 .4-.1.5l-84.4 48.7c0 .1-.1.1-.2.1z"/><path class="st1" d="M641.7 165c.8-.5 1.5-.1 1.5.9-.1 1-.6 2-1.5 2.5-.8.5-1.5.1-1.5-.9s.6-1.9 1.5-2.5z"/><path class="st1" d="M640.7 169.7c-.3 0-.5-.1-.8-.2-.5-.4-.8-1-.8-1.6.1-1.7 1-3.3 2.5-4.2l5-2.9c.6-.4 1.3-.5 2-.2.5.4.8 1 .8 1.6-.1 1.7-1.1 3.3-2.5 4.2l-4.9 2.9c-.4.3-.8.4-1.3.4zm-1-1.8c-.1.5.1.9.5 1.2.5.2 1 .1 1.5-.2l4.9-2.9c1.3-.8 2.1-2.2 2.2-3.7 0-.4-.1-.9-.5-1.2-.5-.2-1-.1-1.5.2l-5 2.9c-1.2.8-2 2.2-2.1 3.7zM567.3 222.7l29-16.7c1-.6 1.7-.2 1.7.9-.1 1.2-.7 2.2-1.7 2.9l-29 16.8c-.9.6-1.7.2-1.7-.9.1-1.3.8-2.4 1.7-3z"/><path class="st2" d="M565.6 233.5c-.2 0-.4-.2-.4-.4 0-.1.1-.3.2-.3l84.4-48.7c.2-.1.4 0 .5.1.1.2.1.4-.1.5l-84.4 48.7s-.1.1-.2.1zM640.7 184.7c-.3 0-.5-.1-.8-.2-.5-.4-.8-1-.8-1.6.1-1.7 1-3.3 2.5-4.2l5-2.9c.6-.4 1.3-.5 2-.2.5.4.8 1 .8 1.6-.1 1.7-1.1 3.3-2.5 4.2l-4.9 2.9c-.4.3-.8.4-1.3.4z"/><path class="st17" d="M647 176.8c.8-.5 1.5-.1 1.5.9-.1 1-.6 2-1.5 2.5-.8.5-1.5.1-1.5-.9.1-1 .6-1.9 1.5-2.5z"/><path class="st1" d="M567.3 237.7l19-10.9c1-.6 1.7-.2 1.7.9-.1 1.2-.7 2.2-1.7 2.9l-19 10.9c-.9.6-1.7.2-1.7-.9.1-1.2.8-2.3 1.7-2.9zM641.7 194.9c.8-.5 1.5-.1 1.5.9-.1 1-.6 2-1.5 2.5-.8.5-1.5.1-1.5-.8 0-1.1.6-2 1.5-2.6z"/><path class="st1" d="M640.7 199.7c-.3 0-.5-.1-.8-.2-.5-.4-.8-1-.8-1.6.1-1.7 1-3.3 2.5-4.2l5-2.9c.6-.4 1.3-.5 2-.2.5.4.8 1 .8 1.6-.1 1.7-1.1 3.3-2.5 4.2l-4.9 2.9c-.4.2-.8.4-1.3.4zm-1-1.8c-.1.5.1.9.5 1.2.5.2 1 .1 1.5-.2l4.9-2.9c1.3-.8 2.1-2.2 2.2-3.7.1-.5-.1-.9-.5-1.2-.5-.2-1-.1-1.5.2l-5 2.9c-1.2.7-2 2.1-2.1 3.7z"/></g></g><g id="freepik--Icons--inject-61"><g id="freepik--check-box--inject-61"><path class="st2" d="M499.3 120.2c-.1-1.9-1.1-3.6-2.7-4.6l-2.2-1.3c-1.7-.8-3.7-.8-5.4 0l-33.4 19.3c-1.6 1-2.6 2.8-2.7 4.6V175c.1 1.9 1.1 3.6 2.7 4.6l2.2 1.3c1.7.9 3.7.9 5.4 0l33.4-19.3c1.6-1 2.6-2.8 2.7-4.7v-36.7z"/><path class="st7" d="M452.9 175.1c.1 1.9 1.1 3.6 2.7 4.6l2.2 1.3c1.5.8 3.3.8 4.9.2-1.3.5-2.2-.2-2.2-1.8v-36.8c0-.9.3-1.8.8-2.6l-7.5-4.4c-.5.8-.7 1.7-.8 2.6v36.9z"/><path class="st18" d="M499.2 119.5c-.3-1.1-1.3-1.5-2.6-.8L463.1 138c-.8.5-1.4 1.2-1.9 2l-7.5-4.4c.4-.8 1.1-1.5 1.9-2l33.4-19.3c1.7-.8 3.7-.8 5.4 0l2.2 1.3c1.3.9 2.3 2.3 2.6 3.9z"/><path id="freepik--Check--inject-61" class="st17" d="M491 129c-1.6-.6-3.3.1-4 1.6l-11.6 27.6-2.8-2.7c-1.2-1.2-3.2-1.1-4.4.1-1.2 1.2-1.1 3.2.1 4.4l6 5.8c.6.6 1.3.9 2.1.9.2 0 .4 0 .6-.1 1-.2 1.8-.9 2.2-1.8l13.4-31.8c.7-1.6-.1-3.3-1.6-4z"/></g><g id="freepik--check-box--inject-61_00000035489480184281804180000004825688572141621896_"><path class="st2" d="M499.3 186c-.1-1.9-1.1-3.6-2.7-4.6l-2.2-1.3c-1.7-.8-3.7-.8-5.4 0l-33.4 19.3c-1.6 1-2.6 2.7-2.7 4.6v36.8c.1 1.9 1.1 3.6 2.7 4.6l2.2 1.3c1.7.9 3.7.9 5.3 0l33.4-19.3c1.6-1 2.6-2.8 2.7-4.6V186z"/><path class="st7" d="M452.9 240.8c.1 1.9 1.1 3.6 2.7 4.6l2.2 1.3c1.5.8 3.3.8 4.9.2-1.3.5-2.2-.2-2.2-1.8v-36.8c0-.9.3-1.8.8-2.6l-7.5-4.4c-.5.8-.7 1.7-.8 2.6v36.9z"/><path class="st18" d="M499.2 185.2c-.3-1.1-1.3-1.5-2.6-.8l-33.4 19.3c-.8.5-1.4 1.2-1.9 2l-7.5-4.3c.4-.8 1.1-1.5 1.9-2l33.4-19.4c1.7-.8 3.7-.8 5.4 0l2.2 1.3c1.2.9 2.2 2.3 2.5 3.9z"/><path id="freepik--check--inject-61" class="st17" d="M491 194.7c-1.6-.6-3.3.1-4 1.6L475.4 224l-2.8-2.7c-1.2-1.2-3.2-1.2-4.3.1s-1.2 3.2.1 4.3l6 5.8c.6.6 1.3.9 2.1.9.2 0 .4 0 .6-.1 1-.2 1.8-.9 2.2-1.8l13.4-31.8c.6-1.5-.1-3.3-1.7-4z"/></g><g id="freepik--check-box--inject-61_00000093896569988982927220000016285344585721931922_"><path class="st2" d="M499.3 251.7c-.1-1.9-1.1-3.6-2.7-4.7l-2.2-1.3c-1.7-.9-3.7-.9-5.4 0l-33.4 19.4c-1.6 1-2.6 2.8-2.7 4.6v36.8c.1 1.9 1.1 3.6 2.7 4.6l2.2 1.3c1.7.9 3.7.9 5.3 0l33.4-19.4c1.6-1 2.6-2.7 2.7-4.6v-36.7z"/><path class="st7" d="M452.9 306.5c.1 1.9 1.1 3.6 2.7 4.6l2.2 1.3c1.5.8 3.3.8 4.9.2-1.3.5-2.2-.2-2.2-1.8V274c0-.9.3-1.8.8-2.6l-7.5-4.4c-.5.8-.7 1.7-.8 2.6v36.9z"/><path class="st18" d="M499.2 250.9c-.3-1.1-1.3-1.5-2.6-.8l-33.4 19.3c-.8.5-1.4 1.2-1.9 2l-7.5-4.4c.4-.8 1.1-1.5 1.9-2l33.4-19.3c1.7-.8 3.7-.8 5.4 0l2.2 1.2c1.3 1 2.2 2.4 2.5 4z"/><path class="st10" d="M493.1 278.4l-.9-6.4c0-.3-.2-.5-.5-.6-.3-.1-.6-.1-.8.1l-2.2 1.7c-.3-1.1-.7-2.1-1.3-3l1.1-2.6 1.4-5c.1-.4-.1-.9-.5-1h-.2c-.3 0-.7.2-.8.6l-1.4 4.9-.8 1.9c-.2-.2-.5-.4-.7-.5-.7-.5-1.6-.7-2.5-.7l1.3-5.1c.1-.4-.1-.8-.5-.9h-.2c-.3 0-.7.2-.7.6l-1.4 5.6c-.6.2-1.2.4-1.7.7-.4.2-.8.5-1.2.8l-.9-3.4c-.1-.3-.4-.6-.8-.6h-.2c-.4.1-.6.5-.5.9l1.1 4.1c-1.6 1.6-3 3.4-4 5.4l-.4-.5-1-3.5c-.1-.3-.4-.5-.7-.5h-.2c-.4.1-.6.6-.5 1l1.1 3.6 1 1.5c-.8 1.8-1.4 3.7-1.9 5.6h-.2l-2.7.7c-.3.1-.5.3-.6.6l-1.3 7.5c-.1.4.2.8.6.9h.1c.4 0 .7-.3.8-.6l1.2-7.1 1.7-.5c-.1.9-.2 1.9-.2 2.8-.1 1.9.1 3.8.7 5.6-.1 0-.1.1-.2.2l-2.5 3c-.2.2-.2.6-.1.8l2.4 4.9c.1.3.4.4.7.4.1 0 .2 0 .3-.1.4-.2.5-.6.3-1l-2.2-4.4 1.8-2.2c.5 1.1 1.3 2 2.3 2.6.8.5 1.7.8 2.6.8 1.1 0 2.2-.3 3.2-.9 3.4-1.9 6.4-6.4 8.1-11.5h.1l1.9.3-2.5 6.8c-.2.4 0 .8.4 1h.3c.3 0 .6-.2.7-.5l2.8-7.6c.1-.2.1-.4 0-.6-.1-.2-.3-.3-.5-.4l-2.7-.4c.5-2 .8-4 .9-6 0-1.1 0-2.1-.1-3.2h.1l1.7-1.3.7 5c.1.4.4.7.8.7h.1c.2 0 .4-.1.5-.3.3-.4.4-.5.4-.7zm-12.5-8.6c.8-.4 1.6-.7 2.5-.7.6 0 1.3.2 1.8.5.3.2.6.4.9.7-1.3 2.9-3.5 5.3-6.1 6.9-.8.5-1.8.8-2.8.8-.9 0-1.7-.3-2.4-.9 1.5-3.3 3.7-6 6.1-7.3zm-8.7 17.7c.1-3.1.8-6.1 1.9-8.9.9.7 1.9 1 3 1 .8 0 1.6-.2 2.3-.5l-.5 16.8c-.6.3-1.3.5-2.1.5-.6 0-1.3-.2-1.8-.5-1.9-1.1-3-4.3-2.8-8.4zm8.3 7.5l.5-16.6c2.5-1.6 4.6-3.9 6-6.6.8 2 1.2 4.1 1.1 6.2-.2 6.8-3.5 13.9-7.6 17z"/></g></g><g id="freepik--character-2--inject-61"><g id="freepik--Character--inject-61"><path class="st19" d="M803 159.1c-3.7-.7-4.8-1.6-8.6-6.6-2-2.6-9.1-13.8-10-15.1-.9-1.2-2-2.4-3.2-3.4-1.2-.9-2.3-2-3.2-3.2-1.4-2.1-2.2-4.8-.8-7.3.3-.4.6-.9.8-1.4.1-.6-.2-1.2 0-1.7.2-.8 1.3-1.1 1.8-1.9v-.1c.2-.7.2-1.4-.1-2l-1.2-3.6-.6-1.8c-.1-.4-.5-.9-.4-1.3.1-.2.3-.4.5-.4.7-.1 1.4.2 1.9.8 1.1 1.3 2 2.8 2.5 4.4.7 1.8 1.5 3.5 2.5 5.2.2.4 1.1 2 1.7 1.4.4-.6.6-1.3.6-2 .1-.6.3-1.3.6-1.8.3-.6 1.4-1.5 1.8-.4.1.2.1.5.1.7 0 1.2.1 2.5.1 3.7 0 .6 0 1.2-.1 1.9 0 .3 0 .7-.1 1-.1.3-.1.6-.1.9-.2.9-.3 1.8-.3 2.8.1 1.3.7 2.4 1.6 3.3l1.2 1.3 12.4 14.6 40.7 4.1-7.7 13.8c.1-.2-27.8-4.6-34.4-5.9z"/><path class="st2" d="M840.4 149.9c-5.4-.5-35.9-2.9-35.9-2.9l-7.5-8.8s-2.3 5.7-8.1 6.1c0 0 5.8 9.3 7.9 12.2s2.8 2.6 9.6 3.8 28 4.8 28 4.8l6-15.2z"/><path class="st20" d="M840.4 149.9c-5.4-.5-35.9-2.9-35.9-2.9l-7.5-8.8s-2.3 5.7-8.1 6.1c0 0 5.8 9.3 7.9 12.2s2.8 2.6 9.6 3.8 28 4.8 28 4.8l6-15.2z"/><path class="st21" d="M780.5 119.2c1.1 0 2.2.4 3 1.2.7 1.2 1.4 2.4 1.9 3.7.3.6.1 1.4-.5 1.8.1.7-.3 1.3-.9 1.6 0 .7-.3 1.4-.9 1.7 0 .6-.3 1.1-.8 1.4.6-.1 1.1-.6 1.2-1.2.6-.3 1-1 .9-1.6.6-.3 1-.9.9-1.5.6-.4.9-1.1.7-1.8-.4-1.3-1-2.5-1.7-3.6-.4-1.1-1-2.2-3.8-1.7z"/><g id="freepik--Botom--inject-61"><path class="st19" d="M868.8 313.6c-2.7 1.5-5.9 1.8-8.8.8l-1.6-15.9 9.9 1 .5 14.1zM840.3 305.3c-1.9 4.4-5.5 3.3-9.7.6l.3-15.4 9.8-.3-.4 15.1z"/><path class="st15" d="M852 328.6c-.2.8-.1 1.6.2 2.4.3.5 2.1 1.9 5.3 2.1 3.2.1 5.8-.4 7.5-1.5 1.6-.9 2.6-2.4 2.7-4.2.1-1.7-.1-3.4.7-4.8s1.9-2.7 2.1-3.4c.3-1.2.3-2.4-.1-3.5L852 328.6z"/><path class="st10" d="M858.7 313.1v.4c-.2 2-.7 3.9-1.5 5.7-.4.9-.9 1.8-1.5 2.6s-1.3 1.6-2 2.3c-1 1-1.6 2.4-1.8 3.8-.1 2.4 2.6 3.1 4.6 3.4 2.2.3 4.4.1 6.5-.5 2.2-.7 3.9-2.6 4.2-4.9.1-.7 0-1.4.1-2 .2-1.5.8-3 1.7-4.2.5-.7 1-1.5 1.4-2.3.6-1.5 0-3.1-.4-4.6-.4-1.3-.8-2.7-1.3-2.6 0 .3-.1.7-.2 1-.1.3-.1.7-.2 1.1 0 .4-.1.9-.3 1.3 0 .1-.1.3-.2.4-.1.1-.2.2-.4.2v-1.5c0-.2 0-.4-.2-.5-.3-.3-1-.1-1.3 0-.6 0-1.2.1-1.8.1-1.2 0-2.5-.1-3.7-.3-.4-.1-.7-.1-1.1 0-.4.1-.6.6-.6 1.1z"/><path class="st15" d="M814.9 315.9c-.2.7-.1 1.5.2 2.1.3.6 3.6 2.4 8 1.9 3.3-.3 6.4-1.5 9-3.5 1.7-1 3.6-1.6 5.5-1.6 2.2-.2 5-1.4 5.4-2.4.2-.9.2-1.9-.1-2.8l-28 6.3z"/><path class="st10" d="M832.1 301.9l-1.2-.4c-.2-.1-.4-.1-.6 0-.3.1-.4.5-.4.7-.1.7-.2 1.3-.4 1.9-.3.5-.7 1-1.2 1.3-1.1.9-2.2 1.7-3.5 2.4-1.4.8-2.8 1.5-4.3 2.2s-3.5 1.2-4.6 2c-1.4 1-1.7 3-.7 4.4.2.3.5.6.9.8 1.7 1 6.2 1.9 10.9.4 2.5-.8 5.3-3.6 8.6-4 2.1-.2 6.1-1 7.4-2.6.5-.7-.3-3-.9-4.9-.7-2.1-1-5.5-1.7-5.2 0 .7-.6 1.1-1 1.8-.3.6-.5 1.1-.7 1.7-.2.6-.6 1.1-1.1 1.5-.5.4-1.2.4-1.7 0-.6-.6-.3-1.8-.8-2.5-.4-.5-.9-.8-1.5-.9l-1.5-.6z"/><path class="st16" d="M865.2 201.8c1 16.8 2.8 53.7 2.8 53.7.2 2.1 1 7.1 1.4 14.6.6 10.9.2 38.1.2 38.1s-5.8 2.6-10.6.7c0 0-5.3-37.5-7.3-48.2-1.7-9.4-5.1-27.1-5.1-27.1l-1.6 22.9c.3 4.6.2 9.2-.4 13.8-.6 5-3.2 29.4-3.2 29.4s-6.2 1.7-11.5.1c0 0-.5-38.1-.7-42.7-.2-5.2-1.3-58.8-1.3-58.8l37.3 3.5z"/><path class="st15" d="M846.5 233.7l-2.9-13.7c-3.1.2-6-.9-8.2-3.1 0 0 1.2 3.4 6.9 4.7l2.9 13.8.3 12.9 1-14.6z"/></g><path class="st2" d="M862.1 152c3.3.6 3.5 2.2 4.2 5.5.7 2.6 1 5.3.8 8l-2.5 19.3.8 22.2c-5.3 5.8-26.5 7.6-38.1-.8 0 0-1.9-27.5.4-41.4 1.8-10.7 5.9-14.9 12.7-14.9l11.7 1 10 1.1z"/><path d="M862.1 152c3.3.6 3.5 2.2 4.2 5.5.7 2.6 1 5.3.8 8l-2.5 19.3.8 22.2c-5.3 5.8-26.5 7.6-38.1-.8 0 0-1.9-27.5.4-41.4 1.8-10.7 5.9-14.9 12.7-14.9l11.7 1 10 1.1z" opacity=".8" fill="#fff"/><path class="st15" d="M849.8 126.1c0 5.7-4.7 10.3-10.4 10.3s-10.3-4.7-10.3-10.4 4.7-10.3 10.4-10.3 10.3 4.7 10.3 10.4zM853 128.1l2.2-5.9c1.2-.1 2.4.3 3.2 1.1 1.4 1.4.6 5.8-1.1 10.2 0 0-1.7 7.9-2.4 9.2-.5.8-1.2 1.4-2.1 1.7l.2-16.3z"/><path class="st19" d="M853.2 133.8c.6.4 1.5-.8 2.3-1.6.8-.8 3.3-1.9 4.6.8s-1.1 6.3-3.2 7c-3.5 1.1-4-1.1-4-1.1l-.3 12.5c-1.6 3.4-4.7 5.8-8.4 6.3-6.1.8-4.9-4.2-2.8-6.7v-3.8c-1.5.2-3.1.3-4.7.2-2.5-.4-4.1-2.4-4.9-5.2-1.2-4.4-1.7-8-.6-16.7 1.2-9.5 12.3-9.6 18.2-5.8s3.8 14.1 3.8 14.1z"/><path class="st15" d="M853.1 134.6c1-.3 1.7-1.9 2.4-2.5 1.1-1-.3-10-.3-10 .6-1.6.2-3.4-1-4.6-.9-.8-2.1-1.4-3.3-1.7-3.2-1-6.7-.8-10.1-.4s-6.8.8-10.1.2c-.3-.1-.5-.1-.8-.1-.7.2-1.2.8-1.2 1.6 0 1.6 1.3 3 2.3 4 1.2 1.1 2.5 2 4 2.6 2.5 1 5.3 1.4 8 1.1 1.2-.1 2.3-.4 3.4-.8.2.4.5.8.8 1.2.3.4.7.7 1.1 1 .4.3.9.5 1.3.6.5.1 1 .1 1.2.6.1.3.2.7.2 1.1 0 1.1.1 2.2.1 3.3 0 .6.1 1.1.2 1.6.2.5.6 1 1.1 1.2.3.1.5.1.7 0z"/><path class="st21" d="M841.4 147.1s5.7-1.1 7.7-2.2c1.2-.6 2.1-1.6 2.8-2.7-.3 1.2-.8 2.2-1.6 3.2-1.5 1.9-8.9 3.2-8.9 3.2v-1.5z"/><path class="st15" d="M842.2 132.1c0 .6.6 1.1 1.2 1.1s1.1-.6 1.1-1.2-.5-1.1-1.1-1.1c-.7 0-1.2.5-1.2 1.2zM843.6 128.6l2.5 1.6c.4-.7.2-1.7-.5-2.1-.6-.4-1.5-.2-2 .5z"/><path class="st21" d="M844.2 139l-4 1.7c.5 1.1 1.8 1.7 2.9 1.2 1.1-.5 1.6-1.7 1.1-2.8v-.1z"/><path class="st15" d="M831.8 129.8l2.4-1.5c-.3-.7-1.2-.9-1.8-.5h-.1c-.6.5-.9 1.3-.5 2zM832.8 131.7c0 .6.5 1.2 1.1 1.2.6 0 1.2-.5 1.1-1.2 0-.6-.5-1.2-1.1-1.2-.6.1-1.2.6-1.1 1.2z"/><path class="st21" d="M838.6 131.5l-1 7.2-3.7-1.6z"/><path class="st2" d="M804.7 182l28.5.2 7.3 32.2-27-.9z"/><path class="st8" d="M828.9 205.5c-.1.7.4 1.6 1.7 2.6 1.1.8 1.9 2.3 3.7 2.6 3.7.7 5.5 0 5.5 0l-1-4.4-9.9-.8zM813 184.9l-.2-1c-.1-.6 1.6-1 3.8-1h4.2c2.2 0 4 .5 4.2 1l.2 1H813z"/><path class="st16" d="M822.7 182.1h3.2l-.2-.6c-.1-.3-1-.6-2-.6l-1.8-.1s-.7-2.4-4.4-2.3c-3.7.1-3.3 2.3-3.3 2.3h-1.7c-.9 0-1.6.2-1.5.6s.1.6.1.6h2.9c.6.1.9.2 1.1.8.2 1 .3 1.7.3 1.7l6.5.1s-.3-1.2-.4-1.7.2-.8 1.2-.8z"/><path class="st10" d="M812.8 185l-.2-1c-.1-.6 1.6-1 3.8-1h4.2c2.2 0 4.1.5 4.2 1l.2 1h-12.2z"/><path class="st19" d="M836.5 196.8c2 0 5.2.5 6.9.7.9.1 1.8.1 2.7 0 .7-.1 1.4-.3 2.1-.6 2.4-1.3 22.1-10.8 22.1-10.8l-6.6-17.6s-2.4-9.7-1.3-16c8.3.6 10 5.4 12.5 13.5 2.8 9.3 6.4 19 7 23.6.3 2.1-.5 4.3-4.9 6.4-4.7 2.2-10.1 3.8-25.8 9.3-2.9 1.2-5.9 2.3-9 3.2-8.1 1.8-11.4.5-13.2-2.6-.5-.9-.7-1.9-1.2-2.8-.3-.5-.6-1-.8-1.5-.2-.6.1-1.2.6-1.4.3-.1.5-.1.8 0 1.3.2 2.6.4 3.9.4 1.5.1 3 .1 4.5-.1.1 0 .2 0 .2-.1.2-.1.2-.2 0-.3"/><path class="st2" d="M862.1 152c3.8.2 8.5.2 11 6.5 2.3 5.6 4 10.2 6.7 18.7 2.1 6.6 4.1 12.9 3.4 15-.7 2.1-5.5 4.2-8.1 5.1-4 1.4-15.8 5.2-15.8 5.2-.1-2.8-2.9-6.7-5.5-8.2l15.7-8.5-5.6-15.5c-3.1-5.7-3.7-12.3-1.8-18.3z"/><path class="st20" d="M862.1 152c3.8.2 8.5.2 11 6.5 2.3 5.6 4 10.2 6.7 18.7 2.1 6.6 4.1 12.9 3.4 15-.7 2.1-5.5 4.2-8.1 5.1-4 1.4-15.8 5.2-15.8 5.2-.1-2.8-2.9-6.7-5.5-8.2l15.7-8.5-5.6-15.5c-3.1-5.7-3.7-12.3-1.8-18.3z"/></g></g><g id="freepik--character-1--inject-61"><g id="freepik--character--inject-61_00000076576768594147796380000006091497854054894245_"><path id="freepik--Arm--inject-61" class="st23" d="M751.2 185.9c-7.1-.1-9.1 4.3-11.2 10.2-2 5.7-3.8 12.3-5.6 16-5.4 1.7-15.3 4.3-19.4 4.4-.8 0-1.5-.2-2.1-.7-1.4-1-3-1.8-4.6-2.4-1.4-.6-1.9-1.4-2.2-1.1-.6.6-.7 1.6-.1 2.2.6.7 1.3 1.4 2.1 1.9-2 .3-4 .1-5.9-.5-3.6-1.4-5.6.2-3.5 4.6.8 1.6 4.1 4.3 11.4 4.4 2.6.1 5.2.1 7.8-.1 7.1-.8 14.8-1.7 19.7-2.6 2-.4 3.8-1.5 5-3.2 1.8-2.4 8.7-18.3 11.4-24.7l-2.8-8.4z"/><g id="freepik--character--inject-61"><path class="st15" d="M780.1 340c.4 2.1.6 4.2.7 6.3.2 3.8.9 5.2 1 8.3.2 3.6-.4 4.9-1.8 7s-5.2 4-6.9.6-1.5-5.6-1.1-9.1c.4-3.5.5-5.7.7-8.5.2-2.5.5-4.3.5-4.3l6.9-.3z"/><path class="st23" d="M768.7 310.1l12.6-.5c0 8.4-1.1 22.5-1.1 30.4 0 1.5.3 11.5-.2 14.6-.8 4.6-6.2 4.1-6.6 1.4-.3-2.7.1-14.5 0-15.7-.1-5.1-2.7-18.2-4.1-27.3-.1-.5-.6-2.4-.6-2.9z"/><path class="st15" d="M751.5 333.7s.7 0 .8.5.2 1.6.6 2.6c.5 1.6.8 3.3.7 5-.2 1.2-2.7 3.1-4.6 3.5-1.8.4-4.3 2.4-5.7 3.8-2.2 2-5 3.3-8 3.6-2.2.1-5.5-.3-6.5-2.7-.3-.7-.2-1.5.2-2.1.5-.6 1.1-1 1.8-1.2 1.5-.7 3-1.5 4.4-2.3 2.2-1.3 4.2-2.9 6-4.7.8-.8 1.4-1.6 2-2.5.3-.4.5-.9.7-1.3.2-.5.4-1 .6-1.4l7-.8z"/><path class="st23" d="M751.8 333.7c.1-2.6 1.1-8.1 2.8-23.5l-11.8-.8s1.4 20.1 1.5 22.7c0 2.6-.4 3.6-1.5 5-.9 1.1-2 2.2-3 3.3-1 1.1-2.2 2.1-3.3 3l-2.6 2.1c-.3.2-.6.5-.5.9.1.4.4.4.6.5 1.4.3 2.8.2 4.1-.4 2.1-.8 4-1.8 5.7-3.2.9-.7 1.6-1.5 2.4-2.2.8-.7 1.8-1.3 2.6-2 1.4-1.1 3.7-3.7 3-5.4z"/><path class="st10" d="M770.4 219.2c4 4.7 6.8 10.2 8.3 16.2 2.7 11.7 1.1 45.6 1.1 45.6.2 2.1.4 6 1.5 15.2 1.3 10.9-.4 23.5-.4 23.5s-6.5 1.9-10.7 0c0 0-4.1-22-5.7-32.9-1.4-9.4-5.7-32.9-5.7-32.9l-3.1 30.2s.1 5.1.4 10.1c.4 6.4-2.6 25-2.6 25s-6.1 1.3-10.1 0c0 0-2.7-28-3-35.6-.4-9.2.6-27.6 1.8-42.3.4-4.4 2-17 2.7-20.8l25.5-1.3z"/><path class="st15" d="M758.8 254l-1.5-8.9c-3.8-.2-7.4-1.3-10.6-3.2 2.2 2.7 5.4 4.4 8.9 4.8l1 8-.5 25.6 2.7-26.3z"/><path class="st2" d="M743.9 210c.1 2.6 1 10.6 1 10.6 10.7 7.3 25.7-1 25.7-1l3.9-15.8s-7.1-8.4-1.8-16.6l-8.7-1.3-9.8-.1-3 .1c-3.3 2.4-8.3 7.7-9.4 10.4s-2.6 8.1 2.1 13.7z"/><path class="st20" d="M743.9 210c.1 2.6 1 10.6 1 10.6 10.7 7.3 25.7-1 25.7-1l3.9-15.8s-7.1-8.4-1.8-16.6l-8.7-1.3-9.8-.1-3 .1c-3.3 2.4-8.3 7.7-9.4 10.4s-2.6 8.1 2.1 13.7z"/><path class="st15" d="M741.2 183.6h13.7c11 0 20-9 20-20 0-8.8-7.1-16-16-16H757c-8.8 0-16 7.2-15.9 16l.1 20z"/><path class="st15" d="M770.2 147.6l-1.1 4.2c1.1.3 2.3-.3 2.6-1.4v-.1c.4-1.1-.3-2.3-1.5-2.7z"/><path class="st15" d="M773.8 151.5l-4.3.1c0 1.2.9 2.1 2.1 2.1h.1c1.2 0 2.1-1 2.1-2.2z"/><path class="st23" d="M747.5 155.2c-1.8 1.1-4 5.5-3.8 14.9.2 8 2.8 9.9 4.1 10.5s3.8.2 6.2-.2v4.8s-3.4 3.9-3.1 6.1 4.9 2.7 8 .6c2-1.5 3.8-3.3 5.2-5.4v-12.4s1.3 1.4 3.7-.2c2-1.3 2.6-4 1.3-6-.1-.1-.1-.2-.2-.3-1.3-1.2-3.3-1.1-4.6.2-.1.1-.2.3-.3.4 0 0-3.3-.3-8.4-3.1-4-2.1-6.9-5.7-8.1-9.9z"/><path class="st15" d="M753.5 168.2c-.1.5.4 1 .9 1.1.6 0 1-.4 1-1s-.4-1-1-1c-.4-.1-.9.3-.9.9z"/><path class="st24" d="M752.3 174.9l-2.3.7c.2.6.8 1 1.5.9.7-.2 1-.9.8-1.6z"/><path class="st15" d="M744.6 165.1l2-1.4c-.3-.6-1.1-.7-1.6-.4h-.1c-.5.4-.7 1.2-.3 1.8zM745.1 167.4c0 .6.4 1 1 1s1-.4 1-1-.4-1-.9-1.1c-.6.1-1.1.5-1.1 1.1z"/><path class="st24" d="M750.6 166.9l-.1 6-3.2-1zM754 180.5c2.6-.3 7.8-1.9 8.7-3.9-.3 1.1-1 2-1.9 2.7-1.6 1.4-6.8 2.9-6.8 2.9v-1.7z"/></g><g id="freepik--magnifying-glass--inject-61"><path class="st2" d="M697.6 212c-1-1-1.3-2.4-.9-3.7.9-3.7 3.5-6.8 7.1-8.2 1.2-.6 2.7-.5 3.8.3l62.6 49.5c1.3 1 1.9 2.9 1.5 5.4-1.3 5.2-4.9 9.5-9.9 11.5-2.4.9-4.3.5-5.5-.6L697.6 212z"/><path class="st8" d="M697.6 212c-1-1-1.3-2.4-.9-3.7.9-3.7 3.5-6.8 7.1-8.2 1.2-.6 2.7-.5 3.8.3l62.6 49.5c1.3 1 1.9 2.9 1.5 5.4-1.3 5.2-4.9 9.5-9.9 11.5-2.4.9-4.3.5-5.5-.6L697.6 212z"/><path class="st2" d="M703.8 200c3.3-1.1 5.4.7 4.8 4.1-.9 3.7-3.5 6.8-7 8.2-3.3 1.1-5.4-.7-4.8-4.1.8-3.7 3.4-6.7 7-8.2z"/><path d="M703.8 200c3.3-1.1 5.4.7 4.8 4.1-.9 3.7-3.5 6.8-7 8.2-3.3 1.1-5.4-.7-4.8-4.1.8-3.7 3.4-6.7 7-8.2z" opacity=".25"/><path class="st16" d="M687.4 197.3c.5-2.3 2.1-4.1 4.3-5 .8-.4 1.6-.3 2.3.2l11.7 10.1c.6.6.8 1.5.6 2.3-.5 2.3-2.1 4.1-4.3 5-.8.4-1.6.3-2.3-.2L688 199.6c-.7-.6-.9-1.5-.6-2.3z"/><path class="st10" d="M691.6 192.3c-.3.1-.5.2-.8.4l-.1.1c-.2.1-.4.3-.6.4-1.4 1-2.3 2.5-2.7 4.1-.2.8 0 1.7.5 2.3l3.9 3.4c1.2-1 2.4-2.1 3.4-3.3l9.7 7.9c.6-.8 1-1.7 1.3-2.6.2-.8 0-1.7-.6-2.3l-7.8-6.8-3.8-3.3c-.7-.6-1.6-.6-2.4-.3z"/><path class="st11" d="M707.3 207.2l63.2 51.4c.5-1.1.9-2.2 1.2-3.4.5-2.5-.1-4.4-1.5-5.4l-62.6-49.5c1 1 1.3 2.4.9 3.7-.2 1.2-.6 2.3-1.2 3.2z"/><path class="st8" d="M770.2 249.9l-4.7-3.7c-1.2.7-2.3 1.4-3.2 1.9-1.3.7-2.2.8-2.2 1.1.2.9 1 1.5 1.9 1.4 1.3-.2 2.6-.6 3.9-1-1.4 1.6-2.9 3.1-4.4 4.6-2.9 2.5-3.2 5 1.7 5.8 3.2.5 5.3-.8 8.5-4.9.4-2.4-.2-4.2-1.5-5.2z"/><path class="st2" d="M723 128.4c0-.6 0-1.2-.1-1.9-.1-.6-.1-1.2-.1-1.8 0-.4-.1-.8-.1-1.2-.1-1-.2-2.1-.4-3-.1-.4-.2-.9-.2-1.4s-.2-.8-.3-1.2c-.3-1.1-.5-2.2-.9-3.3-.2-.5-.3-1-.5-1.5 0-.1-.1-.2-.1-.2-.2-.5-.4-1-.5-1.4s-.4-1.1-.7-1.6-.3-.7-.5-1.1c-.1-.3-.2-.5-.4-.8-.2-.3-.3-.7-.5-.9 0-.1-.1-.1-.1-.2-.2-.3-.3-.6-.5-.8-.2-.3-.2-.3-.3-.5-.8-1.2-1.7-2.4-2.6-3.5-.2-.2-.3-.4-.5-.6-.1-.2-.3-.3-.4-.4-.2-.2-.4-.3-.5-.5-.5-.5-1-1-1.6-1.5-.3-.2-.5-.4-.8-.6s-.5-.4-.8-.6c-.4-.3-.9-.6-1.4-.9l-.4-.2-.1-.1-8.6-5-.1-.1c-4.2-2.4-8.9-3.6-13.7-3.5-7.1 0-15.2 2.3-23.7 7.2-29.2 16.9-53 58-53 91.7 0 16.9 5.9 28.7 15.4 34.2h.1l8.6 5 .1.1.1.1.1.1c.4.2.8.5 1.3.7s1.1.5 1.6.7c.5.2 1 .4 1.5.5.3.1.5.2.8.2.3.1.6.2.9.2.3.1.6.2.9.2.2.1.4.1.6.1.4.1.8.2 1.2.2h.3c.5.1.9.1 1.4.2 7.9.8 17.1-1.4 26.9-7.1 29.3-16.9 53-58 53-91.7-.4-.7-.4-1.5-.4-2.3zm-96.5 79.7c-1.2-4.5-1.8-9.2-1.8-13.9 0-32 23.4-72.6 51.1-88.6 4.1-2.4 8.4-4.2 13-5.4 2.2-.5 4.4-.8 6.7-.8 1.1 0 2.3.1 3.4.3h.1c5.7 6.7 6.5 17.5 6.5 23.2 0 32-23.4 72.6-51.1 88.6-7 4.1-13.8 6.2-19.7 6.2-1.2 0-2.4-.1-3.6-.5-2.1-2.7-3.7-5.8-4.6-9.1z"/><path class="st26" d="M723 128.4c0-.6 0-1.2-.1-1.9-.1-.6-.1-1.2-.1-1.8 0-.4-.1-.8-.1-1.2-.1-1-.2-2.1-.4-3-.1-.4-.2-.9-.2-1.4s-.2-.8-.3-1.2c-.3-1.1-.5-2.2-.9-3.3-.2-.5-.3-1-.5-1.5 0-.1-.1-.2-.1-.2-.2-.5-.4-1-.5-1.4s-.4-1.1-.7-1.6-.3-.7-.5-1.1c-.1-.3-.2-.5-.4-.8-.2-.3-.3-.7-.5-.9 0-.1-.1-.1-.1-.2-.2-.3-.3-.6-.5-.8-.2-.3-.2-.3-.3-.5-.8-1.2-1.7-2.4-2.6-3.5-.2-.2-.3-.4-.5-.6-.1-.2-.3-.3-.4-.4-.2-.2-.4-.3-.5-.5-.5-.5-1-1-1.6-1.5-.3-.2-.5-.4-.8-.6s-.5-.4-.8-.6c-.4-.3-.9-.6-1.4-.9l-.4-.2-.1-.1-8.6-5-.1-.1c-4.2-2.4-8.9-3.6-13.7-3.5-7.1 0-15.2 2.3-23.7 7.2-29.2 16.9-53 58-53 91.7 0 16.9 5.9 28.7 15.4 34.2h.1l8.6 5 .1.1.1.1.1.1c.4.2.8.5 1.3.7s1.1.5 1.6.7c.5.2 1 .4 1.5.5.3.1.5.2.8.2.3.1.6.2.9.2.3.1.6.2.9.2.2.1.4.1.6.1.4.1.8.2 1.2.2h.3c.5.1.9.1 1.4.2 7.9.8 17.1-1.4 26.9-7.1 29.3-16.9 53-58 53-91.7-.4-.7-.4-1.5-.4-2.3zm-96.5 79.7c-1.2-4.5-1.8-9.2-1.8-13.9 0-32 23.4-72.6 51.1-88.6 4.1-2.4 8.4-4.2 13-5.4 2.2-.5 4.4-.8 6.7-.8 1.1 0 2.3.1 3.4.3h.1c5.7 6.7 6.5 17.5 6.5 23.2 0 32-23.4 72.6-51.1 88.6-7 4.1-13.8 6.2-19.7 6.2-1.2 0-2.4-.1-3.6-.5-2.1-2.7-3.7-5.8-4.6-9.1z"/><path class="st2" d="M715.4 128.5c0 17-6.6 36.4-17 53.3l-1.5 2.4c-.5.8-.9 1.4-1.3 2-1 1.4-2 2.9-3 4.3-.5.7-1 1.3-1.5 2s-1.1 1.4-1.7 2.1l-3.3 3.9c-.7.9-1.5 1.7-2.2 2.5-5.7 6.3-12.4 11.7-19.7 16.1-1.3.8-2.6 1.5-3.9 2.1-4.2 2.1-8.8 3.5-13.5 4-.8.1-1.5.1-2.2.1h-1.1c-.7 0-1.4-.1-2.1-.2-.4-.1-.7-.1-1-.2s-.6-.1-1-.2c-3.3-.8-6.2-2.7-8.3-5.4 1.2.3 2.4.5 3.6.4 5.8 0 12.6-2.1 19.7-6.2 27.7-16 51.1-56.6 51.1-88.6 0-5.8-.8-16.5-6.5-23.2h-.1c7.2 1.2 11.3 6.1 13.7 11.8.7 1.6 1.2 3.3 1.6 5 0 .1 0 .2.1.3.1.3.1.6.2.9s.1.6.2.9v.2c.1.3.1.6.2 1 .2 1.2.3 2.3.4 3.4 0 .3 0 .6.1.9s0 .5 0 .7v3.7z"/><path class="st26" d="M640 220.6c2.3 0 4.5-.3 6.7-.8 4.6-1.2 8.9-3 13-5.4 27.7-16 51.1-56.6 51.1-88.6 0-4.7-.6-9.3-1.8-13.9-1.2-4.3-3.3-8.5-6.8-11.3l-.3-.1-.9-.3-.5-.2c-.3-.1-.6-.2-1-.2l-.6-.1h-.1.1c5.7 6.7 6.5 17.5 6.5 23.2 0 32-23.4 72.6-51.1 88.6-7.1 4.1-13.8 6.2-19.7 6.2-1.2 0-2.4-.1-3.6-.4l.1.1c.6.8 1.3 1.5 2.1 2.1 2.2.7 4.5 1.1 6.8 1.1z"/><path class="st11" d="M707.6 96.5l-8.7-5.1-.1-.1c-4.2-2.3-8.9-3.6-13.7-3.5-7.1 0-15.2 2.3-23.7 7.2-16.2 9.4-30.7 26.2-40.4 45h.1-.1c-7.8 15.1-12.5 31.7-12.5 46.7 0 16.8 5.9 28.7 15.4 34.2l8 4.7c-9.2-5.7-14.8-17.4-14.8-33.9 0-15 5.1-31.2 12.9-46.3 9.7-18.6 24.1-35.4 40.1-45.5 14.5-9.1 28.3-9.3 37.9-3.4h-.4z"/></g><path id="freepik--arm--inject-61" class="st23" d="M789.6 224.4c-.7-6.6-5.7-21.6-6.9-27.1-1.4-6.2-4-9.4-10-10.2-3 .8-4.5 10.6-.5 17 1.4 4.6 7.1 19.2 7.1 19.2-.3 1.1-6.7 15.4-9.1 19-.4.6-1.1 1.1-1.8 1.3-2 .6-4.5 2.3-6.1 3.2-1.3.7-2.2.8-2.2 1.1.2.9 1 1.5 1.9 1.4 1.3-.2 2.6-.6 3.9-1-1.4 1.6-2.9 3.1-4.5 4.6-2.9 2.6-3.2 5 1.7 5.8 3.7.6 6-1.2 10.2-7.1 1.2-1.7 2.6-4.3 4.1-6.5 3.7-5.6 5.9-7.8 8-11.4 3.4-5.5 4.5-6.7 4.2-9.3z"/></g></g><text transform="translate(56 90.6)"><tspan x="0" y="0" class="st27 st28 st29">Software testing services that </tspan><tspan x="0" y="25.2" class="st27 st28 st29">drive product quality &amp; customer </tspan><tspan x="0" y="50.4" class="st27 st28 st29">satisfaction.</tspan><tspan x="0" y="75.6" class="st27 st28 st29">Confidently deliver software </tspan><tspan x="0" y="100.8" class="st27 st28 st29">faster with a talented team of </tspan><tspan x="0" y="126" class="st27 st28 st29">testers and robust QA processes.</tspan><tspan x="0" y="176.4" class="st27 st28 st30">We are a team of software testers that are </tspan><tspan x="0" y="198" class="st27 st28 st30">passionate about quality and love to test.</tspan><tspan x="0" y="219.6" class="st27 st28 st30">We develop an in-depth understanding of </tspan><tspan x="0" y="241.2" class="st27 st28 st30">the applications under test and include software testing</tspan><tspan x="0" y="262.8" class="st27 st28 st30">services strategies that deliver quantifiable results.</tspan><tspan x="0" y="284.4" class="st27 st28 st30">In short, we help in building incredible software.</tspan></text><text transform="translate(950 575)" class="st28 st30">Lorem ipsum</text></svg>