<?xml version="1.0" encoding="utf-8"?>
<!-- Generator: Adobe Illustrator 18.0.0, SVG Export Plug-In . SVG Version: 6.00 Build 0)  -->
<!DOCTYPE svg PUBLIC "-//W3C//DTD SVG 1.1//EN" "http://www.w3.org/Graphics/SVG/1.1/DTD/svg11.dtd">
<svg version="1.1" id="Layer_1" xmlns="http://www.w3.org/2000/svg" xmlns:xlink="http://www.w3.org/1999/xlink" x="0px" y="0px"
	 viewBox="0 0 35.9 40.9" enable-background="new 0 0 35.9 40.9" xml:space="preserve">
<g>
	<rect x="26.1" y="26.2" fill="#616E7D" width="8.1" height="7.6"/>
	<rect x="14.4" y="19.3" fill="#616E7D" width="8.1" height="14.6"/>
	<polygon fill="#AAD3C7" points="7.4,33.9 2.8,28 2.8,26.5 8.7,33.9 	"/>
	<polygon fill="#AAD3C7" points="9,33.9 2.8,26.1 2.8,24.5 10.2,33.9 	"/>
	<polygon fill="#AAD3C7" points="9.7,11.5 10.9,11.5 10.9,13.1 	"/>
	<polygon fill="#AAD3C7" points="10.9,26.6 2.8,16.4 2.8,14.8 10.9,25.1 	"/>
	<polygon fill="#AAD3C7" points="10.9,28.6 2.8,18.3 2.8,16.8 10.9,27 	"/>
	<polygon fill="#AAD3C7" points="10.9,33.9 10.5,33.9 2.8,24.1 2.8,22.6 10.9,32.8 	"/>
	<polygon fill="#AAD3C7" points="10.9,24.7 2.8,14.4 2.8,12.9 10.9,23.1 	"/>
	<polygon fill="#AAD3C7" points="10.9,32.4 2.8,22.2 2.8,20.6 10.9,30.9 	"/>
	<polygon fill="#AAD3C7" points="10.9,15 8.2,11.5 9.4,11.5 10.9,13.5 	"/>
	<polygon fill="#AAD3C7" points="10.9,30.5 2.8,20.2 2.8,18.7 10.9,29 	"/>
	<polygon fill="#AAD3C7" points="10.9,18.9 5.1,11.5 6.3,11.5 10.9,17.3 	"/>
	<polygon fill="#AAD3C7" points="2.8,31.9 2.8,30.3 5.6,33.9 4.4,33.9 	"/>
	<polygon fill="#AAD3C7" points="2.8,33.8 2.8,32.3 4.1,33.9 2.8,33.9 	"/>
	<polygon fill="#AAD3C7" points="10.9,20.8 3.6,11.5 4.8,11.5 10.9,19.3 	"/>
	<polygon fill="#AAD3C7" points="5.9,33.9 2.8,29.9 2.8,28.4 7.1,33.9 	"/>
	<polygon fill="#AAD3C7" points="10.9,15.4 10.9,16.9 6.6,11.5 7.9,11.5 	"/>
	<polygon fill="#AAD3C7" points="10.9,22.7 2.8,12.5 2.8,11.5 3.3,11.5 10.9,21.2 	"/>
	<polygon fill="#FFFFFF" points="10.9,13.5 9.4,11.5 9.7,11.5 10.9,13.1 	"/>
	<polygon fill="#FFFFFF" points="10.9,15.4 7.9,11.5 8.2,11.5 10.9,15 	"/>
	<polygon fill="#FFFFFF" points="10.9,17.3 6.3,11.5 6.6,11.5 10.9,16.9 	"/>
	<polygon fill="#FFFFFF" points="10.9,19.3 4.8,11.5 5.1,11.5 10.9,18.9 	"/>
	<polygon fill="#FFFFFF" points="10.9,21.2 3.3,11.5 3.6,11.5 10.9,20.8 	"/>
	<polygon fill="#FFFFFF" points="10.9,23.1 2.8,12.9 2.8,12.5 10.9,22.7 	"/>
	<polygon fill="#FFFFFF" points="10.9,25.1 2.8,14.8 2.8,14.4 10.9,24.7 	"/>
	<polygon fill="#FFFFFF" points="10.9,27 2.8,16.8 2.8,16.4 10.9,26.6 	"/>
	<polygon fill="#FFFFFF" points="10.9,29 2.8,18.7 2.8,18.3 10.9,28.6 	"/>
	<polygon fill="#FFFFFF" points="10.9,30.9 2.8,20.6 2.8,20.2 10.9,30.5 	"/>
	<polygon fill="#FFFFFF" points="10.9,32.8 2.8,22.6 2.8,22.2 10.9,32.4 	"/>
	<polygon fill="#FFFFFF" points="10.2,33.9 2.8,24.5 2.8,24.1 10.5,33.9 	"/>
	<polygon fill="#FFFFFF" points="8.7,33.9 2.8,26.5 2.8,26.1 9,33.9 	"/>
	<polygon fill="#FFFFFF" points="7.1,33.9 2.8,28.4 2.8,28 7.4,33.9 	"/>
	<polygon fill="#FFFFFF" points="2.8,30.3 2.8,29.9 5.9,33.9 5.6,33.9 	"/>
	<polygon fill="#FFFFFF" points="2.8,32.3 2.8,31.9 4.4,33.9 4.1,33.9 	"/>
	<polygon fill="#FFFFFF" points="2.8,33.8 2.8,33.9 2.8,33.9 	"/>
	<path fill="#616E7D" d="M0.1,2.1L0.1,2.1l0,35.5c0,0.3,0.1,0.5,0.3,0.7c0.2,0.2,0.4,0.3,0.7,0.3h34.7v-2H2.1V2.1H0.1z"/>
	<path fill="#AAD3C7" d="M27.3,10.2c0.5-0.1,0.9,0.2,1.1,0.6l1,4.2c0.1,0.5-0.2,0.9-0.6,1.1l-3.9,1c-0.5,0.1-0.9-0.2-1.1-0.6
		c-0.1-0.5,0.2-0.9,0.6-1.1l1.7-0.4L14.2,6.3c-0.4-0.3-0.5-0.8-0.2-1.2c0.3-0.4,0.8-0.5,1.2-0.2l12,8.7l-0.6-2.3
		C26.6,10.8,26.9,10.4,27.3,10.2z"/>
</g>
</svg>
