<?xml version="1.0" encoding="utf-8"?>
<!-- Generator: Adobe Illustrator 18.0.0, SVG Export Plug-In . SVG Version: 6.00 Build 0)  -->
<!DOCTYPE svg PUBLIC "-//W3C//DTD SVG 1.1//EN" "http://www.w3.org/Graphics/SVG/1.1/DTD/svg11.dtd">
<svg version="1.1" id="Layer_1" xmlns="http://www.w3.org/2000/svg" xmlns:xlink="http://www.w3.org/1999/xlink" x="0px" y="0px"
	 viewBox="0 0 36.8 36" enable-background="new 0 0 36.8 36" xml:space="preserve">
<g>
	<path fill="#616E7D" d="M23.5,10.9L21.3,13l-3.2,3.2L16,18.4l-2.8,2.8L11,23.3l-0.5,0.5l0.5,0.5L29.8,5.6h0l-0.5-0.5l-2,2V1.6
		c0-0.2-0.1-0.4-0.2-0.5c-0.1-0.1-0.3-0.2-0.5-0.2H2c-0.2,0-0.4,0.1-0.5,0.2C1.4,1.2,1.3,1.4,1.3,1.6v32.8c0,0.2,0.1,0.4,0.2,0.5
		C1.6,35,1.8,35.1,2,35.1h20.1c0.2,0,0.4-0.1,0.5-0.2l2.3-2.2l0,0l2.2-2.2c0.1-0.1,0.2-0.3,0.2-0.5V13l-1.5,1.5v13.9h-4.6
		c-0.2,0-0.4,0.1-0.5,0.2c-0.1,0.1-0.2,0.3-0.2,0.5v4.5H2.8V2.3h23.1v6.2L23.5,10.9z M21.9,29.9h3.9l-3.9,3.8V29.9z"/>
	<rect x="6" y="6.1" fill="#82BFAB" width="17.7" height="2.1"/>
	<polygon fill="#82BFAB" points="4,13 21.3,13 23.5,10.9 4,10.9 	"/>
	<polygon fill="#82BFAB" points="4.1,18.4 16,18.4 18.2,16.2 4.1,16.2 	"/>
	<polygon fill="#82BFAB" points="24.5,18.4 24.5,16.2 24.2,16.2 22,18.4 	"/>
	<polygon fill="#82BFAB" points="24.5,23.3 24.5,21.1 19.2,21.1 17,23.3 	"/>
	<polygon fill="#82BFAB" points="4.1,23.3 11,23.3 13.2,21.1 4.1,21.1 	"/>
	<polygon fill="#82BFAB" points="8.2,28.3 8.2,28.1 9.3,26.1 4.1,26.1 4.1,28.3 	"/>
	<path fill="#82BFAB" d="M12.9,27.3l-2.1,1h8.6v-2.2h-5.2l-0.7,0.7l0,0v0L13,26.3l-0.2-0.2h-0.6l0.7,0.7c0.1,0.1,0.1,0.2,0.1,0.2
		C13.1,27.1,13,27.2,12.9,27.3z"/>
	<polygon fill="#FFFFFF" points="25.8,29.9 21.9,29.9 21.9,33.7 	"/>
	<path fill="#FFFFFF" d="M23.5,10.9l2.4-2.4V2.3H2.8v31.3h17.7v-4.5c0-0.2,0.1-0.4,0.2-0.5c0.1-0.1,0.3-0.2,0.5-0.2h4.6V14.5
		l1.5-1.5l5-5l-9.2,9.2l1.1-1.1h0.3v2.2H22l-8.4,8.4l0,0l0.7-0.7h5.2v2.2h-8.6l-1.6,0.8L8,29.7c-0.1,0.1-0.2,0-0.3-0.1
		c-0.1-0.1-0.1-0.2-0.1-0.3l0.5-1H4.1v-2.2h5.2l0.8-1.7c0-0.1,0.1-0.1,0.2-0.1c0.1,0,0.2,0,0.2,0.1l1.8,1.8h0.6l0.2,0.2L31.7,7.6
		l-2-2L11.1,24.3l-0.5-0.5l0.5-0.5H4.1v-2.2h9.1l2.8-2.8H4.1v-2.2h14.1l3.2-3.2H4v-2.1H23.5z M6,6.1h17.7v2.1H6V6.1z M17,23.3
		l2.2-2.2h5.3v2.2H17z M30,6l1.3,1.3L12.7,26l-1.3-1.3L30,6z"/>
	<polygon fill="#FFFFFF" points="22,18.4 22,18.4 23.1,17.2 	"/>
	
		<rect x="8.1" y="15.1" transform="matrix(-0.7071 0.7071 -0.7071 -0.7071 47.7606 12.1939)" fill="#AAD3C7" width="26.5" height="1.9"/>
	<polygon fill="#616E7D" points="13.5,26.8 13.5,26.8 32.2,8.1 31.7,7.6 13,26.3 	"/>
	<path fill="#82BFAB" d="M10.5,24.3c-0.1-0.1-0.2-0.1-0.2-0.1c-0.1,0-0.2,0.1-0.2,0.1l-0.8,1.7l-1,2l1,1l1.6-0.8l2.1-1
		c0.1,0,0.1-0.1,0.1-0.2c0-0.1,0-0.2-0.1-0.2l-0.7-0.7L10.5,24.3z"/>
	<path fill="#616E7D" d="M7.7,29.3c-0.1,0.1,0,0.2,0.1,0.3c0.1,0.1,0.2,0.1,0.3,0.1l1.2-0.6l-1-1l-0.1,0.1L7.7,29.3z"/>
	<path fill="#616E7D" d="M31.1,3.3l-0.3,0.3l-0.6,0.6l-0.6,0.6l3,3l0.6-0.6l0.6-0.6l0.3-0.3c0.8-0.8,0.8-2.2,0-3
		C33.2,2.5,31.9,2.5,31.1,3.3z"/>
</g>
</svg>
