<?xml version="1.0" encoding="utf-8"?>
<!-- Generator: Adobe Illustrator 18.0.0, SVG Export Plug-In . SVG Version: 6.00 Build 0)  -->
<!DOCTYPE svg PUBLIC "-//W3C//DTD SVG 1.1//EN" "http://www.w3.org/Graphics/SVG/1.1/DTD/svg11.dtd">
<svg version="1.1" id="Layer_1" xmlns="http://www.w3.org/2000/svg" xmlns:xlink="http://www.w3.org/1999/xlink" x="0px" y="0px"
	 viewBox="0 0 45.4 36.4" enable-background="new 0 0 45.4 36.4" xml:space="preserve">
<g>
	<circle fill="none" cx="14.3" cy="14.8" r="5.4"/>
	<path fill="none" d="M32,21.9c-1.7,1-2.2,3.3-1.3,5c1,1.8,3.3,2.4,5.1,1.4c1.8-1,2.3-3.3,1.3-5.1C36.1,21.4,33.7,20.8,32,21.9z"/>
	<path fill="#616E7D" d="M26.6,19c0.3-1,0.5-2,0.6-3.1l-2.1-1c0-0.3,0-0.7,0-1c0-0.1,0-0.2,0-0.4l2-1.3c-0.2-1-0.5-2-1-3l-2.3,0.2
		c-0.2-0.4-0.5-0.8-0.8-1.2l1.1-2.1c-0.7-0.8-1.5-1.5-2.3-2.1l-1.9,1.3c-0.4-0.2-0.8-0.4-1.2-0.6l-0.1-2.3c-1-0.3-2-0.5-3.1-0.6
		l-1,2.1c-0.3,0-0.7,0-1,0c-0.1,0-0.2,0-0.4,0l-1.3-2c-1,0.2-2,0.5-3,1l0.2,2.3C8.5,5.6,8.1,5.9,7.8,6.2L5.7,5.1
		C4.9,5.8,4.2,6.6,3.6,7.4l1.3,1.9c-0.2,0.4-0.4,0.8-0.6,1.2L2,10.7c-0.3,1-0.5,2-0.6,3.1l2.1,1c0,0.3,0,0.7,0,1c0,0.1,0,0.2,0,0.4
		l-2,1.3c0.2,1,0.5,2,1,3l2.3-0.2c0.2,0.4,0.5,0.8,0.8,1.2l-1.1,2.1c0.7,0.8,1.5,1.5,2.3,2.1l1.9-1.3c0.4,0.2,0.8,0.4,1.2,0.6
		l0.1,2.3c1,0.3,2,0.5,3.1,0.6l1-2.1c0.3,0,0.7,0,1,0c0.1,0,0.2,0,0.4,0l1.3,2c1-0.2,2-0.5,3-1l-0.2-2.3c0.4-0.2,0.8-0.5,1.2-0.8
		l2.1,1.1c0.8-0.7,1.5-1.5,2.1-2.3l-1.3-1.9c0.2-0.4,0.4-0.8,0.6-1.2L26.6,19z M14.3,22.5c-4.2,0-7.6-3.4-7.6-7.6
		c0-4.2,3.4-7.6,7.6-7.6c4.2,0,7.6,3.4,7.6,7.6C21.9,19.1,18.5,22.5,14.3,22.5z"/>
	<path fill="#616E7D" d="M7.2,14.8c0,3.9,3.2,7.1,7.1,7.1c3.9,0,7.1-3.2,7.1-7.1c0-3.9-3.2-7.1-7.1-7.1C10.4,7.7,7.2,10.9,7.2,14.8z
		 M19.6,14.4c0.3,3-1.9,5.6-4.9,5.8c-2.9,0.3-5.6-1.9-5.8-4.9c-0.3-3,1.9-5.6,4.9-5.8C16.8,9.2,19.4,11.4,19.6,14.4z"/>
	<path fill="#616E7D" d="M27.8,25c-0.1,3.4,2.6,6.1,6,6.2c3.4,0.1,6.1-2.6,6.2-6c0.1-3.4-2.6-6.1-6-6.2C30.7,19,27.9,21.7,27.8,25z
		 M37.1,23.2c1,1.8,0.5,4-1.3,5.1c-1.8,1.1-4.1,0.4-5.1-1.4c-1-1.7-0.4-3.9,1.3-5C33.7,20.8,36.1,21.4,37.1,23.2z"/>
	<path fill="#616E7D" d="M43.7,26.1c0.1-0.7,0.1-1.4,0-2.1L42,23.6c-0.1-0.4-0.2-0.9-0.4-1.3l1.2-1.2c-0.1-0.3-0.3-0.6-0.5-0.9
		c-0.2-0.3-0.4-0.6-0.6-0.9l-1.6,0.5c-0.3-0.3-0.6-0.7-1-0.9l0.5-1.6c-0.6-0.4-1.2-0.8-1.9-1l-1.2,1.2c-0.4-0.1-0.9-0.3-1.3-0.3
		l-0.4-1.7c-0.7-0.1-1.4-0.1-2.1,0l-0.4,1.7c-0.4,0.1-0.9,0.2-1.3,0.4l-1.2-1.2c-0.3,0.1-0.6,0.3-0.9,0.5c-0.3,0.2-0.6,0.4-0.9,0.6
		l0.5,1.6c-0.3,0.3-0.7,0.6-0.9,1l-1.6-0.5c-0.4,0.6-0.8,1.2-1,1.9l1.2,1.2c-0.1,0.4-0.3,0.9-0.3,1.3l-1.6,0.4
		c-0.1,0.7-0.1,1.4,0,2.1l1.7,0.4c0.1,0.4,0.2,0.9,0.4,1.3L25,29.2c0.1,0.3,0.3,0.6,0.5,0.9c0.2,0.3,0.4,0.6,0.6,0.9l1.6-0.5
		c0.3,0.3,0.6,0.7,1,0.9l-0.4,1.6c0.6,0.4,1.2,0.8,1.9,1l1.2-1.2c0.4,0.1,0.9,0.3,1.3,0.3l0.4,1.7c0.7,0.1,1.4,0.1,2.1,0l0.4-1.7
		c0.4-0.1,0.9-0.2,1.3-0.4l1.2,1.2c0.3-0.1,0.6-0.3,0.9-0.5c0.3-0.2,0.6-0.4,0.9-0.6l-0.5-1.6c0.3-0.3,0.7-0.6,0.9-1l1.6,0.5
		c0.4-0.6,0.8-1.2,1-1.9l-1.2-1.2c0.1-0.4,0.3-0.9,0.3-1.3L43.7,26.1z M33.8,31.5c-3.5-0.1-6.3-3-6.2-6.5c0.1-3.5,3-6.3,6.5-6.2
		c3.5,0.1,6.3,3,6.2,6.5C40.2,28.8,37.3,31.6,33.8,31.5z"/>
	<path fill="#AAD3C7" d="M6.6,14.8c0,4.2,3.4,7.6,7.6,7.6c4.2,0,7.6-3.4,7.6-7.6c0-4.2-3.4-7.6-7.6-7.6C10.1,7.2,6.6,10.6,6.6,14.8z
		 M21.4,14.8c0,3.9-3.2,7.1-7.1,7.1c-3.9,0-7.1-3.2-7.1-7.1c0-3.9,3.2-7.1,7.1-7.1C18.2,7.7,21.4,10.9,21.4,14.8z"/>
	<path fill="#82BFAB" d="M27.6,25c-0.1,3.5,2.7,6.4,6.2,6.5c3.5,0.1,6.4-2.7,6.5-6.2c0.1-3.5-2.7-6.4-6.2-6.5
		C30.5,18.8,27.6,21.5,27.6,25z M40,25.3c-0.1,3.4-2.9,6-6.2,6c-3.4-0.1-6-2.9-6-6.2c0.1-3.4,2.9-6,6.2-6
		C37.4,19.2,40.1,21.9,40,25.3z"/>
</g>
</svg>
