<?xml version="1.0" encoding="utf-8"?>
<!-- Generator: Adobe Illustrator 18.0.0, SVG Export Plug-In . SVG Version: 6.00 Build 0)  -->
<!DOCTYPE svg PUBLIC "-//W3C//DTD SVG 1.1//EN" "http://www.w3.org/Graphics/SVG/1.1/DTD/svg11.dtd">
<svg version="1.1" id="Layer_1" xmlns="http://www.w3.org/2000/svg" xmlns:xlink="http://www.w3.org/1999/xlink" x="0px" y="0px"
	 viewBox="0 0 44.9 33.5" enable-background="new 0 0 44.9 33.5" xml:space="preserve">
<g>
	<path fill="#616E7D" d="M6,3C5.5,3,5,3.4,5,4V24c0,0.5,0.4,1,1,1h32.6c0.5,0,1-0.4,1-1V4c0-0.5-0.4-1-1-1H6z M37.3,22.8H7.3V5.1
		h30.1V22.8z"/>
	<path fill="#616E7D" d="M39.3,25.4H5.4c-0.2,0-0.4,0.1-0.6,0.3l-3.4,3.2c-0.7,0.7-0.3,2,0.6,2h40.7c0.9,0,1.3-1.3,0.6-2l-3.4-3.2
		C39.7,25.5,39.5,25.4,39.3,25.4z"/>
	<path fill="#FFFFFF" d="M37.3,22.8V5.1H7.3v17.7H37.3z M22,16.5h-6.5v-0.8H22V16.5z M29.4,20.9h-7v-0.6h7V20.9z M35.8,19.9H22.4
		v-0.6h13.4V19.9z M35.8,18.8H22.4v-0.6h13.4V18.8z M35.8,17.8H22.4v-0.6h13.4V17.8z M22.4,16.5v-0.8h6.5v0.8H22.4z M35.8,16.5h-6.5
		v-0.8h6.5V16.5z M8.6,6.6h27.2v8.3H8.6V6.6z M8.6,15.7h6.5v0.8H8.6V15.7z M8.6,17.2H22v4.1H8.6V17.2z"/>
	<rect x="8.6" y="6.6" fill="#AAD3C7" width="27.2" height="8.3"/>
	<rect x="8.6" y="15.7" fill="#82BFAB" width="6.5" height="0.8"/>
	<rect x="8.6" y="17.2" fill="#82BFAB" width="13.4" height="4.1"/>
	<rect x="15.5" y="15.7" fill="#82BFAB" width="6.5" height="0.8"/>
	<rect x="22.4" y="15.7" fill="#82BFAB" width="6.5" height="0.8"/>
	<rect x="22.4" y="17.2" fill="#AAD3C7" width="13.4" height="0.6"/>
	<rect x="22.4" y="18.2" fill="#AAD3C7" width="13.4" height="0.6"/>
	<rect x="22.4" y="19.3" fill="#AAD3C7" width="13.4" height="0.6"/>
	<rect x="22.4" y="20.3" fill="#AAD3C7" width="7" height="0.6"/>
	<rect x="29.3" y="15.7" fill="#82BFAB" width="6.5" height="0.8"/>
</g>
</svg>
