<?xml version="1.0" encoding="utf-8"?>
<!-- Generator: Adobe Illustrator 18.0.0, SVG Export Plug-In . SVG Version: 6.00 Build 0)  -->
<!DOCTYPE svg PUBLIC "-//W3C//DTD SVG 1.1//EN" "http://www.w3.org/Graphics/SVG/1.1/DTD/svg11.dtd">
<svg version="1.1" id="Layer_1" xmlns="http://www.w3.org/2000/svg" xmlns:xlink="http://www.w3.org/1999/xlink" x="0px" y="0px"
	 viewBox="0 0 41.6 39.1" enable-background="new 0 0 41.6 39.1" xml:space="preserve">
<g>
	<path fill="#616E7D" d="M21.8,32.3c0,0.4-0.2,0.8-0.6,1l0,0.1H24l0.1,0c1.3,0,2.4-1.1,2.3-2.5c-0.1-1.2-1-2.1-2.2-2.2
		c-1.3-0.1-2.5,1-2.5,2.3v0l0,0V32.3z"/>
	<polygon fill="#AAD3C7" points="27.6,11.6 27.6,11.7 30.7,8.9 30.7,8.7 27.6,5.7 27.6,5.8 	"/>
	<path fill="#AAD3C7" d="M32.8,9.7c-0.2,0.2-0.4,0.2-0.6,0.2c-0.2,0-0.4-0.1-0.6-0.2L31,9l0,0l-3,2.8l0,0h8.6l0,0l-3-2.8l0,0
		L32.8,9.7z"/>
	<polygon fill="#AAD3C7" points="33.8,8.9 36.9,11.7 36.9,11.6 36.9,5.8 36.9,5.7 33.8,8.7 	"/>
	<polygon fill="#AAD3C7" points="27.7,5.5 30.9,8.6 31.1,8.8 31.9,9.5 31.9,9.6 32,9.6 32,9.6 32.1,9.7 32.1,9.7 32.2,9.7 32.2,9.7 
		32.3,9.7 32.3,9.7 32.4,9.7 32.5,9.6 32.5,9.6 32.6,9.6 32.6,9.5 33.4,8.8 33.5,8.6 36.7,5.5 36.7,5.4 27.8,5.4 	"/>
	<circle fill="#616E7D" cx="11.6" cy="13.4" r="4"/>
	<polygon fill="#616E7D" points="21,19.7 20.5,18.8 21,19.7 	"/>
	<polygon fill="#AAD3C7" points="11.2,19.7 10.7,22.7 12.6,22.7 12.1,19.7 12.1,19.7 12.6,18.8 10.7,18.8 11.2,19.7 11.2,19.7 	"/>
	<path fill="#616E7D" d="M32.2,16.5c4.3,0,7.9-3.5,7.9-7.9c0-4.3-3.5-7.9-7.9-7.9c-4.3,0-7.9,3.5-7.9,7.9c0,0.6,0.1,1.1,0.2,1.7
		L21,11.6c-1.6-3.5-5.2-6-9.3-6C6,5.6,1.3,10.2,1.3,15.8c0,5.7,4.6,10.3,10.3,10.3c1.7,0,3.4-0.4,4.8-1.2l2.7,3c0,0,0,0,0,0
		c-1.2,1.3-1.7,3-1.5,4.7c0.3,2.9,2.6,5.1,5.4,5.4c0.2,0,0.4,0,0.6,0c1.7,0,3.4-0.7,4.5-2c1.2-1.3,1.7-3,1.5-4.7
		c-0.3-2.9-2.6-5.1-5.4-5.4c-1.4-0.1-2.8,0.2-3.9,1l-2.6-2.9c2.6-1.9,4.2-4.9,4.2-8.3c0-1-0.2-2-0.4-2.9l3.5-1.2
		C26.2,14.5,29,16.5,32.2,16.5z M32.2,2.2c3.5,0,6.4,2.9,6.4,6.4c0,3.5-2.9,6.4-6.4,6.4c-3.5,0-6.4-2.9-6.4-6.4
		C25.9,5.1,28.7,2.2,32.2,2.2z M24.4,34.7l0.4,0.4l-1,1.1l-1-1.1l0.4-0.4c0,0-0.7-0.6-0.7-0.6c-0.1-0.1,0.4-0.4,0.4-0.4l0.9,2.6
		l0.9-2.6c0,0,0.5,0.3,0.4,0.4C25.1,34.1,24.4,34.7,24.4,34.7z M23.3,34.3l1.1,0l-0.6,1.7h0L23.3,34.3z M23.6,27.5
		c0.2,0,0.3,0,0.5,0c2.2,0.2,3.9,1.9,4.1,4.1c0.1,1.2-0.2,2.4-1,3.3c-0.3-0.8-1.1-1.4-2-1.4h-2.7c-1.1,0-2,0.8-2.1,1.8
		c-0.7-0.7-1.2-1.7-1.3-2.8c-0.1-1.3,0.3-2.6,1.2-3.5C21.1,28,22.3,27.5,23.6,27.5z M13.1,22.7h-0.6h-1.9h-0.6l-0.9-4.6
		c0.1,0,0.2,0,0.3,0h4.2c0.1,0,0.2,0,0.3,0L13.1,22.7z M17.7,22v-0.5c0-2.1-1.7-3.8-3.8-3.8H9.3c-2.1,0-3.8,1.7-3.8,3.8V22
		c-1.6-1.6-2.6-3.8-2.6-6.2c0-4.8,3.9-8.7,8.7-8.7c4.8,0,8.7,3.9,8.7,8.7C20.3,18.3,19.3,20.4,17.7,22z"/>
</g>
</svg>
