<?xml version="1.0" encoding="UTF-8" standalone="no"?> <svg width="48" height="48" viewBox="0 0 48 48" fill="none" xmlns="http://www.w3.org/2000/svg">
<path d="M24 48C37.2548 48 48 37.2548 48 24C48 10.7452 37.2548 0 24 0C10.7452 0 0 10.7452 0 24C0 37.2548 10.7452 48 24 48Z" fill="white"/>
<path d="M38.4 36.2658C38.4 37.4397 37.4398 38.4001 36.2663 38.4001H23.9976C15.0717 38.4001 8.04827 30.2717 9.89747 21.0227C11.0354 15.331 15.5695 10.9021 21.2771 9.85271C30.1675 8.21635 37.9555 14.744 38.3822 23.2816H38.4V36.2658Z" fill="#F4B70A"/>
<path d="M30.6623 31.1313C30.6623 31.1313 31.2 31.4514 31.2 30.7105V23.8756C31.1359 19.9579 27.937 16.8 24 16.8C20.0235 16.8 16.8 20.0216 16.8 23.9955C16.8 27.9695 20.0235 31.191 24 31.191C25.8255 31.191 27.4923 30.5121 28.7614 29.3931L30.6623 31.1313Z" fill="white"/>
</svg>
