<?xml version="1.0" encoding="utf-8"?>
<!-- Generator: Adobe Illustrator 18.0.0, SVG Export Plug-In . SVG Version: 6.00 Build 0)  -->
<!DOCTYPE svg PUBLIC "-//W3C//DTD SVG 1.1//EN" "http://www.w3.org/Graphics/SVG/1.1/DTD/svg11.dtd">
<svg version="1.1" id="Layer_1" xmlns="http://www.w3.org/2000/svg" xmlns:xlink="http://www.w3.org/1999/xlink" x="0px" y="0px"
	 viewBox="0 0 31.9 36.4" enable-background="new 0 0 31.9 36.4" xml:space="preserve">
<g>
	<g>
		<path fill="none" d="M16.9,13c-3.4,0-6.1,2.7-6.1,6.1c0,1.6,0.6,3.2,1.8,4.4c1.2,1.2,2.7,1.8,4.3,1.8l0,0c3.4,0,6.1-2.7,6.1-6.1
			C23,15.8,20.3,13.1,16.9,13L16.9,13z M12.1,15.8c1.1-1.5,2.8-2.4,4.7-2.5c-0.1,1.3-0.3,2.5-0.8,3.7c-1.3-0.4-2.6-0.6-3.9-0.7V15.8
			z M11.4,21.2c-0.2-0.6-0.4-1.3-0.4-2c0-0.7,0.1-1.3,0.4-1.9V21.2z M12.1,22.2v-5.1c1.2,0,2.5,0.2,3.6,0.6
			C14.9,19.4,13.7,21,12.1,22.2z M13.3,22.2c1.4-1.2,2.4-2.6,3.2-4.2c0.8,0.3,1.6,0.8,2.4,1.3C17.3,20.8,15.4,21.9,13.3,22.2z
			 M21.1,15.2c-0.3,1.3-1,2.5-1.8,3.5c-0.8-0.6-1.7-1-2.6-1.4c0.5-1.2,0.8-2.5,0.8-3.9C18.9,13.6,20.2,14.2,21.1,15.2z"/>
		<path fill="#AAD3C7" d="M6.3,18.4c-0.5,0.3-1,0.6-1.5,0.9c0.7,0.7,1.4,1.3,2.3,1.7c-0.1-0.6-0.2-1.3-0.2-2c0-0.1,0-0.1,0-0.2
			C6.7,18.8,6.5,18.6,6.3,18.4z"/>
		<path fill="#AAD3C7" d="M5.8,13.3l-2.3,0c-0.1,0.6-0.7,1.1-1.3,1.1c0.3,1.6,1,3.1,2.1,4.4c0.5-0.4,1.1-0.8,1.7-1.1
			c0-0.1,0-0.1,0-0.2c0-0.4,0.2-0.7,0.4-1C6.1,15.5,5.9,14.4,5.8,13.3z"/>
		<path fill="#AAD3C7" d="M7.1,16.1c0.1,0,0.2-0.1,0.4-0.1c0.3-1,0.8-1.9,1.4-2.8l-2.3,0C6.6,14.3,6.8,15.2,7.1,16.1z"/>
		<path fill="#AAD3C7" d="M11.4,17.2c-0.2,0.6-0.3,1.3-0.4,1.9c0,0.7,0.1,1.4,0.4,2V17.2z"/>
		<path fill="#AAD3C7" d="M4.5,6.2C5.2,6.8,6,7.3,6.8,7.7c0.7-1.7,1.9-3.3,3.3-4.6C7.9,3.4,6,4.5,4.5,6.2z"/>
		<path fill="#AAD3C7" d="M6.5,12.6l2.9,0c0.6-0.6,1.2-1.2,1.9-1.6V9.5C9.9,9.5,8.5,9.2,7.2,8.6C6.8,9.9,6.5,11.2,6.5,12.6z"/>
		<path fill="#AAD3C7" d="M2.1,11.5c0.7,0,1.2,0.4,1.4,1.1l2.3,0c0-1.5,0.2-2.9,0.7-4.2C5.6,7.9,4.8,7.4,4,6.8
			C3,8.2,2.3,9.8,2.1,11.5L2.1,11.5z"/>
		<path fill="#AAD3C7" d="M13.3,22.2c2.1-0.3,4.1-1.4,5.6-2.9c-0.7-0.5-1.5-1-2.4-1.3C15.7,19.6,14.6,21,13.3,22.2z"/>
		<path fill="#AAD3C7" d="M16.7,17.3c0.9,0.4,1.8,0.8,2.6,1.4c0.8-1,1.4-2.2,1.8-3.5c-0.9-1-2.1-1.6-3.5-1.8
			C17.5,14.7,17.2,16,16.7,17.3z"/>
		<path fill="#AAD3C7" d="M21.2,10.4c-0.3-1.3-0.8-2.4-1.6-3.5C19.1,7.3,18.5,7.7,18,8C18,8.1,18,8.3,18,8.5c0,0.3-0.1,0.7-0.3,0.9
			C19,9.5,20.1,9.9,21.2,10.4z"/>
		<path fill="#AAD3C7" d="M11.4,8.8V3c-1.7,1.3-3.1,3-3.9,5C8.7,8.4,10,8.7,11.4,8.8z"/>
		<path fill="#AAD3C7" d="M12.1,3.1v5.7c1,0,2-0.2,3-0.4c0-0.4,0.2-0.8,0.5-1C14.8,5.7,13.6,4.2,12.1,3.1z"/>
		<path fill="#AAD3C7" d="M16.3,7.1c0.1,0,0.2,0,0.3,0c0.4,0,0.7,0.1,0.9,0.4c0.6-0.3,1.1-0.6,1.6-1c-1.5-1.8-3.6-3-5.9-3.3
			C14.5,4.2,15.6,5.5,16.3,7.1z"/>
		<path fill="#AAD3C7" d="M12.1,10.5c1-0.5,2.2-0.9,3.3-1.1c-0.1-0.1-0.2-0.2-0.2-0.4c-1,0.3-2.1,0.4-3.1,0.4V10.5z"/>
		<path fill="#AAD3C7" d="M12.1,22.2c1.6-1.2,2.8-2.7,3.6-4.5c-1.2-0.4-2.4-0.6-3.6-0.6V22.2z"/>
		<path fill="#AAD3C7" d="M12.1,15.8v0.5c1.3,0,2.7,0.2,3.9,0.7c0.5-1.2,0.7-2.4,0.8-3.7C14.9,13.4,13.2,14.3,12.1,15.8z"/>
		<path fill="#82BFAB" d="M16.6,7c-0.1,0-0.2,0-0.3,0c-0.2,0-0.5,0.2-0.7,0.3c-0.3,0.2-0.5,0.6-0.5,1c0,0,0,0.1,0,0.1
			c0,0.2,0,0.4,0.1,0.6c0.1,0.1,0.1,0.3,0.2,0.4c0.4-0.1,0.8-0.1,1.3-0.1l0.1,0c0.3,0,0.6,0,0.9,0.1C17.9,9.2,18,8.8,18,8.5
			C18,8.3,18,8.1,18,8c-0.1-0.2-0.2-0.4-0.4-0.6C17.3,7.2,16.9,7,16.6,7z"/>
		<path fill="#616E7D" d="M2.1,11.5L2.1,11.5c-0.8,0-1.5,0.7-1.5,1.5c0,0.8,0.7,1.5,1.5,1.5l0.1,0c0.7,0,1.2-0.5,1.3-1.1
			c0-0.1,0-0.2,0-0.3c0-0.1,0-0.3-0.1-0.4C3.4,12,2.8,11.5,2.1,11.5z"/>
		<path fill="#82BFAB" d="M6,17.5c0,0.1,0,0.2,0,0.2c0,0.3,0.1,0.5,0.3,0.7c0.2,0.2,0.4,0.4,0.6,0.5c0-1,0.2-1.9,0.5-2.8
			c-0.1,0-0.2,0-0.4,0.1c-0.2,0.1-0.5,0.2-0.6,0.4C6.2,16.8,6,17.1,6,17.5z"/>
		<path fill="#616E7D" d="M29.5,29.5l-4.9-4.9c1.1-1.6,1.6-3.4,1.7-5.3c0-5.2-4.2-9.5-9.4-9.6l-0.1,0c-5.2,0-9.5,4.2-9.5,9.4
			c0,2.5,1,4.9,2.7,6.7c1.8,1.8,4.2,2.8,6.7,2.8l0.1,0c1.8,0,3.5-0.5,5-1.4l4.9,4.9l-0.3-0.3l2.8-2.8L29.5,29.5z M16.9,25.3
			L16.9,25.3c-1.7,0-3.2-0.7-4.4-1.8c-1.2-1.2-1.8-2.7-1.8-4.4c0-3.4,2.8-6.1,6.1-6.1l0,0c3.4,0,6.1,2.8,6.1,6.2
			C23,22.6,20.2,25.3,16.9,25.3z"/>
	</g>
	<path fill="#82BFAB" d="M27.2,32.7l0.7,0.7c0.2,0.2,0.5,0.3,0.8,0.3l0,0c0.5,0,1.1-0.3,1.6-0.7c0.8-0.8,1-1.8,0.5-2.4l-0.9-0.9l0,0
		l0,0l0,0l0.4,0.4L27.4,33L27.2,32.7z"/>
	<polygon fill="#82BFAB" points="27.2,32.7 27,32.5 27,32.5 	"/>
	<polygon fill="#AAD3C7" points="29.8,29.7 29.5,29.5 29.2,29.2 26.4,31.9 26.7,32.2 27,32.5 27.2,32.7 27.2,32.7 27.4,33 
		30.2,30.2 29.8,29.7 29.8,29.7 	"/>
</g>
</svg>
