<?xml version="1.0" encoding="utf-8"?>
<!-- Generator: Adobe Illustrator 18.0.0, SVG Export Plug-In . SVG Version: 6.00 Build 0)  -->
<!DOCTYPE svg PUBLIC "-//W3C//DTD SVG 1.1//EN" "http://www.w3.org/Graphics/SVG/1.1/DTD/svg11.dtd">
<svg version="1.1" id="Layer_1" xmlns="http://www.w3.org/2000/svg" xmlns:xlink="http://www.w3.org/1999/xlink" x="0px" y="0px"
	 viewBox="0 0 33.1 29.7" enable-background="new 0 0 33.1 29.7" xml:space="preserve">
<g>
	<path fill="#616E7D" d="M4.2,18.8l-0.5,0.4l6.8,0.8c1,0.4,2,0.7,3.1,0.8c0.4-3.5,4-6.2,8.5-6.2c1.8,0,3.5,0.4,4.9,1.2
		c0.9-1.3,1.4-2.8,1.4-4.4c0-5.3-5.5-9.5-12.2-9.5C9.4,2,3.9,6.3,3.9,11.6c0,1.9,0.7,3.7,2,5.3l0,0L6,17C5.9,17.3,5,18.1,4.2,18.8z
		 M8,7.3h16v0.9H8V7.3z M8,10.5h16v0.9H8V10.5z M8,13.8h8.5v0.9H8V13.8z"/>
	<path fill="#AAD3C7" d="M14.3,21.4c0,3.3,3.5,6,7.8,6c1,0,1.9-0.1,2.8-0.4l0.2-0.1l2.2,2V26l0.1-0.1c1.6-1.1,2.5-2.8,2.5-4.4
		c0-3.3-3.5-6-7.8-6C17.8,15.4,14.3,18.1,14.3,21.4z"/>
	<rect x="8" y="7.3" fill="#82BFAB" width="16" height="0.9"/>
	<rect x="8" y="10.5" fill="#82BFAB" width="16" height="0.9"/>
	<rect x="8" y="13.8" fill="#82BFAB" width="8.5" height="0.9"/>
</g>
</svg>
