<?xml version="1.0" encoding="UTF-8" standalone="no"?>
<!-- Created with Inkscape (http://www.inkscape.org/) -->

<svg
   xmlns:dc="http://purl.org/dc/elements/1.1/"
   xmlns:cc="http://creativecommons.org/ns#"
   xmlns:rdf="http://www.w3.org/1999/02/22-rdf-syntax-ns#"
   xmlns:svg="http://www.w3.org/2000/svg"
   xmlns="http://www.w3.org/2000/svg"
   xmlns:sodipodi="http://sodipodi.sourceforge.net/DTD/sodipodi-0.dtd"
   xmlns:inkscape="http://www.inkscape.org/namespaces/inkscape"
   width="64"
   height="64"
   viewBox="0 0 16.933333 16.933333"
   version="1.1"
   id="svg8"
   inkscape:version="0.92.3 (2405546, 2018-03-11)"
   sodipodi:docname="15-Mantenance.svg">
  <defs
     id="defs2" />
  <sodipodi:namedview
     id="base"
     pagecolor="#ffffff"
     bordercolor="#666666"
     borderopacity="1.0"
     inkscape:pageopacity="0.0"
     inkscape:pageshadow="2"
     inkscape:zoom="2.828427"
     inkscape:cx="129.17336"
     inkscape:cy="-21.504949"
     inkscape:document-units="px"
     inkscape:current-layer="layer2"
     showgrid="false"
     inkscape:snap-smooth-nodes="true"
     inkscape:snap-page="true"
     inkscape:snap-midpoints="false"
     inkscape:snap-intersection-paths="true"
     inkscape:object-paths="true"
     inkscape:object-nodes="true"
     units="px"
     inkscape:snap-bbox="true"
     inkscape:bbox-paths="false"
     inkscape:snap-bbox-midpoints="false"
     inkscape:window-width="1920"
     inkscape:window-height="1040"
     inkscape:window-x="0"
     inkscape:window-y="0"
     inkscape:window-maximized="1"
     inkscape:snap-grids="true"
     inkscape:snap-to-guides="false"
     inkscape:snap-bbox-edge-midpoints="false"
     inkscape:snap-nodes="true"
     inkscape:snap-others="false"
     inkscape:bbox-nodes="true"
     showguides="true"
     inkscape:guide-bbox="true"
     inkscape:measure-start="0,0"
     inkscape:measure-end="0,0"
     inkscape:snap-global="true">
    <inkscape:grid
       type="xygrid"
       id="grid815"
       enabled="true" />
  </sodipodi:namedview>
  <metadata
     id="metadata5">
    <rdf:RDF>
      <cc:Work
         rdf:about="">
        <dc:format>image/svg+xml</dc:format>
        <dc:type
           rdf:resource="http://purl.org/dc/dcmitype/StillImage" />
        <dc:title />
      </cc:Work>
    </rdf:RDF>
  </metadata>
  <g
     inkscape:groupmode="layer"
     id="layer2"
     inkscape:label="15-Mantenance">
    <path
       style="opacity:1;fill:#a8c5f7;fill-opacity:1;stroke:none;stroke-width:0.529167;stroke-linecap:round;stroke-linejoin:round"
       d="m 1.3229477,0.79373717 h 6.0853908 c 0.2931655,0 0.5291795,0.23601403 0.5291795,0.52917943 v 1.0583077 c 0,0.2931654 -0.236014,0.5291794 -0.5291795,0.5291794 H 1.3229477 c -0.2931654,0 -0.52917941,-0.236014 -0.52917941,-0.5291794 V 1.3229166 c 0,-0.2931654 0.23601401,-0.52917943 0.52917941,-0.52917943 z"
       id="rect8001"
       inkscape:connector-curvature="0"
       sodipodi:nodetypes="ccccccccc" />
    <path
       inkscape:connector-curvature="0"
       style="opacity:1;fill:#91b8fb;fill-opacity:1;stroke:none;stroke-width:0.529167;stroke-linecap:round;stroke-linejoin:round"
       d="M 7.4083332,0.79374999 V 1.8520833 c 0,0.2931654 -0.2360011,0.5291667 -0.5291666,0.5291667 H 0.79374999 c 0,0.2931654 0.23600121,0.5291666 0.52916661,0.5291666 h 6.0854166 c 0.2931655,0 0.5291667,-0.2360012 0.5291667,-0.5291666 V 1.3229166 c 0,-0.2931654 -0.2360012,-0.52916661 -0.5291667,-0.52916661 z"
       id="rect8009"
       sodipodi:nodetypes="ccccccccc" />
    <path
       style="opacity:1;fill:#a8c5f7;fill-opacity:1;stroke:none;stroke-width:0.529167;stroke-linecap:round;stroke-linejoin:round"
       d="m 1.3229477,3.96875 h 6.0853908 c 0.2931655,0 0.5291795,0.236014 0.5291795,0.5291795 v 1.0583076 c 0,0.2931654 -0.236014,0.5291795 -0.5291795,0.5291795 H 1.3229477 c -0.2931654,0 -0.52917941,-0.2360141 -0.52917941,-0.5291795 V 4.4979295 C 0.79376829,4.204764 1.0297823,3.96875 1.3229477,3.96875 Z"
       id="rect8012"
       inkscape:connector-curvature="0"
       sodipodi:nodetypes="ccccccccc" />
    <path
       inkscape:connector-curvature="0"
       id="path7994"
       style="fill:#e2e7fa;fill-opacity:1;stroke:none;stroke-width:0.529167;stroke-linecap:butt;stroke-linejoin:round;stroke-miterlimit:4;stroke-dasharray:none;stroke-opacity:1;paint-order:normal"
       d="m 5.4168643,6.0854308 -0.2895087,0.2892568 -5.292e-4,5.291e-4 -5.291e-4,5.027e-4 0.5136655,0.6929549 0.2945569,0.3978912 c -0.051091,0.08115 -0.09651,0.1652133 -0.1426276,0.2490687 -0.0196,0.035637 -0.04177,0.069838 -0.060457,0.1059231 -1.082e-4,2.108e-4 -3.969e-4,3.175e-4 -5.292e-4,5.291e-4 C 5.5423614,8.1851493 5.3999418,8.5705974 5.3076715,8.970291 L 4.8079591,9.0447173 3.9687309,9.1697562 v 5.291e-4 0.4506005 1.3166642 l 0.6144347,0.09144 0.72864,0.10902 c 0.1206262,0.533098 0.3299228,1.042253 0.6196018,1.505794 L 5.370717,13.401869 5.12577,13.732071 h 5.291e-4 l 0.3183279,0.318311 0.930696,0.931173 0.4991959,-0.369988 h 5.027e-4 l 0.5927297,-0.43869 c 0.07702,0.0484 0.1572246,0.09093 0.236678,0.134862 0.3974253,0.220794 0.8222768,0.388777 1.2660772,0.491422 l 0.1994713,1.340435 h 1.7668202 v -5.03e-4 h 9.79e-4 l 0.19999,-1.343016 c 0.266458,-0.0607 0.526586,-0.144031 0.778249,-0.248038 0.251872,-0.103584 0.495263,-0.227849 0.72709,-0.372572 l 1.088823,0.806121 h 5.29e-4 l 1.249539,-1.249495 -0.808736,-1.091361 c 0.291948,-0.462476 0.503811,-0.970802 0.626833,-1.503729 l 1.115699,-0.166389 0.223243,-0.03308 h 5.29e-4 V 9.1702663 h -5.29e-4 L 14.79597,8.9702955 C 14.675385,8.4368543 14.465715,7.9272977 14.175853,7.4634763 l 0.805121,-1.0872293 5.29e-4,-5.292e-4 -1.249022,-1.2489698 -5.29e-4,5.292e-4 -5.29e-4,-5.292e-4 -1.091409,0.8081875 c -0.02459,-0.015462 -0.05059,-0.028384 -0.07546,-0.043403 C 12.122527,5.6235021 11.641769,5.4247101 11.137769,5.3081405 L 10.937781,3.9697751 h -9.78e-4 V 3.9692459 H 10.054675 L 9.1709755,3.9687432 v 0 5.027e-4 H 9.1704463 L 8.9699398,5.3117473 c -0.1329283,0.030252 -0.2641944,0.066306 -0.3937741,0.1074777 -3.704e-4,1.135e-4 -6.614e-4,3.969e-4 -0.00101,5.292e-4 -0.035126,0.011229 -0.069026,0.02576 -0.1038709,0.03772 -0.1865469,0.06368 -0.3694345,0.1376465 -0.5472509,0.2225211"
       sodipodi:nodetypes="cccccccccccccccccccccccccccccccccccccccccccccccccccccccccccccccccccc" />
    <path
       style="fill:#f8f8f8;fill-opacity:1;stroke:none;stroke-width:2.00000119;stroke-linecap:butt;stroke-linejoin:round;stroke-miterlimit:4;stroke-dasharray:none;stroke-opacity:1;paint-order:normal"
       d="m 34.662109,15 v 0.002 h -0.002 l -0.757812,5.074219 c -0.502406,0.114338 -0.998531,0.25064 -1.488282,0.40625 -0.0014,4.29e-4 -0.0026,0.0015 -0.0039,0.002 -0.132759,0.04244 -0.260881,0.09737 -0.392578,0.142578 -0.705059,0.24068 -1.396297,0.519058 -2.068359,0.839844 L 20.472656,23 l -1.09375,1.09375 -0.002,0.002 -0.002,0.002 1.941406,2.619141 1.113282,1.503906 c -0.1931,0.306709 -0.36476,0.624473 -0.539063,0.941406 -0.07408,0.134691 -0.157888,0.264006 -0.228516,0.400391 l -0.002,0.002 c -0.712609,1.372206 -1.250871,2.829191 -1.599609,4.339844 L 18.171875,34.185547 15,34.658203 v 0.002 1.703125 4.97461 l 2.322266,0.345703 2.753906,0.412109 c 0.45591,2.014859 1.246947,3.93944 2.341797,5.691406 l -2.119141,2.865235 -0.925781,1.248047 h 0.002 l 1.203125,1.203125 3.517578,3.519531 1.148438,-0.851563 L 22.578125,53.103516 21.375,51.900391 h -0.002 l 0.925781,-1.248047 2.119141,-2.865235 c -1.09485,-1.751966 -1.885887,-3.676547 -2.341797,-5.691406 L 19.322266,41.683594 17,41.337891 v -4.97461 -1.703125 -0.002 l 3.171875,-0.472656 1.888672,-0.28125 c 0.348738,-1.510653 0.887,-2.967638 1.599609,-4.339844 l 0.002,-0.002 c 0.07063,-0.136385 0.154437,-0.2657 0.228516,-0.400391 0.174303,-0.316933 0.345963,-0.634697 0.539063,-0.941406 L 23.316406,26.716797 21.375,24.097656 l 0.002,-0.002 0.002,-0.002 L 22.472656,23 31.949219,21.466797 c 0.672062,-0.320786 1.3633,-0.599164 2.068359,-0.839844 0.131697,-0.0452 0.259819,-0.100138 0.392578,-0.142578 0.0013,-5e-4 0.0025,-0.0015 0.0039,-0.002 0.489751,-0.15561 0.985876,-0.291912 1.488282,-0.40625 l 0.757812,-5.074219 z m -4.4375,38.566406 -0.859375,0.636719 c 1.43173,0.769147 2.951953,1.363392 4.539063,1.730469 L 34.658203,61 h 2 l -0.753906,-5.066406 c -1.677356,-0.38795 -3.283076,-1.022925 -4.785156,-1.857422 -0.300297,-0.166042 -0.603432,-0.326837 -0.894532,-0.509766 z"
       transform="scale(0.26458333)"
       id="path844"
       inkscape:connector-curvature="0"
       sodipodi:nodetypes="ccccccccccccccccccccccccccccccccccccccccccccccccccccccccccccccccccccc" />
    <path
       id="path8014"
       d="M 7.4083332,3.9687627 V 5.027096 c 0,0.2931654 -0.2360011,0.5291667 -0.5291666,0.5291667 H 0.79374999 c 0,0.2931655 0.23600121,0.5291666 0.52916661,0.5291666 h 6.0854166 c 0.2931655,0 0.5291667,-0.2360011 0.5291667,-0.5291666 V 4.4979294 c 0,-0.2931655 -0.2360012,-0.5291667 -0.5291667,-0.5291667 z"
       style="opacity:1;fill:#91b8fb;fill-opacity:1;stroke:none;stroke-width:0.529167;stroke-linecap:round;stroke-linejoin:round"
       inkscape:connector-curvature="0"
       sodipodi:nodetypes="ccccccccc" />
    <path
       style="opacity:1;fill:#a8c5f7;fill-opacity:1;stroke:none;stroke-width:0.529167;stroke-linecap:round;stroke-linejoin:round;stroke-miterlimit:4;stroke-dasharray:none;stroke-dashoffset:0;stroke-opacity:1"
       d="m 13.229167,10.054166 c 0,1.753504 -1.421496,3.175 -3.175,3.175 -1.7535042,0 -3.1750003,-1.421496 -3.1750004,-3.175 -10e-8,-1.7535043 1.4214961,-3.1750005 3.1750004,-3.1750004 1.753504,10e-8 3.175,1.4214962 3.175,3.1750004 z"
       id="circle7987"
       inkscape:connector-curvature="0"
       sodipodi:nodetypes="ccccc" />
    <path
       style="opacity:1;fill:#f8f8f8;fill-opacity:1;stroke:none;stroke-width:2.00000119;stroke-linecap:round;stroke-linejoin:round;stroke-miterlimit:4;stroke-dasharray:none;stroke-dashoffset:0;stroke-opacity:1"
       d="M 47.675781 30.921875 C 48.516401 32.602544 49 34.492982 49 36.5 C 49 43.403558 43.403558 49 36.5 49 C 34.492982 49 32.602544 48.516401 30.921875 47.675781 C 32.907614 49.131108 35.349397 50 38 50 C 44.627417 50 50 44.627417 50 38 C 50 35.349397 49.131108 32.907614 47.675781 30.921875 z "
       transform="scale(0.26458333)"
       id="path854" />
    <path
       style="fill:#c4d2f0;fill-opacity:1;stroke:none;stroke-width:0.529167;stroke-linecap:butt;stroke-linejoin:round;stroke-miterlimit:4;stroke-dasharray:none;stroke-opacity:1;paint-order:normal"
       d="m 9.1710162,3.96875 v 5.291e-4 h 0.3545004 0.5291664 z m 1.2366168,5.291e-4 v 5.292e-4 h 10e-4 l 0.199988,1.3384196 c 0.504,0.1165696 0.984759,0.3153966 1.426786,0.5834269 0.02487,0.015018 0.05086,0.027946 0.07545,0.043408 L 12.33878,5.7660812 C 11.960085,5.5622859 11.557745,5.4053268 11.137821,5.3082031 L 10.937834,3.9697834 h -0.001 v -5.292e-4 z m 3.323829,1.1575521 -0.303341,0.2247924 1.024227,1.0242269 -5.29e-4,5.292e-4 -0.805119,1.0872721 c 0.289862,0.4638215 0.499532,0.9734436 0.620117,1.5068849 l 1.34307,0.1999877 h 5.29e-4 v 1.7668176 h -5.29e-4 l -0.223242,0.03307 -1.115694,0.166398 c -0.123022,0.532927 -0.334887,1.041308 -0.626835,1.503784 l 0.808736,1.091406 -1.024744,1.024744 0.303858,0.224792 h 5.29e-4 L 14.982031,13.732 14.173295,12.640594 c 0.291948,-0.462476 0.503813,-0.970857 0.626835,-1.503784 l 1.115694,-0.166398 0.223242,-0.03307 h 5.17e-4 V 9.1705244 h -5.29e-4 L 14.795983,8.9705367 C 14.675399,8.4370954 14.465728,7.9274733 14.175866,7.4636518 l 0.805119,-1.0872721 5.29e-4,-5.292e-4 -1.249019,-1.2490193 -5.29e-4,5.292e-4 z m -1.617473,9.0485428 c -0.231827,0.144723 -0.475215,0.269003 -0.727087,0.372587 -0.251663,0.104007 -0.511789,0.187347 -0.778247,0.248047 l -0.199988,1.343071 h -10e-4 v 5.04e-4 h 0.529167 v -5.29e-4 h 0.001 l 0.199987,-1.343071 c 0.266458,-0.0607 0.526584,-0.144039 0.778247,-0.248046 0.145871,-0.05999 0.287782,-0.128752 0.427365,-0.202572 z"
       id="path7998"
       inkscape:connector-curvature="0"
       sodipodi:nodetypes="cccccccccccccccccccccccccccccccccccccccccccccccccccccccccccccc" />
    <path
       style="opacity:1;fill:#e2e7fa;fill-opacity:1;stroke:none;stroke-width:0.52916664;stroke-linecap:butt;stroke-linejoin:round;stroke-miterlimit:4;stroke-dasharray:none;stroke-dashoffset:0;stroke-opacity:1"
       d="M 10.847917,13.128347 V 11.460799 C 11.493558,11.154545 11.905418,10.504177 11.90625,9.7895832 11.905418,9.0749894 11.493558,8.4246216 10.847917,8.1183675 v 1.4066324 c 0,0.2931583 -0.236009,0.5291671 -0.529167,0.5291671 H 9.7895832 c -0.2931583,0 -0.5291666,-0.2360088 -0.5291666,-0.5291671 V 8.1188842 c -0.6454736,0.306174 -1.057302,0.956292 -1.0583334,1.670699 0.00103,0.7144068 0.4128598,1.3645248 1.0583334,1.6706988 v 1.668065 z"
       id="path7975"
       inkscape:connector-curvature="0"
       sodipodi:nodetypes="cccccccccccc" />
    <path
       inkscape:connector-curvature="0"
       style="opacity:1;fill:#e2e7fa;fill-opacity:1;stroke:none;stroke-width:0.52916664;stroke-linecap:butt;stroke-linejoin:round;stroke-miterlimit:4;stroke-dasharray:none;stroke-dashoffset:0;stroke-opacity:1"
       d="M 1.5875,2.9104166 H 7.1437501 V 3.9687499 H 1.5875 Z"
       id="rect8016"
       sodipodi:nodetypes="ccccc" />
    <path
       inkscape:connector-curvature="0"
       style="opacity:1;fill:#c4d2f0;fill-opacity:1;stroke:none;stroke-width:0.52916664;stroke-linecap:butt;stroke-linejoin:round;stroke-miterlimit:4;stroke-dasharray:none;stroke-dashoffset:0;stroke-opacity:1"
       d="m 10.847917,8.1183675 v 0.3834389 c 0.330904,0.3395199 0.528595,0.7969983 0.529166,1.2877768 -8.2e-4,0.7145938 -0.412692,1.3649618 -1.058333,1.6712158 v 1.667599 h 0.529167 V 11.460799 C 11.493558,11.154545 11.905418,10.504177 11.90625,9.7895832 11.90543,9.0749894 11.493558,8.4246216 10.847917,8.1183675 Z"
       id="path7979"
       sodipodi:nodetypes="ccccccccc" />
    <path
       inkscape:connector-curvature="0"
       style="opacity:1;fill:#c4d2f0;fill-opacity:1;stroke:none;stroke-width:0.52916664;stroke-linecap:butt;stroke-linejoin:round;stroke-miterlimit:4;stroke-dasharray:none;stroke-dashoffset:0;stroke-opacity:1"
       d="m 9.2604166,12.595614 v 0.532784 h 1.5875004 v -0.531751 c -0.259164,0.0678 -0.525866,0.102526 -0.79375,0.103353 -0.2679281,-0.0012 -0.5346312,-0.03624 -0.7937504,-0.104386 z"
       id="path7984"
       sodipodi:nodetypes="cccccc" />
    <path
       inkscape:connector-curvature="0"
       style="opacity:1;fill:#91b8fb;fill-opacity:1;stroke:none;stroke-width:0.529167;stroke-linecap:round;stroke-linejoin:round;stroke-miterlimit:4;stroke-dasharray:none;stroke-dashoffset:0;stroke-opacity:1"
       d="m 10.054167,6.8791666 c -1.7535043,-10e-8 -3.1750005,1.4214961 -3.1750004,3.1750004 1e-7,1.753504 1.4214962,3.175 3.1750004,3.175 0.05188,-4.62e-4 0.103748,-0.0022 0.155546,-0.0052 C 8.6456034,13.166225 7.4069298,11.882374 7.4052326,10.3172 7.4051991,8.708951 8.708951,7.4051991 10.3172,7.4052326 c 1.547403,7.962e-4 2.823931,1.2117266 2.906282,2.7569374 0.0025,-0.03597 0.0044,-0.07197 0.0057,-0.108003 0,-1.7535042 -1.421496,-3.1750003 -3.175,-3.1750004 z"
       id="circle7991"
       sodipodi:nodetypes="cccccccccc" />
    <path
       style="opacity:1;fill:#f8f8f8;fill-opacity:1;stroke:none;stroke-width:1.99999988;stroke-linecap:butt;stroke-linejoin:round;stroke-miterlimit:4;stroke-dasharray:none;stroke-dashoffset:0;stroke-opacity:1"
       d="M 35,30.685547 C 32.560415,31.84274 31.003898,34.299879 31,37 c 0.0039,2.70012 1.560415,5.15726 4,6.314453 v 6.304688 h 2 V 43.314453 C 34.560415,42.15726 33.003893,39.70012 33,37 c 0.0027,-1.853705 0.750415,-3.580625 2,-4.863281 z"
       transform="scale(0.26458333)"
       id="path849"
       inkscape:connector-curvature="0"
       sodipodi:nodetypes="ccccccccc" />
    <path
       style="opacity:1;fill:#f8f8f8;fill-opacity:1;stroke:none;stroke-width:2.00000119;stroke-linecap:round;stroke-linejoin:round"
       d="M 5 3 C 3.8919733 3 3 3.8919733 3 5 L 3 9 C 3 10.108027 3.8919733 11 5 11 L 7 11 C 5.8919733 11 5 10.108027 5 9 L 5 5 C 5 3.8919733 5.8919733 3 7 3 L 5 3 z "
       transform="scale(0.26458333)"
       id="path859" />
    <path
       id="path862"
       d="m 1.3229167,3.9687499 c -0.2931654,0 -0.52916671,0.2360013 -0.52916671,0.5291667 v 1.0583333 c 0,0.2931655 0.23600131,0.5291667 0.52916671,0.5291667 h 0.5291666 c -0.2931654,0 -0.5291666,-0.2360012 -0.5291666,-0.5291667 V 4.4979166 c 0,-0.2931654 0.2360012,-0.5291667 0.5291666,-0.5291667 z"
       style="opacity:1;fill:#f8f8f8;fill-opacity:1;stroke:none;stroke-width:0.529167;stroke-linecap:round;stroke-linejoin:round"
       inkscape:connector-curvature="0" />
    <path
       inkscape:connector-curvature="0"
       id="Icon_29"
       style="color:#000000;font-style:normal;font-variant:normal;font-weight:normal;font-stretch:normal;font-size:medium;line-height:normal;font-family:sans-serif;font-variant-ligatures:normal;font-variant-position:normal;font-variant-caps:normal;font-variant-numeric:normal;font-variant-alternates:normal;font-feature-settings:normal;text-indent:0;text-align:start;text-decoration:none;text-decoration-line:none;text-decoration-style:solid;text-decoration-color:#000000;letter-spacing:normal;word-spacing:normal;text-transform:none;writing-mode:lr-tb;direction:ltr;text-orientation:mixed;dominant-baseline:auto;baseline-shift:baseline;text-anchor:start;white-space:normal;shape-padding:0;clip-rule:nonzero;display:inline;overflow:visible;visibility:visible;isolation:auto;mix-blend-mode:normal;color-interpolation:sRGB;color-interpolation-filters:linearRGB;solid-color:#000000;solid-opacity:1;vector-effect:none;fill:#66a0fe;fill-opacity:1;fill-rule:nonzero;stroke:none;stroke-width:0.99999994;stroke-linecap:round;stroke-linejoin:round;stroke-miterlimit:4;stroke-dasharray:none;stroke-dashoffset:0;stroke-opacity:1;color-rendering:auto;image-rendering:auto;shape-rendering:auto;text-rendering:auto;enable-background:accumulate"
       d="m 13.564196,4.9216267 -0.94413,0.6966 c -0.38475,-0.2235599 -0.80459,-0.4055398 -1.2454,-0.51987 l -0.17518,-1.1668499 c -0.002,-0.0662 -0.0565,-0.13311 -0.0822,-0.1560599 -0.0447,-0.0442 -0.120719,-0.0641 -0.148309,-0.0682 -0.30153,-0.005 -0.61023,-0.00201 -0.91416,-0.00201 h -0.8826306 -0.00201 -0.00201 c -0.0819,-0.007 -0.15269,0.0497 -0.1896499,0.0817 -0.0465,0.0483 -0.0624,0.10699 -0.0703,0.1426299 L 8.7335449,5.1010659 c -0.1729301,0.0371 -0.3600501,0.10443 -0.5322599,0.1751899 V 4.4979959 c 0,-0.43516 -0.35755,-0.7927099 -0.79272,-0.7927099 V 3.1761267 c 0.43517,0 0.79272,-0.3601299 0.79272,-0.7952999 v -1.05841 C 8.2012765,0.88724687 7.8437366,0.52917689 7.4085766,0.52917689 H 1.3223867 c -0.43516987,0 -0.79322985,0.35806998 -0.79322985,0.79323991 v 1.05833 c 0,0.43517 0.35805998,0.7953 0.79322985,0.7953 v 0.5291698 c -0.43516987,0 -0.79322985,0.35755 -0.79322985,0.7927102 v 1.0588498 c 0,0.43517 0.35805998,0.79272 0.79322985,0.79272 h 3.5403501 c -0.006,0.0655 0.0118,0.1311499 0.0512,0.18397 0.2349,0.3171201 0.4699301,0.6341401 0.70539,0.95084 -0.2310701,0.3788701 -0.4193701,0.8629899 -0.52555,1.2490199 -0.3877202,0.0607 -0.7760801,0.1171299 -1.1642701,0.1746699 -0.1292199,0.019899 -0.2245199,0.13125 -0.2242799,0.2620002 v 1.7673294 c -2.4e-4,0.13075 0.0951,0.24207 0.2242799,0.262 0.3894801,0.0575 0.7785499,0.11619 1.1678901,0.17467 0.1146299,0.42929 0.2893798,0.8692 0.5162399,1.25315 -0.2329701,0.31603 -0.4661,0.63166 -0.6997001,0.94723 -0.1238398,0.16632 -0.006,0.32491 0.0563,0.37827 0.4066199,0.40432 0.81192,0.81008 1.2175001,1.21543 0.0929,0.0932 0.2402199,0.10405 0.3457098,0.0253 0.3181001,-0.23434 0.6355001,-0.46961 0.9529199,-0.70486 0.43962,0.25332 0.86087,0.42297 1.24798,0.52296 l 0.17364,1.16634 c 0.019,0.13004 0.13057,0.22642 0.2619999,0.22634 h 1.7673307 c 0.0727,-3.97e-4 0.142019,-0.0307 0.191719,-0.0837 0.0201,-0.0213 0.0365,-0.0457 0.0486,-0.0724 0.0411,-0.0642 0.13457,-0.82885 0.19534,-1.23765 0.45476,-0.11542 0.87091,-0.31265 1.25419,-0.51728 l 0.94723,0.70022 c 0.0457,0.0342 0.10112,0.0526 0.15813,0.0527 0.0704,-2e-5 0.13793,-0.0281 0.18758,-0.078 l 1.25006,-1.247989 c 0.0932,-0.0929 0.10404,-0.24022 0.0253,-0.34572 l -0.70332,-0.948771 c 0.2226,-0.3848 0.40776,-0.81516 0.52038,-1.25109 l 0.94258,-0.14211 0.20309,-0.031 c 0.13861,-0.01 0.24604,-0.12511 0.24598,-0.26407 V 9.1699765 c -2.1e-4,-0.1387599 -0.10757,-0.2537798 -0.24598,-0.2635498 l -1.14825,-0.17208 c -0.11048,-0.4298302 -0.29042,-0.86776 -0.51728,-1.2541901 l 0.68884,-0.93121 c 0.0903,-0.1049398 0.0845,-0.2617499 -0.0134,-0.3596701 l -1.24899,-1.2500498 c -0.039,-0.0478 -0.11587,-0.0702 -0.15238,-0.0739 -0.10191,-0.0152 -0.16646,0.0321 -0.20254,0.0563 z M 1.3223867,1.0588669 H 2.6463368 V 2.6463668 H 1.3223867 c -0.1511599,0 -0.2635499,-0.11446 -0.2635499,-0.26562 v -1.05833 c 0,-0.15117 0.11239,-0.2635499 0.2635499,-0.2635499 z m 1.8536401,0 h 4.2322998 c 0.1511599,0 0.2656099,0.1123799 0.2656099,0.2635499 v 1.05833 c 0,0.15116 -0.11445,0.26562 -0.2656099,0.26562 H 3.1760268 Z M 1.8520767,1.5875168 c -0.14613,0 -0.26459,0.11845 -0.26459,0.26458 0,0.14613 0.11846,0.26458 0.26459,0.26458 0.14612,0 0.2645801,-0.11845 0.2645801,-0.26458 0,-0.14613 -0.1184601,-0.26458 -0.2645801,-0.26458 z m 2.11666,5.107e-4 c -0.14532,5.688e-4 -0.2629799,0.11823 -0.2635498,0.26355 -5.821e-4,0.14613 0.1174297,0.2650499 0.2635498,0.2656199 H 6.8786366 C 7.0257767,2.1180573 7.1453467,1.9987174 7.1447767,1.8515775 7.1441867,1.7052468 7.0249665,1.5871768 6.8786366,1.5880268 Z m -2.11718,1.5880193 H 6.8786366 V 3.7052166 H 1.8515567 Z m -0.52917,1.0562698 H 2.6463368 V 5.8203267 H 1.3223867 c -0.1511599,0 -0.2635499,-0.1123799 -0.2635499,-0.2635501 V 4.4979268 c 0,-0.1511601 0.11239,-0.2656102 0.2635499,-0.2656102 z m 1.8536401,0 h 4.2322998 c 0.1511599,0 0.2656099,0.1144501 0.2656099,0.2656102 v 1.0588498 c 0,0.1511702 -0.11445,0.2635501 -0.2656099,0.2635501 H 3.1760268 Z m 6.2223599,0.00101 0.6562903,0.00101 h 0.65422 l 0.16795,1.11311 c 0.0158,0.1073401 0.0954,0.1941801 0.201019,0.2191001 0.6122,0.1510199 1.00747,0.34563 1.42213,0.5916999 0.0916,0.0577 0.20907,0.0538 0.29663,-0.01 l 0.90847,-0.6738679 c 0.30969,0.3087902 0.62004,0.6173102 0.92759,0.9281102 l -0.66973,0.9038299 c -0.0645,0.0872 -0.0692,0.20502 -0.0119,0.29714 0.2741,0.43859 0.47198,0.9213001 0.58601,1.4257499 0.0244,0.1068602 0.11214,0.18763 0.22066,0.2030899 l 1.11724,0.16588 v 1.3105094 l -1.11311,0.16588 c -0.10792,0.0161 -0.19493,0.0967 -0.21911,0.20309 -0.11634,0.50399 -0.31768,0.98481 -0.59376,1.42214 -0.058,0.0925 -0.0533,0.21111 0.0119,0.29869 l 0.67179,0.90847 -0.92552,0.92553 -0.90641,-0.66973 c -0.0871,-0.0643 -0.20463,-0.069 -0.29662,-0.0119 -0.45635,0.27369 -0.94454,0.47654 -1.42627,0.58808 -0.105429,0.0249 -0.185069,0.11145 -0.201019,0.21859 l -0.16795,1.11724 H 9.3983769 l -0.1658901,-1.11518 c -0.0162,-0.10772 -0.0969,-0.19448 -0.2030801,-0.21859 -0.4181798,-0.0967 -0.8200998,-0.2555 -1.1973499,-0.46509 -0.0821,-0.0454 -0.1566399,-0.0856 -0.2227199,-0.12712 -0.0925,-0.058 -0.21112,-0.0533 -0.29869,0.0119 l -0.91002,0.67179 c -0.3086899,-0.3085 -0.6174499,-0.61693 -0.9260499,-0.92552 0.22269,-0.30254 0.4463799,-0.60435 0.66973,-0.90641 0.0643,-0.0871 0.069,-0.20462 0.011901,-0.29662 -0.2738901,-0.43827 -0.4719201,-0.91999 -0.5860201,-1.4242 -0.024101,-0.10624 -0.1108599,-0.18684 -0.21859,-0.20309 -0.3731498,-0.0557 -0.7462499,-0.11169 -1.1193097,-0.16795 V 9.3981884 c 0.3711498,-0.0557 0.7423898,-0.1108099 1.1136299,-0.16588 0.1085199,-0.015499 0.19627,-0.0962 0.2206598,-0.2030899 0.16017,-0.6662301 0.30221,-0.91752 0.5916901,-1.4221399 0.058,-0.0925 0.0533,-0.21111 -0.011901,-0.29869 C 5.9235069,7.0061387 5.6994469,6.7050786 5.475607,6.4035385 l 0.0517,-0.0543 h 1.88103 c 0.3215201,0 0.5995199,-0.19582 0.7234701,-0.47336 0.2962698,-0.1375399 0.5937099,-0.22739 0.8976198,-0.3059199 0.1062299,-0.024101 0.18684,-0.11087 0.2030801,-0.21859 z m -5.42551,0.52813 c -0.1471399,-5.821e-4 -0.2664799,0.119 -0.26562,0.2661298 5.821e-4,0.1461302 0.1194901,0.26412 0.26562,0.2635501 h 2.9057599 c 0.1463299,8.422e-4 0.26557,-0.1172244 0.2661401,-0.2635546 8.732e-4,-0.1473398 -0.1188,-0.2669998 -0.2661401,-0.2661298 z m -2.1208,0.00101 c -0.14613,0 -0.26459,0.11846 -0.26459,0.2645802 0,0.1461299 0.11846,0.2645899 0.26459,0.2645899 0.14612,0 0.2645801,-0.11846 0.2645801,-0.2645899 0,-0.1461202 -0.1184601,-0.2645802 -0.2645801,-0.2645802 z m 8.2026003,1.8526 c -1.8965003,0 -3.4395903,1.5430899 -3.4395903,3.4395804 0,1.896499 1.54309,3.439589 3.4395903,3.439589 1.896489,0 3.439579,-1.54309 3.439579,-3.439589 0,-1.8964905 -1.54309,-3.4395804 -3.439579,-3.4395804 z m 2.910409,3.4395804 c 0,1.236239 -0.76723,2.286709 -1.85156,2.709399 v -1.14205 c 0.65663,-0.38073 1.05538,-1.07724 1.05626,-1.8329595 -9.53e-4,-0.8160699 -0.47139,-1.5602201 -1.208709,-1.9099601 -0.0389,-0.018701 -0.0819,-0.0276 -0.12506,-0.025799 -0.14165,0.007 -0.25287,0.1237999 -0.25218,0.2656099 v 1.4066401 c 0,0.1511498 -0.11446,0.2635499 -0.26561,0.2635499 H 9.7890567 c -0.1511602,0 -0.2635502,-0.1124001 -0.2635502,-0.2635499 V 8.1188767 c 7.938e-4,-0.1951501 -0.2027399,-0.32399 -0.3787899,-0.23978 -0.73713,0.3496498 -1.2080499,1.0941097 -1.20923,1.9099598 0.00101,0.7462695 0.40244,1.4588195 1.0578201,1.8298595 l 0.00101,1.14567 c -1.0846599,-0.42253 -1.85157,-1.47344 -1.85157,-2.709909 0,-1.6105105 1.2993901,-2.9099004 2.9099153,-2.9099154 1.610524,-1.5e-5 2.910424,1.2993749 2.910424,2.9098854 z m -1.85156,-1.4469404 c 0.14981,0.1386399 0.52052,0.52334 0.52916,1.1813299 -7.15e-4,0.6131095 -0.35451,1.1707395 -0.908469,1.4334995 -0.0917,0.0439 -0.1502,0.13652 -0.15038,0.23823 v 1.45366 c -0.17175,0.0314 -0.34816,0.0506 -0.52916,0.0506 -0.1810106,0 -0.3574204,-0.0192 -0.5291705,-0.0506 v -1.45368 c 2.501e-4,-0.10293 -0.0592,-0.19667 -0.15245,-0.2403 -0.5538099,-0.26269 -0.90552,-0.81848 -0.9064,-1.4314294 -0.006,-0.5122201 0.2798101,-0.9745501 0.5296802,-1.18081 v 0.9172599 c 0,0.44069 0.3575598,0.7927095 0.79272,0.7927095 h 0.5291703 c 0.44318,0 0.795299,-0.3575493 0.795299,-0.7927095 z"
       sodipodi:nodetypes="cccccccccccccccccccccccccccccccccccccccccccccccccccccccccccccccccccccccccccccccccccccccccccccccccccccccccccccccccccccccccccccccccccccccccccccccccccccccccccccccccccccccccccccccccccccccccccccccccccccccccccccccccccccccccc"
       inkscape:export-filename="/home/wanzabuyumna/@WANZ_DESIGN/Export/Style Line/Icon 29/Icon 29.png"
       inkscape:export-xdpi="102.4"
       inkscape:export-ydpi="102.4" />
  </g>
</svg>
