<?xml version="1.0" encoding="UTF-8" standalone="no"?> <svg width="512" height="512" viewBox="0 0 512 512" fill="none" xmlns="http://www.w3.org/2000/svg">
<path fill-rule="evenodd" clip-rule="evenodd" d="M172.436 101.577C192.993 65.6031 219.7 43.9377 248 40.487V151.856C216.128 150.695 186.018 142.63 159.121 129.11C163.131 119.269 167.589 110.06 172.436 101.577ZM145.014 121.345C149.098 111.515 153.623 102.251 158.544 93.639C168.686 75.8904 180.695 60.6405 194.184 48.9752C162.844 58.3194 134.488 74.586 110.889 96.0012C121.377 105.518 132.803 114.018 145.014 121.345ZM99.4262 107.202C111.575 118.319 124.911 128.16 139.221 136.512C127.73 169.339 120.877 207.406 120.079 248H40.1454C42.1299 193.494 64.3102 144.141 99.4262 107.202ZM153.499 144.188C182.159 158.326 214.16 166.719 248 167.866V248H136.082C136.859 209.999 143.153 174.612 153.499 144.188ZM264 167.866V248H368H375.918C375.141 209.998 368.847 174.611 358.501 144.187C329.841 158.325 297.839 166.719 264 167.866ZM308.093 264H264V308.093C274.558 289.803 289.803 274.558 308.093 264ZM248 368V360.145C216.128 361.306 186.018 369.371 159.121 382.891C163.131 392.732 167.589 401.941 172.436 410.423C192.993 446.397 219.7 468.062 248 471.513V368ZM264 427.907C271.444 440.802 281.217 452.183 292.744 461.475C283.483 466.913 273.838 470.313 264 471.513V427.907ZM321.453 478.639C300.695 484.731 278.729 488 256 488C127.87 488 24 384.13 24 256C24 127.87 127.87 24 256 24C384.13 24 488 127.87 488 256C488 278.729 484.731 300.695 478.639 321.453C484.667 335.767 488 351.494 488 368C488 434.274 434.274 488 368 488C351.494 488 335.767 484.667 321.453 478.639ZM467.368 300.704C457.179 285.687 443.674 273.102 427.907 264H471.855C471.398 276.537 469.873 288.801 467.368 300.704ZM372.778 136.51C384.269 169.338 391.123 207.405 391.921 248H471.855C469.87 193.493 447.689 144.14 412.572 107.2C400.424 118.317 387.088 128.158 372.778 136.51ZM401.109 95.9997C390.622 105.516 379.196 114.016 366.985 121.344C362.901 111.514 358.377 102.251 353.456 93.639C343.314 75.8904 331.305 60.6405 317.816 48.9752C349.156 58.3192 377.511 74.5852 401.109 95.9997ZM352.878 129.109C325.982 142.629 295.872 150.695 264 151.855V40.487C292.3 43.9377 319.007 65.6031 339.564 101.577C344.411 110.059 348.869 119.268 352.878 129.109ZM40.1454 264H120.079C120.877 304.594 127.731 342.662 139.222 375.489C124.911 383.841 111.575 393.682 99.4267 404.798C64.3104 367.859 42.1299 318.506 40.1454 264ZM110.89 415.999C121.377 406.483 132.804 397.983 145.014 390.655C149.098 400.485 153.623 409.749 158.544 418.361C168.686 436.11 180.695 451.359 194.184 463.025C162.844 453.681 134.488 437.414 110.89 415.999ZM153.499 367.813C182.159 353.675 214.161 345.282 248 344.135V264H136.082C136.859 302.001 143.153 337.388 153.499 367.813ZM368 264C310.562 264 264 310.562 264 368C264 425.438 310.562 472 368 472C425.438 472 472 425.438 472 368C472 310.562 425.438 264 368 264ZM368 408C376.837 408 384 400.837 384 392C384 383.163 376.837 376 368 376C359.163 376 352 383.163 352 392C352 400.837 359.163 408 368 408ZM338.778 345.919C347.161 339.487 357.432 336 367.998 336C378.565 336 388.836 339.487 397.219 345.919C405.602 352.352 411.628 361.37 414.363 371.577C415.506 375.844 412.974 380.231 408.706 381.375C404.438 382.518 400.052 379.986 398.908 375.718C397.085 368.914 393.067 362.901 387.479 358.613C381.89 354.324 375.043 352 367.998 352C360.954 352 354.107 354.324 348.518 358.613C342.929 362.901 338.912 368.914 337.089 375.718C335.945 379.986 331.559 382.518 327.291 381.375C323.023 380.231 320.49 375.844 321.634 371.577C324.369 361.37 330.395 352.351 338.778 345.919ZM368.002 296C350.391 296 333.272 301.811 319.301 312.532C305.329 323.252 295.286 338.284 290.728 355.294C289.584 359.562 292.117 363.949 296.385 365.092C300.652 366.236 305.039 363.703 306.182 359.436C309.829 345.827 317.864 333.802 329.041 325.225C340.218 316.649 353.913 312 368.002 312C382.09 312 395.785 316.649 406.963 325.225C418.14 333.802 426.175 345.827 429.821 359.436C430.965 363.703 435.351 366.236 439.619 365.092C443.887 363.949 446.419 359.562 445.276 355.294C440.718 338.284 430.674 323.253 416.703 312.532C402.731 301.811 385.613 296 368.002 296Z" fill="url(#paint0_linear)"/>
<defs>
<linearGradient id="paint0_linear" x1="32" y1="32" x2="448" y2="448" gradientUnits="userSpaceOnUse">
<stop stop-color="#FF003D"/>
<stop offset="1" stop-color="#3D00EB"/>
</linearGradient>
</defs>
</svg>
