<?xml version="1.0" encoding="UTF-8" standalone="no"?>
<!-- Created with Inkscape (http://www.inkscape.org/) -->

<svg
   xmlns:dc="http://purl.org/dc/elements/1.1/"
   xmlns:cc="http://creativecommons.org/ns#"
   xmlns:rdf="http://www.w3.org/1999/02/22-rdf-syntax-ns#"
   xmlns:svg="http://www.w3.org/2000/svg"
   xmlns="http://www.w3.org/2000/svg"
   xmlns:sodipodi="http://sodipodi.sourceforge.net/DTD/sodipodi-0.dtd"
   xmlns:inkscape="http://www.inkscape.org/namespaces/inkscape"
   width="64"
   height="64"
   viewBox="0 0 16.933333 16.933333"
   version="1.1"
   id="svg8"
   inkscape:version="0.92.3 (2405546, 2018-03-11)"
   sodipodi:docname="18-Server data.svg">
  <defs
     id="defs2" />
  <sodipodi:namedview
     id="base"
     pagecolor="#ffffff"
     bordercolor="#666666"
     borderopacity="1.0"
     inkscape:pageopacity="0.0"
     inkscape:pageshadow="2"
     inkscape:zoom="7.9999996"
     inkscape:cx="59.026122"
     inkscape:cy="32.513597"
     inkscape:document-units="px"
     inkscape:current-layer="layer2"
     showgrid="false"
     inkscape:snap-smooth-nodes="true"
     inkscape:snap-page="true"
     inkscape:snap-midpoints="false"
     inkscape:snap-intersection-paths="true"
     inkscape:object-paths="true"
     inkscape:object-nodes="true"
     units="px"
     inkscape:snap-bbox="true"
     inkscape:bbox-paths="false"
     inkscape:snap-bbox-midpoints="false"
     inkscape:window-width="1920"
     inkscape:window-height="1040"
     inkscape:window-x="0"
     inkscape:window-y="0"
     inkscape:window-maximized="1"
     inkscape:snap-grids="true"
     inkscape:snap-to-guides="false"
     inkscape:snap-bbox-edge-midpoints="false"
     inkscape:snap-nodes="true"
     inkscape:snap-others="false"
     inkscape:bbox-nodes="true"
     showguides="true"
     inkscape:guide-bbox="true"
     inkscape:measure-start="0,0"
     inkscape:measure-end="0,0"
     inkscape:snap-global="true"
     inkscape:lockguides="true">
    <inkscape:grid
       type="xygrid"
       id="grid815"
       enabled="true" />
  </sodipodi:namedview>
  <metadata
     id="metadata5">
    <rdf:RDF>
      <cc:Work
         rdf:about="">
        <dc:format>image/svg+xml</dc:format>
        <dc:type
           rdf:resource="http://purl.org/dc/dcmitype/StillImage" />
        <dc:title />
      </cc:Work>
    </rdf:RDF>
  </metadata>
  <g
     inkscape:groupmode="layer"
     id="layer2"
     inkscape:label="18-Server data">
    <path
       style="fill:#e2e7fa;fill-opacity:1;stroke:none;stroke-width:0.529167;stroke-linecap:round;stroke-linejoin:round;stroke-miterlimit:4;stroke-dasharray:none;paint-order:normal"
       d="m 6.6145899,3.3072388 c 0,0.5114044 -1.3030379,0.9259795 -2.9104166,0.9259795 -1.6073787,0 -2.91041658,-0.4145751 -2.91041658,-0.9259795 0,-0.5114044 1.30303788,-0.9259795 2.91041658,-0.9259795 1.6073787,0 2.9104166,0.4145751 2.9104166,0.9259795 z"
       id="ellipse7721"
       inkscape:connector-curvature="0"
       sodipodi:nodetypes="ccccc" />
    <path
       id="path7723"
       d="m 6.08542,2.776575 c 1.4e-6,5.333e-4 1.4e-6,0.00107 0,0.0016 C 6.0855285,3.2896042 4.7824567,3.7042176 3.175,3.704217 2.2261628,3.7038177 1.3375033,3.5562862 0.79375,3.308892 0.79632918,3.8197158 2.098614,4.2333853 3.70417,4.233384 5.3116228,4.2333828 6.6146885,3.8187699 6.61458,3.307342 6.6134947,3.1173539 6.4287545,2.9320702 6.08542,2.776625 Z"
       style="fill:#c4d2f0;fill-opacity:1;stroke:none;stroke-width:0.529167;stroke-linecap:round;stroke-linejoin:round;stroke-miterlimit:4;stroke-dasharray:none;paint-order:normal"
       inkscape:connector-curvature="0"
       sodipodi:nodetypes="cccccccc" />
    <path
       id="path7725"
       d="M 0.79375,3.439584 V 5.423958 C 0.79375,5.935368 2.0968,6.35 3.70417,6.35 5.31155,6.35 6.61458,5.935368 6.61458,5.423958 V 3.439584 H 6.58148 C 6.37908,3.888093 5.16983,4.233333 3.70414,4.233333 2.23846,4.233333 1.0292,3.888093 0.8268,3.439584 Z"
       style="fill:#e2e7fa;fill-opacity:1;stroke:none;stroke-width:0.529167;stroke-linecap:round;stroke-linejoin:round;stroke-miterlimit:4;stroke-dasharray:none;paint-order:normal"
       inkscape:connector-curvature="0"
       sodipodi:nodetypes="ccccccccc" />
    <path
       id="path7727"
       d="M 6.58151,3.439584 C 6.51601,3.584747 6.33643,3.717001 6.08542,3.832325 v 1.062467 c 0,0.511409 -1.30304,0.926041 -2.91042,0.926041 -0.98649,0 -1.85489,-0.156967 -2.38125,-0.395841 C 0.79575,5.935932 2.09787,6.35 3.70417,6.35 5.31155,6.35 6.61458,5.935368 6.61458,5.423958 V 3.439584 Z"
       style="fill:#c4d2f0;fill-opacity:1;stroke:none;stroke-width:0.529167;stroke-linecap:round;stroke-linejoin:round;stroke-miterlimit:4;stroke-dasharray:none;paint-order:normal"
       inkscape:connector-curvature="0"
       sodipodi:nodetypes="ccccccccc" />
    <path
       inkscape:connector-curvature="0"
       style="fill:#a8c5f7;fill-opacity:1;stroke:none;stroke-width:0.529167;stroke-linecap:round;stroke-linejoin:round;stroke-miterlimit:4;stroke-dasharray:none;paint-order:normal"
       d="m 0.79375,5.55625 v 1.984374 c 0,0.51141 1.30305,0.926042 2.91042,0.926042 1.60738,0 2.91041,-0.414632 2.91041,-0.926042 V 5.55625 H 6.58148 C 6.37908,6.004759 5.16983,6.349999 3.70414,6.349999 2.23846,6.349999 1.0292,6.004759 0.8268,5.55625 Z"
       id="path7729"
       sodipodi:nodetypes="ccccccccc" />
    <path
       inkscape:connector-curvature="0"
       style="fill:#91b8fb;fill-opacity:1;stroke:none;stroke-width:0.529167;stroke-linecap:round;stroke-linejoin:round;stroke-miterlimit:4;stroke-dasharray:none;paint-order:normal"
       d="M 6.58151,5.55625 C 6.51601,5.701414 6.33643,5.833667 6.08542,5.948991 v 1.062467 c 0,0.511409 -1.30304,0.926041 -2.91042,0.926041 -0.98649,0 -1.85489,-0.156967 -2.38125,-0.395841 0.002,0.51094 1.30412,0.925008 2.91042,0.925008 1.60738,0 2.91041,-0.414632 2.91041,-0.926042 V 5.55625 Z"
       id="path7731"
       sodipodi:nodetypes="ccccccccc" />
    <path
       id="path7733"
       d="m 0.79375,7.672917 v 1.984374 c 0,0.51141 1.30305,0.926042 2.91042,0.926042 1.60738,0 2.91041,-0.414632 2.91041,-0.926042 V 7.672917 h -0.0331 c -0.2024,0.448509 -1.41166,0.79375 -2.87734,0.79375 -1.46568,0 -2.67495,-0.345241 -2.87735,-0.79375 z"
       style="fill:#e2e7fa;fill-opacity:1;stroke:none;stroke-width:0.529167;stroke-linecap:round;stroke-linejoin:round;stroke-miterlimit:4;stroke-dasharray:none;paint-order:normal"
       inkscape:connector-curvature="0"
       sodipodi:nodetypes="ccccccccc" />
    <path
       id="path7735"
       d="M 6.58151,7.672917 C 6.51601,7.81808 6.33643,7.950333 6.08542,8.065657 v 1.062468 c 0,0.51141 -1.30304,0.926041 -2.91042,0.926041 -0.98649,0 -1.85489,-0.156966 -2.38125,-0.395841 0.002,0.51094 1.30412,0.925008 2.91042,0.925008 1.60738,0 2.91041,-0.414632 2.91041,-0.926042 V 7.672917 Z"
       style="fill:#c4d2f0;fill-opacity:1;stroke:none;stroke-width:0.529167;stroke-linecap:round;stroke-linejoin:round;stroke-miterlimit:4;stroke-dasharray:none;paint-order:normal"
       inkscape:connector-curvature="0"
       sodipodi:nodetypes="ccccccccc" />
    <path
       style="fill:#e2e7fa;fill-opacity:1;stroke:none;stroke-width:0.529167;stroke-linecap:round;stroke-linejoin:round;stroke-miterlimit:4;stroke-dasharray:none;paint-order:normal"
       d="m 16.139584,7.2759886 c 0,0.5114044 -1.303038,0.9259796 -2.910417,0.9259795 -1.607379,10e-8 -2.910417,-0.4145751 -2.910417,-0.9259795 0,-0.5114044 1.303038,-0.9259796 2.910417,-0.9259795 1.607379,-1e-7 2.910417,0.4145751 2.910417,0.9259795 z"
       id="ellipse7714"
       inkscape:connector-curvature="0"
       sodipodi:nodetypes="ccccc" />
    <path
       inkscape:connector-curvature="0"
       style="fill:#c4d2f0;fill-opacity:1;stroke:none;stroke-width:0.529167;stroke-linecap:round;stroke-linejoin:round;stroke-miterlimit:4;stroke-dasharray:none;paint-order:normal"
       d="m 15.61042,6.745325 c 1e-6,5.333e-4 1e-6,0.00107 0,0.0016 1.08e-4,0.5114292 -1.302963,0.9260426 -2.91042,0.926042 -0.948837,-3.993e-4 -1.837497,-0.1479308 -2.38125,-0.395325 0.0026,0.5108234 1.304865,0.9244923 2.91042,0.924491 1.607452,-1.2e-6 2.910517,-0.4146134 2.91041,-0.926041 -0.0011,-0.1899881 -0.185825,-0.3752718 -0.52916,-0.530717 z"
       id="ellipse7718"
       sodipodi:nodetypes="cccccccc" />
    <path
       style="fill:#f8f8f8;fill-opacity:1;stroke:none;stroke-width:2.00000119;stroke-linecap:round;stroke-linejoin:round;stroke-miterlimit:4;stroke-dasharray:none;paint-order:normal"
       d="M 50 24 C 43.924867 24 39 25.567133 39 27.5 C 39 29.432867 43.924867 31 50 31 C 50.342569 31 50.665422 30.976546 51 30.966797 C 45.40117 30.803654 41 29.323875 41 27.5 C 41 25.676121 45.401154 24.194388 51 24.03125 C 50.665434 24.021501 50.342558 24 50 24 z "
       transform="scale(0.26458333)"
       id="path863" />
    <path
       inkscape:connector-curvature="0"
       style="fill:#e2e7fa;fill-opacity:1;stroke:none;stroke-width:0.529167;stroke-linecap:round;stroke-linejoin:round;stroke-miterlimit:4;stroke-dasharray:none;paint-order:normal"
       d="m 10.31875,7.408334 v 1.984374 c 0,0.51141 1.30305,0.926042 2.91042,0.926042 1.60738,0 2.91041,-0.414632 2.91041,-0.926042 V 7.408334 h -0.0331 c -0.2024,0.448509 -1.41165,0.793749 -2.87734,0.793749 -1.46568,0 -2.67494,-0.34524 -2.87734,-0.793749 z"
       id="path7710"
       sodipodi:nodetypes="ccccccccc" />
    <path
       inkscape:connector-curvature="0"
       style="fill:#c4d2f0;fill-opacity:1;stroke:none;stroke-width:0.529167;stroke-linecap:round;stroke-linejoin:round;stroke-miterlimit:4;stroke-dasharray:none;paint-order:normal"
       d="m 16.10651,7.408334 c -0.0655,0.145163 -0.24508,0.277416 -0.49609,0.39274 v 1.062468 c 0,0.511409 -1.30304,0.926041 -2.91042,0.926041 -0.98649,0 -1.85489,-0.156967 -2.38125,-0.395841 0.002,0.51094 1.30412,0.925008 2.91042,0.925008 1.60738,0 2.91041,-0.414632 2.91041,-0.926042 V 7.408334 Z"
       id="path7712"
       sodipodi:nodetypes="ccccccccc" />
    <path
       id="path7706"
       d="m 10.31875,9.525 v 1.984374 c 0,0.51141 1.30305,0.926042 2.91042,0.926042 1.60738,0 2.91041,-0.414632 2.91041,-0.926042 V 9.525 h -0.0331 c -0.2024,0.448509 -1.41165,0.793749 -2.87734,0.793749 -1.46568,0 -2.67494,-0.34524 -2.87734,-0.793749 z"
       style="fill:#a8c5f7;fill-opacity:1;stroke:none;stroke-width:0.529167;stroke-linecap:round;stroke-linejoin:round;stroke-miterlimit:4;stroke-dasharray:none;paint-order:normal"
       inkscape:connector-curvature="0"
       sodipodi:nodetypes="ccccccccc" />
    <path
       id="path7708"
       d="m 16.10651,9.525 c -0.0655,0.145163 -0.24508,0.277416 -0.49609,0.392741 v 1.062467 c 0,0.511409 -1.30304,0.926041 -2.91042,0.926041 -0.98649,0 -1.85489,-0.156967 -2.38125,-0.395841 0.002,0.51094 1.30412,0.925008 2.91042,0.925008 1.60738,0 2.91041,-0.414632 2.91041,-0.926042 V 9.525 Z"
       style="fill:#91b8fb;fill-opacity:1;stroke:none;stroke-width:0.529167;stroke-linecap:round;stroke-linejoin:round;stroke-miterlimit:4;stroke-dasharray:none;paint-order:normal"
       inkscape:connector-curvature="0"
       sodipodi:nodetypes="ccccccccc" />
    <path
       sodipodi:nodetypes="csscsccc"
       inkscape:connector-curvature="0"
       id="path855"
       d="m 10.285678,7.4083339 v 1.984375 c 0,0.5114099 1.303046,0.9260421 2.910416,0.9260421 0.09063,0 0.176063,-0.0057 0.264584,-0.0083 -1.481355,-0.04317 -2.645834,-0.4351999 -2.645834,-0.9177731 V 7.8010748 C 10.563833,7.6857508 10.384259,7.5534975 10.318751,7.4083339 Z"
       style="fill:#f8f8f8;fill-opacity:1;stroke:none;stroke-width:0.529167;stroke-linecap:round;stroke-linejoin:round;stroke-miterlimit:4;stroke-dasharray:none;paint-order:normal" />
    <path
       inkscape:connector-curvature="0"
       style="fill:#e2e7fa;fill-opacity:1;stroke:none;stroke-width:0.529167;stroke-linecap:round;stroke-linejoin:round;stroke-miterlimit:4;stroke-dasharray:none;paint-order:normal"
       d="m 10.31875,11.641667 v 1.984374 c 0,0.51141 1.30305,0.926042 2.91042,0.926042 1.60738,0 2.91041,-0.414632 2.91041,-0.926042 v -1.984374 h -0.0331 c -0.2024,0.448509 -1.41166,0.79375 -2.87734,0.79375 -1.46568,0 -2.67495,-0.345241 -2.87735,-0.79375 z"
       id="path7696"
       sodipodi:nodetypes="ccccccccc" />
    <path
       style="fill:#f8f8f8;fill-opacity:1;stroke:none;stroke-width:0.529167;stroke-linecap:round;stroke-linejoin:round;stroke-miterlimit:4;stroke-dasharray:none;paint-order:normal"
       d="m 10.285677,9.525 v 1.984375 c 0,0.51141 1.303047,0.926042 2.910417,0.926042 0.09063,0 0.176062,-0.0057 0.264583,-0.0083 -1.481355,-0.04317 -2.645833,-0.435199 -2.645833,-0.917772 V 9.9177408 C 10.563832,9.8024169 10.384258,9.6701636 10.31875,9.525 Z"
       id="path857"
       inkscape:connector-curvature="0"
       sodipodi:nodetypes="csscsccc" />
    <path
       inkscape:connector-curvature="0"
       style="fill:#c4d2f0;fill-opacity:1;stroke:none;stroke-width:0.529167;stroke-linecap:round;stroke-linejoin:round;stroke-miterlimit:4;stroke-dasharray:none;paint-order:normal"
       d="m 16.10651,11.641667 c -0.0655,0.145163 -0.24508,0.277416 -0.49609,0.39274 v 1.062468 c 0,0.51141 -1.30304,0.926041 -2.91042,0.926041 -0.98649,0 -1.85489,-0.156966 -2.38125,-0.395841 0.002,0.51094 1.30412,0.925008 2.91042,0.925008 1.60738,0 2.91041,-0.414632 2.91041,-0.926042 v -1.984374 z"
       id="path7703"
       sodipodi:nodetypes="ccccccccc" />
    <path
       style="fill:#f8f8f8;fill-opacity:1;stroke:none;stroke-width:2.00000119;stroke-linecap:round;stroke-linejoin:round;stroke-miterlimit:4;stroke-dasharray:none;paint-order:normal"
       d="m 3,13 v 7.5 c 0,1.932888 4.9249007,3.5 11,3.5 0.342558,0 0.665434,-0.0215 1,-0.03125 C 9.4011779,23.80559 5,22.323899 5,20.5 V 14.484375 C 4.0512955,14.048505 3.3725908,13.54865 3.125,13 Z"
       transform="scale(0.26458333)"
       id="path848"
       inkscape:connector-curvature="0"
       sodipodi:nodetypes="csscsccc" />
    <path
       sodipodi:nodetypes="csscsccc"
       inkscape:connector-curvature="0"
       id="path851"
       d="m 0.79374943,5.5562494 v 1.9843749 c 0,0.51141 1.30304657,0.9260417 2.91041657,0.9260417 0.090635,0 0.1760628,-0.00569 0.2645833,-0.00827 C 2.4873944,8.4152283 1.322916,8.0231976 1.322916,7.5406243 V 5.9489902 C 1.0719047,5.8336663 0.89233074,5.701413 0.82682235,5.5562494 Z"
       style="fill:#f8f8f8;fill-opacity:1;stroke:none;stroke-width:0.529167;stroke-linecap:round;stroke-linejoin:round;stroke-miterlimit:4;stroke-dasharray:none;paint-order:normal" />
    <path
       style="fill:#f8f8f8;fill-opacity:1;stroke:none;stroke-width:0.529167;stroke-linecap:round;stroke-linejoin:round;stroke-miterlimit:4;stroke-dasharray:none;paint-order:normal"
       d="m 0.79374852,7.672916 v 1.9843749 c 0,0.5114101 1.30304658,0.9260421 2.91041658,0.9260421 0.090635,0 0.1760628,-0.0057 0.2645833,-0.0083 C 2.4873935,10.531895 1.3229151,10.139864 1.3229151,9.6572909 V 8.0656568 C 1.0719038,7.9503329 0.89232983,7.8180796 0.82682144,7.672916 Z"
       id="path853"
       inkscape:connector-curvature="0"
       sodipodi:nodetypes="csscsccc" />
    <path
       sodipodi:nodetypes="csscsccc"
       inkscape:connector-curvature="0"
       id="path859"
       d="m 10.285676,11.641667 v 1.984374 c 0,0.511411 1.303047,0.926043 2.910417,0.926043 0.09064,0 0.176063,-0.0057 0.264583,-0.0083 -1.481355,-0.04314 -2.645833,-0.435169 -2.645833,-0.917743 v -1.591634 c -0.251012,-0.115323 -0.430586,-0.247577 -0.496094,-0.39274 z"
       style="fill:#f8f8f8;fill-opacity:1;stroke:none;stroke-width:0.529167;stroke-linecap:round;stroke-linejoin:round;stroke-miterlimit:4;stroke-dasharray:none;paint-order:normal" />
    <path
       style="fill:#f8f8f8;fill-opacity:1;stroke:none;stroke-width:2.00000119;stroke-linecap:round;stroke-linejoin:round;stroke-miterlimit:4;stroke-dasharray:none;paint-order:normal"
       d="M 14 9 C 7.9248678 9 3 10.567133 3 12.5 C 3 14.432867 7.9248678 16 14 16 C 14.342569 16 14.665423 15.976546 15 15.966797 C 9.4011714 15.803654 5 14.323875 5 12.5 C 5 10.676121 9.4011548 9.194388 15 9.03125 C 14.665434 9.0215015 14.342557 9 14 9 z "
       transform="scale(0.26458333)"
       id="path868" />
    <path
       style="color:#000000;font-style:normal;font-variant:normal;font-weight:normal;font-stretch:normal;font-size:medium;line-height:normal;font-family:sans-serif;font-variant-ligatures:normal;font-variant-position:normal;font-variant-caps:normal;font-variant-numeric:normal;font-variant-alternates:normal;font-feature-settings:normal;text-indent:0;text-align:start;text-decoration:none;text-decoration-line:none;text-decoration-style:solid;text-decoration-color:#000000;letter-spacing:normal;word-spacing:normal;text-transform:none;writing-mode:lr-tb;direction:ltr;text-orientation:mixed;dominant-baseline:auto;baseline-shift:baseline;text-anchor:start;white-space:normal;shape-padding:0;clip-rule:nonzero;display:inline;overflow:visible;visibility:visible;isolation:auto;mix-blend-mode:normal;color-interpolation:sRGB;color-interpolation-filters:linearRGB;solid-color:#000000;solid-opacity:1;vector-effect:none;fill:#66a0fe;fill-opacity:1;fill-rule:nonzero;stroke:none;stroke-width:1;stroke-linecap:round;stroke-linejoin:round;stroke-miterlimit:4;stroke-dasharray:none;stroke-dashoffset:0;stroke-opacity:1;color-rendering:auto;image-rendering:auto;shape-rendering:auto;text-rendering:auto;enable-background:accumulate"
       d="M 7.9374999,0.52922858 C 7.8694579,0.5274136 7.799393,0.56597151 7.7773029,0.58297134 L 6.7189696,1.3777438 c -0.1400839,0.1058883 -0.1400839,0.3162923 0,0.4221905 l 1.0583333,0.7947724 c 0.1169535,0.088199 0.2832542,0.064489 0.3710368,-0.05271 0.088102,-0.116978 0.064494,-0.283233 -0.05271,-0.3710316 l -0.4283974,-0.3209059 4.7687007,5.16e-4 c 0.29775,2e-5 0.529684,0.2313742 0.529684,0.5291593 v 3.7144508 c -0.719543,0.019899 -1.371634,0.1151175 -1.873788,0.2749149 -0.28188,0.089699 -0.51903,0.1972444 -0.703316,0.335892 -0.212002,0.1609026 -0.333839,0.3456908 -0.333839,0.5704983 0.004,2.1236355 0,4.2308395 0,6.3524945 0,0.240245 0.149544,0.431863 0.33383,0.570499 0.184285,0.138649 0.421436,0.246205 0.703316,0.335894 0.563746,0.179387 1.310366,0.283182 2.136821,0.283182 0.826465,0 1.574625,-0.103795 2.13837,-0.283182 0.28188,-0.0897 0.519031,-0.197244 0.703317,-0.335894 0.184325,-0.138633 0.333838,-0.330253 0.333838,-0.570498 -0.004,-2.123915 0,-4.2303983 0,-6.3524939 0,-0.2494026 -0.19066,-0.4629544 -0.333842,-0.5710174 C 15.886048,6.5658275 15.648888,6.4582717 15.367008,6.3685829 14.865284,6.2089257 14.213326,6.113698 13.494254,6.0936683 V 2.3797358 c 1.3e-5,-0.5818405 -0.47708,-1.0587854 -1.058837,-1.0588354 L 7.6760172,1.3203845 8.0956297,1.0061962 C 8.2128732,0.91839681 8.2365132,0.75214184 8.1483397,0.63516378 8.0985388,0.56876482 8.0203423,0.52933359 7.9374999,0.52922858 Z M 3.7036499,2.1167064 C 2.8769595,2.1169164 2.1304567,2.2205422 1.5668294,2.3998893 1.2849508,2.4895881 1.0477989,2.5971438 0.86351318,2.7357815 0.65017861,2.8893607 0.52916666,3.072608 0.52916666,3.306798 c 0.004,2.1236355 0,4.2308498 0,6.3524949 0,0.2402557 0.14954406,0.4313351 0.33382976,0.5699831 0.18428558,0.138637 0.42143748,0.246194 0.70331618,0.335892 0.5019034,0.15971 1.1541549,0.254937 1.8732707,0.274915 V 14.5535 c 1.699e-4,0.581841 0.4765754,1.059452 1.0583333,1.059352 l 4.7614665,-10e-4 -0.421163,0.315222 c -0.1172739,0.0878 -0.1408943,0.254044 -0.05271,0.371031 0.0878,0.117289 0.2540638,0.14092 0.3710369,0.05271 l 1.05885,-0.795289 c 0.139804,-0.105899 0.139804,-0.315776 0,-0.421674 l -1.05885,-0.794773 c -0.0467,-0.035 -0.1033754,-0.05403 -0.1617472,-0.05323 -0.0823,7.41e-4 -0.1598187,0.04018 -0.2092897,0.105935 -0.088202,0.116987 -0.06459,0.283245 0.05271,0.371032 l 0.4268473,0.319354 -4.7671508,0.001 C 4.2001775,15.083255 3.9688299,14.851286 3.96875,14.5535 v -3.713417 c 0.7194732,-0.01993 1.3713073,-0.115195 1.8732706,-0.274915 0.2818786,-0.0897 0.5190307,-0.197255 0.7033162,-0.335892 0.1843058,-0.138638 0.3343465,-0.3297274 0.3343465,-0.5699831 -0.004,-2.1239049 0,-4.2303995 0,-6.3524949 0,-0.21901 -0.1803985,-0.4667076 -0.3343465,-0.5710165 C 6.3610659,2.5971436 6.1238992,2.4895879 5.8420206,2.3998893 5.2783932,2.2205422 4.5303304,2.1165964 3.7036499,2.1167064 Z m 0,0.5291593 c 0.7809685,0 1.4885289,0.1025712 1.9781737,0.2583784 0.2448276,0.077899 0.434913,0.1707692 0.5451863,0.2537279 0.1102435,0.082999 0.12299,0.1333264 0.12299,0.148826 0,0.015499 -0.012697,0.067377 -0.12299,0.1503762 C 6.1167366,3.5401734 5.9266512,3.6309364 5.6818236,3.708835 5.1921788,3.8646425 4.4846136,3.9687639 3.7036499,3.9687639 2.9226756,3.9687639 2.2166717,3.8646425 1.7270264,3.708835 1.4822089,3.6309364 1.2921134,3.5401329 1.18184,3.4571742 1.0715666,3.3741757 1.0588501,3.3222879 1.0588501,3.306798 1.0588501,3.291299 1.0715461,3.240931 1.18184,3.157972 1.2921134,3.0749731 1.4822089,2.9821527 1.7270264,2.9042441 2.2166723,2.7484369 2.9226711,2.6458657 3.7036499,2.6458657 Z M 1.0588501,4.0018363 c 0.1476446,0.081598 0.3164134,0.1519446 0.5079793,0.2129041 0.5637473,0.1793868 1.310355,0.2831827 2.1368205,0.2831827 0.8264652,0 1.5746232,-0.1037959 2.1383707,-0.2831827 C 6.0333566,4.153841 6.2024553,4.0838719 6.3499999,4.002353 v 1.4215988 c 0,0.015499 -0.012697,0.06537 -0.12299,0.1483093 C 6.1167366,5.6552603 5.9266512,5.7486072 5.6818236,5.8265056 5.192179,5.982313 4.4846134,6.0864343 3.7036499,6.0864343 2.9226856,6.0864343 2.2166714,5.982313 1.7270264,5.8265056 1.4822088,5.7486072 1.2921134,5.6552299 1.18184,5.5722611 1.0715666,5.4892626 1.0588501,5.4394518 1.0588501,5.4239518 Z m 0.7932332,0.7606665 c -0.1461344,0 -0.2645833,0.1184221 -0.2645833,0.2645796 0,0.1461477 0.1184489,0.2645796 0.2645833,0.2645796 0.1461346,0 0.2645833,-0.1184319 0.2645833,-0.2645796 0,-0.1461575 -0.1184487,-0.2645796 -0.2645833,-0.2645796 z m 3.7067506,0.052192 c -0.023006,2.91e-4 -0.046013,0.0033 -0.068213,0.0093 C 4.9987658,4.9532727 4.36064,5.0275974 3.70365,5.0275974 c -0.2609281,0 -0.5192644,-0.013057 -0.769462,-0.035656 -0.1457444,-0.013099 -0.2744806,0.094455 -0.2873211,0.240292 -0.0132,0.1450378 0.093293,0.2734071 0.2382284,0.2873168 0.2667881,0.024101 0.5420863,0.037207 0.8185547,0.037207 0.6960915,0 1.3704895,-0.075758 1.9218465,-0.2206552 C 5.7670906,5.2985062 5.851173,5.1530585 5.8130818,5.0115807 5.7824808,4.8960527 5.6783223,4.8152115 5.5588339,4.8146963 Z m -4.4999838,1.304812 c 0.1476146,0.080999 0.3164534,0.1498979 0.5079793,0.2108369 0.5637473,0.1793872 1.3103548,0.2852499 2.1368205,0.2852499 0.8264551,0 1.5746134,-0.1058627 2.1383707,-0.2852499 0.1913961,-0.060899 0.3604148,-0.1298681 0.5079793,-0.2108369 v 1.4221156 c 0,0.015499 -0.012697,0.06537 -0.12299,0.1483093 C 6.1167366,7.7729309 5.9266512,7.8657605 5.6818236,7.9436596 5.192179,8.0994666 4.4846134,8.2015213 3.7036499,8.2015213 2.9226856,8.2015213 2.2166714,8.0994666 1.7270264,7.9436596 1.4822088,7.8657605 1.2921134,7.7729005 1.18184,7.6899317 1.0715666,7.606933 1.0588501,7.5571222 1.0588501,7.5416224 Z M 12.965617,6.6238617 v 0.5208912 c 5.03e-4,0.1454474 0.118124,0.2630464 0.26355,0.2635462 0.146174,5.821e-4 0.265116,-0.1173387 0.265616,-0.2635462 V 6.6238617 c 0.67305,0.020399 1.280013,0.1114294 1.712557,0.2490769 0.244818,0.077899 0.434915,0.1707692 0.545187,0.253728 0.110274,0.082999 0.12299,0.1333263 0.12299,0.148826 0,0.015499 -0.0127,0.067367 -0.12299,0.1503761 -0.110272,0.082999 -0.300369,0.1737522 -0.545187,0.2516608 -0.489646,0.1558075 -1.197209,0.2599289 -1.978173,0.2599289 -0.780975,0 -1.487495,-0.1041214 -1.977141,-0.2599289 C 11.007208,7.5996303 10.817112,7.5088272 10.70684,7.4258687 10.596566,7.3428696 10.58385,7.2909924 10.58385,7.2754926 c 0,-0.015499 0.0127,-0.065867 0.12299,-0.148826 0.110272,-0.082999 0.300368,-0.1758292 0.545186,-0.253728 0.432994,-0.1377875 1.039981,-0.2287571 1.713591,-0.2490769 z M 1.8520833,6.8796566 c -0.1461344,0 -0.2645833,0.1184319 -0.2645833,0.2645796 0,0.1461477 0.1184489,0.2645796 0.2645833,0.2645796 0.1461347,0 0.2645833,-0.1184319 0.2645833,-0.2645796 0,-0.1461477 -0.1184487,-0.2645796 -0.2645833,-0.2645796 z m 3.7067506,0.052709 c -0.023006,-5.029e-4 -0.045913,0.00177 -0.068213,0.00775 C 4.9987658,7.0693934 4.36064,7.1432011 3.70365,7.1432011 3.4427118,7.1431911 3.1843856,7.1322131 2.934188,7.1096121 2.7884436,7.0965131 2.6597074,7.2045841 2.6468669,7.3504209 c -0.0132,0.1450375 0.093293,0.2734172 0.2382284,0.2873171 0.2667881,0.0241 0.542076,0.035139 0.8185547,0.035139 0.6960915,0 1.3704895,-0.076274 1.9218465,-0.2211722 C 5.7660603,7.4141088 5.8498631,7.2700578 5.8130818,7.1292501 5.7824808,7.013722 5.6783326,6.9331514 5.5588339,6.9323656 Z M 10.58385,7.9705309 c 0.147644,0.081599 0.316403,0.1519445 0.507979,0.212904 0.563746,0.1793868 1.310873,0.2831828 2.137338,0.2831828 0.826455,0 1.574614,-0.103796 2.13837,-0.2831828 0.191356,-0.060899 0.360435,-0.1308688 0.50798,-0.2123873 v 1.4221155 c 0,0.015499 -0.0127,0.065371 -0.12299,0.1483093 -0.110272,0.082999 -0.300369,0.1758188 -0.545187,0.2537277 -0.489646,0.1558069 -1.197209,0.2599289 -1.978173,0.2599289 -0.780965,0 -1.487495,-0.104122 -1.977141,-0.2599289 C 11.007208,9.7173009 10.817112,9.6244314 10.70684,9.5414724 10.596566,9.4584733 10.58385,9.408663 10.58385,9.3931631 Z M 1.0588501,8.2351105 c 0.1476346,0.081598 0.3164334,0.1514382 0.5079793,0.2123871 0.5637473,0.1793871 1.3103548,0.2836997 2.1368205,0.2836997 0.8264551,0 1.5746134,-0.1043126 2.1383707,-0.2836997 0.1914159,-0.060899 0.3604048,-0.1308283 0.5079793,-0.2123871 v 1.4241824 c 0,0.015499 -0.012697,0.06537 -0.12299,0.1483094 -0.1102733,0.082999 -0.3003587,0.175829 -0.5451863,0.2537277 -0.4896446,0.155807 -1.1972102,0.257861 -1.9781737,0.257861 -0.7809643,0 -1.4869785,-0.102054 -1.9766235,-0.257861 C 1.4822088,9.9834313 1.2921134,9.8905601 1.18184,9.8076023 1.0715666,9.7246036 1.0588501,9.6747928 1.0588501,9.6592929 Z M 11.377083,8.731714 c -0.146134,0 -0.264583,0.1184319 -0.264583,0.2645796 0,0.1461475 0.118449,0.2645797 0.264583,0.2645797 0.146134,0 0.264584,-0.1184322 0.264584,-0.2645797 0,-0.1461477 -0.11846,-0.2645796 -0.264584,-0.2645796 z m 3.707267,0.051675 v 5.291e-4 c -0.023,1.199e-4 -0.04601,0.00279 -0.06821,0.00878 -0.491854,0.1292778 -1.129979,0.2036022 -1.78697,0.2036022 -0.260929,0 -0.519266,-0.013057 -0.769463,-0.035656 -0.145756,-0.013099 -0.27448,0.094454 -0.287321,0.2402921 -0.0132,0.1450372 0.0933,0.273407 0.238229,0.2873168 0.266788,0.024101 0.542086,0.037207 0.818555,0.037207 0.69609,0 1.37048,-0.075757 1.921846,-0.2206553 0.141584,-0.0376 0.225677,-0.1830557 0.187585,-0.3245235 C 15.307999,8.8647476 15.203844,8.7840913 15.08435,8.7834015 Z M 1.8520833,8.9968103 c -0.1461344,0 -0.2645833,0.118432 -0.2645833,0.2645797 0,0.146148 0.1184489,0.2645796 0.2645833,0.2645796 0.1461347,0 0.2645833,-0.1184316 0.2645833,-0.2645796 0,-0.1461477 -0.1184487,-0.2645797 -0.2645833,-0.2645797 z m 3.7067506,0.053227 c -0.023,-3.969e-4 -0.045913,0.00177 -0.068213,0.00775 -0.4918552,0.1292797 -1.129981,0.2030874 -1.786971,0.2030874 -0.2609382,-1.01e-5 -0.5192644,-0.010991 -0.769462,-0.033589 -0.1457444,-0.013099 -0.2744806,0.094544 -0.2873211,0.240292 -0.0132,0.1450269 0.093293,0.273407 0.2382284,0.2873171 0.2667881,0.024101 0.542076,0.03514 0.8185547,0.03514 0.6960915,0 1.3704895,-0.075757 1.9218465,-0.2206551 0.1405639,-0.037601 0.2243667,-0.18165 0.1875854,-0.322458 C 5.7824808,9.1313936 5.6783176,9.0507373 5.5588339,9.0500373 Z M 10.58385,10.088202 c 0.147614,0.081 0.316453,0.149888 0.507979,0.210837 0.563746,0.179387 1.310873,0.285249 2.137338,0.285249 0.826455,0 1.574614,-0.105862 2.13837,-0.285249 0.191396,-0.0609 0.360416,-0.129869 0.50798,-0.210837 v 1.422114 c 0,0.0155 -0.0127,0.06589 -0.12299,0.148827 -0.110272,0.083 -0.300369,0.175819 -0.545187,0.253727 -0.489646,0.155808 -1.197209,0.257863 -1.978173,0.257863 -0.780965,0 -1.487495,-0.102055 -1.977141,-0.257863 -0.244818,-0.0779 -0.434914,-0.170768 -0.545186,-0.253727 -0.110274,-0.083 -0.12299,-0.133326 -0.12299,-0.148827 z m 0.793233,0.760149 c -0.146134,0 -0.264583,0.118432 -0.264583,0.264579 0,0.146158 0.118449,0.264581 0.264583,0.264581 0.146134,0 0.264584,-0.118423 0.264584,-0.264581 0,-0.146147 -0.11845,-0.264579 -0.264584,-0.264579 z m 3.707267,0.05271 c -0.023,-3.71e-4 -0.04591,0.0023 -0.06821,0.0083 -0.491854,0.129278 -1.129979,0.203086 -1.78697,0.203086 -0.260929,-10e-6 -0.519275,-0.01099 -0.769463,-0.03359 -0.145756,-0.0131 -0.27448,0.09446 -0.287321,0.240292 -0.0132,0.145028 0.0933,0.273407 0.238229,0.287316 0.266788,0.0241 0.542076,0.03514 0.818555,0.03514 0.69609,0 1.37048,-0.07576 1.921846,-0.220655 0.140554,-0.0376 0.224366,-0.18165 0.187585,-0.322456 -0.0306,-0.115528 -0.134754,-0.196194 -0.254248,-0.196884 z m -4.5005,1.30326 c 0.147634,0.0816 0.316433,0.15144 0.507979,0.212388 0.563746,0.179387 1.310873,0.283182 2.137338,0.283182 0.826455,0 1.574614,-0.103795 2.13837,-0.283182 0.191416,-0.0609 0.360406,-0.130828 0.50798,-0.212388 v 1.423666 c 0,0.0155 -0.0127,0.06537 -0.12299,0.14831 -0.110272,0.083 -0.300369,0.175819 -0.545187,0.253728 -0.489646,0.155806 -1.197209,0.257861 -1.978173,0.257861 -0.780965,0 -1.487495,-0.102055 -1.977141,-0.257861 -0.244818,-0.0779 -0.434914,-0.170759 -0.545186,-0.253728 -0.110274,-0.083 -0.12299,-0.13281 -0.12299,-0.14831 z m 0.793233,0.761184 c -0.146134,0 -0.264583,0.118422 -0.264583,0.264579 0,0.146148 0.118449,0.26458 0.264583,0.26458 0.146134,0 0.264584,-0.118432 0.264584,-0.26458 0,-0.146157 -0.11845,-0.264579 -0.264584,-0.264579 z m 3.707267,0.05323 c -0.023,-3.71e-4 -0.04591,0.0017 -0.06821,0.0078 -0.491854,0.129278 -1.129979,0.203086 -1.78697,0.203086 -0.260929,-1.1e-5 -0.519275,-0.01099 -0.769463,-0.03359 -0.145756,-0.0131 -0.27448,0.09497 -0.287321,0.240809 -0.0132,0.145039 0.0933,0.273407 0.238229,0.287317 0.266788,0.0241 0.542076,0.03514 0.818555,0.03514 0.69609,10e-6 1.37048,-0.07628 1.921846,-0.221172 0.140554,-0.0376 0.224366,-0.18165 0.187585,-0.322457 -0.0306,-0.115529 -0.134754,-0.196194 -0.254248,-0.196885 z"
       id="Icon_28"
       inkscape:connector-curvature="0"
       sodipodi:nodetypes="ccccccccccccccccccccccccccccccccccccccccccccccccccccccccccccccccccccccccccccccccccccccccccccccccccccccccccccccccccccccccccccccccccccccccccccccccccccccccccccccccccccccccccccccccccccccccccccccccccccccccccccccccccccccccccccccccccccccccccccccccccccccccccccccccccccccccc" />
  </g>
</svg>
