<?xml version="1.0" encoding="utf-8"?>
<!-- Generator: Adobe Illustrator 18.0.0, SVG Export Plug-In . SVG Version: 6.00 Build 0)  -->
<!DOCTYPE svg PUBLIC "-//W3C//DTD SVG 1.1//EN" "http://www.w3.org/Graphics/SVG/1.1/DTD/svg11.dtd">
<svg version="1.1" id="Layer_1" xmlns="http://www.w3.org/2000/svg" xmlns:xlink="http://www.w3.org/1999/xlink" x="0px" y="0px"
	 viewBox="0 0 30.9 32.7" enable-background="new 0 0 30.9 32.7" xml:space="preserve">
<g>
	<path fill="#AAD3C7" d="M21.2,29.5c0.7-0.6,0.9-1.6,0.6-2.7c-0.2-0.6-0.5-1.2-0.9-1.7c-0.1-0.1-0.2-0.2-0.3-0.3
		c-0.8-0.9-1.9-1.4-2.8-1.4c-0.5,0-0.9,0.1-1.3,0.4l-0.2,0.1c1.2,0.2,3.2,1.8,4.1,3.4l0,0c0.5,0.9,0.6,1.7,0.5,2.4L21.2,29.5z"/>
	<polygon fill="#616E7D" points="19.6,30.8 19.6,30.8 19.6,30.8 	"/>
	<path fill="#82BFAB" d="M8.7,14.1L8,14.7l-0.1,0l-0.1,0.1l-0.3,0.2l-0.2,0.1l-0.1,0.1C7,15.5,6.9,15.8,7,15.9l0.5,0.7
		c0.9,0.7,2.2,2,3.4,3.5c1.2,1.5,2.3,3,2.7,4.1l0.5,0.7c0,0,0.1,0.1,0.2,0.1c0.1,0,0.3-0.1,0.4-0.2l0.2-0.2l0.2-0.2l0.3-0.3
		c0,0,0.1-0.1,0.1-0.1l0.6-0.5c0.4-0.3,0.9-0.5,1.5-0.5c1,0,2.2,0.6,3,1.5c0.1,0.1,0.2,0.2,0.3,0.3c0.5,0.6,0.8,1.2,1,1.8
		c4.2-2.1,7.1-6.5,7.1-11.5c0-7.1-5.8-12.9-12.9-12.9c-4.3,0-8.1,2.1-10.4,5.3c0.9,0.2,1.8,0.8,2.5,1.7c0.1,0.1,0.2,0.2,0.3,0.4
		C9.9,11.2,9.9,13.2,8.7,14.1z M18.6,14.8c0-0.1,0-0.2,0-0.3c0-0.1,0-0.1,0.1-0.2c0-0.1,0.1-0.1,0.1-0.2l3-4.2c0,0,0.1-0.1,0.1-0.1
		c0.1,0,0.1,0,0.2-0.1c0.1,0,0.2,0,0.4,0c0.2,0,0.4,0,0.6,0c0.3,0,0.5,0,0.6,0c0.2,0,0.3,0,0.4,0c0.1,0,0.2,0,0.2,0.1
		c0.1,0,0.1,0.1,0.1,0.1v4.7h0.8c0.1,0,0.1,0,0.2,0.1c0.1,0.1,0.1,0.3,0.1,0.5c0,0.2,0,0.4-0.1,0.5c-0.1,0.1-0.1,0.2-0.2,0.2h-0.8
		v1.4l0,0.1c0,0-0.1,0.1-0.2,0.1c-0.1,0-0.2,0-0.3,0c-0.1,0-0.3,0-0.5,0c-0.2,0-0.3,0-0.4,0c-0.1,0-0.2,0-0.3,0
		c-0.1,0-0.1,0-0.1-0.1l0-0.1v-1.4H19c-0.1,0-0.1,0-0.2,0c-0.1,0-0.1,0-0.1-0.1c0-0.1-0.1-0.1-0.1-0.2c0-0.1,0-0.2,0-0.4
		C18.5,15,18.6,14.9,18.6,14.8z M11.3,16.4c0-0.1,0-0.2,0.1-0.3c0-0.1,0.1-0.1,0.2-0.2c0.1-0.1,0.1-0.1,0.2-0.2l1.7-1.4
		c0.3-0.3,0.6-0.5,0.8-0.8c0.2-0.2,0.4-0.4,0.5-0.6s0.2-0.4,0.2-0.5c0-0.2,0.1-0.3,0.1-0.5c0-0.1,0-0.3-0.1-0.4
		c-0.1-0.1-0.1-0.2-0.2-0.3c-0.1-0.1-0.2-0.2-0.4-0.2c-0.2,0-0.3-0.1-0.5-0.1c-0.3,0-0.5,0-0.8,0.1c-0.2,0.1-0.4,0.1-0.6,0.2
		c-0.2,0.1-0.3,0.1-0.4,0.2c-0.1,0.1-0.2,0.1-0.3,0.1c0,0-0.1,0-0.1,0c0,0-0.1-0.1-0.1-0.1c0-0.1,0-0.1,0-0.2c0-0.1,0-0.2,0-0.3
		c0-0.1,0-0.2,0-0.2c0-0.1,0-0.1,0-0.2c0,0,0-0.1,0.1-0.1c0,0,0.1-0.1,0.1-0.1c0.1,0,0.2-0.1,0.3-0.2c0.2-0.1,0.4-0.1,0.6-0.2
		c0.2-0.1,0.5-0.1,0.8-0.2c0.3,0,0.6-0.1,0.9-0.1c0.5,0,0.9,0.1,1.3,0.2c0.4,0.1,0.7,0.2,0.9,0.4c0.2,0.2,0.4,0.4,0.6,0.6
		c0.1,0.2,0.2,0.5,0.2,0.8c0,0.3,0,0.5-0.1,0.7c-0.1,0.2-0.2,0.5-0.4,0.8c-0.2,0.3-0.4,0.6-0.8,0.9c-0.3,0.3-0.8,0.7-1.4,1.2
		l-1.1,0.9h3.8c0,0,0.1,0,0.1,0c0,0,0.1,0.1,0.1,0.1c0,0.1,0.1,0.1,0.1,0.2c0,0.1,0,0.2,0,0.3c0,0.1,0,0.2,0,0.3
		c0,0.1,0,0.1-0.1,0.2c0,0.1-0.1,0.1-0.1,0.1c0,0-0.1,0-0.1,0h-5.5c-0.1,0-0.2,0-0.3,0c-0.1,0-0.1,0-0.2-0.1c0,0-0.1-0.1-0.1-0.2
		c0-0.1,0-0.2,0-0.3C11.3,16.6,11.3,16.5,11.3,16.4z"/>
	<polygon fill="#82BFAB" points="22.6,14.5 22.6,11 22.6,11 20.1,14.5 	"/>
	<path fill="#AAD3C7" d="M8.5,13.9c1-0.8,0.9-2.6-0.1-4.1C8.3,9.6,8.2,9.5,8.2,9.4C7.4,8.5,6.5,7.9,5.7,7.8c-0.2,0-0.4-0.1-0.6-0.1
		c-0.4,0-0.7,0.1-1,0.3C4.4,8,4.8,8.2,5.2,8.5C6,9,6.7,9.9,7.2,10.6c0.3,0.5,1.3,2.1,1.2,3.4L8.5,13.9z"/>
	<path fill="#616E7D" d="M19.6,30.8L19.6,30.8L19.6,30.8c0.1,0,0.2-0.1,0.2-0.2c0.1,0,0.1-0.1,0.2-0.1l0,0c0.1,0,0.1-0.1,0.2-0.1
		c0.1,0,0.1-0.1,0.1-0.1c0.5-0.8,0.3-1.8-0.2-2.8c-1-1.7-2.9-3.2-3.9-3.2c-0.2,0-0.3,0-0.4,0.1l-0.3,0.3l-0.2,0.2L15,24.9
		c-0.2,0.2-0.5,0.3-0.7,0.3c-0.2,0-0.3-0.1-0.4-0.2l-0.6-0.7c-0.4-1-1.4-2.4-2.7-4c-1.3-1.6-2.5-2.9-3.4-3.5l-0.6-0.7
		c-0.2-0.3-0.1-0.7,0.3-1.1L7.1,15l0.2-0.1l0.3-0.2l0.3-0.2l0,0C8.4,13.1,6.7,10,5,8.8C4.6,8.5,4.2,8.3,3.8,8.3c-0.1,0-0.2,0-0.2,0
		L3.3,8.5L3.2,8.6L2.8,8.9l0,0L2.6,9.1L2.5,9.2L2.2,9.4l0,0c-2.3,2.4-0.5,8.6,4.2,14.4c3.8,4.6,8.3,7.5,11.3,7.5
		C18.4,31.3,19,31.1,19.6,30.8L19.6,30.8L19.6,30.8L19.6,30.8L19.6,30.8z"/>
	<polygon fill="#FFFFFF" points="19.6,30.8 19.6,30.8 19.6,30.8 	"/>
	<path fill="#616E7D" d="M14.7,12.9c-0.1,0.2-0.3,0.4-0.5,0.6c-0.2,0.2-0.5,0.5-0.8,0.8l-1.7,1.4c-0.1,0.1-0.2,0.2-0.2,0.2
		c-0.1,0.1-0.1,0.1-0.2,0.2c0,0.1-0.1,0.2-0.1,0.3c0,0.1,0,0.2,0,0.3c0,0.1,0,0.3,0,0.3c0,0.1,0.1,0.2,0.1,0.2c0,0,0.1,0.1,0.2,0.1
		c0.1,0,0.2,0,0.3,0h5.5c0,0,0.1,0,0.1,0c0,0,0.1-0.1,0.1-0.1c0-0.1,0-0.1,0.1-0.2c0-0.1,0-0.2,0-0.3c0-0.1,0-0.2,0-0.3
		c0-0.1,0-0.1-0.1-0.2c0-0.1-0.1-0.1-0.1-0.1c0,0-0.1,0-0.1,0h-3.8l1.1-0.9c0.6-0.5,1-0.8,1.4-1.2c0.3-0.3,0.6-0.7,0.8-0.9
		c0.2-0.3,0.3-0.5,0.4-0.8c0.1-0.2,0.1-0.5,0.1-0.7c0-0.3-0.1-0.6-0.2-0.8c-0.1-0.2-0.3-0.5-0.6-0.6c-0.2-0.2-0.6-0.3-0.9-0.4
		c-0.4-0.1-0.8-0.2-1.3-0.2c-0.3,0-0.6,0-0.9,0.1c-0.3,0-0.6,0.1-0.8,0.2C12.4,9.8,12.2,9.9,12,10c-0.2,0.1-0.3,0.1-0.3,0.2
		c-0.1,0-0.1,0.1-0.1,0.1c0,0,0,0.1-0.1,0.1c0,0,0,0.1,0,0.2c0,0.1,0,0.1,0,0.2c0,0.1,0,0.3,0,0.3c0,0.1,0,0.2,0,0.2
		c0,0.1,0,0.1,0.1,0.1c0,0,0.1,0,0.1,0c0.1,0,0.2,0,0.3-0.1c0.1-0.1,0.3-0.1,0.4-0.2c0.2-0.1,0.4-0.1,0.6-0.2
		c0.2-0.1,0.5-0.1,0.8-0.1c0.2,0,0.4,0,0.5,0.1c0.2,0,0.3,0.1,0.4,0.2c0.1,0.1,0.2,0.2,0.2,0.3c0.1,0.1,0.1,0.2,0.1,0.4
		c0,0.1,0,0.3-0.1,0.5C14.9,12.5,14.8,12.7,14.7,12.9z"/>
	<path fill="#616E7D" d="M22.7,17.3c0,0,0.1,0.1,0.1,0.1c0.1,0,0.2,0,0.3,0c0.1,0,0.3,0,0.4,0c0.2,0,0.3,0,0.5,0c0.1,0,0.2,0,0.3,0
		c0.1,0,0.1,0,0.2-0.1l0-0.1v-1.4h0.8c0.1,0,0.2-0.1,0.2-0.2c0.1-0.1,0.1-0.3,0.1-0.5c0-0.2,0-0.4-0.1-0.5c-0.1-0.1-0.1-0.1-0.2-0.1
		h-0.8V9.9c0,0,0-0.1-0.1-0.1c0,0-0.1-0.1-0.2-0.1c-0.1,0-0.2,0-0.4,0c-0.2,0-0.4,0-0.6,0c-0.2,0-0.4,0-0.6,0c-0.2,0-0.3,0-0.4,0
		c-0.1,0-0.2,0-0.2,0.1c-0.1,0-0.1,0.1-0.1,0.1l-3,4.2c0,0.1-0.1,0.1-0.1,0.2c0,0.1-0.1,0.1-0.1,0.2c0,0.1,0,0.2,0,0.3
		c0,0.1,0,0.2,0,0.3c0,0.2,0,0.3,0,0.4c0,0.1,0,0.2,0.1,0.2c0,0,0.1,0.1,0.1,0.1c0.1,0,0.1,0,0.2,0h3.7v1.4L22.7,17.3z M20.1,14.5
		l2.5-3.6h0v3.6H20.1z"/>
</g>
</svg>
