<?xml version="1.0" encoding="UTF-8" standalone="no"?> <svg width="64" height="64" viewBox="0 0 64 64" fill="none" xmlns="http://www.w3.org/2000/svg">
<path d="M32 23.6599C30.9391 23.6599 29.9217 24.0813 29.1716 24.8315C28.4214 25.5816 28 26.599 28 27.6599V44.2599C28.1359 45.2134 28.6112 46.0858 29.3387 46.717C30.0661 47.3482 30.9969 47.6956 31.96 47.6956C32.9231 47.6956 33.8539 47.3482 34.5813 46.717C35.3088 46.0858 35.7841 45.2134 35.92 44.2599V27.6199C35.9098 26.5797 35.4948 25.5844 34.7629 24.8451C34.0311 24.1058 33.0401 23.6807 32 23.6599Z" fill="#78B9EB"/>
<path d="M32 13.5901C31.2089 13.5901 30.4355 13.8247 29.7777 14.2642C29.1199 14.7037 28.6072 15.3285 28.3045 16.0594C28.0017 16.7903 27.9225 17.5945 28.0769 18.3704C28.2312 19.1464 28.6122 19.8591 29.1716 20.4185C29.731 20.9779 30.4437 21.3589 31.2196 21.5132C31.9956 21.6676 32.7998 21.5884 33.5307 21.2856C34.2616 20.9829 34.8864 20.4702 35.3259 19.8124C35.7654 19.1546 36 18.3812 36 17.5901C36 16.5292 35.5786 15.5118 34.8284 14.7617C34.0783 14.0115 33.0609 13.5901 32 13.5901V13.5901Z" fill="#78B9EB"/>
<path d="M32 2.75C26.2149 2.75 20.5597 4.46548 15.7496 7.67951C10.9394 10.8935 7.1904 15.4618 4.97654 20.8065C2.76267 26.1512 2.18343 32.0324 3.31204 37.7064C4.44066 43.3803 7.22645 48.5922 11.3171 52.6829C15.4078 56.7736 20.6197 59.5594 26.2936 60.688C31.9676 61.8166 37.8488 61.2373 43.1935 59.0235C48.5382 56.8096 53.1065 53.0606 56.3205 48.2504C59.5345 43.4403 61.25 37.7851 61.25 32C61.2421 24.2449 58.1578 16.8096 52.6741 11.3259C47.1904 5.84218 39.7552 2.75794 32 2.75V2.75ZM32 56.6C27.1346 56.6 22.3784 55.1572 18.333 52.4542C14.2875 49.7511 11.1345 45.9091 9.27258 41.414C7.41066 36.919 6.9235 31.9727 7.8727 27.2008C8.82189 22.4288 11.1648 18.0455 14.6052 14.6052C18.0456 11.1648 22.4289 8.82188 27.2008 7.87268C31.9727 6.92349 36.919 7.41065 41.414 9.27256C45.9091 11.1345 49.7511 14.2875 52.4542 18.333C55.1572 22.3784 56.6 27.1346 56.6 32C56.5947 38.5227 54.0012 44.7767 49.389 49.389C44.7767 54.0012 38.5227 56.5947 32 56.6V56.6Z" fill="#78B9EB"/>
<path d="M32 2.75C26.2149 2.75 20.5597 4.46548 15.7496 7.67951C10.9394 10.8935 7.1904 15.4618 4.97654 20.8065C2.76267 26.1512 2.18343 32.0324 3.31204 37.7064C4.44066 43.3803 7.22645 48.5922 11.3171 52.6829C15.4078 56.7736 20.6197 59.5594 26.2936 60.688C31.9676 61.8166 37.8488 61.2373 43.1935 59.0235C48.5382 56.8096 53.1065 53.0606 56.3205 48.2504C59.5345 43.4403 61.25 37.7851 61.25 32C61.2421 24.2449 58.1578 16.8096 52.6741 11.3259C47.1904 5.84218 39.7552 2.75794 32 2.75V2.75ZM32 58.75C26.7094 58.75 21.5375 57.1811 17.1385 54.2418C12.7395 51.3025 9.31088 47.1247 7.28624 42.2368C5.26159 37.3489 4.73185 31.9703 5.76401 26.7813C6.79616 21.5923 9.34385 16.8259 13.0849 13.0849C16.826 9.34384 21.5924 6.79615 26.7813 5.76399C31.9703 4.73184 37.3489 5.26158 42.2368 7.28622C47.1247 9.31087 51.3025 12.7395 54.2418 17.1385C57.1812 21.5375 58.75 26.7093 58.75 32C58.7421 39.0921 55.9212 45.8915 50.9063 50.9063C45.8915 55.9212 39.0921 58.7421 32 58.75V58.75Z" fill="#006DF0"/>
<path d="M31.9999 7.3999C27.1345 7.3999 22.3783 8.84267 18.3329 11.5458C14.2874 14.2488 11.1344 18.0908 9.27248 22.5859C7.41056 27.081 6.9234 32.0272 7.8726 36.7991C8.82179 41.5711 11.1647 45.9544 14.6051 49.3947C18.0455 52.8351 22.4288 55.178 27.2007 56.1272C31.9726 57.0764 36.9189 56.5893 41.4139 54.7273C45.909 52.8654 49.751 49.7124 52.4541 45.6669C55.1571 41.6215 56.5999 36.8653 56.5999 31.9999C56.5946 25.4772 54.0011 19.2232 49.3889 14.6109C44.7766 9.99868 38.5226 7.4052 31.9999 7.3999V7.3999ZM31.9999 54.0999C27.6289 54.0999 23.3561 52.8038 19.7218 50.3754C16.0875 47.947 13.2549 44.4955 11.5822 40.4572C9.90948 36.419 9.47182 31.9754 10.3246 27.6884C11.1773 23.4014 13.2821 19.4636 16.3729 16.3728C19.4636 13.2821 23.4014 11.1773 27.6884 10.3245C31.9754 9.47181 36.419 9.90947 40.4572 11.5822C44.4955 13.2549 47.947 16.0875 50.3754 19.7218C52.8038 23.3561 54.0999 27.6289 54.0999 31.9999C54.0946 37.8596 51.7645 43.4777 47.6211 47.6211C43.4777 51.7645 37.8596 54.0946 31.9999 54.0999V54.0999Z" fill="#006DF0"/>
<path d="M32 23.6599C30.9391 23.6599 29.9217 24.0813 29.1716 24.8315C28.4214 25.5816 28 26.599 28 27.6599V44.2599C28.1359 45.2134 28.6112 46.0858 29.3387 46.717C30.0661 47.3482 30.9969 47.6956 31.96 47.6956C32.9231 47.6956 33.8539 47.3482 34.5813 46.717C35.3088 46.0858 35.7841 45.2134 35.92 44.2599V27.6199C35.9098 26.5797 35.4948 25.5844 34.7629 24.8451C34.0311 24.1058 33.0401 23.6807 32 23.6599ZM33.46 44.2599C33.46 44.6471 33.3062 45.0185 33.0324 45.2923C32.7586 45.5661 32.3872 45.7199 32 45.7199C31.6128 45.7199 31.2414 45.5661 30.9676 45.2923C30.6938 45.0185 30.54 44.6471 30.54 44.2599V27.6199C30.54 27.2327 30.6938 26.8613 30.9676 26.5875C31.2414 26.3137 31.6128 26.1599 32 26.1599C32.3872 26.1599 32.7586 26.3137 33.0324 26.5875C33.3062 26.8613 33.46 27.2327 33.46 27.6199V44.2599Z" fill="#006DF0"/>
<path d="M32 13.5901C31.2089 13.5901 30.4355 13.8247 29.7777 14.2642C29.1199 14.7037 28.6072 15.3285 28.3045 16.0594C28.0017 16.7903 27.9225 17.5945 28.0769 18.3704C28.2312 19.1464 28.6122 19.8591 29.1716 20.4185C29.731 20.9779 30.4437 21.3589 31.2196 21.5132C31.9956 21.6676 32.7998 21.5884 33.5307 21.2856C34.2616 20.9829 34.8864 20.4702 35.3259 19.8124C35.7654 19.1546 36 18.3812 36 17.5901C36 16.5292 35.5786 15.5118 34.8284 14.7617C34.0783 14.0115 33.0609 13.5901 32 13.5901V13.5901ZM32 19.0001C31.7112 19.0001 31.429 18.9145 31.1889 18.754C30.9488 18.5936 30.7616 18.3656 30.6511 18.0988C30.5406 17.832 30.5117 17.5385 30.5681 17.2553C30.6244 16.972 30.7634 16.7119 30.9676 16.5077C31.1718 16.3035 31.432 16.1645 31.7152 16.1081C31.9984 16.0518 32.2919 16.0807 32.5587 16.1912C32.8255 16.3017 33.0535 16.4889 33.2139 16.729C33.3744 16.9691 33.46 17.2513 33.46 17.5401C33.4574 17.9265 33.3027 18.2963 33.0295 18.5696C32.7562 18.8428 32.3864 18.9975 32 19.0001V19.0001Z" fill="#006DF0"/>
</svg>
