<?xml version="1.0" encoding="utf-8"?>
<!-- Generator: Adobe Illustrator 18.0.0, SVG Export Plug-In . SVG Version: 6.00 Build 0)  -->
<!DOCTYPE svg PUBLIC "-//W3C//DTD SVG 1.1//EN" "http://www.w3.org/Graphics/SVG/1.1/DTD/svg11.dtd">
<svg version="1.1" id="Layer_1" xmlns="http://www.w3.org/2000/svg" xmlns:xlink="http://www.w3.org/1999/xlink" x="0px" y="0px"
	 viewBox="0 0 42 30.3" enable-background="new 0 0 42 30.3" xml:space="preserve">
<g>
	<path fill="#616E7D" d="M40,4.5c0.3,0,0.5-0.6,0.5-1.2C40.6,2.6,40.3,2,40,2H8.1C7.8,2,7.6,2.6,7.6,3.3c0,0.7,0.2,1.2,0.5,1.2h1.2
		V3.3h29.5v1.2H40z"/>
	<path fill="#616E7D" d="M38.9,24.2v0.5H17.2c0-0.2,0-0.4-0.1-0.5c-0.4-2.1-2.3-3.7-4.5-3.7h-1.9H9.4H7c-2.5,0-4.6,2.1-4.6,4.6v2.2
		h14.9v-2.1H40c0.3,0,0.5-0.2,0.5-0.5c0-0.3-0.2-0.5-0.5-0.5H38.9z M11.7,26.5H11H8.7H8L7,21c0.1,0,0.2,0,0.3,0h5.1
		c0.1,0,0.2,0,0.3,0L11.7,26.5z"/>
	<path fill="#616E7D" d="M9.4,20.5h1.4v-0.6C10.5,20,10.2,20,9.8,20c-0.2,0-0.3,0-0.5,0V20.5z"/>
	<path fill="#616E7D" d="M17.2,24.2c0,0.2,0.1,0.4,0.1,0.5h21.6v-0.5V4.5V3.3H9.4v1.2v5.8c0.2,0,0.3,0,0.5,0c0.3,0,0.6,0,0.9,0.1
		V4.5h26.7v19.7H17.2z"/>
	<path fill="#FFFFFF" d="M10.8,19.9v0.6h1.9c2.2,0,4.1,1.6,4.5,3.7h20.3V4.5H10.8v5.8c2.3,0.4,3.9,2.4,3.9,4.8
		C14.7,17.5,13,19.5,10.8,19.9z M35.2,19.8L35.2,19.8l-0.7,0l0.7-0.9V19.8z M35.2,18.7l-0.9,1.2h-0.7l1.6-2.1V18.7z M35.2,17.6
		l-1.8,2.3h-0.7l2.5-3.2V17.6z M35.2,16.4l-2.7,3.4h-0.7l3.4-4.4V16.4z M35.2,15.3l-3.6,4.6h-0.7l4.3-5.5V15.3z M30.4,6.8h0.7
		l-0.7,0.9V6.8z M30.4,7.9l0.9-1.1h0.7l-1.6,2V7.9z M30.4,9l1.8-2.3H33l-2.5,3.2V9z M30.4,10.2l2.7-3.4h0.7l-3.4,4.3V10.2z
		 M30.4,11.3L34,6.8h0.7l-4.3,5.4V11.3z M30.4,12.4l4.5-5.7h0.3v0.6l-4.8,6V12.4z M30.4,13.6l4.8-6v0.9l-4.8,6V13.6z M30.4,14.7
		l4.8-6v0.9l-4.8,6V14.7z M30.4,15.9l4.8-6v0.9l-4.8,6V15.9z M30.4,17l4.8-6v0.9l-4.8,6V17z M30.4,18.1l4.8-6V13l-4.8,6V18.1z
		 M30.4,19.3l4.8-6v0.9l-4.5,5.7h-0.2V19.3z M23.6,11.3h4.8v8.6h-4.8V11.3z M16.8,15.4h4.8v4.5h-4.8V15.4z"/>
	<path fill="#616E7D" d="M9.8,10.2c-0.2,0-0.3,0-0.5,0c-2.5,0.2-4.4,2.3-4.4,4.9c0,2.5,1.9,4.6,4.4,4.9c0.2,0,0.3,0,0.5,0
		c0.3,0,0.6,0,0.9-0.1c2.3-0.4,3.9-2.4,3.9-4.8c0-2.4-1.7-4.4-3.9-4.8C10.5,10.3,10.2,10.2,9.8,10.2z"/>
	<path fill="#FFFFFF" d="M10.4,22.8L10.4,22.8l0.6,3.7h0.7l1.1-5.5c-0.1,0-0.2,0-0.3,0H7.3c-0.1,0-0.2,0-0.3,0L8,26.5h0.7l0.6-3.7h0
		l-0.6-1h2.2L10.4,22.8L10.4,22.8z"/>
	<polygon fill="#AAD3C7" points="8.7,26.5 11,26.5 10.4,22.8 10.4,22.8 10.4,22.8 10.9,21.8 8.7,21.8 9.3,22.8 9.3,22.8 	"/>
	<rect x="16.8" y="15.4" fill="#616E7D" width="4.8" height="4.5"/>
	<rect x="23.6" y="11.3" fill="#616E7D" width="4.8" height="8.6"/>
	<polygon fill="#AAD3C7" points="35.2,16.4 35.2,15.5 31.8,19.9 32.5,19.9 	"/>
	<polygon fill="#AAD3C7" points="35.2,15.3 35.2,14.4 30.9,19.9 31.6,19.9 	"/>
	<polygon fill="#AAD3C7" points="31.2,6.8 30.4,6.8 30.4,7.7 	"/>
	<polygon fill="#AAD3C7" points="35.2,9.6 35.2,8.7 30.4,14.7 30.4,15.6 	"/>
	<polygon fill="#AAD3C7" points="35.2,10.7 35.2,9.8 30.4,15.9 30.4,16.8 	"/>
	<polygon fill="#AAD3C7" points="30.7,19.9 35.2,14.1 35.2,13.2 30.4,19.3 30.4,19.9 	"/>
	<polygon fill="#AAD3C7" points="35.2,8.5 35.2,7.6 30.4,13.6 30.4,14.5 	"/>
	<polygon fill="#AAD3C7" points="35.2,13 35.2,12.1 30.4,18.1 30.4,19 	"/>
	<polygon fill="#AAD3C7" points="30.4,8.8 32.1,6.8 31.3,6.8 30.4,7.9 	"/>
	<polygon fill="#AAD3C7" points="35.2,11.9 35.2,11 30.4,17 30.4,17.9 	"/>
	<polygon fill="#AAD3C7" points="30.4,11.1 33.9,6.8 33.1,6.8 30.4,10.2 	"/>
	<polygon fill="#AAD3C7" points="35.2,18.7 35.2,17.8 33.6,19.9 34.3,19.9 	"/>
	<polygon fill="#AAD3C7" points="35.2,19.8 35.2,18.9 34.5,19.9 35.2,19.9 	"/>
	<polygon fill="#AAD3C7" points="30.4,12.2 34.8,6.8 34,6.8 30.4,11.3 	"/>
	<polygon fill="#AAD3C7" points="35.2,17.6 35.2,16.7 32.7,19.9 33.4,19.9 	"/>
	<polygon fill="#AAD3C7" points="30.4,9.9 33,6.8 32.2,6.8 30.4,9 	"/>
	<polygon fill="#AAD3C7" points="30.4,13.3 35.2,7.3 35.2,6.8 34.9,6.8 30.4,12.4 	"/>
</g>
</svg>
