<?xml version="1.0" encoding="utf-8"?>
<!-- Generator: Adobe Illustrator 18.0.0, SVG Export Plug-In . SVG Version: 6.00 Build 0)  -->
<!DOCTYPE svg PUBLIC "-//W3C//DTD SVG 1.1//EN" "http://www.w3.org/Graphics/SVG/1.1/DTD/svg11.dtd">
<svg version="1.1" id="Layer_1" xmlns="http://www.w3.org/2000/svg" xmlns:xlink="http://www.w3.org/1999/xlink" x="0px" y="0px"
	 viewBox="0 0 26.6 38.9" enable-background="new 0 0 26.6 38.9" xml:space="preserve">
<g>
	<path fill="#616E7D" d="M4.4,2.3c-1.1,0-2.1,0.9-2.1,2.1v30.3c0,1.1,0.9,2.1,2.1,2.1h17.7c1.1,0,2.1-0.9,2.1-2.1V4.4
		c0-1.1-0.9-2.1-2.1-2.1H4.4z M13.2,34.7c-0.7,0-1.3-0.6-1.3-1.3c0-0.7,0.6-1.3,1.3-1.3c0.7,0,1.3,0.6,1.3,1.3
		C14.5,34.1,13.9,34.7,13.2,34.7z M20.9,30.7H5.5V5.1h15.4V30.7z"/>
	<path fill="#FFFFFF" d="M20.9,30.7V5.1H5.5v25.6H20.9z M13.1,17.9h-3v-1.1h3V17.9z M13.3,17.9v-1.1h3v1.1H13.3z M13.5,23h3.1v0.8
		h-3.1V23z M19.5,27.1h-6v-0.8h6V27.1z M19.5,25.7h-6v-0.8h6V25.7z M19.5,22.5h-6v-0.8h6V22.5z M19.5,21.1h-6v-0.8h6V21.1z
		 M19.5,19.8h-6V19h6V19.8z M16.5,17.9v-1.1h3v1.1H16.5z M7,6.7h12.5v9.2H7V6.7z M7,16.7h3v1.1H7V16.7z M7,18.9h5.8v5.4H7V18.9z"/>
	<circle fill="#FFFFFF" cx="13.2" cy="33.4" r="1.3"/>
	<rect x="7" y="6.7" fill="#AAD3C7" width="12.5" height="9.2"/>
	<rect x="7" y="16.7" fill="#82BFAB" width="3" height="1.1"/>
	<rect x="7" y="18.9" fill="#82BFAB" width="5.8" height="5.4"/>
	<rect x="10.2" y="16.7" fill="#82BFAB" width="3" height="1.1"/>
	<rect x="13.3" y="16.7" fill="#82BFAB" width="3" height="1.1"/>
	<rect x="13.5" y="19" fill="#AAD3C7" width="6" height="0.8"/>
	<rect x="13.5" y="20.3" fill="#AAD3C7" width="6" height="0.8"/>
	<rect x="13.5" y="21.7" fill="#AAD3C7" width="6" height="0.8"/>
	<rect x="13.5" y="23" fill="#AAD3C7" width="3.1" height="0.8"/>
	<rect x="13.5" y="24.9" fill="#AAD3C7" width="6" height="0.8"/>
	<rect x="13.5" y="26.3" fill="#AAD3C7" width="6" height="0.8"/>
	<rect x="16.5" y="16.7" fill="#82BFAB" width="3" height="1.1"/>
</g>
</svg>
