<?xml version="1.0" encoding="utf-8"?>
<!-- Generator: Adobe Illustrator 18.0.0, SVG Export Plug-In . SVG Version: 6.00 Build 0)  -->
<!DOCTYPE svg PUBLIC "-//W3C//DTD SVG 1.1//EN" "http://www.w3.org/Graphics/SVG/1.1/DTD/svg11.dtd">
<svg version="1.1" id="Layer_1" xmlns="http://www.w3.org/2000/svg" xmlns:xlink="http://www.w3.org/1999/xlink" x="0px" y="0px"
	 viewBox="0 0 31.9 36.4" enable-background="new 0 0 31.9 36.4" xml:space="preserve">
<g>
	<path fill="#AAD3C7" d="M22.5,9.2c0.5,0.1,0.9-0.2,1.1-0.6l1-4.2c0.1-0.5-0.2-0.9-0.6-1.1l-3.9-1C19.5,2.2,19,2.5,18.9,3
		c-0.1,0.5,0.2,0.9,0.6,1.1l1.7,0.4L9.4,13.1C9,13.4,8.9,14,9.2,14.3c0.3,0.4,0.8,0.5,1.2,0.2l12-8.7l-0.6,2.3
		C21.7,8.6,22,9.1,22.5,9.2z"/>
	<rect x="2.4" y="23.8" fill="#616E7D" width="7.5" height="7"/>
	<rect x="13.1" y="17.4" fill="#616E7D" width="7.5" height="13.5"/>
	<polygon fill="#AAD3C7" points="31.2,25.4 31.2,24 25.8,30.8 26.9,30.8 	"/>
	<polygon fill="#AAD3C7" points="31.2,23.7 31.2,22.2 24.4,30.8 25.5,30.8 	"/>
	<polygon fill="#AAD3C7" points="24.9,10.3 23.8,10.3 23.8,11.7 	"/>
	<polygon fill="#AAD3C7" points="31.2,14.7 31.2,13.3 23.8,22.8 23.8,24.2 	"/>
	<polygon fill="#AAD3C7" points="31.2,16.5 31.2,15.1 23.8,24.5 23.8,26 	"/>
	<polygon fill="#AAD3C7" points="24.1,30.8 31.2,21.9 31.2,20.4 23.8,29.9 23.8,30.8 	"/>
	<polygon fill="#AAD3C7" points="31.2,12.9 31.2,11.5 23.8,21 23.8,22.4 	"/>
	<polygon fill="#AAD3C7" points="31.2,20.1 31.2,18.7 23.8,28.1 23.8,29.5 	"/>
	<polygon fill="#AAD3C7" points="23.8,13.5 26.3,10.3 25.2,10.3 23.8,12.1 	"/>
	<polygon fill="#AAD3C7" points="31.2,18.3 31.2,16.9 23.8,26.3 23.8,27.7 	"/>
	<polygon fill="#AAD3C7" points="23.8,17 29.1,10.3 28,10.3 23.8,15.6 	"/>
	<polygon fill="#AAD3C7" points="31.2,29 31.2,27.6 28.6,30.8 29.8,30.8 	"/>
	<polygon fill="#AAD3C7" points="31.2,30.8 31.2,29.4 30.1,30.8 31.2,30.8 	"/>
	<polygon fill="#AAD3C7" points="23.8,18.8 30.5,10.3 29.4,10.3 23.8,17.4 	"/>
	<polygon fill="#AAD3C7" points="31.2,27.2 31.2,25.8 27.2,30.8 28.4,30.8 	"/>
	<polygon fill="#AAD3C7" points="23.8,15.3 27.7,10.3 26.6,10.3 23.8,13.8 	"/>
	<polygon fill="#AAD3C7" points="23.8,20.6 31.2,11.2 31.2,10.3 30.8,10.3 23.8,19.2 	"/>
	<polygon fill="#FFFFFF" points="23.8,12.1 25.2,10.3 24.9,10.3 23.8,11.7 	"/>
	<polygon fill="#FFFFFF" points="23.8,13.8 26.6,10.3 26.3,10.3 23.8,13.5 	"/>
	<polygon fill="#FFFFFF" points="23.8,15.6 28,10.3 27.7,10.3 23.8,15.3 	"/>
	<polygon fill="#FFFFFF" points="23.8,17.4 29.4,10.3 29.1,10.3 23.8,17 	"/>
	<polygon fill="#FFFFFF" points="23.8,19.2 30.8,10.3 30.5,10.3 23.8,18.8 	"/>
	<polygon fill="#FFFFFF" points="31.2,11.5 31.2,11.2 23.8,20.6 23.8,21 	"/>
	<polygon fill="#FFFFFF" points="31.2,13.3 31.2,12.9 23.8,22.4 23.8,22.8 	"/>
	<polygon fill="#FFFFFF" points="31.2,15.1 31.2,14.7 23.8,24.2 23.8,24.5 	"/>
	<polygon fill="#FFFFFF" points="31.2,16.9 31.2,16.5 23.8,26 23.8,26.3 	"/>
	<polygon fill="#FFFFFF" points="31.2,18.7 31.2,18.3 23.8,27.7 23.8,28.1 	"/>
	<polygon fill="#FFFFFF" points="31.2,20.4 31.2,20.1 23.8,29.5 23.8,29.9 	"/>
	<polygon fill="#FFFFFF" points="31.2,22.2 31.2,21.9 24.1,30.8 24.4,30.8 	"/>
	<polygon fill="#FFFFFF" points="31.2,24 31.2,23.7 25.5,30.8 25.8,30.8 	"/>
	<polygon fill="#FFFFFF" points="31.2,25.8 31.2,25.4 26.9,30.8 27.2,30.8 	"/>
	<polygon fill="#FFFFFF" points="31.2,27.6 31.2,27.2 28.4,30.8 28.6,30.8 	"/>
	<polygon fill="#FFFFFF" points="31.2,29.4 31.2,29 29.8,30.8 30.1,30.8 	"/>
	<polygon fill="#FFFFFF" points="31.2,30.8 31.2,30.8 31.2,30.8 	"/>
	<path fill="#616E7D" d="M-0.1,1.6v32.7c0,0.2,0.1,0.5,0.3,0.6c0.2,0.2,0.4,0.3,0.6,0.3h31.9v-1.8h-31V1.6H-0.1z"/>
</g>
</svg>
