<?xml version="1.0" encoding="utf-8"?>
<!-- Generator: Adobe Illustrator 24.0.2, SVG Export Plug-In . SVG Version: 6.00 Build 0)  -->
<svg version="1.1" id="Layer_1" xmlns="http://www.w3.org/2000/svg" xmlns:xlink="http://www.w3.org/1999/xlink" x="0px" y="0px"
	 viewBox="0 0 512 512" enable-background="new 0 0 512 512" xml:space="preserve">
<g>
	<g>
		<g>
			<polygon fill="#F77B55" points="27.8,372.8 25.4,370.8 134.3,243.1 229.2,350.4 336.7,147.7 402.7,210.5 489,131.9 491.1,134.3 
				402.7,214.8 337.6,152.8 229.8,355.8 134.3,247.8 			"/>
		</g>
	</g>
	<g>
		<g>
			<path fill="#92E0EA" d="M278.1,425.3c-14.9,4.2-30.5,6.4-46.7,6.4c-95.7,0-173.3-77.6-173.3-173.3c0-95.7,77.6-173.3,173.3-173.3
				c68.8,0,128.3,40.1,156.2,98.2l21.3-11.8C376.8,106,309.4,60.8,231.4,60.8c-109.2,0-197.6,88.5-197.6,197.6
				c0,109.2,88.5,197.6,197.6,197.6c17.9,0,35.2-2.4,51.6-6.9L278.1,425.3z"/>
		</g>
	</g>
	<g>
		<g>
			<polygon fill="#92E0EA" points="435.6,259.1 427.4,141.4 349.8,178.2 			"/>
		</g>
	</g>
	<g>
		<g>
			<g>
				<polygon fill="#353F49" points="234.7,277.5 155.4,231.7 162.7,219 234.7,260.5 338.7,200.8 346,213.6 				"/>
			</g>
		</g>
	</g>
	<g>
		<g>
			<path fill="#F77B55" d="M258.2,264.6c0,11.8-9.6,21.4-21.4,21.4c-11.8,0-21.4-9.6-21.4-21.4c0-11.8,9.6-21.4,21.4-21.4
				C248.6,243.2,258.2,252.8,258.2,264.6z"/>
		</g>
	</g>
	<g>
		<g>
			<g>
				<path fill="#CDCCCA" d="M241.1,111.5c-2.4,2.4-6.2,2.4-8.6,0c-2.4-2.4-2.4-6.2,0-8.6c2.4-2.4,6.2-2.4,8.6,0
					C243.4,105.3,243.4,109.1,241.1,111.5z"/>
			</g>
		</g>
		<g>
			<g>
				<path fill="#CDCCCA" d="M165.5,129.5c-0.9,3.3-4.2,5.2-7.5,4.3c-3.3-0.9-5.2-4.2-4.3-7.5c0.9-3.3,4.2-5.2,7.5-4.3
					C164.5,122.8,166.4,126.2,165.5,129.5z"/>
			</g>
		</g>
		<g>
			<g>
				<path fill="#CDCCCA" d="M109,182.8c0.9,3.3-1.1,6.6-4.3,7.5c-3.3,0.9-6.6-1.1-7.5-4.3c-0.9-3.3,1.1-6.6,4.3-7.5
					C104.8,177.6,108.2,179.5,109,182.8z"/>
			</g>
		</g>
		<g>
			<g>
				<path fill="#CDCCCA" d="M86.8,257.2c2.4,2.4,2.4,6.2,0,8.6c-2.4,2.4-6.2,2.4-8.6,0c-2.4-2.4-2.4-6.2,0-8.6
					C80.6,254.8,84.4,254.8,86.8,257.2z"/>
			</g>
		</g>
		<g>
			<g>
				<path fill="#CDCCCA" d="M104.7,332.7c3.3,0.9,5.2,4.2,4.3,7.5c-0.9,3.3-4.2,5.2-7.5,4.3c-3.3-0.9-5.2-4.2-4.3-7.5
					C98.1,333.8,101.5,331.8,104.7,332.7z"/>
			</g>
		</g>
		<g>
			<g>
				<path fill="#CDCCCA" d="M158,389.2c3.3-0.9,6.6,1.1,7.5,4.3c0.9,3.2-1.1,6.6-4.3,7.5c-3.3,0.9-6.6-1.1-7.5-4.3
					C152.9,393.4,154.8,390.1,158,389.2z"/>
			</g>
		</g>
		<g>
			<g>
				<path fill="#CDCCCA" d="M232.4,411.4c2.4-2.4,6.2-2.4,8.6,0c2.4,2.4,2.4,6.2,0,8.6c-2.4,2.4-6.2,2.4-8.6,0
					C230.1,417.7,230.1,413.8,232.4,411.4z"/>
			</g>
		</g>
		<g>
			<g>
				<path fill="#CDCCCA" d="M308,393.5c0.9-3.3,4.2-5.2,7.5-4.3c3.3,0.9,5.2,4.2,4.3,7.5c-0.9,3.2-4.2,5.2-7.5,4.3
					C309.1,400.1,307.1,396.7,308,393.5z"/>
			</g>
		</g>
		<g>
			<g>
				<path fill="#CDCCCA" d="M364.5,340.2c-0.9-3.3,1.1-6.6,4.3-7.5c3.3-0.9,6.6,1.1,7.5,4.3c0.9,3.3-1.1,6.6-4.3,7.5
					C368.7,345.4,365.3,343.4,364.5,340.2z"/>
			</g>
		</g>
		<g>
			<g>
				<ellipse fill="#CDCCCA" cx="391" cy="261.5" rx="6.1" ry="6.1"/>
			</g>
		</g>
		<g>
			<g>
				<path fill="#CDCCCA" d="M315.5,133.8c-3.3,0.9-6.6-1.1-7.5-4.3c-0.9-3.3,1.1-6.6,4.3-7.5c3.3-0.9,6.6,1.1,7.5,4.3
					C320.6,129.5,318.7,132.9,315.5,133.8z"/>
			</g>
		</g>
	</g>
	<g>
		<g>
			<path fill="#F77B55" d="M35.2,377.7c0,5.8-4.7,10.5-10.5,10.5c-5.8,0-10.5-4.7-10.5-10.5c0-5.8,4.7-10.5,10.5-10.5
				C30.5,367.1,35.2,371.9,35.2,377.7z"/>
		</g>
	</g>
	<g>
		<g>
			<path fill="#F77B55" d="M144,247.8c0,5.8-4.7,10.5-10.5,10.5c-5.8,0-10.5-4.7-10.5-10.5c0-5.8,4.7-10.5,10.5-10.5
				C139.3,237.3,144,242,144,247.8z"/>
		</g>
	</g>
	<g>
		<g>
			<path fill="#F77B55" d="M239.2,355.4c0,5.8-4.7,10.5-10.5,10.5c-5.8,0-10.5-4.7-10.5-10.5c0-5.8,4.7-10.5,10.5-10.5
				C234.5,344.9,239.2,349.6,239.2,355.4z"/>
		</g>
	</g>
	<g>
		<g>
			<path fill="#F77B55" d="M345.3,154.2c0,5.8-4.7,10.5-10.5,10.5c-5.8,0-10.5-4.7-10.5-10.5c0-5.8,4.7-10.5,10.5-10.5
				C340.6,143.6,345.3,148.3,345.3,154.2z"/>
		</g>
	</g>
	<g>
		<g>
			<path fill="#F77B55" d="M497.5,134.7c0,5.8-4.7,10.5-10.5,10.5c-5.8,0-10.5-4.7-10.5-10.5c0-5.8,4.7-10.5,10.5-10.5
				C492.7,124.1,497.5,128.8,497.5,134.7z"/>
		</g>
	</g>
</g>
</svg>
