<?xml version="1.0" encoding="UTF-8"?>
<svg width="64" height="64" version="1.1" viewBox="0 0 16.933 16.933" xmlns="http://www.w3.org/2000/svg" xmlns:cc="http://creativecommons.org/ns#" xmlns:dc="http://purl.org/dc/elements/1.1/" xmlns:rdf="http://www.w3.org/1999/02/22-rdf-syntax-ns#">
<metadata>
<rdf:RDF>
<cc:Work rdf:about="">
<dc:format>image/svg+xml</dc:format>
<dc:type rdf:resource="http://purl.org/dc/dcmitype/StillImage"/>
<dc:title/>
</cc:Work>
</rdf:RDF>
</metadata>
<g>
<path d="m1.3229 0.79374h6.0854c0.29317 0 0.52918 0.23601 0.52918 0.52918v1.0583c0 0.29317-0.23601 0.52918-0.52918 0.52918h-6.0854c-0.29317 0-0.52918-0.23601-0.52918-0.52918v-1.0583c0-0.29317 0.23601-0.52918 0.52918-0.52918z" fill="#a8c5f7"/>
<path d="m7.4083 0.79375v1.0583c0 0.29317-0.236 0.52917-0.52917 0.52917h-6.0854c0 0.29317 0.236 0.52917 0.52917 0.52917h6.0854c0.29317 0 0.52917-0.236 0.52917-0.52917v-1.0583c0-0.29317-0.236-0.52917-0.52917-0.52917z" fill="#91b8fb"/>
<path d="m1.3229 3.9688h6.0854c0.29317 0 0.52918 0.23601 0.52918 0.52918v1.0583c0 0.29317-0.23601 0.52918-0.52918 0.52918h-6.0854c-0.29317 0-0.52918-0.23601-0.52918-0.52918v-1.0583c0-0.29317 0.23601-0.52918 0.52918-0.52918z" fill="#a8c5f7"/>
<path d="m5.4169 6.0854-0.28951 0.28926-5.292e-4 5.291e-4 -5.291e-4 5.027e-4 0.51367 0.69295 0.29456 0.39789c-0.051091 0.08115-0.09651 0.16521-0.14263 0.24907-0.0196 0.035637-0.04177 0.069838-0.060457 0.10592-1.082e-4 2.108e-4 -3.969e-4 3.175e-4 -5.292e-4 5.291e-4 -0.18854 0.36306-0.33096 0.74851-0.42323 1.1482l-0.49971 0.074426-0.83923 0.12504v1.7678l0.61443 0.09144 0.72864 0.10902c0.12063 0.5331 0.32992 1.0423 0.6196 1.5058l-0.56069 0.75806-0.24495 0.3302h5.291e-4l0.31833 0.31831 0.9307 0.93117 0.4992-0.36999h5.027e-4l0.59273-0.43869c0.07702 0.0484 0.15722 0.09093 0.23668 0.13486 0.39743 0.22079 0.82228 0.38878 1.2661 0.49142l0.19947 1.3404h1.7668v-5.03e-4h9.79e-4l0.19999-1.343c0.26646-0.0607 0.52659-0.14403 0.77825-0.24804 0.25187-0.10358 0.49526-0.22785 0.72709-0.37257l1.0888 0.80612h5.29e-4l1.2495-1.2495-0.80874-1.0914c0.29195-0.46248 0.50381-0.9708 0.62683-1.5037l1.1157-0.16639 0.22324-0.03308h5.29e-4v-1.7673h-5.29e-4l-1.3431-0.19997c-0.12058-0.53344-0.33026-1.043-0.62012-1.5068l0.80512-1.0872 5.29e-4 -5.292e-4 -1.249-1.249-5.29e-4 5.292e-4 -5.29e-4 -5.292e-4 -1.0914 0.80819c-0.02459-0.015462-0.05059-0.028384-0.07546-0.043403-0.44203-0.26803-0.92278-0.46682-1.4268-0.58339l-0.19999-1.3384h-9.78e-4v-5.292e-4h-0.88213l-0.8837-5.027e-4v5.027e-4h-5.292e-4l-0.20051 1.3425c-0.13293 0.030252-0.26419 0.066306-0.39377 0.10748-3.704e-4 1.135e-4 -6.614e-4 3.969e-4 -0.00101 5.292e-4 -0.035126 0.011229-0.069026 0.02576-0.10387 0.03772-0.18655 0.06368-0.36943 0.13765-0.54725 0.22252" fill="#e2e7fa" style="paint-order:normal"/>
<path transform="scale(.26458)" d="m34.662 15v2e-3h-2e-3l-0.75781 5.0742c-0.50241 0.11434-0.99853 0.25064-1.4883 0.40625-0.0014 4.29e-4 -0.0026 0.0015-0.0039 2e-3 -0.13276 0.04244-0.26088 0.09737-0.39258 0.14258-0.70506 0.24068-1.3963 0.51906-2.0684 0.83984l-9.4765 1.5331-1.0978 1.0978 1.9414 2.6191 1.1133 1.5039c-0.1931 0.30671-0.36476 0.62447-0.53906 0.94141-0.07408 0.13469-0.15789 0.26401-0.22852 0.40039l-2e-3 2e-3c-0.71261 1.3722-1.2509 2.8292-1.5996 4.3398l-1.8885 0.28111-3.1719 0.47266v6.6797l2.3223 0.3457 2.7539 0.41211c0.45591 2.0149 1.2469 3.9394 2.3418 5.6914l-2.1191 2.8652-0.92578 1.248h2e-3l1.2031 1.2031 3.5176 3.5195 1.1484-0.85156-2.6661-2.668-1.2031-1.2031h-2e-3l0.92578-1.248 2.1191-2.8652c-1.0948-1.752-1.8859-3.6765-2.3418-5.6914l-2.7539-0.41211-2.3223-0.3457v-6.6797l3.1719-0.47266 1.8887-0.28125c0.34874-1.5107 0.887-2.9676 1.5996-4.3398l2e-3 -2e-3c0.07063-0.13638 0.15444-0.2657 0.22852-0.40039 0.1743-0.31693 0.34596-0.6347 0.53906-0.94141l-1.1133-1.5038-1.9414-2.6191 1.0977-1.0977 9.4766-1.5332c0.67206-0.32079 1.3633-0.59916 2.0684-0.83984 0.1317-0.0452 0.25982-0.10014 0.39258-0.14258 0.0013-5e-4 0.0025-0.0015 0.0039-2e-3 0.48975-0.15561 0.98588-0.29191 1.4883-0.40625l0.75781-5.0742zm-4.4375 38.566-0.85938 0.63672c1.4317 0.76915 2.952 1.3634 4.5391 1.7305l0.75391 5.0664h2l-0.75391-5.0664c-1.6774-0.38795-3.2831-1.0229-4.7852-1.8574-0.3003-0.16604-0.60343-0.32684-0.89453-0.50977z" fill="#f8f8f8" style="paint-order:normal"/>
<path d="m7.4083 3.9688v1.0583c0 0.29317-0.236 0.52917-0.52917 0.52917h-6.0854c0 0.29317 0.236 0.52917 0.52917 0.52917h6.0854c0.29317 0 0.52917-0.236 0.52917-0.52917v-1.0583c0-0.29317-0.236-0.52917-0.52917-0.52917z" fill="#91b8fb"/>
<path d="m13.229 10.054c0 1.7535-1.4215 3.175-3.175 3.175-1.7535 0-3.175-1.4215-3.175-3.175-1e-7 -1.7535 1.4215-3.175 3.175-3.175 1.7535 1e-7 3.175 1.4215 3.175 3.175z" fill="#a8c5f7"/>
<path transform="scale(.26458)" d="m47.676 30.922c0.84062 1.6807 1.3242 3.5711 1.3242 5.5781 0 6.9036-5.5964 12.5-12.5 12.5-2.007 0-3.8975-0.4836-5.5781-1.3242 1.9857 1.4553 4.4275 2.3242 7.0781 2.3242 6.6274 0 12-5.3726 12-12 0-2.6506-0.86889-5.0924-2.3242-7.0781z" fill="#f8f8f8"/>
<path d="m9.171 3.9688v5.291e-4h0.88367zm1.2366 5.291e-4v5.292e-4h1e-3l0.19999 1.3384c0.504 0.11657 0.98476 0.3154 1.4268 0.58343 0.02487 0.015018 0.05086 0.027946 0.07545 0.043408l0.22792-0.16898c-0.3787-0.2038-0.78104-0.36075-1.201-0.45788l-0.19999-1.3384h-1e-3v-5.292e-4zm3.3238 1.1576-0.30334 0.22479 1.0242 1.0242-5.29e-4 5.292e-4 -0.80512 1.0873c0.28986 0.46382 0.49953 0.97344 0.62012 1.5069l1.3431 0.19999h5.29e-4v1.7668h-5.29e-4l-0.22324 0.03307-1.1157 0.1664c-0.12302 0.53293-0.33489 1.0413-0.62684 1.5038l0.80874 1.0914-1.0247 1.0247 0.30386 0.22479h5.29e-4l1.2495-1.2495-0.80874-1.0914c0.29195-0.46248 0.50381-0.97086 0.62684-1.5038l1.1157-0.1664 0.22324-0.03307h5.17e-4v-1.7668h-5.29e-4l-1.3431-0.19999c-0.12058-0.53344-0.33026-1.0431-0.62012-1.5069l0.80512-1.0873 5.29e-4 -5.292e-4 -1.249-1.249-5.29e-4 5.292e-4zm-1.6175 9.0485c-0.23183 0.14472-0.47522 0.269-0.72709 0.37259-0.25166 0.10401-0.51179 0.18735-0.77825 0.24805l-0.19999 1.3431h-1e-3v5.04e-4h0.52917v-5.29e-4h1e-3l0.19999-1.3431c0.26646-0.0607 0.52658-0.14404 0.77825-0.24805 0.14587-0.05999 0.28778-0.12875 0.42736-0.20257z" fill="#c4d2f0" style="paint-order:normal"/>
<path d="m10.848 13.128v-1.6675c0.64564-0.30625 1.0575-0.95662 1.0583-1.6712-8.32e-4 -0.71459-0.41269-1.365-1.0583-1.6712v1.4066c0 0.29316-0.23601 0.52917-0.52917 0.52917h-0.52917c-0.29316 0-0.52917-0.23601-0.52917-0.52917v-1.4061c-0.64547 0.30617-1.0573 0.95629-1.0583 1.6707 0.00103 0.71441 0.41286 1.3645 1.0583 1.6707v1.6681z" fill="#e2e7fa"/>
<path d="m1.5875 2.9104h5.5563v1.0583h-5.5563z" fill="#e2e7fa"/>
<path d="m10.848 8.1184v0.38344c0.3309 0.33952 0.5286 0.797 0.52917 1.2878-8.2e-4 0.71459-0.41269 1.365-1.0583 1.6712v1.6676h0.52917v-1.6676c0.64564-0.30625 1.0575-0.95662 1.0583-1.6712-8.2e-4 -0.71459-0.41269-1.365-1.0583-1.6712z" fill="#c4d2f0"/>
<path d="m9.2604 12.596v0.53278h1.5875v-0.53175c-0.25916 0.0678-0.52587 0.10253-0.79375 0.10335-0.26793-0.0012-0.53463-0.03624-0.79375-0.10439z" fill="#c4d2f0"/>
<path d="m10.054 6.8792c-1.7535-1e-7 -3.175 1.4215-3.175 3.175 1e-7 1.7535 1.4215 3.175 3.175 3.175 0.05188-4.62e-4 0.10375-0.0022 0.15555-0.0052-1.5641-0.057742-2.8028-1.3416-2.8045-2.9068-3.35e-5 -1.6082 1.3037-2.912 2.912-2.912 1.5474 7.962e-4 2.8239 1.2117 2.9063 2.7569 0.0025-0.03597 0.0044-0.07197 0.0057-0.108 0-1.7535-1.4215-3.175-3.175-3.175z" fill="#91b8fb"/>
<path transform="scale(.26458)" d="m35 30.686c-2.4396 1.1572-3.9961 3.6143-4 6.3145 0.0039 2.7001 1.5604 5.1573 4 6.3145v6.3047h2v-6.3047c-2.4396-1.1572-3.9961-3.6143-4-6.3145 0.0027-1.8537 0.75042-3.5806 2-4.8633z" fill="#f8f8f8"/>
<path transform="scale(.26458)" d="m5 3c-1.108 0-2 0.89197-2 2v4c0 1.108 0.89197 2 2 2h2c-1.108 0-2-0.89197-2-2v-4c0-1.108 0.89197-2 2-2h-2z" fill="#f8f8f8"/>
<path d="m1.3229 3.9687c-0.29317 0-0.52917 0.236-0.52917 0.52917v1.0583c0 0.29317 0.236 0.52917 0.52917 0.52917h0.52917c-0.29317 0-0.52917-0.236-0.52917-0.52917v-1.0583c0-0.29317 0.236-0.52917 0.52917-0.52917z" fill="#f8f8f8"/>
<path d="m13.564 4.9216-0.94413 0.6966c-0.38475-0.22356-0.80459-0.40554-1.2454-0.51987l-0.17518-1.1668c-2e-3 -0.0662-0.0565-0.13311-0.0822-0.15606-0.0447-0.0442-0.12072-0.0641-0.14831-0.0682-0.30153-5e-3 -0.61023-0.00201-0.91416-0.00201h-0.88665c-0.0819-7e-3 -0.15269 0.0497-0.18965 0.0817-0.0465 0.0483-0.0624 0.10699-0.0703 0.14263l-0.17467 1.1715c-0.17293 0.0371-0.36005 0.10443-0.53226 0.17519v-0.77826c0-0.43516-0.35755-0.79271-0.79272-0.79271v-0.52916c0.43517 0 0.79272-0.36013 0.79272-0.7953v-1.0584c-8.5e-6 -0.43517-0.35755-0.79324-0.79271-0.79324h-6.0862c-0.43517 0-0.79323 0.35807-0.79323 0.79324v1.0583c0 0.43517 0.35806 0.7953 0.79323 0.7953v0.52917c-0.43517 0-0.79323 0.35755-0.79323 0.79271v1.0588c0 0.43517 0.35806 0.79272 0.79323 0.79272h3.5404c-6e-3 0.0655 0.0118 0.13115 0.0512 0.18397 0.2349 0.31712 0.46993 0.63414 0.70539 0.95084-0.23107 0.37887-0.41937 0.86299-0.52555 1.249-0.38772 0.0607-0.77608 0.11713-1.1643 0.17467-0.12922 0.019899-0.22452 0.13125-0.22428 0.262v1.7673c-2.4e-4 0.13075 0.0951 0.24207 0.22428 0.262 0.38948 0.0575 0.77855 0.11619 1.1679 0.17467 0.11463 0.42929 0.28938 0.8692 0.51624 1.2532-0.23297 0.31603-0.4661 0.63166-0.6997 0.94723-0.12384 0.16632-6e-3 0.32491 0.0563 0.37827 0.40662 0.40432 0.81192 0.81008 1.2175 1.2154 0.0929 0.0932 0.24022 0.10405 0.34571 0.0253 0.3181-0.23434 0.6355-0.46961 0.95292-0.70486 0.43962 0.25332 0.86087 0.42297 1.248 0.52296l0.17364 1.1663c0.019 0.13004 0.13057 0.22642 0.262 0.22634h1.7673c0.0727-3.97e-4 0.14202-0.0307 0.19172-0.0837 0.0201-0.0213 0.0365-0.0457 0.0486-0.0724 0.0411-0.0642 0.13457-0.82885 0.19534-1.2376 0.45476-0.11542 0.87091-0.31265 1.2542-0.51728l0.94723 0.70022c0.0457 0.0342 0.10112 0.0526 0.15813 0.0527 0.0704-2e-5 0.13793-0.0281 0.18758-0.078l1.2501-1.248c0.0932-0.0929 0.10404-0.24022 0.0253-0.34572l-0.70332-0.94877c0.2226-0.3848 0.40776-0.81516 0.52038-1.2511l0.94258-0.14211 0.20309-0.031c0.13861-0.01 0.24604-0.12511 0.24598-0.26407v-1.7673c-2.1e-4 -0.13876-0.10757-0.25378-0.24598-0.26355l-1.1482-0.17208c-0.11048-0.42983-0.29042-0.86776-0.51728-1.2542l0.68884-0.93121c0.0903-0.10494 0.0845-0.26175-0.0134-0.35967l-1.249-1.25c-0.039-0.0478-0.11587-0.0702-0.15238-0.0739-0.10191-0.0152-0.16646 0.0321-0.20254 0.0563zm-12.242-3.8628h1.324v1.5875h-1.324c-0.15116 0-0.26355-0.11446-0.26355-0.26562v-1.0583c0-0.15117 0.11239-0.26355 0.26355-0.26355zm1.8536 0h4.2323c0.15116 0 0.26561 0.11238 0.26561 0.26355v1.0583c0 0.15116-0.11445 0.26562-0.26561 0.26562h-4.2323zm-1.324 0.52865c-0.14613 0-0.26459 0.11845-0.26459 0.26458s0.11846 0.26458 0.26459 0.26458c0.14612 0 0.26458-0.11845 0.26458-0.26458s-0.11846-0.26458-0.26458-0.26458zm2.1167 5.107e-4c-0.14532 5.688e-4 -0.26298 0.11823-0.26355 0.26355-5.821e-4 0.14613 0.11743 0.26505 0.26355 0.26562h2.9099c0.14714 8.599e-4 0.26671-0.11848 0.26614-0.26562-5.9e-4 -0.14633-0.11981-0.2644-0.26614-0.26355zm-2.1172 1.588h5.0271v0.52917h-5.0271zm-0.52917 1.0563h1.324v1.588h-1.324c-0.15116 0-0.26355-0.11238-0.26355-0.26355v-1.0588c0-0.15116 0.11239-0.26561 0.26355-0.26561zm1.8536 0h4.2323c0.15116 0 0.26561 0.11445 0.26561 0.26561v1.0588c0 0.15117-0.11445 0.26355-0.26561 0.26355h-4.2323zm6.2224 0.00101 0.65629 0.00101h0.65422l0.16795 1.1131c0.0158 0.10734 0.0954 0.19418 0.20102 0.2191 0.6122 0.15102 1.0075 0.34563 1.4221 0.5917 0.0916 0.0577 0.20907 0.0538 0.29663-0.01l0.90847-0.67387c0.30969 0.30879 0.62004 0.61731 0.92759 0.92811l-0.66973 0.90383c-0.0645 0.0872-0.0692 0.20502-0.0119 0.29714 0.2741 0.43859 0.47198 0.9213 0.58601 1.4257 0.0244 0.10686 0.11214 0.18763 0.22066 0.20309l1.1172 0.16588v1.3105l-1.1131 0.16588c-0.10792 0.0161-0.19493 0.0967-0.21911 0.20309-0.11634 0.50399-0.31768 0.98481-0.59376 1.4221-0.058 0.0925-0.0533 0.21111 0.0119 0.29869l0.67179 0.90847-0.92552 0.92553-0.90641-0.66973c-0.0871-0.0643-0.20463-0.069-0.29662-0.0119-0.45635 0.27369-0.94454 0.47654-1.4263 0.58808-0.10543 0.0249-0.18507 0.11145-0.20102 0.21859l-0.16795 1.1172h-1.3105l-0.16589-1.1152c-0.0162-0.10772-0.0969-0.19448-0.20308-0.21859-0.41818-0.0967-0.8201-0.2555-1.1973-0.46509-0.0821-0.0454-0.15664-0.0856-0.22272-0.12712-0.0925-0.058-0.21112-0.0533-0.29869 0.0119l-0.91002 0.67179c-0.30869-0.3085-0.61745-0.61693-0.92605-0.92552 0.22269-0.30254 0.44638-0.60435 0.66973-0.90641 0.0643-0.0871 0.069-0.20462 0.011901-0.29662-0.27389-0.43827-0.47192-0.91999-0.58602-1.4242-0.024101-0.10624-0.11086-0.18684-0.21859-0.20309-0.37315-0.0557-0.74625-0.11169-1.1193-0.16795v-1.3105c0.37115-0.0557 0.74239-0.11081 1.1136-0.16588 0.10852-0.015499 0.19627-0.0962 0.22066-0.20309 0.16017-0.66623 0.30221-0.91752 0.59169-1.4221 0.058-0.0925 0.0533-0.21111-0.011901-0.29869-0.22286-0.30225-0.44692-0.60331-0.67076-0.90485l0.0517-0.0543h1.881c0.32152 0 0.59952-0.19582 0.72347-0.47336 0.29627-0.13754 0.59371-0.22739 0.89762-0.30592 0.10623-0.024101 0.18684-0.11087 0.20308-0.21859zm-5.4255 0.52813c-0.14714-5.821e-4 -0.26648 0.119-0.26562 0.26613 5.821e-4 0.14613 0.11949 0.26412 0.26562 0.26355h2.9058c0.14633 8.422e-4 0.26557-0.11722 0.26614-0.26355 8.732e-4 -0.14734-0.1188-0.267-0.26614-0.26613zm-2.1208 0.00101c-0.14613 0-0.26459 0.11846-0.26459 0.26458 0 0.14613 0.11846 0.26459 0.26459 0.26459 0.14612 0 0.26458-0.11846 0.26458-0.26459 0-0.14612-0.11846-0.26458-0.26458-0.26458zm8.2026 1.8526c-1.8965 0-3.4396 1.5431-3.4396 3.4396 0 1.8965 1.5431 3.4396 3.4396 3.4396 1.8965 0 3.4396-1.5431 3.4396-3.4396 0-1.8965-1.5431-3.4396-3.4396-3.4396zm2.9104 3.4396c0 1.2362-0.76723 2.2867-1.8516 2.7094v-1.142c0.65663-0.38073 1.0554-1.0772 1.0563-1.833-9.53e-4 -0.81607-0.47139-1.5602-1.2087-1.91-0.0389-0.018701-0.0819-0.0276-0.12506-0.025799-0.14165 7e-3 -0.25287 0.1238-0.25218 0.26561v1.4066c0 0.15115-0.11446 0.26355-0.26561 0.26355h-0.52917c-0.15116 0-0.26355-0.1124-0.26355-0.26355v-1.4067c7.938e-4 -0.19515-0.20274-0.32399-0.37879-0.23978-0.73713 0.34965-1.208 1.0941-1.2092 1.91 0.00101 0.74627 0.40244 1.4588 1.0578 1.8299l0.00101 1.1457c-1.0847-0.42253-1.8516-1.4734-1.8516-2.7099 0-1.6105 1.2994-2.9099 2.9099-2.9099 1.6105-1.5e-5 2.9104 1.2994 2.9104 2.9099zm-1.8516-1.4469c0.14981 0.13864 0.52052 0.52334 0.52916 1.1813-7.15e-4 0.61311-0.35451 1.1707-0.90847 1.4335-0.0917 0.0439-0.1502 0.13652-0.15038 0.23823v1.4537c-0.17175 0.0314-0.34816 0.0506-0.52916 0.0506-0.18101 0-0.35742-0.0192-0.52917-0.0506v-1.4537c2.501e-4 -0.10293-0.0592-0.19667-0.15245-0.2403-0.55381-0.26269-0.90552-0.81848-0.9064-1.4314-6e-3 -0.51222 0.27981-0.97455 0.52968-1.1808v0.91726c0 0.44069 0.35756 0.79271 0.79272 0.79271h0.52917c0.44318 0 0.7953-0.35755 0.7953-0.79271z" color="#000000" color-rendering="auto" dominant-baseline="auto" fill="#66a0fe" image-rendering="auto" shape-rendering="auto" solid-color="#000000" style="font-feature-settings:normal;font-variant-alternates:normal;font-variant-caps:normal;font-variant-ligatures:normal;font-variant-numeric:normal;font-variant-position:normal;isolation:auto;mix-blend-mode:normal;shape-padding:0;text-decoration-color:#000000;text-decoration-line:none;text-decoration-style:solid;text-indent:0;text-orientation:mixed;text-transform:none;white-space:normal"/>
</g>
</svg>
