<?xml version="1.0" encoding="UTF-8"?>
<svg width="64" height="64" version="1.1" viewBox="0 0 16.933 16.933" xmlns="http://www.w3.org/2000/svg" xmlns:cc="http://creativecommons.org/ns#" xmlns:dc="http://purl.org/dc/elements/1.1/" xmlns:rdf="http://www.w3.org/1999/02/22-rdf-syntax-ns#">
<metadata>
<rdf:RDF>
<cc:Work rdf:about="">
<dc:format>image/svg+xml</dc:format>
<dc:type rdf:resource="http://purl.org/dc/dcmitype/StillImage"/>
<dc:title/>
</cc:Work>
</rdf:RDF>
</metadata>
<g>
<path d="m6.6146 3.3072c0 0.5114-1.303 0.92598-2.9104 0.92598s-2.9104-0.41458-2.9104-0.92598 1.303-0.92598 2.9104-0.92598 2.9104 0.41458 2.9104 0.92598z" fill="#e2e7fa" style="paint-order:normal"/>
<path d="m6.0854 2.7766c1.4e-6 5.333e-4 1.4e-6 0.00107 0 0.0016 1.085e-4 0.51143-1.303 0.92604-2.9104 0.92604-0.94884-3.993e-4 -1.8375-0.14793-2.3812-0.39532 0.0025792 0.51082 1.3049 0.92449 2.9104 0.92449 1.6075-1.2e-6 2.9105-0.41461 2.9104-0.92604-0.0010853-0.18999-0.18583-0.37527-0.52916-0.53072z" fill="#c4d2f0" style="paint-order:normal"/>
<path d="m0.79375 3.4396v1.9844c0 0.51141 1.303 0.92604 2.9104 0.92604 1.6074 0 2.9104-0.41463 2.9104-0.92604v-1.9844h-0.0331c-0.2024 0.44851-1.4116 0.79375-2.8773 0.79375-1.4657 0-2.6749-0.34524-2.8773-0.79375z" fill="#e2e7fa" style="paint-order:normal"/>
<path d="m6.5815 3.4396c-0.0655 0.14516-0.24508 0.27742-0.49609 0.39274v1.0625c0 0.51141-1.303 0.92604-2.9104 0.92604-0.98649 0-1.8549-0.15697-2.3812-0.39584 2e-3 0.51094 1.3041 0.92501 2.9104 0.92501 1.6074 0 2.9104-0.41463 2.9104-0.92604v-1.9844z" fill="#c4d2f0" style="paint-order:normal"/>
<path d="m0.79375 5.5562v1.9844c0 0.51141 1.303 0.92604 2.9104 0.92604 1.6074 0 2.9104-0.41463 2.9104-0.92604v-1.9844h-0.0331c-0.2024 0.44851-1.4116 0.79375-2.8773 0.79375-1.4657 0-2.6749-0.34524-2.8773-0.79375z" fill="#a8c5f7" style="paint-order:normal"/>
<path d="m6.5815 5.5562c-0.0655 0.14516-0.24508 0.27742-0.49609 0.39274v1.0625c0 0.51141-1.303 0.92604-2.9104 0.92604-0.98649 0-1.8549-0.15697-2.3812-0.39584 2e-3 0.51094 1.3041 0.92501 2.9104 0.92501 1.6074 0 2.9104-0.41463 2.9104-0.92604v-1.9844z" fill="#91b8fb" style="paint-order:normal"/>
<path d="m0.79375 7.6729v1.9844c0 0.51141 1.303 0.92604 2.9104 0.92604 1.6074 0 2.9104-0.41463 2.9104-0.92604v-1.9844h-0.0331c-0.2024 0.44851-1.4117 0.79375-2.8773 0.79375s-2.675-0.34524-2.8774-0.79375z" fill="#e2e7fa" style="paint-order:normal"/>
<path d="m6.5815 7.6729c-0.0655 0.14516-0.24508 0.27742-0.49609 0.39274v1.0625c0 0.51141-1.303 0.92604-2.9104 0.92604-0.98649 0-1.8549-0.15697-2.3812-0.39584 2e-3 0.51094 1.3041 0.92501 2.9104 0.92501 1.6074 0 2.9104-0.41463 2.9104-0.92604v-1.9844z" fill="#c4d2f0" style="paint-order:normal"/>
<path d="m16.14 7.276c0 0.5114-1.303 0.92598-2.9104 0.92598-1.6074 1e-7 -2.9104-0.41458-2.9104-0.92598s1.303-0.92598 2.9104-0.92598c1.6074-1e-7 2.9104 0.41458 2.9104 0.92598z" fill="#e2e7fa" style="paint-order:normal"/>
<path d="m15.61 6.7453c1e-6 5.333e-4 1e-6 0.00107 0 0.0016 1.08e-4 0.51143-1.303 0.92604-2.9104 0.92604-0.94884-3.993e-4 -1.8375-0.14793-2.3812-0.39532 0.0026 0.51082 1.3049 0.92449 2.9104 0.92449 1.6075-1.2e-6 2.9105-0.41461 2.9104-0.92604-0.0011-0.18999-0.18582-0.37527-0.52916-0.53072z" fill="#c4d2f0" style="paint-order:normal"/>
<path transform="scale(.26458)" d="m50 24c-6.0751 0-11 1.5671-11 3.5s4.9249 3.5 11 3.5c0.34257 0 0.66542-0.023454 1-0.033203-5.5988-0.16314-10-1.6429-10-3.4668 0-1.8239 4.4012-3.3056 10-3.4688-0.33457-0.009749-0.65744-0.03125-1-0.03125z" fill="#f8f8f8" style="paint-order:normal"/>
<path d="m10.319 7.4083v1.9844c0 0.51141 1.303 0.92604 2.9104 0.92604 1.6074 0 2.9104-0.41463 2.9104-0.92604v-1.9844h-0.0331c-0.2024 0.44851-1.4116 0.79375-2.8773 0.79375-1.4657 0-2.6749-0.34524-2.8773-0.79375z" fill="#e2e7fa" style="paint-order:normal"/>
<path d="m16.107 7.4083c-0.0655 0.14516-0.24508 0.27742-0.49609 0.39274v1.0625c0 0.51141-1.303 0.92604-2.9104 0.92604-0.98649 0-1.8549-0.15697-2.3812-0.39584 2e-3 0.51094 1.3041 0.92501 2.9104 0.92501 1.6074 0 2.9104-0.41463 2.9104-0.92604v-1.9844z" fill="#c4d2f0" style="paint-order:normal"/>
<path d="m10.319 9.525v1.9844c0 0.51141 1.303 0.92604 2.9104 0.92604 1.6074 0 2.9104-0.41463 2.9104-0.92604v-1.9844h-0.0331c-0.2024 0.44851-1.4116 0.79375-2.8773 0.79375-1.4657 0-2.6749-0.34524-2.8773-0.79375z" fill="#a8c5f7" style="paint-order:normal"/>
<path d="m16.107 9.525c-0.0655 0.14516-0.24508 0.27742-0.49609 0.39274v1.0625c0 0.51141-1.303 0.92604-2.9104 0.92604-0.98649 0-1.8549-0.15697-2.3812-0.39584 2e-3 0.51094 1.3041 0.92501 2.9104 0.92501 1.6074 0 2.9104-0.41463 2.9104-0.92604v-1.9844z" fill="#91b8fb" style="paint-order:normal"/>
<path d="m10.286 7.4083v1.9844c0 0.51141 1.303 0.92604 2.9104 0.92604 0.09063 0 0.17606-0.0057 0.26458-0.0083-1.4814-0.04317-2.6458-0.4352-2.6458-0.91777v-1.5916c-0.25101-0.11532-0.43058-0.24758-0.49609-0.39274z" fill="#f8f8f8" style="paint-order:normal"/>
<path d="m10.319 11.642v1.9844c0 0.51141 1.303 0.92604 2.9104 0.92604 1.6074 0 2.9104-0.41463 2.9104-0.92604v-1.9844h-0.0331c-0.2024 0.44851-1.4117 0.79375-2.8773 0.79375s-2.675-0.34524-2.8774-0.79375z" fill="#e2e7fa" style="paint-order:normal"/>
<path d="m10.286 9.525v1.9844c0 0.51141 1.303 0.92604 2.9104 0.92604 0.09063 0 0.17606-0.0057 0.26458-0.0083-1.4814-0.04317-2.6458-0.4352-2.6458-0.91777v-1.5916c-0.25101-0.11532-0.43059-0.24758-0.49609-0.39274z" fill="#f8f8f8" style="paint-order:normal"/>
<path d="m16.107 11.642c-0.0655 0.14516-0.24508 0.27742-0.49609 0.39274v1.0625c0 0.51141-1.303 0.92604-2.9104 0.92604-0.98649 0-1.8549-0.15697-2.3812-0.39584 2e-3 0.51094 1.3041 0.92501 2.9104 0.92501 1.6074 0 2.9104-0.41463 2.9104-0.92604v-1.9844z" fill="#c4d2f0" style="paint-order:normal"/>
<path transform="scale(.26458)" d="m3 13v7.5c0 1.9329 4.9249 3.5 11 3.5 0.34256 0 0.66543-0.0215 1-0.03125-5.5988-0.16316-10-1.6449-10-3.4688v-6.0156c-0.9487-0.43587-1.6274-0.93572-1.875-1.4844z" fill="#f8f8f8" style="paint-order:normal"/>
<path d="m0.79375 5.5562v1.9844c0 0.51141 1.303 0.92604 2.9104 0.92604 0.090635 0 0.17606-0.00569 0.26458-0.00827-1.4814-0.043168-2.6458-0.4352-2.6458-0.91777v-1.5916c-0.25101-0.11532-0.43059-0.24758-0.49609-0.39274z" fill="#f8f8f8" style="paint-order:normal"/>
<path d="m0.79375 7.6729v1.9844c0 0.51141 1.303 0.92604 2.9104 0.92604 0.090635 0 0.17606-0.0057 0.26458-0.0083-1.4814-0.043138-2.6458-0.43517-2.6458-0.91774v-1.5916c-0.25101-0.11532-0.43059-0.24758-0.49609-0.39274z" fill="#f8f8f8" style="paint-order:normal"/>
<path d="m10.286 11.642v1.9844c0 0.51141 1.303 0.92604 2.9104 0.92604 0.09064 0 0.17606-0.0057 0.26458-0.0083-1.4814-0.04314-2.6458-0.43517-2.6458-0.91774v-1.5916c-0.25101-0.11532-0.43059-0.24758-0.49609-0.39274z" fill="#f8f8f8" style="paint-order:normal"/>
<path transform="scale(.26458)" d="m14 9c-6.0751 0-11 1.5671-11 3.5s4.9249 3.5 11 3.5c0.34257 0 0.66542-0.023454 1-0.033203-5.5988-0.16314-10-1.6429-10-3.4668 0-1.8239 4.4012-3.3056 10-3.4688-0.33457-0.0097485-0.65744-0.03125-1-0.03125z" fill="#f8f8f8" style="paint-order:normal"/>
<path d="m7.9375 0.52923c-0.068042-0.001815-0.13811 0.036743-0.1602 0.053743l-1.0583 0.79477c-0.14008 0.10589-0.14008 0.31629 0 0.42219l1.0583 0.79477c0.11695 0.088199 0.28325 0.064489 0.37104-0.05271 0.088102-0.11698 0.064494-0.28323-0.05271-0.37103l-0.4284-0.32091 4.7687 5.16e-4c0.29775 2e-5 0.52968 0.23137 0.52968 0.52916v3.7145c-0.71954 0.019899-1.3716 0.11512-1.8738 0.27491-0.28188 0.089699-0.51903 0.19724-0.70332 0.33589-0.212 0.1609-0.33384 0.34569-0.33384 0.5705 4e-3 2.1236 0 4.2308 0 6.3525 0 0.24024 0.14954 0.43186 0.33383 0.5705 0.18428 0.13865 0.42144 0.2462 0.70332 0.33589 0.56375 0.17939 1.3104 0.28318 2.1368 0.28318 0.82646 0 1.5746-0.1038 2.1384-0.28318 0.28188-0.0897 0.51903-0.19724 0.70332-0.33589 0.18432-0.13863 0.33384-0.33025 0.33384-0.5705-4e-3 -2.1239 0-4.2304 0-6.3525 0-0.2494-0.19066-0.46295-0.33384-0.57102-0.18428-0.13865-0.42144-0.2462-0.70332-0.33589-0.50172-0.15966-1.1537-0.25488-1.8728-0.27491v-3.7139c1.3e-5 -0.58184-0.47708-1.0588-1.0588-1.0588l-4.7594-5.159e-4 0.41961-0.31419c0.11724-0.087799 0.14088-0.25405 0.05271-0.37103-0.049801-0.066399-0.128-0.10583-0.21084-0.10594zm-4.2338 1.5875c-0.82669 2.1e-4 -1.5732 0.10384-2.1368 0.28318-0.28188 0.089699-0.51903 0.19725-0.70332 0.33589-0.21333 0.15358-0.33435 0.33683-0.33435 0.57102 4e-3 2.1236 0 4.2308 0 6.3525 0 0.24026 0.14954 0.43134 0.33383 0.56998 0.18429 0.13864 0.42144 0.24619 0.70332 0.33589 0.5019 0.15971 1.1542 0.25494 1.8733 0.27492v3.7134c1.699e-4 0.58184 0.47658 1.0595 1.0583 1.0594l4.7615-1e-3 -0.42116 0.31522c-0.11727 0.0878-0.14089 0.25404-0.05271 0.37103 0.0878 0.11729 0.25406 0.14092 0.37104 0.05271l1.0588-0.79529c0.1398-0.1059 0.1398-0.31578 0-0.42167l-1.0588-0.79477c-0.0467-0.035-0.10338-0.05403-0.16175-0.05323-0.0823 7.41e-4 -0.15982 0.04018-0.20929 0.10594-0.088202 0.11699-0.06459 0.28324 0.05271 0.37103l0.42685 0.31935-4.7672 1e-3c-0.29774 8.5e-5 -0.52909-0.23188-0.52917-0.52967v-3.7134c0.71947-0.01993 1.3713-0.1152 1.8733-0.27492 0.28188-0.0897 0.51903-0.19726 0.70332-0.33589 0.18431-0.13864 0.33435-0.32973 0.33435-0.56998-4e-3 -2.1239 0-4.2304 0-6.3525 0-0.21901-0.1804-0.46671-0.33435-0.57102-0.18427-0.13864-0.42144-0.24619-0.70332-0.33589-0.56363-0.17935-1.3117-0.28329-2.1384-0.28318zm0 0.52916c0.78097 0 1.4885 0.10257 1.9782 0.25838 0.24483 0.077899 0.43491 0.17077 0.54519 0.25373 0.11024 0.082999 0.12299 0.13333 0.12299 0.14883 0 0.015499-0.012697 0.067377-0.12299 0.15038-0.11027 0.082999-0.30036 0.17376-0.54519 0.25166-0.48964 0.15581-1.1972 0.25993-1.9782 0.25993-0.78097 0-1.487-0.10412-1.9766-0.25993-0.24482-0.077899-0.43491-0.1687-0.54519-0.25166-0.11027-0.082998-0.12299-0.13489-0.12299-0.15038 0-0.015499 0.012696-0.065867 0.12299-0.14883 0.11027-0.082999 0.30037-0.17582 0.54519-0.25373 0.48965-0.15581 1.1956-0.25838 1.9766-0.25838zm-2.6448 1.356c0.14764 0.081598 0.31641 0.15194 0.50798 0.2129 0.56375 0.17939 1.3104 0.28318 2.1368 0.28318 0.82647 0 1.5746-0.1038 2.1384-0.28318 0.19134-0.060899 0.36043-0.13087 0.50798-0.21239v1.4216c0 0.015499-0.012697 0.06537-0.12299 0.14831-0.11027 0.082999-0.30036 0.17635-0.54519 0.25424-0.48964 0.15581-1.1972 0.25993-1.9782 0.25993-0.78096 0-1.487-0.10412-1.9766-0.25993-0.24482-0.077898-0.43491-0.17128-0.54519-0.25424-0.11027-0.082998-0.12299-0.13281-0.12299-0.14831zm0.79323 0.76067c-0.14613 0-0.26458 0.11842-0.26458 0.26458 0 0.14615 0.11845 0.26458 0.26458 0.26458 0.14613 0 0.26458-0.11843 0.26458-0.26458 0-0.14616-0.11845-0.26458-0.26458-0.26458zm3.7068 0.052192c-0.023006 2.91e-4 -0.046013 0.0033-0.068213 0.0093-0.49186 0.12928-1.13 0.2036-1.787 0.2036-0.26093 0-0.51926-0.013057-0.76946-0.035656-0.14574-0.013099-0.27448 0.094455-0.28732 0.24029-0.0132 0.14504 0.093293 0.27341 0.23823 0.28732 0.26679 0.024101 0.54209 0.037207 0.81855 0.037207 0.69609 0 1.3705-0.075758 1.9218-0.22066 0.14159-0.037596 0.22568-0.18304 0.18759-0.32452-0.030601-0.11553-0.13476-0.19637-0.25425-0.19688zm-4.5 1.3048c0.14761 0.080999 0.31645 0.1499 0.50798 0.21084 0.56375 0.17939 1.3104 0.28525 2.1368 0.28525 0.82646 0 1.5746-0.10586 2.1384-0.28525 0.1914-0.060899 0.36041-0.12987 0.50798-0.21084v1.4221c0 0.015499-0.012697 0.06537-0.12299 0.14831-0.11027 0.082999-0.30036 0.17583-0.54519 0.25373-0.48964 0.15581-1.1972 0.25786-1.9782 0.25786-0.78096 0-1.487-0.10205-1.9766-0.25786-0.24482-0.077899-0.43491-0.17076-0.54519-0.25373-0.11027-0.082999-0.12299-0.13281-0.12299-0.14831zm11.907 0.50435v0.52089c5.03e-4 0.14545 0.11812 0.26305 0.26355 0.26355 0.14617 5.821e-4 0.26512-0.11734 0.26562-0.26355v-0.52089c0.67305 0.020399 1.28 0.11143 1.7126 0.24908 0.24482 0.077899 0.43492 0.17077 0.54519 0.25373 0.11027 0.082999 0.12299 0.13333 0.12299 0.14883 0 0.015499-0.0127 0.067367-0.12299 0.15038-0.11027 0.082999-0.30037 0.17375-0.54519 0.25166-0.48965 0.15581-1.1972 0.25993-1.9782 0.25993-0.78098 0-1.4875-0.10412-1.9771-0.25993-0.24482-0.077899-0.43491-0.1687-0.54519-0.25166-0.11027-0.082999-0.12299-0.13488-0.12299-0.15038 0-0.015499 0.0127-0.065867 0.12299-0.14883 0.11027-0.082999 0.30037-0.17583 0.54519-0.25373 0.43299-0.13779 1.04-0.22876 1.7136-0.24908zm-11.114 0.25579c-0.14613 0-0.26458 0.11843-0.26458 0.26458s0.11845 0.26458 0.26458 0.26458c0.14613 0 0.26458-0.11843 0.26458-0.26458s-0.11845-0.26458-0.26458-0.26458zm3.7068 0.052709c-0.023006-5.029e-4 -0.045913 0.00177-0.068213 0.00775-0.49186 0.12928-1.13 0.20309-1.787 0.20309-0.26094-1e-5 -0.51926-0.010988-0.76946-0.033589-0.14574-0.013099-0.27448 0.094972-0.28732 0.24081-0.0132 0.14504 0.093293 0.27342 0.23823 0.28732 0.26679 0.0241 0.54208 0.035139 0.81855 0.035139 0.69609 0 1.3705-0.076274 1.9218-0.22117 0.14056-0.037596 0.22437-0.18165 0.18759-0.32245-0.030601-0.11553-0.13475-0.1961-0.25425-0.19688zm5.025 1.0382c0.14764 0.081599 0.3164 0.15194 0.50798 0.2129 0.56375 0.17939 1.3109 0.28318 2.1373 0.28318 0.82646 0 1.5746-0.1038 2.1384-0.28318 0.19136-0.060899 0.36044-0.13087 0.50798-0.21239v1.4221c0 0.015499-0.0127 0.065371-0.12299 0.14831-0.11027 0.082999-0.30037 0.17582-0.54519 0.25373-0.48965 0.15581-1.1972 0.25993-1.9782 0.25993-0.78096 0-1.4875-0.10412-1.9771-0.25993-0.24482-0.077899-0.43491-0.17077-0.54519-0.25373-0.11027-0.082999-0.12299-0.13281-0.12299-0.14831zm-9.525 0.26458c0.14763 0.081598 0.31643 0.15144 0.50798 0.21239 0.56375 0.17939 1.3104 0.2837 2.1368 0.2837 0.82646 0 1.5746-0.10431 2.1384-0.2837 0.19142-0.060899 0.3604-0.13083 0.50798-0.21239v1.4242c0 0.015499-0.012697 0.06537-0.12299 0.14831-0.11027 0.082999-0.30036 0.17583-0.54519 0.25373-0.48964 0.15581-1.1972 0.25786-1.9782 0.25786-0.78096 0-1.487-0.10205-1.9766-0.25786-0.24482-0.077899-0.43491-0.17077-0.54519-0.25373-0.11027-0.082999-0.12299-0.13281-0.12299-0.14831zm10.318 0.4966c-0.14613 0-0.26458 0.11843-0.26458 0.26458 0 0.14615 0.11845 0.26458 0.26458 0.26458s0.26458-0.11843 0.26458-0.26458c0-0.14615-0.11846-0.26458-0.26458-0.26458zm3.7073 0.051675v5.291e-4c-0.023 1.199e-4 -0.04601 0.00279-0.06821 0.00878-0.49185 0.12928-1.13 0.2036-1.787 0.2036-0.26093 0-0.51927-0.013057-0.76946-0.035656-0.14576-0.013099-0.27448 0.094454-0.28732 0.24029-0.0132 0.14504 0.0933 0.27341 0.23823 0.28732 0.26679 0.024101 0.54209 0.037207 0.81856 0.037207 0.69609 0 1.3705-0.075757 1.9218-0.22066 0.14158-0.0376 0.22568-0.18306 0.18758-0.32452-0.030602-0.11553-0.13476-0.19619-0.25425-0.19688zm-13.232 0.21342c-0.14613 0-0.26458 0.11843-0.26458 0.26458 0 0.14615 0.11845 0.26458 0.26458 0.26458 0.14613 0 0.26458-0.11843 0.26458-0.26458 0-0.14615-0.11845-0.26458-0.26458-0.26458zm3.7068 0.053227c-0.023-3.969e-4 -0.045913 0.00177-0.068213 0.00775-0.49186 0.12928-1.13 0.20309-1.787 0.20309-0.26094-1.01e-5 -0.51926-0.010991-0.76946-0.033589-0.14574-0.013099-0.27448 0.094544-0.28732 0.24029-0.0132 0.14503 0.093293 0.27341 0.23823 0.28732 0.26679 0.024101 0.54208 0.03514 0.81855 0.03514 0.69609 0 1.3705-0.075757 1.9218-0.22066 0.14056-0.037601 0.22437-0.18165 0.18759-0.32246-0.030601-0.11553-0.13476-0.19618-0.25425-0.19688zm5.025 1.0382c0.14761 0.081 0.31645 0.14989 0.50798 0.21084 0.56375 0.17939 1.3109 0.28525 2.1373 0.28525 0.82646 0 1.5746-0.10586 2.1384-0.28525 0.1914-0.0609 0.36042-0.12987 0.50798-0.21084v1.4221c0 0.0155-0.0127 0.06589-0.12299 0.14883-0.11027 0.083-0.30037 0.17582-0.54519 0.25373-0.48965 0.15581-1.1972 0.25786-1.9782 0.25786-0.78096 0-1.4875-0.10206-1.9771-0.25786-0.24482-0.0779-0.43491-0.17077-0.54519-0.25373-0.11027-0.083-0.12299-0.13333-0.12299-0.14883zm0.79323 0.76015c-0.14613 0-0.26458 0.11843-0.26458 0.26458 0 0.14616 0.11845 0.26458 0.26458 0.26458s0.26458-0.11842 0.26458-0.26458c0-0.14615-0.11845-0.26458-0.26458-0.26458zm3.7073 0.05271c-0.023-3.71e-4 -0.04591 0.0023-0.06821 0.0083-0.49185 0.12928-1.13 0.20309-1.787 0.20309-0.26093-1e-5 -0.51928-0.01099-0.76946-0.03359-0.14576-0.0131-0.27448 0.09446-0.28732 0.24029-0.0132 0.14503 0.0933 0.27341 0.23823 0.28732 0.26679 0.0241 0.54208 0.03514 0.81856 0.03514 0.69609 0 1.3705-0.07576 1.9218-0.22066 0.14055-0.0376 0.22437-0.18165 0.18758-0.32246-0.0306-0.11553-0.13475-0.19619-0.25425-0.19688zm-4.5005 1.3033c0.14763 0.0816 0.31643 0.15144 0.50798 0.21239 0.56375 0.17939 1.3109 0.28318 2.1373 0.28318 0.82646 0 1.5746-0.1038 2.1384-0.28318 0.19142-0.0609 0.36041-0.13083 0.50798-0.21239v1.4237c0 0.0155-0.0127 0.06537-0.12299 0.14831-0.11027 0.083-0.30037 0.17582-0.54519 0.25373-0.48965 0.15581-1.1972 0.25786-1.9782 0.25786-0.78096 0-1.4875-0.10206-1.9771-0.25786-0.24482-0.0779-0.43491-0.17076-0.54519-0.25373-0.11027-0.083-0.12299-0.13281-0.12299-0.14831zm0.79323 0.76118c-0.14613 0-0.26458 0.11842-0.26458 0.26458 0 0.14615 0.11845 0.26458 0.26458 0.26458s0.26458-0.11843 0.26458-0.26458c0-0.14616-0.11845-0.26458-0.26458-0.26458zm3.7073 0.05323c-0.023-3.71e-4 -0.04591 0.0017-0.06821 0.0078-0.49185 0.12928-1.13 0.20309-1.787 0.20309-0.26093-1.1e-5 -0.51928-0.01099-0.76946-0.03359-0.14576-0.0131-0.27448 0.09497-0.28732 0.24081-0.0132 0.14504 0.0933 0.27341 0.23823 0.28732 0.26679 0.0241 0.54208 0.03514 0.81856 0.03514 0.69609 1e-5 1.3705-0.07628 1.9218-0.22117 0.14055-0.0376 0.22437-0.18165 0.18758-0.32246-0.0306-0.11553-0.13475-0.19619-0.25425-0.19688z" color="#000000" color-rendering="auto" dominant-baseline="auto" fill="#66a0fe" image-rendering="auto" shape-rendering="auto" solid-color="#000000" style="font-feature-settings:normal;font-variant-alternates:normal;font-variant-caps:normal;font-variant-ligatures:normal;font-variant-numeric:normal;font-variant-position:normal;isolation:auto;mix-blend-mode:normal;shape-padding:0;text-decoration-color:#000000;text-decoration-line:none;text-decoration-style:solid;text-indent:0;text-orientation:mixed;text-transform:none;white-space:normal"/>
</g>
</svg>
