<?xml version="1.0" encoding="UTF-8"?>
<svg width="64" height="64" version="1.1" viewBox="0 0 16.933 16.933" xmlns="http://www.w3.org/2000/svg" xmlns:cc="http://creativecommons.org/ns#" xmlns:dc="http://purl.org/dc/elements/1.1/" xmlns:rdf="http://www.w3.org/1999/02/22-rdf-syntax-ns#">
<metadata>
<rdf:RDF>
<cc:Work rdf:about="">
<dc:format>image/svg+xml</dc:format>
<dc:type rdf:resource="http://purl.org/dc/dcmitype/StillImage"/>
<dc:title/>
</cc:Work>
</rdf:RDF>
</metadata>
<g>
<path d="m1.5875 10.319h11.111c0.43974 0 0.79375 0.35401 0.79375 0.79375v2.1167c0 0.43974-0.35401 0.79375-0.79375 0.79375h-11.111c-0.43974 0-0.79375-0.35401-0.79375-0.79375v-2.1167c0-0.43974 0.35401-0.79375 0.79375-0.79375z" fill="#a8c5f7"/>
<path d="m12.926 10.355c0.02175 0.0726 0.03669 0.14803 0.03669 0.22789v2.1167c0 0.43974-0.35401 0.79375-0.79375 0.79375h-11.111c-0.0799 0-0.15529-0.01494-0.22789-0.03669 0.098 0.32715 0.39719 0.56586 0.75706 0.56586h11.111c0.43974 0 0.79375-0.35401 0.79375-0.79375v-2.1167c0-0.35997-0.23858-0.65915-0.56586-0.75706z" fill="#91b8fb"/>
<path d="m1.5875 5.5562h11.111c0.43974 0 0.79375 0.35401 0.79375 0.79375v2.1167c0 0.43974-0.35401 0.79375-0.79375 0.79375h-11.111c-0.43974 0-0.79375-0.35401-0.79375-0.79375v-2.1167c0-0.43974 0.35401-0.79375 0.79375-0.79375z" fill="#a8c5f7"/>
<path d="m12.926 5.5929c0.02175 0.0726 0.03669 0.14803 0.03669 0.22789v2.1167c0 0.43974-0.35401 0.79375-0.79375 0.79375h-11.111c-0.0799 0-0.15529-0.01494-0.22789-0.03669 0.098 0.32715 0.39719 0.56586 0.75706 0.56586h11.111c0.43974 0 0.79375-0.35401 0.79375-0.79375v-2.1167c0-0.35997-0.23858-0.65915-0.56586-0.75706z" fill="#91b8fb"/>
<path d="m1.8521 9.2604h10.319v1.0583h-10.319z" fill="#e2e7fa"/>
<path d="m1.8521 4.4979h10.319v1.0583h-10.319z" fill="#e2e7fa"/>
<path d="m1.5875 0.79375h11.111c0.43974 0 0.79375 0.35401 0.79375 0.79375v2.1167c0 0.43974-0.35401 0.79375-0.79375 0.79375h-11.111c-0.43974 0-0.79375-0.35401-0.79375-0.79375v-2.1167c0-0.43974 0.35401-0.79375 0.79375-0.79375z" fill="#a8c5f7"/>
<path d="m3.4396 12.171c-3e-7 0.29225-0.23692 0.52916-0.52917 0.52916s-0.52917-0.23692-0.52917-0.52916 0.23692-0.52917 0.52917-0.52917 0.52917 0.23692 0.52917 0.52917z" fill="#e2e7fa"/>
<path d="m3.4396 7.4083c0 0.29225-0.23692 0.52917-0.52917 0.52917s-0.52917-0.23692-0.52917-0.52917 0.23692-0.52917 0.52917-0.52917 0.52917 0.23692 0.52917 0.52917z" fill="#e2e7fa"/>
<path d="m12.926 0.83044c0.02175 0.0726 0.03669 0.14803 0.03669 0.22789v2.1167c0 0.43974-0.35401 0.79375-0.79375 0.79375h-11.111c-0.0799 0-0.15529-0.01494-0.22789-0.03669 0.098 0.32715 0.39719 0.56586 0.75706 0.56586h11.111c0.43974 0 0.79375-0.35401 0.79375-0.79375v-2.1167c0-0.35997-0.23858-0.65915-0.56586-0.75706z" fill="#91b8fb"/>
<path d="m3.4396 2.6458c0 0.29225-0.23692 0.52917-0.52917 0.52917s-0.52917-0.23692-0.52917-0.52917 0.23692-0.52917 0.52917-0.52917 0.52917 0.23692 0.52917 0.52917z" fill="#e2e7fa"/>
<path d="m16.14 7.4198c0 6.3385-4.4979 8.7197-4.4979 8.7197s-4.4979-2.3812-4.4979-8.7197l4.4979-0.80525z" fill="#e2e7fa"/>
<path d="m11.642 6.6146-0.26458 0.04754 4.2333 0.75758c0 5.4189-3.2794 7.9391-4.2333 8.5581 0.16188 0.10506 0.26458 0.16175 0.26458 0.16175s4.4979-2.3814 4.4979-8.7199z" fill="#c4d2f0"/>
<path d="m14.288 8.6942c0 3.8735-2.6458 5.3287-2.6458 5.3287s-2.6458-1.4552-2.6458-5.3287l2.6458-0.4921z" fill="#a8c5f7"/>
<path d="m11.642 8.2021-0.26458 0.04909 2.3812 0.44287c0 3.1456-1.7254 4.6772-2.3812 5.149 0.15178 0.10919 0.26458 0.17983 0.26458 0.17983s2.6458-1.4553 2.6458-5.3289z" fill="#91b8fb"/>
<path transform="scale(.26458)" d="m6 3c-1.662 0-3 1.338-3 3v8c0 1.662 1.338 3 3 3h2c-1.662 0-3-1.338-3-3v-8c0-1.662 1.338-3 3-3h-2z" fill="#f8f8f8"/>
<path d="m1.5875 5.5562c-0.43974 0-0.79375 0.35401-0.79375 0.79375v2.1167c0 0.43974 0.35401 0.79375 0.79375 0.79375h0.52917c-0.43974 0-0.79375-0.35401-0.79375-0.79375v-2.1167c0-0.43974 0.35401-0.79375 0.79375-0.79375z" fill="#f8f8f8"/>
<path d="m1.5875 10.319c-0.43974 0-0.79375 0.35401-0.79375 0.79375v2.1167c0 0.43974 0.35401 0.79375 0.79375 0.79375h0.52917c-0.43974 0-0.79375-0.35401-0.79375-0.79375v-2.1167c0-0.43974 0.35401-0.79375 0.79375-0.79375z" fill="#f8f8f8"/>
<path transform="scale(.26458)" d="m44 31-10 1.8594c0 14.64 10 20.141 10 20.141s0.14347-0.090357 0.2207-0.13672c-2.826-2.2575-8.3926-8.0876-8.3926-19.014l10-1.8613 8.1582 1.5176c0.00444-0.21568 0.013672-0.4267 0.013672-0.64648l-10-1.8594z" fill="#f8f8f8"/>
<path transform="scale(.26458)" d="m44 25-17 3.043c0 23.957 17 32.957 17 32.957s0.23009-0.13863 0.33594-0.19922c-4.5126-3.2643-14.938-12.822-14.938-31.607l17-3.0449 14.586 2.6133c0.003498-0.24113 0.015625-0.47452 0.015625-0.71875l-17-3.043z" fill="#f8f8f8"/>
<path d="m0.52917 1.588v2.1156c0 0.59001 0.47711 1.0589 1.0589 1.0588v0.52865c-0.58174 0-1.0589 0.47659-1.0589 1.0583v2.1172c0 0.58156 0.47683 1.0586 1.0583 1.0588v0.52865c-0.59079 2.91e-4 -1.0583 0.4778-1.0583 1.0594v2.1151c0 0.59001 0.47711 1.0589 1.0589 1.0588l7.5701-5.29e-4c1.1722 1.459 2.3595 2.0862 2.3595 2.0862 0.03878 0.02059 0.0814 0.03102 0.12402 0.03102 0.04262 0 0.08524-0.01043 0.12402-0.03101 0 0 4.6385-2.4485 4.6385-8.9535-3.97e-4 -0.12813-0.0924-0.23721-0.21859-0.25942l-2.4272-0.43563v-0.37517c1e-6 -0.58174-0.47246-1.0583-1.0594-1.0583h-0.26355v-0.52865c0.08819 9e-6 0.17639-8e-6 0.26458 0 0.58174 3.89e-5 1.0583-0.46884 1.0583-1.0589v-2.1156c0-0.58174-0.46729-1.0589-1.0583-1.0589-3.704 8.79e-4 -7.408 3.67e-4 -11.112 1.5e-6 -0.59104 5e-7 -1.0589 0.47711-1.0589 1.0589zm1.0589-0.5302c1.0578 2.511e-4 2.1156-6e-5 3.1734 0v3.1755c-1.0411 7.89e-5 -2.0598 0-3.1734 0-0.2905 1.99e-5 -0.52917-0.23195-0.52917-0.52968v-2.1156c0-0.29773 0.2366-0.53023 0.52917-0.5302zm3.7031 0c2.4696 8.2e-5 4.9392 2.451e-4 7.4089 0 0.29257-2.5e-5 0.52917 0.23247 0.52917 0.5302v2.1156c0 0.29773-0.23867 0.5297-0.52917 0.52968-2.6298-5.556e-4 -4.9926-1.891e-4 -7.4089 0zm-2.3818 0.79375c-0.44351 0-0.79272 0.35954-0.79272 0.79478 0 0.43524 0.35127 0.79323 0.79272 0.79323s0.7953-0.35799 0.7953-0.79323c0-0.43524-0.35179-0.79478-0.7953-0.79478zm0 0.52917c0.14306 0 0.26613 0.11636 0.26613 0.26562 0 0.14926-0.12411 0.26355-0.26613 0.26355s-0.26355-0.11429-0.26355-0.26355c0-0.14926 0.12049-0.26562 0.26355-0.26562zm3.1765 0c-0.36069-8e-3 -0.36069 0.53716 0 0.52917h5.8203c0.36069 8e-3 0.36069-0.53716 0-0.52917zm-3.9687 2.3818c3.263-5.821e-4 6.526-3.175e-4 9.7891 0v0.52865h-9.7891zm-0.52917 1.0578h3.1745v3.176h-3.1745c-0.29773 0-0.52917-0.23195-0.52917-0.52968v-2.1172c0-0.29773 0.23143-0.52917 0.52917-0.52917zm3.7036 0h7.4073c0.2874 0 0.5302 0.23143 0.5302 0.52917v0.2806l-1.5415-0.27647c-0.01518-0.0027-0.03059-0.0036-0.04599-0.0036-0.01541-9.8e-6 -0.03081 9.525e-4 -0.04599 0.0036l-4.4152 0.79117c-8e-3 -5.821e-4 -0.02824-0.00101-0.03669-0.00101h-1.0583c-0.35286 0-0.35286 0.52917 0 0.52917h0.79633c0.0087 0.46173 0.04021 0.90313 0.0925 1.3234h-1.6826zm-2.3823 0.79427c-0.44351 0-0.79323 0.35954-0.79323 0.79478s0.35179 0.79272 0.79323 0.79272 0.79478-0.35748 0.79478-0.79272-0.35127-0.79478-0.79478-0.79478zm8.7312 0.2682h2e-3l4.2302 0.75758c-0.08929 5.7953-4.106 8.1119-4.2313 8.1933-0.12524-0.08136-4.142-2.398-4.2313-8.1933zm-8.7312 0.26097c0.14306 0 0.26562 0.11636 0.26562 0.26562s-0.12359 0.26355-0.26562 0.26355-0.26407-0.11429-0.26407-0.26355 0.12101-0.26562 0.26407-0.26562zm8.7323 0.79427c-0.01592-1e-4 -0.03185 8.467e-4 -0.04754 0.0036l-2.6469 0.49196c-0.12541 0.02304-0.21629 0.13242-0.21652 0.25993 0 4.0354 2.7833 5.5604 2.7833 5.5604 0.03981 0.02198 0.08358 0.03307 0.12764 0.03307 0.04406 0 0.08783-0.01109 0.12764-0.03307 0 0 2.7833-1.525 2.7833-5.5604-2.35e-4 -0.12751-0.09111-0.23689-0.21652-0.25993l-2.6469-0.49196c-0.01569-0.0028-0.03162-0.0037-0.04754-0.0036zm-1e-3 0.53278h2e-3l2.3766 0.44132c-0.08129 3.2755-2.1729 4.6587-2.3776 4.7961-0.20475-0.13742-2.2963-1.5206-2.3776-4.7961zm-9.524 1.0547h4.9361c0.0308 0.18031 0.06493 0.35688 0.10284 0.52917l-5.039-5.29e-4zm2.6458 1.0583v3.1745h-3.1745c-0.2905 2e-5 -0.52917-0.23195-0.52917-0.52968v-2.1151c0-0.29773 0.2366-0.53022 0.52916-0.53021zm0.52917 0h1.9937c0.12893 0.47305 0.28323 0.91336 0.45579 1.3224h-1.6557c-0.35286 0-0.35286 0.52917 0 0.52917h1.8965c0.24064 0.49023 0.50489 0.93115 0.77825 1.3224l-3.4685 5.29e-4zm-2.3823 0.7922c-0.44351 0-0.79323 0.35954-0.79323 0.79478s0.35179 0.79272 0.79323 0.79272 0.79478-0.35747 0.79478-0.79272-0.35127-0.79478-0.79478-0.79478zm0 0.52917c0.14306 0 0.26562 0.11636 0.26562 0.26562s-0.12359 0.26355-0.26562 0.26355-0.26355-0.11429-0.26355-0.26355 0.12049-0.26562 0.26355-0.26562z" color="#000000" color-rendering="auto" dominant-baseline="auto" fill="#66a0fe" image-rendering="auto" shape-rendering="auto" solid-color="#000000" style="font-feature-settings:normal;font-variant-alternates:normal;font-variant-caps:normal;font-variant-ligatures:normal;font-variant-numeric:normal;font-variant-position:normal;isolation:auto;mix-blend-mode:normal;shape-padding:0;text-decoration-color:#000000;text-decoration-line:none;text-decoration-style:solid;text-indent:0;text-orientation:mixed;text-transform:none;white-space:normal"/>
</g>
</svg>
