<?xml version="1.0" encoding="UTF-8" standalone="no"?> <svg id="Layer_1" data-name="Layer 1" xmlns="http://www.w3.org/2000/svg" viewBox="0 0 128 128"><defs><style>.cls-1{fill:#2d3e50;}.cls-2{fill:#1d75b8;}</style></defs><title>a</title><path class="cls-1" d="M108.75815,45.44162a2.96618,2.96618,0,0,0-2.21335.62113L82.6095,64.64016,77.46084,60.629,58.71644,46.08468a3.02747,3.02747,0,1,0-3.71253,4.78321L70.86724,63.19214,54.88194,77.27737a2.98133,2.98133,0,0,0-.30184,4.27379l.00284.00327a3.06177,3.06177,0,0,0,2.26648,1.02562,2.94368,2.94368,0,0,0,2.016-.77451l16.8581-14.85581L80.73343,70.835a2.99027,2.99027,0,0,0,1.875.64164,3.04469,3.04469,0,0,0,1.86689-.63511l5.19076-4.0218,16.6817,14.95988a2.94233,2.94233,0,0,0,2.01984.778,3.05259,3.05259,0,0,0,2.26943-1.00642,3.04446,3.04446,0,0,0-.23518-4.27706L94.54223,63.043,110.25678,50.8463a3.015,3.015,0,0,0,1.157-2.03479,2.96724,2.96724,0,0,0-.62071-2.213A3.014,3.014,0,0,0,108.75815,45.44162Z"/><path class="cls-2" d="M30.69744,61.09372H13.40367a2.90628,2.90628,0,1,0,0,5.81256H30.69744a2.90628,2.90628,0,1,0,0-5.81256Z"/><path class="cls-2" d="M30.69744,47.50621H4.63669A2.9126,2.9126,0,0,0,1.73047,50.427a2.94431,2.94431,0,0,0,2.90622,2.89191H30.69744a2.90634,2.90634,0,0,0,0-5.81268Z"/><path class="cls-2" d="M30.69744,74.68111H19.3124a2.90634,2.90634,0,1,0,0,5.81268h11.385a2.90634,2.90634,0,1,0,0-5.81268Z"/><path class="cls-1" d="M117.61186,31.80235H47.64172a8.6676,8.6676,0,0,0-8.65779,8.65779V87.54a8.66758,8.66758,0,0,0,8.65779,8.65768h69.97014A8.66755,8.66755,0,0,0,126.26953,87.54V40.46014A8.66758,8.66758,0,0,0,117.61186,31.80235ZM121.46571,87.54a3.85807,3.85807,0,0,1-3.85385,3.85385H47.64172a3.85817,3.85817,0,0,1-3.854-3.85385V40.46014a3.85827,3.85827,0,0,1,3.854-3.854h69.97014a3.85817,3.85817,0,0,1,3.85385,3.854Z"/></svg>