<svg xmlns="http://www.w3.org/2000/svg" width="50" height="50"><path d="M25 2C12.31 2 2 12.31 2 25s10.31 23 23 23 23-10.31 23-23S37.69 2 25 2zm0 2c11.61 0 21 9.39 21 21s-9.39 21-21 21S4 36.61 4 25 13.39 4 25 4zm5.693 10.059c-3.6 0-6.54 2.94-6.54 6.539 0 .025.007.049.007.074-3.814-.508-7.188-2.39-9.506-5.233a1 1 0 00-1.638.13 6.532 6.532 0 00-.885 3.288c0 1.063.296 2.05.748 2.94a1 1 0 00-.793.976v.07c0 1.935.905 3.61 2.246 4.81a1 1 0 00-.26 1.025c.559 1.737 1.86 3.096 3.49 3.863-1.304.61-2.7 1.047-4.242 1.047-.41 0-.81-.023-1.2-.07a1 1 0 00-.66 1.836A16.675 16.675 0 0020.49 38c5.37 0 9.616-2.256 12.453-5.475 2.838-3.218 4.31-7.372 4.31-11.285 0-.117-.005-.23-.007-.345.974-.782 1.89-1.645 2.584-2.684a1 1 0 00-1.125-1.512c.162-.314.39-.587.5-.93a1 1 0 00-1.46-1.165c-.875.518-1.858.86-2.876 1.097-1.143-.974-2.564-1.642-4.176-1.642zm0 2c1.313 0 2.485.548 3.313 1.431a1 1 0 00.922.3c.152-.03.274-.128.424-.163-.019.011-.03.032-.05.043a1 1 0 00.53 1.857c-.069.053-.11.135-.18.186a1 1 0 00-.414.853c.01.225.016.45.016.674 0 3.405-1.314 7.132-3.81 9.963C28.946 34.035 25.308 36 20.49 36c-1.653 0-3.208-.33-4.69-.832 1.843-.39 3.587-1.043 5.016-2.164a1 1 0 00-.597-1.785c-1.416-.026-2.506-.827-3.32-1.86.299-.038.608-.04.894-.119a1 1 0 00-.068-1.945c-1.652-.333-2.94-1.572-3.413-3.174.426.102.798.331 1.25.346a1 1 0 00.588-1.83 4.527 4.527 0 01-2.02-3.78c0-.327.176-.586.241-.892 2.84 2.812 6.62 4.678 10.877 4.892a1 1 0 001.023-1.228 4.465 4.465 0 01-.119-1.031 4.525 4.525 0 014.541-4.54z"/></svg>